<?xml version="1.0" encoding="utf-8"?>
<!-- Generator: Adobe Illustrator 27.6.1, SVG Export Plug-In . SVG Version: 6.00 Build 0)  -->
<svg version="1.1" id="Calque_1" xmlns="http://www.w3.org/2000/svg" xmlns:xlink="http://www.w3.org/1999/xlink" x="0px" y="0px"
	 viewBox="0 0 304.4 139.6" style="enable-background:new 0 0 304.4 139.6;" xml:space="preserve">
<style type="text/css">
	.st0{opacity:0.37;}
	.st1{clip-path:url(#SVGID_00000132088054727976151900000002303403437617212575_);fill:#1F1525;}
	.st2{fill:#907D61;}
	.st3{fill:#D1B483;}
	.st4{fill:#F0D8B7;}
	.st5{opacity:0.22;}
	.st6{clip-path:url(#SVGID_00000145038000737371539910000013621821095756697739_);fill:#FFFFFF;}
	.st7{fill:#FFFFFF;}
	.st8{fill:#1C3C47;}
</style>
<g>
	<g class="st0">
		<g>
			<defs>
				<rect id="SVGID_1_" x="31.39" y="34.11" width="250.14" height="80.34"/>
			</defs>
			<clipPath id="SVGID_00000026135451922936575970000011219080112691828391_">
				<use xlink:href="#SVGID_1_"  style="overflow:visible;"/>
			</clipPath>
			<path style="clip-path:url(#SVGID_00000026135451922936575970000011219080112691828391_);fill:#1F1525;" d="M271.1,38.53
				c-5.88-4.71-16.95-3.57-24.32-3.75c-13.54-0.34-27.08-0.45-40.62-0.54c-33.21-0.21-66.43-0.15-99.64-0.03
				c-12.13,0.04-24.26,0.1-36.39,0.17c-3.74,0.02-8.1,0-12.51,0.33c-10.09,0.76-20.49,3.38-24.48,12.71
				c-3.14,7.34-1.23,17.87-0.42,25.48c1.17,10.93,1.13,26.29,10.2,34.14c4.27,3.69,11.06,3.27,16.51,3.68
				c14.42,1.08,28.89,1.63,43.34,2.11c35.41,1.17,70.88,1.69,106.31,1.36c14.08-0.13,30.43,1.45,44.25-2
				c17.27-4.32,21.59-5.76,23.03-14.39c1.66-9.98,2.68-20.09,3.88-30.13c0.59-4.95,1.77-10.17,1.08-15.12
				C280.41,46.09,275.95,42.42,271.1,38.53"/>
		</g>
	</g>
	<path class="st2" d="M51.45,25.99c-10.09,0.76-20.49,3.38-24.48,12.71c-3.14,7.34-1.23,17.87-0.42,25.48
		c1.17,10.93,1.13,26.29,10.2,34.14c4.27,3.69,11.06,3.27,16.51,3.68c14.42,1.09,28.89,1.63,43.34,2.1
		c35.41,1.17,70.88,1.69,106.31,1.36c14.08-0.13,30.43,1.45,44.25-2c17.27-4.32,21.59-5.76,23.03-14.39
		c1.66-9.98,2.68-20.09,3.88-30.13c0.59-4.95,1.77-10.17,1.08-15.12c-0.9-6.45-5.36-10.12-10.21-14.01
		c-5.88-4.72-16.95-3.57-24.32-3.75c-13.54-0.34-27.08-0.45-40.62-0.53c-33.21-0.21-66.42-0.15-99.64-0.03
		c-12.13,0.05-24.26,0.1-36.39,0.18C60.22,25.69,55.87,25.66,51.45,25.99"/>
	<path class="st3" d="M271.15,51.98c-0.17,1.18-0.34,2.38-0.48,3.54c-0.27,2.26-0.53,4.52-0.8,6.78
		c-0.87,7.64-1.78,15.53-3.07,23.19c-1.03,6.17-2.95,7.24-20.48,11.63c-7.62,1.92-16.15,2.16-22.73,2.16
		c-3.24,0-6.47-0.07-9.68-0.14c-3.14-0.05-6.23-0.12-9.25-0.12h-1.8c-7,0.07-14.03,0.1-21.03,0.1c-22.25,0-45.42-0.32-69.1-0.98
		c-5.31-0.14-10.65-0.31-16.01-0.48c-13.82-0.46-28.53-0.99-43.21-2.09c-0.98-0.09-2-0.12-3.05-0.17
		c-4.35-0.21-8.85-0.41-11.47-2.69c-6.75-5.84-7.72-17.07-8.58-27.01c-0.15-1.7-0.29-3.34-0.46-4.9c-0.1-1.06-0.24-2.19-0.38-3.34
		c-0.8-6.66-1.82-14.95,0.55-20.43c2.72-6.37,9.57-9.74,21.58-10.63c3.75-0.29,7.52-0.31,10.84-0.33h1.44
		c12.13-0.07,24.27-0.14,36.39-0.17c17.47-0.07,34.94-0.12,52.41-0.12c17.07,0,32.51,0.05,47.2,0.14
		c9.88,0.07,19.61,0.15,29.32,0.31c3.75,0.05,7.48,0.14,11.24,0.22c0.7,0.03,1.44,0.03,2.21,0.03c0,0,3.89-0.03,4.71-0.03
		c6.03,0,12.06,0.38,15.35,3c5.12,4.13,8.29,6.97,8.96,11.82C272.22,44.62,271.7,48.19,271.15,51.98"/>
	<path class="st4" d="M40.3,89.24c1.4,1.06,3.13,1.55,4.84,1.96c16.44,3.92,33.69,1.38,50.53,2.81c8.52,0.72,16.94,2.46,25.47,3.02
		c14.95,0.99,29.93-1.65,44.91-1.4c7.35,0.12,14.68,0.94,22.02,1.32c23.26,1.19,46.49-2.07,69.56-5.33c2.1-0.3,4.35-0.67,5.84-2.18
		c1.11-1.13,1.61-2.72,2-4.26c1.62-6.39,2.14-13.06,1.53-19.62c-0.09-0.99-0.24-2.06-0.93-2.77c-0.66-0.69-1.67-0.89-2.6-1.07
		c-8.61-1.58-17.58-3.16-26.02-0.83c-4.09,1.12-7.87,3.12-11.79,4.72c-20.08,8.18-42.85,5.6-64.04,1.01
		c-5.92-1.28-11.92-2.72-17.97-2.36c-4.97,0.3-9.79,1.81-14.68,2.73c-10.37,1.96-21.03,1.3-31.56,1.96
		c-12.47,0.78-24.81,3.42-37.34,3.26c-4.5-0.06-9.55,0.08-13.84-1.45c-4.87-1.73-11.46-3.74-11.64,3.45
		C34.45,78.82,36.5,86.36,40.3,89.24"/>
	<path class="st4" d="M255.38,29.54c4.17,0.45,8.53,2.18,10.64,5.81c3.18,5.47,2.07,15.67,0.21,21.39
		c-0.28-3.28-0.57-6.56-0.85-9.84c-0.23-2.62-0.47-5.28-1.4-7.74c-1.75-4.59-5.26-8-10.07-8.93c-2.55-0.5-5.14-0.69-7.74-0.63
		C249.19,29.25,252.36,29.22,255.38,29.54"/>
	<g class="st5">
		<g>
			<defs>
				<rect id="SVGID_00000180362904855964569540000000842850538687070124_" x="28.65" y="25.79" width="200.64" height="72.36"/>
			</defs>
			<clipPath id="SVGID_00000142867830422184743990000015760875456606945458_">
				<use xlink:href="#SVGID_00000180362904855964569540000000842850538687070124_"  style="overflow:visible;"/>
			</clipPath>
			<path style="clip-path:url(#SVGID_00000142867830422184743990000015760875456606945458_);fill:#FFFFFF;" d="M229.3,26.24
				c-14.01,3.37-27.52,8.67-40.42,15.45c-22.64,11.94-42.93,27.86-62.22,44.7c-4.57,3.99-9.13,8.05-13.92,11.77
				c-5.31-0.14-10.65-0.31-16.01-0.48c-13.82-0.46-28.53-0.99-43.21-2.09c-0.98-0.09-2-0.12-3.05-0.17
				c-4.35-0.2-8.85-0.41-11.47-2.69c-6.75-5.84-7.72-17.08-8.58-27.01c-0.15-1.7-0.29-3.34-0.46-4.9c-0.1-1.06-0.24-2.19-0.38-3.34
				c-0.8-6.66-1.81-14.95,0.55-20.43c2.72-6.37,9.57-9.75,21.58-10.64c3.75-0.29,7.52-0.31,10.84-0.33h1.44
				c12.13-0.07,24.27-0.14,36.39-0.17c17.47-0.07,34.94-0.12,52.41-0.12c17.07,0,32.51,0.05,47.2,0.14
				C209.86,26,219.59,26.09,229.3,26.24"/>
		</g>
	</g>
	<path class="st7" d="M35.3,62.03c-0.31-7.33,0.51-13.89,2.81-20.88c0.84-2.55-3.25-3.69-4.03-1.11
		c-2.14,7.08-2.04,15.12,0.56,22.08C34.77,62.45,35.32,62.43,35.3,62.03"/>
	<path class="st7" d="M40.07,36.54c2.91,0,2.91-4.52,0-4.52C37.16,32.02,37.15,36.54,40.07,36.54"/>
	<path class="st7" d="M41.16,89.16c-2.22-3.52-4.05-7.11-4.3-11.34c-0.06-0.96-1.58-0.96-1.5,0c0.38,4.45,1.99,8.78,5.63,11.51
		C41.09,89.4,41.22,89.26,41.16,89.16"/>
	<path class="st7" d="M46.04,33.74c17.52,1.08,35.62-1.34,53.12-2.46c17.87-1.15,35.41-1.74,53.3-0.6
		c35.04,2.23,70.25,2.2,105.34,3.03c2.89,0.07,2.9-4.47,0-4.5c-35.62-0.34-71.32-0.11-106.89-2.06
		c-17.37-0.95-34.42-0.13-51.75,1.13c-17.58,1.27-35.9,1.33-53.21,4.81C45.57,33.16,45.68,33.71,46.04,33.74"/>
	<path class="st7" d="M265.49,38.45c0.79-1.93,0.07-4.25-1.18-5.78c-0.68-0.84-2.08-0.58-2.68,0.18c-0.65,0.85-0.42,2.08,0.5,2.63
		c0.64,0.38,1.15,0.8,1.72,1.27c0.63,0.51,0.92,1.07,1.36,1.73C265.3,38.59,265.45,38.56,265.49,38.45"/>
</g>
<g>
	<path class="st8" d="M98.34,53.79c-0.41,0.07-0.7,0.27-0.88,0.59c-0.17,0.33-0.21,0.69-0.1,1.11c0.1,0.38,0.28,0.76,0.54,1.13
		c0.26,0.38,0.5,0.67,0.72,0.88c0.22,0.21,0.56,0.5,1,0.88c0.45,0.38,0.74,0.64,0.88,0.77c0.96,0.89,1.64,1.52,2.03,1.88
		c0.39,0.36,1.06,1.03,2.01,2.01c0.94,0.98,1.62,1.76,2.03,2.34c0.41,0.58,0.93,1.38,1.57,2.39c0.63,1.01,1.05,1.9,1.24,2.68
		c0.19,0.77,0.28,1.66,0.28,2.65c0,1-0.17,1.96-0.52,2.88c-1.41,3.78-4.93,5.85-10.56,6.23c-3.71,0.24-7.67-0.22-11.89-1.39
		c0.48-5.49,0.84-9.63,1.08-12.41c6.01,2.57,9.17,3.6,9.47,3.09c0.14-0.27-0.36-0.89-1.49-1.85c-1.27-1.06-2.28-1.94-3.04-2.63
		c-0.76-0.69-1.59-1.58-2.5-2.68c-0.91-1.1-1.66-2.2-2.24-3.29c-0.72-1.44-1.23-2.93-1.52-4.45c-0.29-1.53-0.25-3.09,0.13-4.69
		c0.38-1.6,1.15-2.91,2.32-3.94c2.61-2.33,6.39-3.21,11.33-2.63c1.65,0.21,3.19,0.62,4.63,1.24c1.44,0.62,2.61,1.34,3.5,2.16
		c0.89,0.82,1.54,1.46,1.93,1.91c0.39,0.45,0.7,0.84,0.9,1.18c-1.41,1.27-3.52,3.19-6.33,5.77c-0.69-0.79-1.3-1.44-1.83-1.96
		c-0.53-0.51-1.26-1-2.19-1.44C99.93,53.76,99.09,53.62,98.34,53.79z"/>
	<path class="st8" d="M128.2,54.36c0.41,9.17,1.08,18.12,2.01,26.88c-1.44,0-3.63-0.02-6.57-0.05c-2.93-0.03-5.14-0.05-6.62-0.05
		c1.27-8.38,2.25-16.82,2.94-25.33c-2.99,0.65-5.87,1.39-8.65,2.21c0.03-1.44,0.09-3.56,0.15-6.36c0.07-2.8,0.12-4.88,0.15-6.26
		c3.5,0.86,7.04,1.36,10.61,1.49c4.77,0.17,9.49-0.33,14.16-1.49v8.03C134.06,53.6,131.33,53.91,128.2,54.36z"/>
	<path class="st8" d="M162.29,63.83c0.07,1.17,0.16,2.9,0.28,5.2c0.12,2.3,0.21,4.02,0.28,5.15c-0.28,0-0.66-0.01-1.16-0.03
		c-0.5-0.02-0.85-0.03-1.05-0.03c0.82,2.78,1.53,5.15,2.11,7.11c-1.48,0.03-3.39,0.06-5.74,0.08s-4.06,0.04-5.12,0.08
		c-0.21-2.3-0.45-4.84-0.72-7.62c-1.68-0.03-3.4-0.05-5.15-0.05c-0.31,2.85-0.55,5.41-0.72,7.67c-5.25-0.07-9.2-0.12-11.84-0.15
		c0.69-2.23,1.42-4.74,2.21-7.52c-0.21,0-0.51,0.01-0.9,0.03c-0.4,0.02-0.7,0.03-0.9,0.03l-0.36-5.87c0.21,0,1.51-0.14,3.91-0.41
		c0.34-1.27,1.21-4.6,2.6-9.99s2.38-9.32,2.96-11.79h10.25c1.1,4.67,2.68,10.95,4.74,18.85C160.16,64.21,161.6,63.97,162.29,63.83z
		 M146.84,66.3c1.1-0.17,2.25-0.34,3.45-0.51c-0.48-4.12-1.05-8.46-1.7-13.03C147.98,57.02,147.39,61.53,146.84,66.3z"/>
	<path class="st8" d="M181.8,68.16c2.23,3.47,4.87,7.55,7.93,12.25c-1.06,0.72-2.66,1.8-4.79,3.24c-2.13,1.44-3.72,2.5-4.79,3.19
		c-0.69-1.61-1.71-4.03-3.06-7.26c-1.36-3.23-2.38-5.65-3.06-7.26c-0.03,0.96-0.08,2.44-0.13,4.43c-0.05,1.99-0.1,3.48-0.13,4.48
		h-7.42c-0.17-2.88-0.7-8.82-1.6-17.82c-0.89-8.99-1.53-14.9-1.91-17.71c1.48-0.03,3.67-0.06,6.59-0.08
		c2.92-0.02,5.11-0.04,6.59-0.08c0,0.17-0.02,0.42-0.05,0.75s-0.07,0.58-0.1,0.75c2.4-1.3,4.69-1.72,6.85-1.24
		c2.3,0.51,4,1.78,5.1,3.78s1.54,4.25,1.34,6.72c-0.17,2.33-0.93,4.52-2.27,6.57S183.86,66.68,181.8,68.16z M178.1,55.85
		c-0.62-0.75-1.58-1.13-2.88-1.13c-0.14,1.68-0.36,4.67-0.67,8.96c1.44-0.58,2.5-1.46,3.19-2.63c0.27-0.51,0.51-1.07,0.7-1.67
		c0.19-0.6,0.26-1.24,0.23-1.91C178.63,56.8,178.44,56.26,178.1,55.85z"/>
	<path class="st8" d="M206.93,54.36c0.41,9.17,1.08,18.12,2.01,26.88c-1.44,0-3.63-0.02-6.56-0.05c-2.94-0.03-5.14-0.05-6.62-0.05
		c1.27-8.38,2.25-16.82,2.94-25.33c-2.99,0.65-5.87,1.39-8.65,2.21c0.03-1.44,0.08-3.56,0.15-6.36c0.07-2.8,0.12-4.88,0.15-6.26
		c3.5,0.86,7.04,1.36,10.61,1.49c4.77,0.17,9.49-0.33,14.16-1.49v8.03C212.78,53.6,210.05,53.91,206.93,54.36z"/>
</g>
</svg>
