<?xml version="1.0" encoding="utf-8"?>
<!-- Generator: Adobe Illustrator 27.6.1, SVG Export Plug-In . SVG Version: 6.00 Build 0)  -->
<svg version="1.1" id="Layer_1" xmlns="http://www.w3.org/2000/svg" xmlns:xlink="http://www.w3.org/1999/xlink" x="0px" y="0px"
	 viewBox="0 0 354.15 240.58" style="enable-background:new 0 0 354.15 240.58;" xml:space="preserve">
<style type="text/css">
	.st0{fill:#FFFFFF;}
	.st1{fill:#F1F1F1;}
	.st2{fill:#E2E2E2;}
	.st3{fill:#D4D4D4;}
	.st4{fill:#C5C5C5;}
	.st5{fill:#B7B7B7;}
	.st6{fill:#A8A8A8;}
	.st7{fill:#9A9A9A;}
	.st8{fill:#8B8B8B;}
	.st9{fill:#7D7D7D;}
	.st10{fill:#6E6E6E;}
	.st11{fill:#606060;}
	.st12{fill:#2E2E2D;}
	.st13{fill:#525251;}
	.st14{opacity:0.6;}
	.st15{fill:#C8C8C8;}
	.st16{opacity:0.5;}
	.st17{fill:#AD9BA8;}
	.st18{fill:#C4C4C4;}
	.st19{opacity:0.3;}
	.st20{opacity:0.7;fill:#AD9BA8;}
	.st21{opacity:0.5;fill:#FFFFFF;}
	.st22{opacity:0.6;fill:#C8C8C8;}
	.st23{fill:#616160;}
	.st24{fill:#030300;}
	.st25{fill:#6B6A69;}
	.st26{fill:none;}
	.st27{fill:#292A28;}
	.st28{fill:#F598A5;}
	.st29{fill:#747575;}
	.st30{fill:#F59C00;}
	.st31{fill:#1D1D1B;}
	.st32{fill:#665E63;}
</style>
<g>
	<g>
		<path class="st0" d="M238.21,207.84c-0.88,0.15-1.77,0.23-2.65,0.2c-0.57-0.02-1.02-0.07-1.35-0.13
			c-0.78-2.44-2.13-8.11-2.76-14.56c0.91,1.76,1.84,3.48,2.76,5.18l0.25,0.47c1.31,2.44,2.67,4.96,3.85,7.39
			C238.36,206.59,238.28,207.27,238.21,207.84z M344.31,79.69c-1.65-0.79-3.64-0.75-5.34,0.23c-0.29,0.17-0.71,0.38-1.06,0.38h0
			c-3.01-0.09-8.97-9.8-12.88-16.44c4.3-11.21,8.72-36.75,5.71-43.77c-0.86-2.05-2.42-3.49-4.42-4.06c-0.71-0.2-1.54-0.32-2.58-0.36
			c-0.15,0-0.31-0.01-0.48-0.01c-6.86,0-25.78,4.36-39.93,17.08c-5.85-2.16-11.93-3.35-18.11-3.54c-8.44-0.27-15.17,1.34-19.3,2.7
			c-3.73-3.81-9.31-8.23-11.26-9.75c-12.7-9.91-15.99-10.01-17.46-10.05c-0.03,0-0.11,0-0.14,0c-0.73,0-1.43,0.11-2.09,0.33
			c-0.04,0.01-0.08,0.03-0.12,0.04c-12.53,4.55-12.51,35.33-11.66,46.53c-4.16,5.37-8.49,8.31-12.31,8.31l-0.27,0
			c-1.55-0.04-2.54-0.56-2.69-0.65c-1.98-1.22-4.63-1.09-6.55,0.45c-1.9,1.57-2.57,4.16-1.66,6.44l0,0c0.24,0.62,1.1,2.56,2.88,4.44
			c-1.28,2.63-1.43,4.95-1.43,5.86v0.1c0,0.14,0.01,0.29,0.02,0.43c0.11,1.26,0.63,2.44,1.46,3.36c-5.97-2.66-12.34-4.08-19.26-4.29
			c-2.97-0.08-6.08,0.05-9.22,0.41c-11.74,1.35-27,9.81-35.34,25.69c-7.27,3.15-13.58,5.05-18.76,5.65c-3.61,0.42-6.75,0.59-9.6,0.5
			c-18.84-0.58-25.21-12.89-28.98-31.2c-0.01-0.07-0.03-0.13-0.04-0.2c-7.11-28.44-22.31-31.96-28.51-32.16
			c-1.26-0.04-2.53,0.04-3.78,0.23c-8.42,1.27-13.65,8.18-13.84,14.13c-0.19,5.56,3.61,10.01,9.73,11.36
			c0.68,0.14,1.4,0.22,2.44,0.27c0.78,0.02,1.66,0,2.49-0.03l0.12,0c0.83-0.02,1.63-0.04,2.63-0.01c3.18,0.1,7.98,0.25,9.75,10.92
			c1.38,8.39,4.45,20.57,11.27,30.94c8.73,13.28,21.06,20.26,36.64,20.74c6.62,0.2,13.89-0.83,21.69-3.1
			c-0.18,4.17-0.04,7.68,0.07,10.56c0.11,2.76,0.24,6.2-0.21,6.87c0,0-0.08,0.09-0.37,0.23l-0.96,0.48
			c-9.23,4.53-15.6,9.47-13.58,31.78c1.81,20.07,4.77,39.85,19.09,42.01c0.15,0.02,0.3,0.04,0.45,0.05
			c0.76,0.04,1.47,0.06,2.14,0.06c4.45,0,7.45-0.84,9.4-1.76c9.22-0.22,12.36-5.53,13.37-9.99c0.8-3.59,0.12-7.12-1.87-9.66
			c-1.66-2.15-4.1-3.38-6.7-3.38c-0.6,0-1.2,0.07-1.78,0.2c-0.85-0.26-1.76-0.41-2.7-0.44c-0.82-0.02-1.61,0.04-2.33,0.17
			c-0.96-0.96-2.05-2.5-2.32-4.63c-0.68-5.22,3.66-12.74,11.99-20.93c0.27,2.38,0.58,4.82,0.94,7.32
			c1.94,13.59,12.73,23.3,28.2,25.44c0.59,0.17,1.23,0.27,1.92,0.3c0.05,0,0.17,0,0.22,0c3.69,0,7.63-2.72,10.04-6.95
			c2.08-3.69,2.42-7.64,0.99-11.05c-0.16-1.92-0.92-3.77-2.21-5.33c-2.68-3.21-6.84-4.45-9.81-4.54l-0.51-0.01
			c-0.58,0-1.23,0.03-1.91,0.07c-0.58,0.03-1.18,0.06-1.78,0.06c-0.15,0-0.3,0-0.47-0.01c-0.03,0-0.05,0-0.08,0
			c-0.25-3.84,0.29-11.32,1.46-16.54c10.78,6.89,26.84,13.1,34.99,15.63c4.47,14.84,10.47,32.25,18.15,41.75
			c6.16,7.58,19.26,8.54,23.12,8.66c0.51,0.02,1.02,0.03,1.53,0.03c0.65,0,1.3-0.01,1.95-0.04c0.05,0,0.11-0.01,0.17-0.01
			c4.1-0.29,6.9-1.5,8.62-2.56c1.73-0.36,3.83-1.42,5.32-4.18c0.7-0.55,1.34-1.23,1.91-2.03c0.48-0.68,0.9-1.43,1.24-2.23
			c3.95-0.51,9.25-1.89,12.48-5.55c1.99-2.27,2.85-5.11,2.4-8.04c-1.07-6.63-6.49-9.31-10.13-11.11c-0.75-0.37-1.41-0.69-1.95-1.02
			c-2.72-1.62-3.4-4.01-4.57-8.91l-0.06-0.24c-0.13-0.56-0.27-1.13-0.41-1.64c-1.56-6.31-0.51-13.5,0.49-20.4l0.05-0.32
			c0.02-0.15,0.05-0.31,0.07-0.46c2.42-1.19,4.67-2.52,6.75-3.97c9.79-6.88,14.37-16.12,12.93-26.05c-0.02-0.23-0.06-0.45-0.11-0.68
			c0.34-0.24,0.63-0.47,0.89-0.68c3.85-1.15,16.73-5.08,29.87-9.88c16.05-5.86,23.67-13.51,27.25-19.79
			c0.05,0.02,0.11,0.04,0.16,0.06c0.04,0.02,0.09,0.03,0.13,0.04c0.57,0.19,1.17,0.28,1.77,0.28c1.7,0,3.29-0.75,4.3-1.99
			c2.79-3.28,3.35-6.83,2.73-9.92c0.23-0.24,0.45-0.48,0.65-0.74c1.22-1.52,2.56-4.15,2.05-8
			C347.21,82.17,346.06,80.55,344.31,79.69z"/>
		<path class="st1" d="M237.63,207.02c-0.88,0.15-1.77,0.22-2.65,0.19c-0.57-0.02-1.02-0.07-1.34-0.13
			c-0.78-2.44-2.13-8.11-2.76-14.56c0.91,1.76,1.84,3.48,2.76,5.18l0.25,0.47c1.31,2.44,2.67,4.96,3.85,7.39
			C237.78,205.77,237.7,206.44,237.63,207.02z M343.73,78.86c-1.65-0.8-3.64-0.76-5.34,0.23c-0.29,0.17-0.71,0.38-1.06,0.38h0
			c-3-0.09-8.97-9.8-12.88-16.44c4.3-11.21,8.7-36.74,5.71-43.77c-0.87-2.05-2.42-3.5-4.42-4.06c-0.71-0.2-1.54-0.32-2.58-0.36
			c-0.15-0.01-0.31-0.01-0.48-0.01c-6.86,0-25.78,4.36-39.93,17.08c-5.85-2.17-11.93-3.35-18.11-3.54
			c-8.44-0.27-15.17,1.34-19.3,2.7c-3.73-3.81-9.31-8.23-11.26-9.75c-12.7-9.91-15.99-10.01-17.46-10.05c-0.03,0-0.11,0-0.14,0
			c-0.73,0-1.43,0.12-2.09,0.33c-0.04,0.01-0.08,0.03-0.12,0.04c-12.53,4.55-12.51,35.33-11.66,46.53
			c-4.16,5.37-8.49,8.31-12.31,8.31l-0.27,0c-1.55-0.04-2.54-0.56-2.69-0.65c-1.98-1.22-4.64-1.1-6.54,0.45
			c-1.91,1.56-2.57,4.16-1.66,6.44l0,0c0.25,0.62,1.1,2.56,2.88,4.44c-1.28,2.63-1.43,4.95-1.43,5.86v0.1
			c0,0.14,0.01,0.29,0.02,0.43c0.11,1.26,0.63,2.44,1.46,3.36c-5.97-2.66-12.34-4.08-19.26-4.29c-2.97-0.08-6.08,0.05-9.22,0.41
			c-11.74,1.35-27,9.81-35.34,25.69c-7.27,3.15-13.58,5.05-18.76,5.65c-3.61,0.42-6.75,0.59-9.6,0.5
			c-18.84-0.59-25.14-12.91-28.98-31.2c-0.01-0.07-0.03-0.13-0.05-0.2c-7.25-28.41-22.31-31.95-28.51-32.16
			c-1.25-0.04-2.53,0.04-3.78,0.23c-8.42,1.27-13.65,8.18-13.84,14.13c-0.19,5.56,3.61,10.04,9.73,11.36
			c0.68,0.15,1.4,0.23,2.44,0.27c0.78,0.03,1.66,0,2.49-0.03l0.12,0c0.83-0.02,1.63-0.04,2.63-0.01c3.18,0.11,7.98,0.25,9.75,10.92
			c1.38,8.39,4.45,20.57,11.27,30.94c8.73,13.28,21.06,20.26,36.64,20.74c6.62,0.2,13.89-0.83,21.69-3.1
			c-0.18,4.17-0.04,7.68,0.07,10.56c0.11,2.76,0.24,6.2-0.21,6.88c0,0-0.08,0.09-0.37,0.23l-0.96,0.48
			c-9.23,4.53-15.6,9.47-13.58,31.78c1.81,20.07,4.76,39.88,19.09,42.01c0.15,0.02,0.3,0.04,0.45,0.05
			c0.76,0.04,1.47,0.06,2.14,0.06c4.45,0,7.45-0.84,9.4-1.76c9.22-0.22,12.36-5.53,13.37-9.99c0.8-3.59,0.11-7.11-1.87-9.66
			c-1.67-2.14-4.1-3.38-6.7-3.38c-0.6,0-1.2,0.07-1.78,0.2c-0.85-0.26-1.76-0.41-2.7-0.44c-0.82-0.02-1.61,0.04-2.33,0.17
			c-0.96-0.96-2.05-2.5-2.32-4.63c-0.68-5.22,3.66-12.74,11.99-20.93c0.27,2.38,0.58,4.82,0.94,7.32
			c1.94,13.59,12.73,23.3,28.2,25.44c0.59,0.17,1.23,0.27,1.92,0.3c0.05,0,0.17,0,0.22,0c3.69,0,7.64-2.71,10.04-6.95
			c2.09-3.69,2.42-7.64,0.99-11.05c-0.16-1.92-0.92-3.77-2.21-5.33c-2.68-3.22-6.84-4.45-9.81-4.54l-0.51-0.01
			c-0.58,0-1.23,0.03-1.91,0.07c-0.58,0.03-1.18,0.06-1.78,0.06c-0.15,0-0.3,0-0.47-0.01c-0.03,0-0.05,0-0.08,0
			c-0.25-3.84,0.29-11.32,1.46-16.54c10.78,6.89,26.84,13.1,34.99,15.63c4.47,14.84,10.47,32.25,18.15,41.75
			c6.16,7.58,19.26,8.54,23.12,8.66c0.51,0.02,1.02,0.03,1.53,0.03c0.65,0,1.3-0.01,1.95-0.04c0.06,0,0.11-0.01,0.17-0.01
			c4.1-0.29,6.9-1.5,8.62-2.56c1.73-0.36,3.83-1.42,5.32-4.18c0.7-0.55,1.34-1.23,1.91-2.03c0.48-0.68,0.9-1.43,1.24-2.23
			c3.95-0.51,9.25-1.89,12.48-5.55c1.99-2.27,2.86-5.11,2.4-8.04c-1.04-6.64-6.49-9.31-10.13-11.11c-0.75-0.37-1.4-0.7-1.95-1.02
			c-2.72-1.63-3.4-4.01-4.57-8.91l-0.06-0.24c-0.13-0.56-0.28-1.13-0.41-1.64c-1.61-6.3-0.51-13.5,0.49-20.4l0.05-0.32
			c0.02-0.15,0.05-0.31,0.07-0.46c2.41-1.19,4.67-2.52,6.75-3.97c9.79-6.88,14.37-16.12,12.93-26.05c-0.02-0.23-0.06-0.45-0.11-0.68
			c0.34-0.24,0.64-0.47,0.89-0.68c3.85-1.15,16.73-5.08,29.87-9.87c16.05-5.86,23.66-13.51,27.25-19.79
			c0.05,0.02,0.11,0.04,0.16,0.06c0.04,0.02,0.09,0.03,0.13,0.04c0.57,0.19,1.17,0.28,1.77,0.28c1.7,0,3.27-0.76,4.3-1.99
			c2.76-3.31,3.35-6.83,2.73-9.92c0.23-0.24,0.44-0.48,0.65-0.74c1.21-1.53,2.56-4.15,2.05-8
			C346.63,81.34,345.48,79.72,343.73,78.86z"/>
		<path class="st2" d="M237.05,206.2c-0.88,0.15-1.77,0.22-2.65,0.2c-0.57-0.02-1.02-0.07-1.35-0.13
			c-0.78-2.44-2.13-8.11-2.76-14.57c0.91,1.76,1.84,3.48,2.76,5.18l0.25,0.47c1.31,2.44,2.67,4.96,3.85,7.39
			C237.2,204.94,237.12,205.62,237.05,206.2z M343.15,78.04c-1.65-0.8-3.64-0.76-5.34,0.23c-0.29,0.17-0.71,0.38-1.06,0.38h0
			c-3.01-0.09-8.97-9.8-12.88-16.44c4.3-11.21,8.7-36.74,5.71-43.77c-0.87-2.05-2.42-3.5-4.42-4.06c-0.71-0.2-1.54-0.32-2.58-0.36
			c-0.15,0-0.31-0.01-0.48-0.01c-6.86,0-25.78,4.36-39.93,17.08c-5.85-2.17-11.93-3.35-18.11-3.54c-8.44-0.27-15.17,1.34-19.3,2.71
			c-3.73-3.81-9.31-8.23-11.26-9.75c-12.7-9.91-15.99-10.03-17.45-10.05c-0.03,0-0.11,0-0.14,0c-0.73,0-1.44,0.11-2.09,0.33
			c-0.04,0.01-0.08,0.03-0.12,0.04c-12.54,4.52-12.51,35.33-11.66,46.53c-4.16,5.37-8.49,8.31-12.31,8.31l-0.27,0
			c-1.55-0.04-2.54-0.56-2.69-0.65c-1.98-1.22-4.65-1.1-6.55,0.45c-1.91,1.56-2.57,4.16-1.66,6.44l0,0c0.24,0.62,1.1,2.56,2.88,4.44
			c-1.28,2.63-1.43,4.95-1.43,5.86v0.1c0,0.14,0.01,0.29,0.02,0.43c0.11,1.26,0.63,2.44,1.46,3.36c-5.97-2.66-12.34-4.08-19.26-4.29
			c-2.97-0.08-6.08,0.05-9.22,0.41c-11.74,1.35-27,9.81-35.34,25.69c-7.27,3.15-13.58,5.05-18.76,5.66
			c-3.61,0.42-6.75,0.59-9.59,0.5c-18.84-0.59-25.04-12.93-28.98-31.2c-0.01-0.07-0.03-0.13-0.05-0.2
			c-7.25-28.41-22.31-31.95-28.51-32.16c-1.25-0.04-2.53,0.04-3.78,0.23C19.58,52,14.35,58.92,14.15,64.87
			c-0.19,5.56,3.61,10.04,9.73,11.35c0.68,0.15,1.4,0.23,2.44,0.27c0.78,0.03,1.66,0,2.49-0.03l0.12,0c0.83-0.02,1.63-0.04,2.63,0
			c3.18,0.11,7.98,0.25,9.75,10.92c1.38,8.39,4.45,20.57,11.27,30.94c8.73,13.28,21.06,20.26,36.64,20.74
			c6.62,0.21,13.89-0.83,21.69-3.1c-0.18,4.17-0.04,7.68,0.07,10.56c0.11,2.76,0.24,6.2-0.21,6.87c0,0-0.08,0.09-0.37,0.23
			l-0.96,0.48c-9.23,4.53-15.6,9.47-13.58,31.78c1.81,20.07,4.76,39.89,19.09,42.01c0.15,0.02,0.3,0.04,0.45,0.05
			c0.76,0.04,1.47,0.06,2.15,0.06c4.45,0,7.45-0.84,9.4-1.76c9.22-0.22,12.36-5.53,13.36-9.99c0.8-3.59,0.11-7.11-1.87-9.66
			c-1.67-2.14-4.1-3.38-6.7-3.38c-0.6,0-1.2,0.07-1.78,0.2c-0.86-0.26-1.76-0.41-2.7-0.44c-0.82-0.02-1.61,0.04-2.33,0.17
			c-0.96-0.96-2.05-2.5-2.33-4.63c-0.68-5.22,3.66-12.74,11.99-20.93c0.27,2.38,0.58,4.82,0.94,7.32
			c1.94,13.59,12.72,23.3,28.2,25.44c0.59,0.17,1.23,0.28,1.92,0.3c0.05,0,0.18,0,0.22,0c3.69,0,7.64-2.71,10.04-6.95
			c2.09-3.69,2.42-7.64,0.99-11.05c-0.16-1.92-0.92-3.77-2.21-5.33c-2.68-3.21-6.84-4.45-9.81-4.54l-0.51-0.01
			c-0.58,0-1.23,0.03-1.91,0.07c-0.58,0.03-1.18,0.06-1.78,0.06c-0.15,0-0.3,0-0.47-0.01c-0.03,0-0.05,0-0.08,0
			c-0.25-3.83,0.29-11.32,1.46-16.54c10.77,6.89,26.84,13.1,34.99,15.63c4.47,14.84,10.47,32.25,18.15,41.75
			c6.16,7.58,19.26,8.54,23.12,8.66c0.51,0.02,1.02,0.02,1.53,0.02c0.65,0,1.3-0.01,1.95-0.04c0.05,0,0.11-0.01,0.17-0.01
			c4.1-0.29,6.9-1.5,8.62-2.56c1.73-0.36,3.83-1.42,5.31-4.18c0.7-0.55,1.34-1.23,1.91-2.03c0.48-0.68,0.9-1.43,1.24-2.23
			c3.95-0.51,9.26-1.89,12.48-5.55c1.99-2.27,2.86-5.11,2.4-8.04c-1.04-6.64-6.49-9.31-10.13-11.11c-0.75-0.37-1.4-0.69-1.95-1.02
			c-2.72-1.63-3.4-4.01-4.57-8.91l-0.06-0.24c-0.13-0.56-0.28-1.13-0.41-1.64c-1.61-6.3-0.51-13.5,0.49-20.4l0.05-0.32
			c0.02-0.15,0.05-0.31,0.07-0.46c2.41-1.19,4.67-2.52,6.75-3.97c9.79-6.88,14.37-16.12,12.93-26.05c-0.02-0.23-0.06-0.45-0.11-0.68
			c0.34-0.24,0.63-0.47,0.89-0.68c3.85-1.15,16.73-5.08,29.87-9.87c16.05-5.86,23.67-13.51,27.25-19.79
			c0.05,0.02,0.11,0.04,0.16,0.06c0.04,0.02,0.09,0.03,0.13,0.04c0.57,0.19,1.17,0.28,1.77,0.28c1.7,0,3.27-0.76,4.3-1.99
			c2.76-3.31,3.35-6.83,2.73-9.92c0.23-0.24,0.44-0.48,0.65-0.74c1.21-1.53,2.56-4.15,2.05-8C346.05,80.52,344.9,78.89,343.15,78.04
			z"/>
		<path class="st3" d="M236.47,205.37c-0.88,0.15-1.77,0.22-2.65,0.2c-0.57-0.02-1.02-0.07-1.35-0.14
			c-0.78-2.44-2.12-8.11-2.76-14.56c0.91,1.76,1.84,3.48,2.76,5.18l0.25,0.47c1.32,2.44,2.67,4.96,3.85,7.39
			C236.62,204.12,236.54,204.79,236.47,205.37z M342.57,77.21c-1.65-0.8-3.64-0.76-5.34,0.23c-0.3,0.17-0.71,0.38-1.06,0.38l0,0
			c-3.01-0.09-8.97-9.79-12.88-16.43c4.3-11.21,8.7-36.74,5.71-43.77c-0.87-2.05-2.42-3.5-4.42-4.06c-0.71-0.2-1.54-0.32-2.58-0.36
			c-0.15,0-0.31-0.01-0.48-0.01c-6.86,0-25.78,4.36-39.93,17.08c-5.85-2.16-11.93-3.35-18.11-3.54c-8.44-0.27-15.17,1.34-19.3,2.71
			c-3.73-3.81-9.31-8.23-11.26-9.75c-12.7-9.91-15.99-10.01-17.45-10.05c-0.03,0-0.11,0-0.14,0c-0.73,0-1.43,0.12-2.09,0.33
			c-0.04,0.01-0.08,0.03-0.12,0.04c-12.59,4.38-12.51,35.33-11.66,46.53c-4.16,5.37-8.49,8.31-12.31,8.31l-0.27,0
			c-1.55-0.04-2.54-0.56-2.69-0.65c-1.98-1.22-4.65-1.1-6.55,0.45c-1.91,1.56-2.57,4.16-1.66,6.44h0c0.24,0.62,1.1,2.56,2.88,4.44
			c-1.28,2.63-1.43,4.95-1.43,5.86v0.1c0,0.15,0.01,0.29,0.02,0.43c0.11,1.26,0.63,2.44,1.46,3.36c-5.97-2.66-12.34-4.08-19.26-4.29
			c-2.97-0.08-6.08,0.05-9.22,0.41c-11.74,1.35-26.99,9.81-35.34,25.69c-7.27,3.15-13.58,5.05-18.76,5.65
			c-3.61,0.42-6.75,0.59-9.6,0.5c-18.84-0.59-25.14-12.91-28.98-31.2c-0.01-0.07-0.03-0.13-0.04-0.2
			C52.21,53.5,37.4,49.89,31.2,49.68c-1.26-0.04-2.53,0.04-3.78,0.22C19,51.18,13.77,58.09,13.57,64.04
			c-0.19,5.56,3.61,10.04,9.73,11.35c0.68,0.14,1.4,0.23,2.44,0.27c0.78,0.03,1.66,0,2.49-0.03l0.12,0
			c0.83-0.02,1.63-0.04,2.63-0.01c3.18,0.11,7.98,0.25,9.75,10.92c1.38,8.39,4.45,20.57,11.27,30.94
			c8.73,13.28,21.06,20.26,36.64,20.74c6.62,0.2,13.89-0.83,21.69-3.09c-0.18,4.16-0.04,7.68,0.07,10.56
			c0.11,2.76,0.25,6.2-0.21,6.87c0,0-0.08,0.09-0.37,0.23l-0.96,0.48c-9.23,4.53-15.6,9.47-13.58,31.78
			c1.81,20.07,4.76,39.93,19.09,42.01c0.15,0.02,0.3,0.04,0.45,0.05c0.76,0.04,1.47,0.06,2.14,0.06c4.45,0,7.45-0.84,9.4-1.76
			c9.22-0.22,12.36-5.53,13.36-9.99c0.8-3.59,0.11-7.11-1.87-9.66c-1.67-2.14-4.1-3.38-6.7-3.38c-0.6,0-1.2,0.07-1.78,0.2
			c-0.85-0.26-1.76-0.41-2.7-0.44c-0.82-0.02-1.61,0.05-2.33,0.17c-0.96-0.96-2.05-2.5-2.32-4.63c-0.68-5.22,3.66-12.74,11.99-20.93
			c0.27,2.38,0.58,4.82,0.93,7.32c1.94,13.59,12.73,23.3,28.2,25.44c0.59,0.17,1.23,0.27,1.92,0.3c0.05,0,0.17,0,0.22,0
			c3.69,0,7.64-2.71,10.04-6.94c2.09-3.69,2.42-7.64,0.99-11.05c-0.16-1.92-0.92-3.77-2.21-5.33c-2.68-3.21-6.84-4.45-9.81-4.54
			l-0.51-0.01c-0.58,0-1.23,0.03-1.91,0.07c-0.58,0.03-1.18,0.06-1.77,0.06c-0.15,0-0.3,0-0.47-0.01c-0.03,0-0.05,0-0.08,0
			c-0.25-3.83,0.29-11.32,1.46-16.55c10.77,6.89,26.84,13.1,34.98,15.63c4.47,14.84,10.47,32.25,18.15,41.75
			c6.16,7.58,19.26,8.54,23.12,8.66c0.51,0.02,1.02,0.02,1.53,0.02c0.65,0,1.3-0.01,1.96-0.04c0.05,0,0.11-0.01,0.17-0.01
			c4.11-0.25,6.9-1.5,8.62-2.56c1.73-0.36,3.83-1.42,5.31-4.18c0.7-0.55,1.34-1.23,1.91-2.03c0.48-0.68,0.9-1.43,1.24-2.23
			c3.95-0.51,9.25-1.89,12.48-5.55c1.99-2.27,2.86-5.11,2.4-8.04c-1.04-6.64-6.49-9.31-10.13-11.11c-0.75-0.37-1.41-0.7-1.95-1.02
			c-2.72-1.63-3.4-4.01-4.57-8.91l-0.06-0.24c-0.13-0.56-0.27-1.13-0.4-1.64c-1.6-6.3-0.52-13.49,0.49-20.4l0.05-0.32
			c0.02-0.15,0.05-0.31,0.07-0.46c2.42-1.19,4.67-2.52,6.75-3.97c9.79-6.88,14.37-16.12,12.93-26.05c-0.02-0.23-0.06-0.45-0.11-0.68
			c0.34-0.24,0.63-0.47,0.89-0.68c3.85-1.15,16.73-5.08,29.87-9.87c16.05-5.86,23.67-13.51,27.26-19.79
			c0.05,0.02,0.11,0.04,0.16,0.06c0.04,0.01,0.09,0.03,0.13,0.04c0.57,0.19,1.17,0.28,1.77,0.28c1.7,0,3.27-0.76,4.3-1.99
			c2.76-3.31,3.35-6.83,2.73-9.92c0.23-0.24,0.45-0.48,0.65-0.74c1.21-1.53,2.56-4.15,2.05-8
			C345.47,79.69,344.32,78.07,342.57,77.21z"/>
		<path class="st4" d="M235.89,204.55c-0.88,0.15-1.77,0.22-2.65,0.2c-0.57-0.02-1.02-0.07-1.34-0.14
			c-0.78-2.44-2.13-8.11-2.76-14.56c0.91,1.76,1.84,3.48,2.76,5.18l0.25,0.47c1.31,2.44,2.67,4.96,3.85,7.39
			C236.04,203.29,235.96,203.97,235.89,204.55z M341.99,76.39c-1.65-0.81-3.64-0.76-5.34,0.23c-0.29,0.17-0.71,0.38-1.06,0.38l0,0
			c-3.01-0.09-8.97-9.79-12.88-16.44c4.3-11.21,8.7-36.74,5.71-43.77c-0.87-2.05-2.42-3.5-4.42-4.06c-0.71-0.2-1.54-0.32-2.58-0.36
			c-0.15-0.01-0.31-0.01-0.48-0.01c-6.86,0-25.78,4.36-39.93,17.08c-5.85-2.16-11.93-3.35-18.11-3.54
			c-8.44-0.27-15.17,1.34-19.3,2.7c-3.73-3.81-9.31-8.23-11.26-9.75c-12.7-9.91-15.99-10.03-17.46-10.05c-0.03,0-0.11,0-0.14,0
			c-0.73,0-1.44,0.11-2.09,0.33c-0.04,0.01-0.08,0.03-0.12,0.04c-12.53,4.55-12.51,35.33-11.66,46.53
			c-4.16,5.37-8.49,8.31-12.31,8.31l-0.27,0c-1.55-0.04-2.54-0.56-2.69-0.65c-1.98-1.22-4.64-1.1-6.54,0.45
			c-1.91,1.56-2.57,4.16-1.66,6.44l0,0c0.25,0.62,1.1,2.56,2.88,4.44c-1.28,2.63-1.43,4.95-1.43,5.86v0.1
			c0,0.14,0.01,0.29,0.02,0.43c0.11,1.26,0.63,2.44,1.46,3.36c-5.97-2.66-12.34-4.08-19.26-4.29c-2.97-0.08-6.08,0.05-9.22,0.41
			c-11.74,1.35-27,9.81-35.34,25.69c-7.27,3.15-13.58,5.05-18.76,5.65c-3.61,0.42-6.75,0.59-9.6,0.5
			c-18.84-0.59-25.14-12.91-28.98-31.2c-0.01-0.07-0.03-0.13-0.05-0.2c-7.25-28.41-22.31-31.95-28.51-32.16
			c-1.25-0.04-2.53,0.04-3.78,0.22c-8.42,1.27-13.65,8.18-13.84,14.13c-0.19,5.56,3.61,10.04,9.73,11.36
			c0.68,0.15,1.4,0.23,2.44,0.27c0.78,0.03,1.66,0,2.49-0.03l0.12,0c0.83-0.02,1.63-0.04,2.63-0.01c3.18,0.11,7.98,0.25,9.75,10.92
			c1.38,8.39,4.45,20.57,11.27,30.94c8.73,13.28,21.06,20.26,36.64,20.74c6.62,0.2,13.89-0.83,21.69-3.1
			c-0.18,4.17-0.04,7.68,0.07,10.56c0.11,2.76,0.24,6.2-0.21,6.87c0,0-0.08,0.09-0.37,0.23l-0.96,0.48
			c-9.23,4.53-15.6,9.47-13.58,31.78c1.81,20.07,4.77,39.85,19.09,42.01c0.15,0.02,0.3,0.04,0.45,0.05
			c0.76,0.04,1.47,0.06,2.14,0.06c4.45,0,7.45-0.84,9.4-1.76c9.22-0.23,12.36-5.53,13.37-9.99c0.8-3.59,0.11-7.11-1.87-9.66
			c-1.67-2.14-4.1-3.37-6.7-3.37c-0.6,0-1.2,0.07-1.78,0.2c-0.86-0.26-1.76-0.41-2.71-0.44c-0.82-0.02-1.61,0.04-2.33,0.17
			c-0.96-0.96-2.05-2.5-2.32-4.62c-0.68-5.22,3.66-12.74,11.99-20.93c0.27,2.38,0.58,4.82,0.94,7.32
			c1.94,13.59,12.73,23.3,28.2,25.44c0.59,0.17,1.23,0.31,1.91,0.3c0.05,0,0.17,0,0.22,0c3.69,0,7.64-2.71,10.04-6.95
			c2.09-3.69,2.42-7.64,0.99-11.05c-0.16-1.92-0.91-3.77-2.21-5.33c-2.67-3.22-6.84-4.45-9.81-4.54l-0.51-0.01
			c-0.58,0-1.23,0.03-1.91,0.07c-0.58,0.03-1.18,0.06-1.78,0.06c-0.15,0-0.3,0-0.47-0.01c-0.03,0-0.05,0-0.08,0
			c-0.25-3.83,0.29-11.32,1.46-16.54c10.78,6.89,26.84,13.1,34.99,15.63c4.47,14.84,10.47,32.25,18.15,41.75
			c6.16,7.58,19.26,8.54,23.12,8.66c0.51,0.02,1.02,0.02,1.53,0.02c0.65,0,1.3-0.01,1.95-0.04c0.06,0,0.11-0.01,0.17-0.01
			c4.1-0.29,6.9-1.5,8.62-2.56c1.73-0.36,3.83-1.42,5.32-4.18c0.7-0.55,1.34-1.23,1.91-2.03c0.48-0.68,0.9-1.43,1.24-2.23
			c3.95-0.51,9.25-1.89,12.48-5.55c1.99-2.27,2.86-5.11,2.4-8.04c-1.04-6.64-6.49-9.31-10.13-11.11c-0.75-0.37-1.4-0.7-1.95-1.02
			c-2.72-1.63-3.4-4.01-4.57-8.9l-0.06-0.24c-0.13-0.56-0.28-1.13-0.41-1.64c-1.61-6.3-0.51-13.49,0.49-20.4l0.05-0.32
			c0.02-0.15,0.05-0.31,0.07-0.46c2.41-1.19,4.67-2.52,6.75-3.97c9.79-6.88,14.37-16.12,12.93-26.05c-0.02-0.23-0.06-0.45-0.11-0.68
			c0.34-0.24,0.63-0.47,0.89-0.68c3.85-1.15,16.73-5.08,29.87-9.87c16.05-5.86,23.67-13.51,27.25-19.79
			c0.05,0.02,0.11,0.04,0.16,0.06c0.04,0.01,0.09,0.03,0.13,0.04c0.58,0.18,1.17,0.28,1.77,0.28c1.7,0,3.27-0.76,4.3-1.99
			c2.76-3.31,3.35-6.83,2.73-9.92c0.23-0.23,0.44-0.48,0.65-0.74c1.21-1.53,2.56-4.15,2.05-8C344.9,78.87,343.74,77.25,341.99,76.39
			z"/>
		<path class="st5" d="M235.31,203.72c-0.88,0.15-1.77,0.22-2.65,0.2c-0.57-0.02-1.02-0.07-1.34-0.13
			c-0.78-2.44-2.13-8.11-2.76-14.57c0.91,1.76,1.84,3.48,2.76,5.18l0.25,0.47c1.31,2.44,2.67,4.96,3.85,7.39
			C235.47,202.47,235.39,203.15,235.31,203.72z M341.42,75.57c-1.65-0.8-3.64-0.76-5.34,0.22c-0.29,0.17-0.71,0.38-1.06,0.38h0
			c-3.01-0.09-8.97-9.79-12.88-16.43c4.3-11.21,8.7-36.74,5.71-43.77c-0.87-2.05-2.42-3.5-4.42-4.06c-0.71-0.2-1.54-0.33-2.59-0.36
			c-0.15,0-0.31-0.01-0.48-0.01c-6.86,0-25.78,4.36-39.93,17.08c-5.85-2.16-11.93-3.35-18.11-3.54c-8.44-0.27-15.17,1.34-19.3,2.71
			c-3.73-3.81-9.31-8.23-11.26-9.75c-12.7-9.91-15.99-10.01-17.46-10.05c-0.03,0-0.11,0-0.14,0c-0.73,0-1.44,0.11-2.09,0.33
			c-0.04,0.01-0.08,0.03-0.12,0.04c-12.56,4.48-12.51,35.33-11.66,46.53c-4.16,5.37-8.49,8.31-12.31,8.31l-0.27,0
			c-1.55-0.04-2.54-0.56-2.69-0.65c-1.98-1.22-4.65-1.1-6.55,0.45c-1.91,1.56-2.57,4.16-1.66,6.44h0c0.24,0.62,1.1,2.56,2.88,4.44
			c-1.28,2.63-1.43,4.95-1.43,5.86v0.1c0,0.14,0.01,0.29,0.02,0.43c0.11,1.26,0.63,2.44,1.46,3.36c-5.97-2.66-12.34-4.08-19.26-4.29
			c-2.97-0.08-6.08,0.05-9.22,0.41c-11.74,1.36-27,9.82-35.34,25.69c-7.27,3.15-13.58,5.05-18.76,5.65c-3.61,0.42-6.75,0.59-9.6,0.5
			C68.73,111,62.56,98.65,58.6,80.39c-0.01-0.07-0.03-0.13-0.05-0.2c-7.3-28.39-22.31-31.95-28.51-32.16
			c-1.25-0.04-2.53,0.03-3.78,0.22c-8.41,1.27-13.65,8.18-13.84,14.13c-0.19,5.56,3.61,10.04,9.73,11.35
			c0.68,0.15,1.4,0.23,2.44,0.27c0.78,0.03,1.66,0,2.49-0.03l0.12,0c0.83-0.02,1.63-0.04,2.63-0.01c3.18,0.11,7.98,0.25,9.75,10.92
			c1.38,8.39,4.45,20.57,11.27,30.94c8.73,13.28,21.06,20.26,36.64,20.74c6.62,0.21,13.89-0.83,21.69-3.1
			c-0.18,4.17-0.04,7.68,0.07,10.56c0.11,2.76,0.25,6.2-0.21,6.87c0,0-0.08,0.09-0.37,0.23l-0.96,0.48
			c-9.23,4.54-15.6,9.47-13.58,31.78c1.81,20.07,4.76,39.89,19.09,42.01c0.15,0.02,0.3,0.04,0.45,0.05
			c0.76,0.04,1.47,0.06,2.15,0.06c4.45,0,7.45-0.84,9.4-1.76c9.22-0.22,12.36-5.53,13.37-9.99c0.8-3.59,0.11-7.11-1.87-9.66
			c-1.67-2.14-4.1-3.38-6.7-3.38c-0.6,0-1.2,0.07-1.78,0.2c-0.86-0.26-1.76-0.41-2.71-0.44c-0.82-0.02-1.61,0.04-2.33,0.17
			c-0.96-0.96-2.05-2.49-2.33-4.62c-0.68-5.22,3.66-12.74,11.99-20.93c0.27,2.38,0.58,4.82,0.94,7.32
			c1.94,13.59,12.73,23.3,28.2,25.44c0.59,0.17,1.23,0.28,1.92,0.3c0.05,0,0.17,0,0.22,0c3.69,0,7.64-2.71,10.04-6.94
			c2.09-3.69,2.42-7.65,0.99-11.05c-0.16-1.92-0.91-3.77-2.21-5.33c-2.67-3.22-6.84-4.45-9.81-4.53l-0.51-0.01
			c-0.58,0-1.23,0.03-1.91,0.07c-0.58,0.03-1.18,0.06-1.78,0.06c-0.15,0-0.3,0-0.47-0.01c-0.03,0-0.05,0-0.08,0
			c-0.24-3.83,0.3-11.32,1.46-16.55c10.78,6.89,26.84,13.1,34.99,15.63c4.47,14.84,10.47,32.25,18.15,41.75
			c6.16,7.58,19.26,8.54,23.12,8.66c0.51,0.02,1.02,0.02,1.53,0.02c0.65,0,1.3-0.01,1.95-0.04c0.05,0,0.11-0.01,0.17-0.01
			c4.11-0.25,6.9-1.5,8.62-2.56c1.73-0.36,3.83-1.42,5.31-4.19c0.7-0.55,1.34-1.23,1.91-2.03c0.48-0.68,0.9-1.43,1.24-2.23
			c3.95-0.51,9.25-1.89,12.48-5.55c1.99-2.27,2.86-5.11,2.4-8.04c-1.04-6.64-6.49-9.31-10.13-11.11c-0.75-0.37-1.4-0.69-1.95-1.02
			c-2.72-1.63-3.4-4.02-4.57-8.91l-0.06-0.24c-0.13-0.56-0.28-1.13-0.41-1.64c-1.61-6.3-0.51-13.49,0.49-20.4l0.05-0.32
			c0.02-0.16,0.05-0.31,0.07-0.46c2.42-1.19,4.67-2.52,6.75-3.97c9.79-6.88,14.37-16.12,12.93-26.05c-0.02-0.23-0.06-0.45-0.11-0.68
			c0.34-0.24,0.63-0.47,0.89-0.68c3.85-1.15,16.73-5.08,29.87-9.88c16.05-5.86,23.67-13.51,27.26-19.79
			c0.05,0.02,0.11,0.04,0.16,0.06c0.04,0.01,0.09,0.03,0.13,0.04c0.57,0.19,1.17,0.28,1.77,0.28c1.7,0,3.27-0.76,4.3-1.99
			c2.76-3.31,3.35-6.83,2.73-9.92c0.23-0.24,0.45-0.48,0.65-0.74c1.21-1.53,2.56-4.15,2.05-8
			C344.32,78.05,343.17,76.42,341.42,75.57z"/>
		<path class="st6" d="M234.73,202.9c-0.88,0.15-1.77,0.22-2.65,0.2c-0.57-0.02-1.02-0.07-1.35-0.14
			c-0.78-2.44-2.13-8.11-2.76-14.56c0.91,1.76,1.84,3.48,2.76,5.18l0.25,0.47c1.31,2.44,2.67,4.96,3.85,7.39
			C234.89,201.65,234.81,202.32,234.73,202.9z M340.83,74.74c-1.65-0.81-3.65-0.76-5.34,0.23c-0.29,0.17-0.71,0.38-1.06,0.38h0
			c-3.01-0.09-8.97-9.8-12.88-16.44c4.3-11.21,8.7-36.74,5.71-43.77c-0.87-2.05-2.42-3.5-4.42-4.06c-0.71-0.2-1.54-0.32-2.59-0.36
			c-0.15-0.01-0.31-0.01-0.48-0.01c-6.86,0-25.78,4.36-39.93,17.08c-5.85-2.16-11.93-3.35-18.11-3.54
			c-8.44-0.27-15.17,1.34-19.3,2.7c-3.73-3.81-9.31-8.23-11.26-9.75c-12.7-9.91-15.99-9.98-17.46-10.05c-0.03,0-0.11,0-0.14,0
			c-0.73,0-1.44,0.1-2.09,0.33c-0.04,0.01-0.08,0.03-0.12,0.04c-12.51,4.62-12.51,35.33-11.66,46.53c-4.16,5.37-8.49,8.3-12.31,8.3
			l-0.27,0c-1.55-0.04-2.54-0.56-2.69-0.65c-1.98-1.22-4.65-1.1-6.55,0.45c-1.91,1.56-2.57,4.16-1.66,6.44l0,0
			c0.24,0.62,1.1,2.56,2.88,4.44c-1.28,2.63-1.43,4.95-1.43,5.86v0.1c0,0.14,0.01,0.29,0.02,0.43c0.11,1.26,0.63,2.44,1.46,3.36
			c-5.97-2.66-12.34-4.08-19.26-4.29c-2.97-0.08-6.08,0.05-9.22,0.41c-11.74,1.35-27,9.81-35.34,25.69
			c-7.27,3.15-13.58,5.05-18.76,5.65c-3.61,0.42-6.75,0.59-9.6,0.5c-18.84-0.58-25.02-12.94-28.98-31.2
			c-0.01-0.07-0.03-0.13-0.04-0.2c-7.25-28.41-22.31-31.95-28.51-32.16c-1.26-0.04-2.53,0.04-3.78,0.23
			c-8.42,1.27-13.65,8.18-13.84,14.13c-0.19,5.56,3.61,10.04,9.73,11.35c0.68,0.15,1.4,0.23,2.44,0.27c0.77,0.03,1.66,0,2.49-0.03
			l0.12,0c0.83-0.02,1.63-0.04,2.63-0.01c3.18,0.11,7.98,0.25,9.75,10.92c1.38,8.39,4.45,20.57,11.27,30.94
			c8.73,13.28,21.06,20.26,36.64,20.74c6.62,0.21,13.89-0.83,21.69-3.1c-0.18,4.17-0.04,7.68,0.07,10.56
			c0.11,2.76,0.25,6.2-0.21,6.87c0,0-0.08,0.09-0.37,0.23l-0.96,0.48c-9.23,4.53-15.6,9.47-13.58,31.78
			c1.81,20.07,4.76,39.93,19.09,42.01c0.15,0.02,0.3,0.04,0.45,0.04c0.76,0.04,1.47,0.06,2.14,0.06c4.45,0,7.45-0.84,9.4-1.76
			c9.22-0.22,12.36-5.53,13.37-9.99c0.8-3.59,0.11-7.11-1.87-9.66c-1.67-2.14-4.1-3.38-6.7-3.38c-0.6,0-1.2,0.07-1.78,0.2
			c-0.86-0.26-1.76-0.41-2.71-0.44c-0.82-0.02-1.61,0.04-2.33,0.17c-0.96-0.96-2.05-2.5-2.32-4.63
			c-0.68-5.22,3.66-12.74,11.99-20.93c0.27,2.38,0.58,4.82,0.94,7.32c1.94,13.59,12.73,23.3,28.2,25.44
			c0.59,0.17,1.23,0.27,1.92,0.3c0.04,0,0.17,0,0.22,0c3.69,0,7.64-2.71,10.04-6.95c2.09-3.69,2.42-7.64,0.99-11.05
			c-0.16-1.92-0.92-3.77-2.21-5.33c-2.68-3.22-6.84-4.45-9.81-4.54l-0.52-0.01c-0.58,0-1.23,0.03-1.91,0.07
			c-0.58,0.03-1.18,0.06-1.78,0.06c-0.15,0-0.3,0-0.47-0.01c-0.03,0-0.05,0-0.08,0c-0.24-3.83,0.3-11.32,1.46-16.54
			c10.78,6.89,26.84,13.1,34.99,15.63c4.47,14.84,10.47,32.25,18.15,41.75c6.16,7.58,19.26,8.53,23.12,8.66
			c0.51,0.02,1.02,0.02,1.53,0.02c0.65,0,1.3-0.02,1.95-0.04c0.05,0,0.11-0.01,0.17-0.01c4.1-0.29,6.9-1.5,8.62-2.56
			c1.73-0.36,3.83-1.42,5.32-4.18c0.7-0.55,1.34-1.23,1.91-2.03c0.48-0.68,0.9-1.43,1.24-2.23c3.95-0.51,9.25-1.89,12.48-5.55
			c1.99-2.26,2.86-5.11,2.4-8.04c-1.04-6.64-6.49-9.31-10.13-11.11c-0.75-0.37-1.4-0.69-1.95-1.02c-2.71-1.63-3.4-4.01-4.57-8.91
			l-0.06-0.24c-0.13-0.56-0.27-1.13-0.41-1.64c-1.61-6.3-0.51-13.49,0.49-20.4l0.05-0.32c0.02-0.15,0.05-0.31,0.07-0.46
			c2.42-1.19,4.67-2.52,6.75-3.97c9.79-6.88,14.37-16.12,12.93-26.05c-0.02-0.23-0.06-0.45-0.11-0.68c0.34-0.24,0.63-0.47,0.89-0.68
			c3.85-1.15,16.73-5.08,29.87-9.87c16.05-5.86,23.67-13.51,27.25-19.79c0.05,0.02,0.11,0.04,0.16,0.06
			c0.04,0.01,0.09,0.03,0.13,0.04c0.57,0.19,1.17,0.28,1.77,0.28c1.7,0,3.27-0.76,4.3-1.98c2.76-3.31,3.35-6.83,2.73-9.92
			c0.23-0.24,0.44-0.48,0.65-0.74c1.21-1.53,2.56-4.15,2.05-8C343.74,77.22,342.59,75.6,340.83,74.74z"/>
		<path class="st7" d="M234.15,202.08c-0.88,0.15-1.77,0.22-2.65,0.2c-0.57-0.02-1.02-0.07-1.34-0.13
			c-0.78-2.44-2.13-8.11-2.76-14.57c0.91,1.76,1.84,3.48,2.76,5.18l0.25,0.47c1.31,2.44,2.67,4.96,3.85,7.39
			C234.31,200.82,234.23,201.5,234.15,202.08z M340.26,73.92c-1.65-0.81-3.64-0.76-5.34,0.23c-0.29,0.17-0.71,0.38-1.06,0.38h0
			c-3.01-0.09-8.97-9.79-12.88-16.44c4.3-11.21,8.7-36.74,5.71-43.77c-0.87-2.05-2.42-3.5-4.42-4.06c-0.71-0.2-1.54-0.33-2.59-0.36
			c-0.15,0-0.31-0.01-0.48-0.01c-6.86,0-25.78,4.36-39.93,17.08c-5.85-2.16-11.93-3.35-18.11-3.54c-8.44-0.27-15.17,1.34-19.3,2.71
			c-3.73-3.81-9.31-8.23-11.26-9.75c-12.7-9.91-15.99-9.98-17.46-10.05c-0.03,0-0.11,0-0.14,0c-0.73,0-1.44,0.11-2.09,0.33
			c-0.04,0.01-0.08,0.03-0.12,0.04c-12.57,4.43-12.51,35.33-11.66,46.53c-4.16,5.37-8.49,8.31-12.31,8.31l-0.27-0.01
			c-1.55-0.04-2.54-0.56-2.69-0.65c-1.98-1.22-4.65-1.1-6.55,0.45c-1.91,1.56-2.57,4.16-1.66,6.44h0c0.25,0.62,1.1,2.56,2.88,4.44
			c-1.28,2.63-1.43,4.95-1.43,5.86v0.1c0,0.14,0.01,0.29,0.02,0.43c0.11,1.26,0.63,2.44,1.46,3.36c-5.97-2.66-12.34-4.08-19.26-4.29
			c-2.97-0.08-6.08,0.05-9.22,0.41c-11.74,1.35-27,9.82-35.34,25.69c-7.27,3.15-13.58,5.05-18.76,5.66c-3.61,0.42-6.75,0.59-9.6,0.5
			c-18.84-0.58-25.14-12.91-28.98-31.2c-0.01-0.07-0.03-0.13-0.05-0.2c-7.3-28.39-22.31-31.95-28.51-32.16
			c-1.25-0.04-2.53,0.04-3.78,0.23c-8.42,1.27-13.65,8.18-13.84,14.13c-0.19,5.56,3.61,10.04,9.73,11.35
			c0.68,0.15,1.4,0.23,2.44,0.27c0.78,0.03,1.66,0,2.49-0.03l0.12,0c0.83-0.02,1.63-0.04,2.63-0.01c3.18,0.11,7.98,0.25,9.75,10.92
			c1.38,8.39,4.45,20.57,11.27,30.94c8.73,13.28,21.06,20.26,36.64,20.74c6.62,0.21,13.89-0.83,21.69-3.1
			c-0.18,4.17-0.04,7.68,0.07,10.56c0.11,2.76,0.24,6.2-0.21,6.87c0,0-0.08,0.09-0.37,0.23l-0.96,0.48
			c-9.23,4.53-15.6,9.47-13.58,31.78c1.81,20.07,4.76,39.93,19.09,42.01c0.15,0.02,0.3,0.04,0.45,0.04
			c0.76,0.04,1.47,0.06,2.14,0.06c4.45,0,7.45-0.84,9.4-1.76c9.22-0.22,12.36-5.53,13.37-9.99c0.8-3.59,0.11-7.11-1.87-9.66
			c-1.67-2.14-4.1-3.38-6.7-3.38c-0.6,0-1.2,0.07-1.78,0.2c-0.86-0.26-1.76-0.41-2.7-0.44c-0.82-0.02-1.61,0.04-2.33,0.17
			c-0.96-0.96-2.05-2.5-2.32-4.63c-0.68-5.22,3.66-12.74,11.99-20.93c0.27,2.38,0.58,4.82,0.94,7.32
			c1.94,13.59,12.73,23.3,28.2,25.44c0.59,0.17,1.23,0.27,1.92,0.3c0.05,0,0.17,0,0.22,0c3.69,0,7.64-2.71,10.04-6.95
			c2.09-3.69,2.42-7.64,0.99-11.05c-0.16-1.92-0.92-3.77-2.21-5.33c-2.68-3.21-6.84-4.45-9.81-4.54l-0.51-0.01
			c-0.58,0-1.23,0.03-1.91,0.07c-0.58,0.03-1.18,0.06-1.78,0.06c-0.15,0-0.3-0.01-0.47-0.01c-0.03,0-0.05,0-0.08,0
			c-0.25-3.83,0.29-11.32,1.46-16.54c10.78,6.89,26.84,13.1,34.99,15.63c4.47,14.84,10.47,32.25,18.15,41.75
			c6.16,7.58,19.26,8.54,23.12,8.66c0.51,0.02,1.02,0.02,1.53,0.02c0.65,0,1.3-0.01,1.95-0.04c0.06,0,0.11,0,0.17-0.01
			c4.1-0.29,6.9-1.5,8.62-2.56c1.73-0.36,3.83-1.42,5.32-4.19c0.7-0.55,1.34-1.23,1.91-2.03c0.48-0.68,0.9-1.43,1.24-2.23
			c3.95-0.51,9.25-1.89,12.48-5.55c1.99-2.27,2.86-5.11,2.4-8.04c-1.04-6.64-6.49-9.31-10.13-11.11c-0.75-0.37-1.4-0.69-1.95-1.02
			c-2.72-1.63-3.4-4.01-4.57-8.91l-0.06-0.24c-0.13-0.56-0.28-1.13-0.41-1.64c-1.6-6.3-0.51-13.49,0.49-20.4l0.05-0.32
			c0.02-0.15,0.05-0.31,0.07-0.46c2.41-1.19,4.67-2.52,6.75-3.97c9.79-6.88,14.37-16.12,12.93-26.05c-0.02-0.23-0.06-0.45-0.11-0.68
			c0.34-0.24,0.63-0.47,0.89-0.68c3.85-1.15,16.73-5.08,29.87-9.87c16.05-5.86,23.67-13.51,27.25-19.79
			c0.05,0.02,0.11,0.04,0.16,0.06c0.04,0.01,0.09,0.03,0.13,0.04c0.57,0.19,1.17,0.28,1.77,0.28c1.7,0,3.27-0.76,4.3-1.99
			c2.76-3.31,3.35-6.83,2.73-9.92c0.23-0.24,0.44-0.48,0.65-0.74c1.21-1.53,2.56-4.15,2.05-8C343.16,76.4,342.01,74.77,340.26,73.92
			z"/>
		<path class="st8" d="M233.57,201.25c-0.88,0.15-1.77,0.22-2.65,0.2c-0.57-0.02-1.02-0.07-1.34-0.14
			c-0.78-2.44-2.13-8.11-2.76-14.56c0.91,1.76,1.84,3.48,2.76,5.18l0.25,0.47c1.31,2.44,2.67,4.96,3.85,7.39
			C233.73,200,233.65,200.67,233.57,201.25z M339.68,73.1c-1.65-0.81-3.64-0.76-5.34,0.23c-0.29,0.17-0.71,0.38-1.06,0.38h0
			c-3.01-0.09-8.97-9.8-12.88-16.44c4.3-11.21,8.7-36.74,5.71-43.77c-0.87-2.05-2.42-3.49-4.42-4.06c-0.71-0.2-1.54-0.32-2.58-0.36
			c-0.15-0.01-0.31-0.01-0.48-0.01c-6.86,0-25.78,4.36-39.93,17.08c-5.85-2.17-11.93-3.35-18.11-3.54
			c-8.44-0.27-15.17,1.34-19.3,2.7c-3.73-3.81-9.31-8.23-11.26-9.75c-12.7-9.91-15.99-9.98-17.46-10.05c-0.03,0-0.11,0-0.14,0
			c-0.73,0-1.44,0.11-2.09,0.33c-0.04,0.01-0.08,0.03-0.12,0.04c-12.53,4.55-12.51,35.33-11.66,46.53
			c-4.16,5.37-8.49,8.31-12.3,8.31l-0.27,0c-1.55-0.05-2.54-0.56-2.69-0.65c-1.98-1.22-4.65-1.1-6.55,0.45
			c-1.91,1.56-2.57,4.16-1.66,6.44l0,0c0.24,0.62,1.1,2.56,2.88,4.44c-1.28,2.63-1.43,4.95-1.43,5.86v0.1
			c0,0.14,0.01,0.29,0.02,0.43c0.11,1.26,0.63,2.44,1.46,3.36c-5.97-2.66-12.34-4.08-19.26-4.29c-2.97-0.08-6.08,0.05-9.22,0.41
			c-11.74,1.35-27,9.81-35.34,25.69c-7.27,3.15-13.58,5.05-18.76,5.65c-3.61,0.42-6.75,0.59-9.6,0.5
			C67,108.53,60.7,96.21,56.86,77.92c-0.01-0.07-0.03-0.13-0.04-0.2C49.56,49.31,34.5,45.77,28.3,45.56
			c-1.25-0.04-2.53,0.04-3.78,0.23c-8.41,1.27-13.65,8.18-13.84,14.13c-0.19,5.56,3.61,10.05,9.73,11.35
			c0.68,0.15,1.4,0.23,2.44,0.27c0.78,0.03,1.66,0,2.49-0.03l0.12,0c0.83-0.02,1.63-0.04,2.63-0.01c3.18,0.11,7.98,0.25,9.75,10.92
			c1.38,8.39,4.45,20.57,11.27,30.94c8.73,13.28,21.06,20.26,36.64,20.74c6.62,0.21,13.89-0.83,21.69-3.1
			c-0.18,4.17-0.04,7.68,0.07,10.56c0.11,2.76,0.25,6.2-0.21,6.87c0,0-0.08,0.09-0.37,0.23l-0.96,0.48
			c-9.23,4.53-15.6,9.47-13.58,31.78c1.81,20.07,4.76,39.88,19.09,42.01c0.15,0.02,0.3,0.04,0.45,0.05
			c0.76,0.04,1.47,0.06,2.15,0.06c4.45,0,7.45-0.84,9.4-1.76c9.22-0.22,12.36-5.53,13.36-9.99c0.8-3.59,0.11-7.11-1.87-9.66
			c-1.67-2.14-4.1-3.38-6.7-3.38c-0.6,0-1.2,0.07-1.78,0.2c-0.86-0.26-1.76-0.41-2.7-0.44c-0.82-0.02-1.61,0.04-2.33,0.16
			c-0.96-0.96-2.05-2.5-2.33-4.62c-0.68-5.22,3.66-12.74,11.99-20.93c0.27,2.38,0.58,4.82,0.94,7.32
			c1.94,13.59,12.73,23.3,28.2,25.44c0.59,0.17,1.23,0.28,1.92,0.3c0.05,0,0.18,0,0.22,0c3.69,0,7.64-2.71,10.04-6.95
			c2.09-3.69,2.42-7.64,0.99-11.05c-0.16-1.92-0.92-3.77-2.21-5.33c-2.68-3.21-6.84-4.45-9.81-4.54l-0.51-0.01
			c-0.58,0-1.23,0.03-1.91,0.07c-0.58,0.03-1.18,0.06-1.78,0.06c-0.15,0-0.3,0-0.47-0.01c-0.03,0-0.05,0-0.08,0
			c-0.25-3.84,0.29-11.32,1.46-16.55c10.78,6.89,26.84,13.1,34.99,15.63c4.47,14.84,10.47,32.25,18.15,41.75
			c6.16,7.58,19.26,8.54,23.12,8.66c0.51,0.02,1.02,0.02,1.53,0.02c0.65,0,1.3-0.01,1.95-0.04c0.05,0,0.11,0,0.17-0.01
			c4.1-0.29,6.9-1.5,8.62-2.56c1.73-0.36,3.83-1.42,5.31-4.18c0.7-0.55,1.34-1.23,1.91-2.03c0.48-0.68,0.9-1.43,1.24-2.23
			c3.95-0.51,9.25-1.89,12.48-5.55c1.99-2.27,2.86-5.11,2.4-8.04c-1.04-6.64-6.49-9.31-10.13-11.11c-0.75-0.37-1.4-0.69-1.95-1.02
			c-2.72-1.63-3.4-4.01-4.57-8.91l-0.06-0.24c-0.13-0.56-0.28-1.13-0.41-1.64c-1.61-6.3-0.51-13.5,0.49-20.4l0.05-0.32
			c0.02-0.15,0.05-0.31,0.07-0.46c2.41-1.19,4.67-2.52,6.75-3.97c9.79-6.88,14.37-16.12,12.93-26.05c-0.02-0.23-0.06-0.45-0.11-0.68
			c0.34-0.24,0.63-0.47,0.89-0.68c3.85-1.15,16.73-5.08,29.87-9.87c16.05-5.86,23.67-13.51,27.26-19.79
			c0.05,0.02,0.11,0.04,0.16,0.06c0.04,0.01,0.09,0.03,0.13,0.04c0.57,0.19,1.17,0.28,1.77,0.28c1.7,0,3.27-0.76,4.3-1.99
			c2.76-3.31,3.35-6.83,2.73-9.92c0.23-0.24,0.44-0.48,0.65-0.74c1.21-1.53,2.56-4.15,2.05-8C342.58,75.58,341.43,73.95,339.68,73.1
			z"/>
		<path class="st9" d="M232.99,200.43c-0.88,0.15-1.77,0.22-2.65,0.2c-0.57-0.02-1.02-0.07-1.35-0.14
			c-0.78-2.44-2.13-8.11-2.76-14.56c0.91,1.76,1.84,3.48,2.76,5.18l0.25,0.47c1.31,2.44,2.67,4.96,3.85,7.39
			C233.15,199.18,233.07,199.85,232.99,200.43z M339.1,72.27c-1.65-0.8-3.64-0.76-5.34,0.23c-0.29,0.17-0.71,0.38-1.06,0.38h0
			c-3.01-0.09-8.97-9.8-12.88-16.44c4.3-11.21,8.7-36.74,5.71-43.77c-0.87-2.05-2.42-3.5-4.42-4.06c-0.71-0.2-1.54-0.32-2.58-0.36
			c-0.15,0-0.31,0-0.48,0c-6.86,0-25.78,4.36-39.93,17.08c-5.85-2.17-11.93-3.35-18.11-3.54c-8.44-0.27-15.17,1.34-19.3,2.7
			c-3.73-3.81-9.31-8.23-11.26-9.75c-12.7-9.91-15.99-10.03-17.45-10.05c-0.03,0-0.11,0-0.14,0c-0.73,0-1.44,0.11-2.09,0.33
			c-0.04,0.01-0.08,0.03-0.12,0.04c-12.53,4.55-12.51,35.33-11.66,46.53c-4.16,5.37-8.49,8.31-12.31,8.31l-0.27,0
			c-1.55-0.04-2.54-0.56-2.69-0.65c-1.98-1.22-4.65-1.1-6.55,0.44c-1.91,1.56-2.57,4.16-1.66,6.44l0,0c0.24,0.62,1.1,2.56,2.88,4.44
			c-1.28,2.63-1.43,4.95-1.43,5.86v0.1c0,0.14,0.01,0.29,0.02,0.43c0.11,1.26,0.63,2.44,1.46,3.36c-5.97-2.66-12.34-4.08-19.26-4.29
			c-2.97-0.08-6.08,0.05-9.21,0.41c-11.74,1.35-27,9.81-35.34,25.69c-7.27,3.15-13.58,5.05-18.76,5.65c-3.61,0.42-6.75,0.59-9.6,0.5
			c-18.84-0.59-25.17-12.91-28.98-31.2c-0.01-0.07-0.03-0.13-0.04-0.2c-7.11-28.45-22.31-31.95-28.51-32.16
			c-1.25-0.04-2.53,0.04-3.78,0.22c-8.42,1.27-13.65,8.18-13.84,14.13c-0.19,5.56,3.61,10.04,9.73,11.35
			c0.68,0.15,1.4,0.23,2.44,0.27c0.78,0.03,1.66,0,2.49-0.03l0.12,0c0.83-0.02,1.63-0.04,2.63-0.01c3.18,0.11,7.98,0.25,9.75,10.92
			c1.38,8.39,4.45,20.57,11.27,30.94c8.73,13.28,21.06,20.26,36.64,20.74c6.62,0.21,13.89-0.83,21.69-3.1
			c-0.18,4.17-0.04,7.68,0.07,10.56c0.11,2.76,0.25,6.2-0.21,6.87c0,0-0.08,0.09-0.37,0.23l-0.96,0.48
			c-9.23,4.53-15.6,9.47-13.58,31.78c1.8,20.08,4.77,39.85,19.09,42.01c0.15,0.02,0.3,0.04,0.45,0.05c0.76,0.04,1.47,0.06,2.15,0.06
			c4.45,0,7.45-0.84,9.4-1.76c9.22-0.23,12.36-5.53,13.37-9.99c0.8-3.59,0.11-7.11-1.87-9.66c-1.67-2.14-4.1-3.38-6.7-3.38
			c-0.6,0-1.2,0.07-1.78,0.2c-0.86-0.26-1.76-0.41-2.71-0.44c-0.82-0.02-1.61,0.04-2.33,0.17c-0.96-0.96-2.05-2.5-2.32-4.63
			c-0.68-5.22,3.66-12.74,11.99-20.93c0.27,2.38,0.58,4.82,0.94,7.32c1.94,13.59,12.72,23.3,28.2,25.44
			c0.59,0.17,1.23,0.32,1.92,0.3c0.05,0,0.17,0,0.22,0c3.69,0,7.64-2.71,10.04-6.95c2.09-3.69,2.42-7.64,0.99-11.05
			c-0.16-1.92-0.91-3.77-2.21-5.33c-2.67-3.22-6.84-4.45-9.81-4.54l-0.51-0.01c-0.58,0-1.23,0.03-1.91,0.07
			c-0.58,0.03-1.18,0.06-1.78,0.06c-0.15,0-0.3,0-0.47-0.01c-0.03,0-0.05,0-0.08,0c-0.25-3.83,0.29-11.32,1.46-16.54
			c10.78,6.89,26.84,13.1,34.99,15.63c4.47,14.84,10.47,32.25,18.15,41.75c6.16,7.58,19.26,8.54,23.12,8.66
			c0.51,0.02,1.02,0.02,1.53,0.02c0.65,0,1.3-0.01,1.95-0.04c0.05,0,0.11-0.01,0.17-0.01c4.1-0.29,6.9-1.5,8.62-2.56
			c1.73-0.36,3.83-1.42,5.32-4.18c0.7-0.55,1.34-1.23,1.91-2.03c0.48-0.68,0.9-1.43,1.24-2.23c3.95-0.51,9.26-1.89,12.48-5.55
			c1.99-2.27,2.86-5.11,2.4-8.04c-1.04-6.64-6.49-9.31-10.13-11.11c-0.75-0.37-1.4-0.69-1.95-1.02c-2.72-1.63-3.4-4.02-4.57-8.91
			l-0.06-0.24c-0.14-0.56-0.28-1.13-0.41-1.64c-1.61-6.3-0.51-13.5,0.49-20.41l0.05-0.32c0.02-0.15,0.05-0.31,0.07-0.46
			c2.41-1.19,4.67-2.52,6.75-3.97c9.79-6.88,14.37-16.12,12.93-26.05c-0.02-0.23-0.06-0.45-0.11-0.68c0.34-0.24,0.63-0.47,0.89-0.68
			c3.85-1.15,16.73-5.08,29.87-9.88c16.05-5.86,23.66-13.51,27.25-19.79c0.05,0.02,0.11,0.04,0.16,0.06
			c0.04,0.02,0.09,0.03,0.13,0.04c0.57,0.19,1.17,0.28,1.77,0.28c1.7,0,3.27-0.76,4.3-1.99c2.76-3.31,3.35-6.83,2.73-9.91
			c0.23-0.24,0.45-0.48,0.65-0.74c1.21-1.53,2.56-4.15,2.06-8C342,74.75,340.85,73.12,339.1,72.27z"/>
		<path class="st10" d="M232.41,199.61c-0.88,0.15-1.77,0.23-2.65,0.2c-0.57-0.02-1.02-0.07-1.35-0.14
			c-0.78-2.44-2.13-8.11-2.76-14.56c0.91,1.76,1.84,3.48,2.76,5.18l0.25,0.47c1.31,2.44,2.67,4.96,3.85,7.39
			C232.57,198.35,232.49,199.03,232.41,199.61z M338.52,71.45c-1.65-0.8-3.65-0.76-5.34,0.23c-0.29,0.17-0.71,0.38-1.06,0.38h0
			c-3.01-0.09-8.97-9.8-12.88-16.44c4.3-11.21,8.7-36.74,5.71-43.77c-0.87-2.05-2.42-3.5-4.42-4.06c-0.71-0.2-1.54-0.32-2.59-0.36
			c-0.15,0-0.31-0.01-0.48-0.01c-6.86,0-25.78,4.36-39.93,17.08c-5.85-2.16-11.93-3.35-18.11-3.54c-8.44-0.27-15.17,1.34-19.3,2.7
			c-3.73-3.81-9.31-8.23-11.26-9.75c-12.7-9.91-15.99-10.01-17.46-10.05c-0.03,0-0.11,0-0.14,0c-0.73,0-1.44,0.11-2.09,0.33
			c-0.04,0.01-0.08,0.03-0.12,0.04c-12.48,4.7-12.51,35.33-11.66,46.53c-4.16,5.37-8.49,8.31-12.31,8.31l-0.27,0
			c-1.55-0.04-2.54-0.56-2.69-0.65c-1.98-1.22-4.65-1.1-6.55,0.45c-1.91,1.56-2.57,4.16-1.66,6.44l0,0c0.25,0.62,1.1,2.56,2.88,4.44
			c-1.28,2.63-1.43,4.95-1.43,5.86v0.1c0,0.14,0.01,0.29,0.02,0.43c0.11,1.26,0.63,2.44,1.46,3.36c-5.97-2.66-12.34-4.08-19.26-4.29
			c-2.97-0.08-6.08,0.05-9.22,0.41c-11.74,1.35-27,9.81-35.34,25.69c-7.27,3.15-13.58,5.05-18.76,5.65c-3.61,0.42-6.75,0.59-9.6,0.5
			c-18.84-0.58-24.99-12.94-28.98-31.2c-0.01-0.07-0.03-0.13-0.05-0.2c-7.39-28.37-22.3-31.95-28.51-32.16
			c-1.25-0.04-2.53,0.04-3.78,0.23c-8.42,1.27-13.65,8.18-13.84,14.13c-0.19,5.56,3.61,10.05,9.73,11.36
			c0.68,0.15,1.4,0.23,2.44,0.27c0.78,0.03,1.66,0,2.49-0.03l0.12,0c0.83-0.02,1.63-0.04,2.63-0.01c3.18,0.11,7.98,0.25,9.75,10.92
			c1.38,8.39,4.45,20.57,11.27,30.94c8.73,13.28,21.06,20.26,36.64,20.74c6.62,0.2,13.89-0.83,21.69-3.09
			c-0.18,4.17-0.04,7.68,0.07,10.56c0.11,2.76,0.25,6.2-0.21,6.87c0,0-0.08,0.09-0.37,0.23l-0.96,0.48
			c-9.23,4.53-15.6,9.47-13.58,31.78c1.81,20.07,4.76,39.89,19.09,42.01c0.15,0.02,0.3,0.04,0.45,0.04
			c0.76,0.04,1.47,0.06,2.15,0.06c4.45,0,7.45-0.84,9.4-1.76c9.22-0.23,12.36-5.53,13.37-9.99c0.8-3.59,0.11-7.11-1.87-9.66
			c-1.67-2.14-4.1-3.38-6.7-3.38c-0.6,0-1.2,0.07-1.78,0.2c-0.86-0.26-1.76-0.41-2.71-0.44c-0.82-0.02-1.61,0.04-2.33,0.17
			c-0.96-0.97-2.05-2.5-2.33-4.63c-0.68-5.22,3.66-12.74,11.99-20.93c0.27,2.38,0.58,4.82,0.94,7.32
			c1.94,13.59,12.73,23.3,28.2,25.44c0.59,0.17,1.23,0.28,1.92,0.3c0.05,0,0.18,0,0.22,0c3.69,0,7.64-2.71,10.04-6.95
			c2.09-3.69,2.42-7.64,0.99-11.05c-0.16-1.92-0.92-3.77-2.21-5.33c-2.68-3.22-6.84-4.45-9.81-4.54l-0.52-0.01
			c-0.58,0-1.23,0.03-1.91,0.07c-0.58,0.03-1.18,0.06-1.78,0.06c-0.15,0-0.3,0-0.47-0.01c-0.03,0-0.05,0-0.08,0
			c-0.25-3.83,0.29-11.32,1.46-16.54c10.77,6.89,26.84,13.1,34.99,15.63c4.47,14.84,10.47,32.25,18.15,41.75
			c6.16,7.58,19.26,8.53,23.12,8.66c0.51,0.02,1.02,0.02,1.53,0.02c0.65,0,1.3-0.01,1.95-0.03c0.05,0,0.11-0.01,0.17-0.01
			c4.1-0.29,6.9-1.5,8.62-2.56c1.73-0.36,3.83-1.42,5.32-4.18c0.7-0.55,1.34-1.23,1.91-2.03c0.48-0.68,0.9-1.43,1.24-2.23
			c3.95-0.51,9.25-1.89,12.48-5.55c1.99-2.27,2.86-5.11,2.4-8.04c-1.04-6.64-6.49-9.31-10.13-11.11c-0.75-0.37-1.4-0.69-1.95-1.02
			c-2.71-1.63-3.4-4.01-4.57-8.9l-0.06-0.24c-0.13-0.56-0.27-1.13-0.41-1.64c-1.61-6.3-0.51-13.5,0.49-20.4l0.05-0.32
			c0.02-0.15,0.05-0.31,0.07-0.46c2.42-1.2,4.67-2.52,6.75-3.97c9.79-6.88,14.37-16.12,12.93-26.05c-0.02-0.23-0.06-0.45-0.11-0.68
			c0.34-0.24,0.63-0.47,0.89-0.68c3.85-1.15,16.73-5.08,29.87-9.87c16.05-5.86,23.67-13.51,27.26-19.79
			c0.05,0.02,0.11,0.04,0.16,0.06c0.04,0.02,0.09,0.03,0.13,0.04c0.58,0.18,1.17,0.28,1.77,0.28c1.7,0,3.27-0.76,4.3-1.98
			c2.76-3.31,3.35-6.83,2.73-9.92c0.23-0.24,0.45-0.48,0.65-0.74c1.21-1.53,2.56-4.15,2.05-8C341.42,73.93,340.27,72.3,338.52,71.45
			z"/>
		<path class="st11" d="M231.83,198.78c-0.88,0.16-1.77,0.23-2.65,0.2c-0.57-0.02-1.02-0.07-1.35-0.13
			c-0.78-2.44-2.13-8.11-2.76-14.56c0.91,1.76,1.84,3.48,2.76,5.18l0.25,0.47c1.31,2.44,2.67,4.96,3.85,7.39
			C231.99,197.53,231.91,198.21,231.83,198.78z M337.94,70.62c-1.65-0.79-3.64-0.75-5.34,0.23c-0.29,0.17-0.71,0.38-1.06,0.38h0
			c-3.01-0.09-8.97-9.8-12.88-16.44c4.3-11.21,8.72-36.75,5.71-43.77c-0.87-2.05-2.42-3.49-4.42-4.06c-0.71-0.2-1.54-0.32-2.58-0.36
			c-0.15,0-0.31-0.01-0.48-0.01c-6.86,0-25.78,4.36-39.93,17.08c-5.85-2.17-11.93-3.35-18.11-3.54c-8.44-0.27-15.17,1.34-19.3,2.7
			c-3.73-3.81-9.31-8.23-11.26-9.75c-12.7-9.91-15.99-10.01-17.46-10.05c-0.03,0-0.11,0-0.14,0c-0.73,0-1.43,0.11-2.09,0.33
			c-0.04,0.01-0.08,0.03-0.12,0.04c-12.53,4.55-12.51,35.33-11.66,46.53c-4.16,5.37-8.49,8.31-12.31,8.31l-0.27,0
			c-1.55-0.04-2.54-0.56-2.69-0.65c-1.98-1.22-4.63-1.09-6.55,0.45c-1.9,1.57-2.57,4.16-1.66,6.44l0,0c0.24,0.62,1.1,2.56,2.88,4.44
			c-1.28,2.63-1.43,4.95-1.43,5.86v0.1c0,0.14,0.01,0.29,0.02,0.43c0.11,1.26,0.63,2.44,1.46,3.36c-5.97-2.66-12.34-4.08-19.26-4.29
			c-2.97-0.08-6.08,0.05-9.22,0.41c-11.74,1.35-27,9.81-35.34,25.69c-7.27,3.15-13.58,5.05-18.76,5.65c-3.61,0.42-6.75,0.59-9.6,0.5
			c-18.84-0.58-25.21-12.89-28.98-31.2c-0.01-0.07-0.03-0.13-0.04-0.2c-7.11-28.44-22.31-31.96-28.51-32.16
			c-1.25-0.05-2.53,0.04-3.78,0.23C14.37,44.59,9.13,51.5,8.94,57.45c-0.19,5.56,3.61,10.01,9.73,11.36
			c0.68,0.14,1.4,0.22,2.44,0.27c0.78,0.02,1.66,0,2.49-0.03l0.12,0c0.83-0.02,1.63-0.04,2.63-0.01c3.18,0.1,7.98,0.25,9.75,10.92
			c1.38,8.39,4.45,20.57,11.27,30.94c8.73,13.28,21.06,20.26,36.64,20.74c6.62,0.2,13.89-0.83,21.69-3.1
			c-0.18,4.17-0.04,7.68,0.07,10.56c0.11,2.76,0.24,6.2-0.21,6.87c0,0-0.08,0.09-0.37,0.23l-0.96,0.48
			c-9.23,4.53-15.6,9.47-13.58,31.78c1.81,20.07,4.77,39.85,19.09,42.01c0.15,0.02,0.3,0.04,0.45,0.05
			c0.76,0.04,1.47,0.06,2.15,0.06c4.45,0,7.45-0.84,9.4-1.76c9.22-0.22,12.36-5.53,13.37-9.99c0.8-3.59,0.12-7.12-1.87-9.66
			c-1.66-2.15-4.1-3.38-6.7-3.38c-0.6,0-1.2,0.07-1.78,0.2c-0.86-0.26-1.76-0.41-2.7-0.44c-0.82-0.02-1.61,0.04-2.33,0.17
			c-0.96-0.96-2.05-2.5-2.33-4.63c-0.68-5.22,3.66-12.74,11.99-20.93c0.27,2.38,0.58,4.82,0.94,7.32
			c1.94,13.59,12.73,23.3,28.2,25.44c0.59,0.17,1.23,0.27,1.91,0.3c0.05,0,0.18,0,0.22,0c3.69,0,7.63-2.72,10.04-6.95
			c2.08-3.69,2.42-7.64,0.99-11.05c-0.16-1.92-0.92-3.77-2.21-5.33c-2.68-3.21-6.84-4.45-9.81-4.54l-0.51-0.01
			c-0.58,0-1.23,0.03-1.91,0.07c-0.58,0.03-1.18,0.06-1.78,0.06c-0.15,0-0.3,0-0.47-0.01c-0.03,0-0.05,0-0.08,0
			c-0.25-3.83,0.29-11.32,1.46-16.54c10.78,6.89,26.84,13.1,34.99,15.63c4.47,14.84,10.47,32.25,18.15,41.75
			c6.16,7.58,19.26,8.54,23.12,8.66c0.51,0.02,1.02,0.03,1.53,0.03c0.65,0,1.3-0.01,1.95-0.04c0.05,0,0.11-0.01,0.17-0.01
			c4.1-0.29,6.9-1.5,8.62-2.56c1.73-0.36,3.83-1.42,5.31-4.18c0.7-0.55,1.34-1.23,1.91-2.03c0.48-0.68,0.9-1.43,1.24-2.23
			c3.95-0.51,9.25-1.89,12.48-5.55c1.99-2.27,2.85-5.11,2.4-8.04c-1.07-6.63-6.49-9.31-10.13-11.11c-0.75-0.37-1.41-0.69-1.95-1.02
			c-2.72-1.62-3.4-4.01-4.57-8.91l-0.06-0.24c-0.13-0.56-0.27-1.13-0.41-1.64c-1.56-6.31-0.51-13.5,0.49-20.4l0.05-0.32
			c0.02-0.15,0.05-0.31,0.07-0.46c2.42-1.19,4.67-2.52,6.75-3.97c9.79-6.88,14.37-16.12,12.93-26.05c-0.02-0.23-0.06-0.45-0.11-0.68
			c0.34-0.24,0.63-0.47,0.89-0.68c3.85-1.15,16.73-5.08,29.87-9.88c16.05-5.86,23.67-13.51,27.25-19.79
			c0.05,0.02,0.11,0.04,0.16,0.06c0.04,0.02,0.09,0.03,0.13,0.04c0.57,0.19,1.17,0.28,1.77,0.28c1.7,0,3.29-0.75,4.3-1.99
			c2.79-3.28,3.35-6.83,2.73-9.92c0.23-0.24,0.45-0.48,0.65-0.74c1.22-1.52,2.56-4.15,2.05-8
			C340.84,73.11,339.68,71.49,337.94,70.62z"/>
	</g>
	<path class="st0" d="M337.94,70.62c-1.65-0.79-3.64-0.75-5.34,0.23c-0.29,0.17-0.71,0.38-1.06,0.38h0
		c-3.01-0.09-8.97-9.8-12.88-16.44c4.3-11.21,8.72-36.75,5.71-43.77c-0.87-2.05-2.42-3.49-4.42-4.06c-0.71-0.2-1.54-0.32-2.58-0.36
		c-0.15,0-0.31-0.01-0.48-0.01c-6.86,0-25.78,4.36-39.93,17.08c-5.85-2.17-11.93-3.35-18.11-3.54c-8.44-0.27-15.17,1.34-19.3,2.7
		c-3.73-3.81-9.31-8.23-11.26-9.75c-12.7-9.91-15.99-10.01-17.46-10.05c-0.03,0-0.11,0-0.14,0c-0.73,0-1.43,0.11-2.09,0.33
		c-0.04,0.01-0.08,0.03-0.12,0.04c-12.53,4.55-12.51,35.33-11.66,46.53c-4.16,5.37-8.49,8.31-12.31,8.31l-0.27,0
		c-1.55-0.04-2.54-0.56-2.69-0.65c-1.98-1.22-4.63-1.09-6.55,0.45c-1.9,1.57-2.57,4.16-1.66,6.44l0,0c0.24,0.62,1.1,2.56,2.88,4.44
		c-1.28,2.63-1.43,4.95-1.43,5.86v0.1c0,0.14,0.01,0.29,0.02,0.43c0.11,1.26,0.63,2.44,1.46,3.36c-5.97-2.66-12.34-4.08-19.26-4.29
		c-2.97-0.08-6.08,0.05-9.22,0.41c-11.74,1.35-27,9.81-35.34,25.69c-7.27,3.15-13.58,5.05-18.76,5.65c-3.61,0.42-6.75,0.59-9.6,0.5
		c-18.84-0.58-25.21-12.89-28.98-31.2c-0.01-0.07-0.03-0.13-0.04-0.2c-7.11-28.44-22.31-31.96-28.51-32.16
		c-1.25-0.05-2.53,0.04-3.78,0.23C14.37,44.59,9.13,51.5,8.94,57.45c-0.19,5.56,3.61,10.01,9.73,11.36c0.68,0.14,1.4,0.22,2.44,0.27
		c0.78,0.02,1.66,0,2.49-0.03l0.12,0c0.83-0.02,1.63-0.04,2.63-0.01c3.18,0.1,7.98,0.25,9.75,10.92
		c1.38,8.39,4.45,20.57,11.27,30.94c8.73,13.28,21.06,20.26,36.64,20.74c6.62,0.2,13.89-0.83,21.69-3.1
		c-0.18,4.17-0.04,7.68,0.07,10.56c0.11,2.76,0.24,6.2-0.21,6.87c0,0-0.08,0.09-0.37,0.23l-0.96,0.48
		c-9.23,4.53-15.6,9.47-13.58,31.78c1.81,20.07,4.77,39.85,19.09,42.01c0.15,0.02,0.3,0.04,0.45,0.05c0.76,0.04,1.47,0.06,2.15,0.06
		c4.45,0,7.45-0.84,9.4-1.76c9.22-0.22,12.36-5.53,13.37-9.99c0.8-3.59,0.12-7.12-1.87-9.66c-1.66-2.15-4.1-3.38-6.7-3.38
		c-0.6,0-1.2,0.07-1.78,0.2c-0.86-0.26-1.76-0.41-2.7-0.44c-0.82-0.02-1.61,0.04-2.33,0.17c-0.96-0.96-2.05-2.5-2.33-4.63
		c-0.68-5.22,3.66-12.74,11.99-20.93c0.27,2.38,0.58,4.82,0.94,7.32c1.94,13.59,12.73,23.3,28.2,25.44c0.59,0.17,1.23,0.27,1.91,0.3
		c0.05,0,0.18,0,0.22,0c3.69,0,7.63-2.72,10.04-6.95c2.08-3.69,2.42-7.64,0.99-11.05c-0.16-1.92-0.92-3.77-2.21-5.33
		c-2.68-3.21-6.84-4.45-9.81-4.54l-0.51-0.01c-0.58,0-1.23,0.03-1.91,0.07c-0.58,0.03-1.18,0.06-1.78,0.06c-0.15,0-0.3,0-0.47-0.01
		c-0.03,0-0.05,0-0.08,0c-0.25-3.83,0.29-11.32,1.46-16.54c10.78,6.89,26.84,13.1,34.99,15.63c4.47,14.84,10.47,32.25,18.15,41.75
		c6.16,7.58,19.26,8.54,23.12,8.66c0.51,0.02,1.02,0.03,1.53,0.03c0.65,0,1.3-0.01,1.95-0.04c0.05,0,0.11-0.01,0.17-0.01
		c4.1-0.29,6.9-1.5,8.62-2.56c1.73-0.36,3.83-1.42,5.31-4.18c0.7-0.55,1.34-1.23,1.91-2.03c0.48-0.68,0.9-1.43,1.24-2.23
		c3.95-0.51,9.25-1.89,12.48-5.55c1.99-2.27,2.85-5.11,2.4-8.04c-1.07-6.63-6.49-9.31-10.13-11.11c-0.75-0.37-1.41-0.69-1.95-1.02
		c-2.72-1.62-3.4-4.01-4.57-8.91l-0.06-0.24c-0.13-0.56-0.27-1.13-0.41-1.64c-1.56-6.31-0.51-13.5,0.49-20.4l0.05-0.32
		c0.02-0.15,0.05-0.31,0.07-0.46c2.42-1.19,4.67-2.52,6.75-3.97c9.79-6.88,14.37-16.12,12.93-26.05c-0.02-0.23-0.06-0.45-0.11-0.68
		c0.34-0.24,0.63-0.47,0.89-0.68c3.85-1.15,16.73-5.08,29.87-9.88c16.05-5.86,23.67-13.51,27.25-19.79
		c0.05,0.02,0.11,0.04,0.16,0.06c0.04,0.02,0.09,0.03,0.13,0.04c0.57,0.19,1.17,0.28,1.77,0.28c1.7,0,3.29-0.75,4.3-1.99
		c2.79-3.28,3.35-6.83,2.73-9.92c0.23-0.24,0.45-0.48,0.65-0.74c1.22-1.52,2.56-4.15,2.05-8C340.84,73.11,339.68,71.49,337.94,70.62
		z M231.83,198.78c-0.88,0.16-1.77,0.23-2.65,0.2c-0.57-0.02-1.02-0.07-1.35-0.13c-0.78-2.44-2.13-8.11-2.76-14.56
		c0.91,1.76,1.84,3.48,2.76,5.18l0.25,0.47c1.31,2.44,2.67,4.96,3.85,7.39C231.99,197.53,231.91,198.21,231.83,198.78z"/>
	<g>
		<path class="st12" d="M248.02,209.4L248.02,209.4c-5.13-0.16-9.01-1.6-10.65-3.96c-1.31-1.89-1.03-3.83-0.77-5.69
			c0.21-1.57,0.42-3.04-0.28-4.5c-1.29-2.67-2.73-5.34-4.12-7.92c-2.59-4.79-5.28-9.75-7.13-15.02c-3.78-10.72-4.54-21.34-2.2-30.72
			c1.1-4.45,3.17-9.66,9.42-10.47c1.06-0.13,2.21-0.18,3.49-0.13c1.91,0.05,3.84,0.29,5.7,0.53c0.82,0.1,1.61,0.21,2.4,0.29
			c2.09,0.22,5,0.74,6.21,2.65c0.62,0.96,0.69,2.15,0.23,3.5c-0.55,1.59-0.94,3.25-1.28,4.82c-0.8,3.53-1.33,7.23-1.84,10.81
			c-0.12,0.81-0.23,1.62-0.35,2.41l-0.04,0.26c-1.08,7.43-2.21,15.11-0.42,22.36c0.16,0.62,0.31,1.24,0.46,1.85
			c1.18,4.93,2.19,9.19,6.81,11.94c0.7,0.43,1.49,0.81,2.34,1.23c3.17,1.57,6.76,3.35,7.43,7.5c0.22,1.47-0.2,2.87-1.25,4.06
			C259.42,208.33,253.09,209.55,248.02,209.4z M235.72,132.57c-1.19-0.04-2.25,0-3.23,0.14c-5.26,0.67-7.04,5.05-8.08,9.25
			c-2.25,9.08-1.51,19.38,2.17,29.81c1.81,5.16,4.46,10.05,7.02,14.79c1.4,2.6,2.85,5.28,4.16,7.99c0.92,1.89,0.65,3.77,0.42,5.41
			c-0.25,1.71-0.44,3.17,0.51,4.56c1.33,1.91,4.83,3.14,9.38,3.27c5.55,0.18,10.86-1.32,12.89-3.64c0.75-0.85,1.04-1.75,0.88-2.75
			c-0.54-3.35-3.6-4.86-6.56-6.33c-0.87-0.43-1.68-0.84-2.45-1.29c-5.2-3.1-6.35-7.88-7.55-12.94c-0.14-0.6-0.29-1.21-0.44-1.83
			c-1.89-7.57-0.73-15.4,0.39-22.97l0.03-0.27c0.12-0.79,0.23-1.6,0.35-2.4c0.51-3.62,1.06-7.34,1.85-10.95
			c0.36-1.61,0.76-3.33,1.33-4.99c0.32-0.89,0.29-1.58-0.07-2.13c-0.94-1.48-4.01-1.81-5.03-1.9c-0.79-0.09-1.6-0.2-2.45-0.3
			C239.44,132.87,237.55,132.63,235.72,132.57z"/>
		<path class="st12" d="M160.55,198.39c-0.34-0.01-0.66-0.07-0.94-0.2c-13.49-1.71-22.88-9.9-24.51-21.38
			c-3.16-22.22-2.77-38.13,1.21-48.64c0.13-0.31,0.43-0.52,0.77-0.51c10.06,0.26,27.6-0.78,33.01-3.33
			c0.29-0.14,0.62-0.09,0.87,0.11c7.41,6.31,9.78,16.4,9.52,18.75c-0.03,0.18-0.11,0.36-0.25,0.49c-3.33,3.16-9.27,3.77-15.02,4.34
			c-3.94,0.4-7.65,0.78-9.77,1.98c-4.66,2.65-6.03,21.83-5.22,27.35c0.29,2.02,1.67,2.91,4.62,3c0.89,0.03,1.79-0.01,2.66-0.06
			c0.69-0.04,1.33-0.07,1.88-0.06l0.1,0c2,0.06,4.72,0.94,6.26,2.79c0.83,1,1.21,2.15,1.1,3.37c1.24,2.15,1.11,4.87-0.38,7.52
			C164.94,196.56,162.47,198.45,160.55,198.39z M137.61,129.28c-3.69,10.26-3.99,25.74-0.92,47.3c1.19,8.45,7.93,18.15,23.24,20.03
			c0.09,0.01,0.18,0.04,0.26,0.09c0.95,0.47,3.37-0.96,4.86-3.58c0.6-1.06,1.81-3.75,0.28-6.13c-0.11-0.16-0.14-0.35-0.12-0.56
			c0.13-0.85-0.11-1.66-0.72-2.39c-1.04-1.25-3.12-2.16-5.06-2.22l-0.08,0c-0.5-0.02-1.12,0.03-1.77,0.06
			c-0.85,0.05-1.84,0.1-2.79,0.07c-1.37-0.04-5.55-0.17-6.16-4.39c-0.71-4.88,0.13-25.61,6.02-28.97c2.4-1.37,6.3-1.77,10.4-2.18
			c5.08-0.51,10.83-1.09,13.84-3.7c-0.04-2.13-2.01-10.88-8.6-16.74C163.8,128.67,146.32,129.45,137.61,129.28z"/>
		<g>
			<path class="st0" d="M219.39,136.32c0,0-6.22,10.54-4.32,23.83C213,152.52,213.69,143.71,219.39,136.32z"/>
			<g>
				<path class="st0" d="M253.24,193.11c-5.51-3.29-6.19-8.53-7.62-14.29c-1.88-7.5-0.68-15.4,0.42-22.93
					c0.65-4.41,1.22-8.94,2.19-13.29c0.37-1.66,0.75-3.32,1.32-4.92c1.44-4.14-3.54-4.85-5.78-5.09c-3.68-0.39-7.7-1.15-11.38-0.69
					c-5.57,0.73-7.61,5.17-8.76,9.88c-2.49,10.07-1.23,20.56,2.19,30.26c2.83,8.05,7.53,15.21,11.21,22.85
					c1.7,3.53-1.18,6.95,1,10.09c4.29,6.17,25.85,4.18,24.6-3.71C261.86,196.49,256.62,195.12,253.24,193.11z"/>
			</g>
			<g>
				<path class="st13" d="M230.5,166.62c0.1-0.22,1.03,3.45,1.2,5.15c1.5-2.5,2.69-5.16,3.92-7.8c0.15-0.31,4.12,11.29,9.66,13.31
					c-1.37-7.03-0.26-14.37,0.77-21.39c0.65-4.41,1.22-8.94,2.19-13.29c0.37-1.66,0.75-3.32,1.32-4.92
					c1.44-4.14-3.54-4.85-5.78-5.09c-3.68-0.39-7.7-1.15-11.38-0.69c-5.57,0.73-7.61,5.17-8.76,9.88
					c-2.49,10.07-1.23,20.56,2.19,30.26c0.51,1.46,1.09,2.89,1.71,4.3C228.29,173.03,229.06,169.73,230.5,166.62z"/>
			</g>
			<g class="st14">
				<path class="st15" d="M262.63,201.27c-0.77-4.78-6.01-6.16-9.38-8.16c-5.51-3.29-6.19-8.53-7.62-14.29
					c-1.88-7.5-0.68-15.4,0.42-22.93c0.65-4.41,1.22-8.94,2.19-13.29c0.37-1.66,0.75-3.32,1.32-4.92c1.44-4.14-3.54-4.85-5.78-5.09
					c-3.68-0.39-7.7-1.15-11.38-0.69c-5.57,0.73-7.61,5.17-8.76,9.88c-2.49,10.07-1.23,20.56,2.19,30.26
					c2.83,8.05,7.53,15.21,11.21,22.85c1.7,3.53-1.18,6.95,1,10.09C242.32,211.15,263.88,209.16,262.63,201.27z M238.46,192.73
					c-1.22-1.01-2.1-2.71-2.89-4.05c-1.39-2.34-2.62-4.74-3.67-7.24c-0.92-2.17-1.72-4.38-2.45-6.62c-1.04-2.59-1.91-5.23-2.41-7.92
					c-0.57-3.12,1.47-5.53,4.55-6.12c2.88-0.56,6.1-0.07,5.7,3.49c-0.57,5.12-0.06,10.57,1.24,15.55c0.9,3.46,2.73,6.69,3.16,10.28
					C241.94,192.14,240.56,194.43,238.46,192.73z M249.58,205.7c-1.66,0.23-3.78-0.81-4.42-2.42c-0.46-1.12-0.06-1.92,0.69-2.41
					c0.01-0.11,0.07-0.21,0.21-0.27c0.3-0.12,0.61-0.19,0.95-0.24c0.25-0.07,0.5-0.11,0.76-0.15c0.15-0.01,0.27,0.05,0.36,0.14
					c1.26,0.18,2.46,0.87,3.23,1.86C252.66,203.86,251.41,205.44,249.58,205.7z M255.63,203.09c-0.89-0.49-1.76-1.28-2.19-2.22
					c-0.25-0.55-0.25-1.32,0.29-1.71c0.71-0.51,1.55-0.46,2.32-0.14c0.07-0.02,0.14-0.04,0.23-0.01c1.18,0.29,1.89,1.68,1.8,2.84
					C257.97,203.23,256.82,203.73,255.63,203.09z"/>
			</g>
			<g>
				<g>
					<g>
						<path class="st0" d="M170.43,125.05c-5.91,2.8-24.21,3.65-33.38,3.41c-3.72,9.85-4.49,24.86-1.16,48.24
							c1.73,12.08,12.05,19.25,23.94,20.71c2.79,1.43,9.42-5.8,6.18-10.84c0.5-3.4-3.6-5.48-6.64-5.54
							c-3.04-0.05-9.24,1.3-9.94-3.56c-0.7-4.88,0.29-25.13,5.63-28.17c5.33-3.03,19.18-1.04,24.62-6.21
							C179.88,141.22,177.8,131.33,170.43,125.05z"/>
					</g>
					<g>
						<path class="st13" d="M166.01,186.57c0.5-3.4-3.6-5.48-6.64-5.54c-3.04-0.05-9.24,1.3-9.94-3.56
							c-0.28-1.96-0.29-6.4,0.15-11.21c-0.5,0.37-1.05,0.63-1.73,0.71c-1.58,0.18-3.62-0.86-5.06,0c-1.52,0.91-1.94,2.31-2.54,3.86
							c-0.55,1.4-1.99,4.88-4.17,3.51c-0.21-0.13-0.4-0.29-0.56-0.47c0.12,0.93,0.25,1.88,0.38,2.83
							c1.73,12.08,12.05,19.25,23.94,20.71C162.62,198.84,169.25,191.61,166.01,186.57z"/>
					</g>
					<g>
						<path class="st15" d="M170.43,125.05c-5.91,2.8-24.21,3.65-33.38,3.41c-2.82,7.47-3.94,17.92-2.87,32.72
							c3.48-2.13,7.82-3.21,11.62-3.72c0.23-0.03,0.53,0.12,0.5,0.4c-0.47,3.39-1.25,6.81-1.22,10.24
							c0.03,3.34,0.61,7.56,3.15,10.02c0.63,0.62,1.31,1.05,2.03,1.37c-0.41-0.51-0.72-1.17-0.84-2.02
							c-0.7-4.88,0.29-25.13,5.63-28.17c5.33-3.03,19.18-1.04,24.62-6.21C179.88,141.22,177.8,131.33,170.43,125.05z"/>
					</g>
					<g class="st16">
						<path class="st17" d="M150.06,143.09c0,0-1.16,12.71-2.67,24.76C150.32,157.35,150.89,147.94,150.06,143.09z"/>
					</g>
					<path class="st17" d="M170.34,138.46c0,0-7.25,4.71-15.81,5.63C161.72,144.57,169,141.76,170.34,138.46z"/>
					<path class="st12" d="M159.28,189.17c0,0,4.16,0.57,5.36,3.83C165.52,194.97,166.47,189.21,159.28,189.17z"/>
					<path class="st12" d="M161.15,185.65c0,0,4.46,1.35,5.34,4.05C166.85,187.25,163.78,185.9,161.15,185.65z"/>
					<path class="st12" d="M160.34,181.57c0,0,4.46,1.35,5.34,4.04C166.03,183.15,162.97,181.81,160.34,181.57z"/>
					<g>
						<path class="st18" d="M155.05,149.3c5.33-3.03,19.18-1.04,24.62-6.21c0.21-1.87-1.87-11.76-9.23-18.04
							c-5.91,2.8-24.21,3.65-33.38,3.41c-3.72,9.85-4.49,24.86-1.16,48.24c1.73,12.08,12.05,19.25,23.94,20.71
							c2.79,1.43,9.42-5.8,6.18-10.84c0.5-3.4-3.6-5.48-6.64-5.54c-3.04-0.05-9.24,1.3-9.94-3.56
							C148.72,172.59,149.72,152.34,155.05,149.3z M162.96,186.85c0.26,0.45,0.26,1.01-0.17,1.35c-0.42,0.33-1.07,0.31-1.57,0.24
							c-0.67-0.09-3.19-0.68-2.53-1.83c0.21-0.38,0.61-0.57,1.05-0.65c0.04-0.04,0.1-0.07,0.18-0.07
							C160.87,185.89,162.42,185.94,162.96,186.85z M157.62,182.63c0.88-0.4,2.19-0.58,3.06-0.03c0.88,0.13,1.72,0.55,1.65,1.41
							c-0.14,1.75-2.98,1.07-3.99,0.73c-0.53-0.17-1.35-0.44-1.47-1.08C156.78,183.18,157.23,182.81,157.62,182.63z M152.02,183.88
							c1.25,0.67,2.6,1.38,3.52,2.49c0.51,0.63,0.92,1.31,1.31,2.01c1.18,0.47,2.74,1.22,3.08,2.48c1.08,3.97-7.51,1.78-8.98,1.29
							c-2.69-0.9-5.52-2.04-7.72-3.86c-1.85-1.54-3.13-3.46-4.08-5.66c-1.39-3.2-2.2-6.71-2.65-10.28c-0.3-1.8-0.42-3.63-0.46-5.47
							c-0.04-1.09-0.07-2.17-0.07-3.23c0-0.09,0.03-0.16,0.08-0.21c0-0.25,0.01-0.5,0.01-0.75c0.01-0.35,0.44-0.36,0.56-0.07
							c0.5,1.21,0.94,2.46,1.66,3.57c1.58-3.69,3.7-7.02,6.58-9.85c0.16-0.16,0.51-0.06,0.48,0.2c-0.4,3.67-0.7,7.37-0.55,11.07
							c0.12,3.07,0.08,6.4,0.89,9.38C146.63,180.5,148.95,182.21,152.02,183.88z"/>
					</g>
				</g>
				<g>
					<g>
						<path class="st13" d="M148.1,86.74c0,0-31.34,22.39-53.75,25.03c-22.42,2.62-38.2-3.32-44.75-35.15
							C43.87,53.68,32.42,47.58,23.63,48.9c-8.81,1.34-13.18,12.32-3.79,14.37c4.71,1.03,18.56-4.13,21.83,15.77
							c3.65,22.2,20.69,78.8,104.09,23.36C148.98,100.44,148.1,86.74,148.1,86.74z"/>
						<path class="st12" d="M84.16,126.8L84.16,126.8c-13.92-0.43-24.93-6.68-32.74-18.56c-6.35-9.66-9.23-21.14-10.54-29.07
							c-2.14-12.95-8.81-14.81-14.38-14.99c-1.06-0.04-2.06-0.01-3.02,0.01c-0.81,0.03-1.57,0.04-2.25,0.03
							c-0.63-0.03-1.13-0.08-1.57-0.17c-3.78-0.83-5.98-3.23-5.87-6.45c0.13-3.87,3.88-8.62,9.72-9.5c0.96-0.14,1.94-0.2,2.91-0.17
							c5.11,0.16,17.65,3.25,23.96,28.48c4.94,24.01,14.98,34.49,33.58,35.07c3.12,0.09,6.49-0.08,10.31-0.53
							c21.94-2.57,53.05-24.66,53.36-24.88c0.25-0.16,0.56-0.19,0.82-0.07c0.25,0.13,0.42,0.39,0.45,0.67
							c0.15,2.37,0.75,14.3-2.71,16.4C121.75,119.34,100.87,127.32,84.16,126.8z M26.55,62.59c5.71,0.17,13.56,2.05,15.91,16.32
							c6.47,39.34,28.94,45.9,41.75,46.29h0.01c16.36,0.5,36.93-7.39,61.12-23.46c1.79-1.1,2.24-8.13,2.05-13.53
							c-2.6,1.79-9.19,6.2-17.36,10.75c-9.76,5.44-23.87,12.22-35.57,13.59c-3.9,0.46-7.35,0.63-10.54,0.53
							c-19.22-0.6-30.05-11.8-35.1-36.31c-6.02-24.14-17.7-27.1-22.44-27.24c-0.88-0.03-1.76,0.02-2.62,0.16
							c-5.04,0.76-8.26,4.72-8.36,7.97c-0.08,2.45,1.57,4.15,4.62,4.83c0.72,0.15,1.99,0.14,3.43,0.11
							C24.37,62.58,25.44,62.56,26.55,62.59z"/>
						<path class="st18" d="M148.1,86.74c0,0-19.99,14.28-39.46,21.38c0.57,3.14-4.7,5.37-6.83,6.27c-4.06,1.71-8.33,2.8-12.72,3.17
							c-12.12,1.05-27.11-1.4-34.37-12.27c-3.76-5.64-5.22-12.32-6.82-18.81c-1.64-6.67-3.77-13.36-7.88-18.99
							c-1.98-2.72-4.39-5.16-7.29-6.9c-2.92-1.76-5.98-2.45-9.16-3.51c-2.32-0.77-4.35-2.24-4.5-4.9c-0.04-0.62,0.06-1.17,0.21-1.68
							c-5.62,3.46-7.14,11.1,0.53,12.79c4.71,1.03,18.56-4.13,21.83,15.77c3.65,22.2,20.69,78.8,104.09,23.36
							C148.98,100.44,148.1,86.74,148.1,86.74z"/>
					</g>
					<g class="st19">
						<path class="st0" d="M41.24,70.53c-0.05-4.39,2.41,3.02,2.72,0.31c0.25-2.17,2.24-0.97,4.38,1.32
							C42.32,52.89,31.81,47.66,23.63,48.9c-8.81,1.34-13.18,12.32-3.79,14.37c4.27,0.93,16.07-3.24,20.66,10.85
							C40.94,73.2,41.27,72.01,41.24,70.53z"/>
					</g>
					<g>
						<path class="st20" d="M113.09,106.38c4.52-0.96,9.28-2.47,13.94-4.83c12.39-6.26,12.89-4.59,9.93-0.66
							c1.76-1.12,3.56-2.29,5.39-3.5c3.22-1.95,5.74-10.65,5.74-10.65S131.03,98.93,113.09,106.38z"/>
					</g>
					<path class="st21" d="M71.2,119.64c0,0,26.82,6.59,52.45-8.33C105.65,124.74,78.38,125.88,71.2,119.64z"/>
					<path class="st17" d="M18.82,50.83c0,0,0.46-0.32,1.35-0.75c0.46-0.21,1.01-0.44,1.68-0.65c0.66-0.2,1.42-0.41,2.26-0.52
						c0.84-0.12,1.78-0.2,2.75-0.15c0.98,0.06,2.02,0.15,3.07,0.45c1.03,0.28,2.09,0.66,3.1,1.18c1.01,0.49,1.96,1.12,2.91,1.79
						c0.43,0.36,0.88,0.71,1.3,1.08c0.41,0.39,0.85,0.77,1.23,1.18c0.38,0.42,0.78,0.81,1.13,1.23c0.35,0.41,0.7,0.83,1.04,1.24
						c0.63,0.86,1.25,1.68,1.75,2.52c0.55,0.81,1,1.62,1.42,2.34c0.44,0.73,0.75,1.46,1.06,2.07c0.33,0.61,0.56,1.16,0.77,1.61
						c0.39,0.91,0.61,1.42,0.61,1.42s-0.26-0.51-0.71-1.37c-0.22-0.45-0.5-0.98-0.84-1.57c-0.36-0.59-0.7-1.28-1.16-2
						c-0.44-0.72-0.91-1.49-1.47-2.27c-0.54-0.81-1.18-1.6-1.81-2.44c-0.34-0.4-0.69-0.81-1.03-1.22c-0.37-0.4-0.75-0.79-1.12-1.18
						c-0.4-0.4-0.82-0.77-1.22-1.13c-0.42-0.37-0.86-0.71-1.29-1.06c-0.9-0.65-1.81-1.29-2.8-1.76c-0.97-0.52-1.97-0.89-2.98-1.18
						c-1-0.29-2-0.44-2.95-0.52c-0.96-0.09-1.86-0.03-2.7,0.06c-0.82,0.08-1.58,0.25-2.24,0.41c-0.66,0.16-1.23,0.38-1.68,0.54
						C19.3,50.54,18.82,50.83,18.82,50.83z"/>
				</g>
				<g>
					<path class="st0" d="M265.76,126.85c-0.12-0.49-0.24-0.97-0.34-1.44c-1.9-9.22,3.4-14.7,3.4-14.7l-27.88-8.92
						c0,0-10.62,9.5-20.09,8.54c-9.46-0.95-27.09-13-37.67-21c-10.58-8-22.18-10.35-34.71-8.91c-12.55,1.44-30.74,12.88-35.43,35.07
						c-4.68,22.18,2.3,32-5.33,35.79c-7.64,3.79-13.36,5.59-11.44,26.7c1.91,21.12,5.12,35.53,14.23,36.92
						c7.31,0.41,9.76-1.71,9.76-1.71c4.56,0.14,8.26-0.84,9.33-5.58c1.05-4.72-2.51-7.77-4.96-5.27c-2.31-2.27-6.04-0.38-6.04-0.38
						s-20.77-10.82,9.65-38.47c7.34-7.67,22.27-17.87,23.09-16.18c7.02,9.74,36.75,20.79,44.56,22.69
						c4.31,14.59,10.42,33.38,18,42.77c4.01,4.94,14,6.88,21.98,6.56c5-0.35,6.97-2.44,6.97-2.44c2.01,0.32,2.58-1.69,2.93-2.69
						c1.58-0.14,3.76-3.63,2.73-7.71c-1.04-4.09-5.42-6.97-10.31-4.02c-4.9,2.93-13.48,2.87-15.03-0.13
						c-1.56-3-8.11-28.7-0.35-42.55c7.36-1.42,19.58-5.81,19.58-5.81S268.78,146.19,265.76,126.85z"/>
					<path class="st13" d="M222.8,159.79c0.12-0.03,0.24-0.05,0.36-0.07c1.08-2.97,2.45-5.83,4-8.46
						c3.32-5.65,7.99-11.15,14.11-13.78c-1.54,0.27-3.06,0.59-4.58,0.97c-0.26,0.06-0.5-0.28-0.28-0.48
						c2.76-2.44,5.89-4.41,9.18-6.04c-2.22,0.02-4.45,0.09-6.63,0.55c-0.31,0.06-0.51-0.35-0.22-0.52c4.72-2.7,9.4-5.82,14.83-6.92
						c2.65-0.53,5.18-0.62,7.86-0.27c1.3,0.17,2.63,0.44,3.97,0.58c-1.88-9.18,3.41-14.65,3.41-14.65l-27.88-8.92
						c0,0-10.62,9.5-20.09,8.54c-9.46-0.95-27.09-13-37.67-21c-10.58-8-22.18-10.35-34.71-8.91c-12.55,1.44-30.74,12.88-35.43,35.07
						c-2.28,10.79-1.79,18.66-1.57,24.32c0.47-0.58,0.96-1.13,1.5-1.65c0.22-0.2,0.53,0.01,0.48,0.28
						c-0.35,1.91-1.52,4.29-0.89,6.23c0.64,2,2.65,3.17,4.5,3.9c3.53,1.36,7.47,1.99,11.24,1.87c1.78-0.06,3.68-0.22,5.3-1
						c2.1-1,3.88-2.51,5.68-3.96c3.36-2.72,7.5-4.68,10.23-8.08c0.21-0.25,0.61,0.07,0.45,0.34c-0.71,1.21-1.51,2.36-2.16,3.6
						c5.48-1.34,10.5-5.21,14.79-8.68c0.25-0.2,0.61,0.05,0.45,0.35c-0.75,1.47-1.57,2.93-2.11,4.5c1.07-1.13,2.12-2.27,3.42-3.18
						c0.21-0.15,0.49,0.09,0.42,0.31c-1.12,4.04,0.13,8.03,2.24,11.49c0.34-1.6,0.65-3.22,1-4.82c0.06-0.28,0.48-0.26,0.55,0
						c3.05,10.62,17.78,13.19,27.11,11.16c0.23-0.05,0.46,0.2,0.32,0.42c-1.27,2.02-1.08,4.68-0.83,6.96
						c0.24,2.29,0.58,4.55,0.75,6.85c0.13,1.76,0.33,3.5,0.57,5.24c1.32,4.42,2.8,9.15,4.42,13.84c0.1-0.68,0.25-1.36,0.45-2.05
						c0.09-0.32,1.44,5.27,2.63,7.6c0.5-2.23,0.6-4.56,1.72-6.62c1.23-2.24,2.99-4.06,4.02-6.43c2.13-4.95,2.66-10.4,4.7-15.38
						c0.11-0.28,0.45,3.78,0.76,5.6c1.66-3.51,3.97-6.28,7.24-7.92C222.51,160.32,222.65,160.05,222.8,159.79z"/>
					<path class="st12" d="M232.76,220.15c-6.9-0.21-15.66-2.13-19.51-6.87c-7.54-9.34-13.58-27.6-18.02-42.62
						c-7.79-2.03-37.13-12.87-44.47-22.73c-2.49,0.29-15.24,9.08-21.97,16.11c-11.61,10.56-17.21,20.13-16.23,27.69
						c0.73,5.63,4.87,8.59,6.06,9.33c0.63-0.26,1.88-0.68,3.26-0.64c1.05,0.03,1.95,0.32,2.73,0.86c1.52-1.08,3.53-0.72,4.77,0.88
						c1.11,1.42,1.45,3.47,0.97,5.63c-1.26,5.59-5.88,6.29-9.86,6.2c-0.87,0.56-3.74,2.06-10.05,1.7
						c-9.76-1.47-13.05-16.11-14.99-37.65c-1.87-20.72,3.75-23.48,10.89-26.99l0.99-0.49c3.67-1.82,3.52-5.13,3.26-11.71
						c-0.22-5.6-0.53-13.26,1.64-23.53c5-23.71,24.33-34.34,36.1-35.7c2.93-0.34,5.79-0.46,8.52-0.38
						c10.02,0.31,18.79,3.41,26.79,9.45c7.84,5.93,27.19,19.82,37.27,20.84c9.04,0.93,19.37-8.25,19.47-8.34
						c0.22-0.18,0.52-0.25,0.78-0.15l27.87,8.91c0.27,0.08,0.47,0.3,0.54,0.57c0.06,0.27-0.02,0.55-0.21,0.75
						c-0.05,0.05-5,5.32-3.2,13.98c0.1,0.45,0.22,0.92,0.34,1.4c0.01,0.02,0.02,0.06,0.01,0.08c1.28,8.23-2.48,15.7-10.89,21.61
						c-6.27,4.39-12.78,6.34-13.06,6.42c-0.08,0.02-11.91,4.26-19.29,5.74c-7.39,13.77-0.82,38.85,0.54,41.48
						c0.56,1.06,2.53,1.77,5.19,1.85c3.12,0.1,6.47-0.68,8.73-2.04c1.53-0.92,3.09-1.36,4.61-1.31c3.26,0.1,6.02,2.44,6.89,5.83
						c0.75,2.98-0.08,5.62-1.12,7.08c-0.53,0.75-1.14,1.28-1.77,1.5c-0.39,1.09-1.17,2.91-3.27,2.85c-0.77,0.63-2.99,2.11-7.19,2.41
						C234.86,220.17,233.81,220.18,232.76,220.15z M151.97,146.88c6.76,9.29,35.39,20.23,44.08,22.34c0.28,0.07,0.5,0.28,0.59,0.55
						c4.41,14.96,10.43,33.29,17.85,42.5c3.51,4.32,11.76,6.07,18.32,6.28c1.01,0.02,2.02,0.02,3-0.01c4.56-0.33,6.4-2.18,6.43-2.2
						c0.17-0.19,0.44-0.28,0.69-0.24c1.04,0.17,1.5-0.55,1.99-1.99l0.07-0.18c0.1-0.3,0.37-0.51,0.69-0.53
						c0.25-0.03,0.7-0.33,1.16-0.96c0.82-1.17,1.49-3.29,0.86-5.75c-0.69-2.69-2.84-4.54-5.38-4.63c-1.23-0.03-2.48,0.33-3.74,1.09
						c-2.52,1.51-6.19,2.38-9.6,2.28c-3.32-0.11-5.71-1.09-6.56-2.72c-1.62-3.12-8.37-28.97-0.33-43.32
						c0.12-0.21,0.31-0.35,0.54-0.39c7.22-1.4,19.35-5.74,19.47-5.77c0.3-0.1,25.7-7.83,22.88-26.23c-0.13-0.49-0.25-0.97-0.35-1.44
						c-1.53-7.39,1.35-12.45,2.83-14.46l-26.34-8.42c-1.96,1.66-11.49,9.33-20.36,8.44c-10.48-1.07-30.12-15.16-38.08-21.16
						c-7.73-5.84-16.2-8.82-25.88-9.12c-2.65-0.09-5.44,0.04-8.28,0.37c-6.75,0.77-14.11,4.26-20.22,9.55
						c-5.17,4.49-11.88,12.44-14.5,24.88c-2.13,10.09-1.83,17.63-1.61,23.14c0.26,6.59,0.44,10.93-4.16,13.21l-1,0.5
						c-7.09,3.47-11.78,5.78-10,25.42c2.22,24.58,6.15,35.08,13.55,36.19c0.21,0.01,0.48,0.02,0.75,0.03
						c6.17,0.2,8.35-1.54,8.37-1.56c0.15-0.12,0.35-0.2,0.55-0.19c5.22,0.16,7.69-1.27,8.52-4.93c0.38-1.68,0.11-3.29-0.67-4.31
						c-0.83-1.05-2.02-1.19-2.95-0.24c-0.3,0.32-0.81,0.32-1.12,0.01c-0.58-0.56-1.32-0.85-2.22-0.87c-1.49-0.05-2.88,0.64-2.9,0.64
						c-0.22,0.12-0.5,0.12-0.73,0c-0.25-0.13-6.27-3.34-7.23-10.72c-1.07-8.23,4.55-18,16.71-29.05
						c6.58-6.88,20.3-16.67,23.26-16.57C151.55,146.34,151.85,146.67,151.97,146.88z"/>
				</g>
				<g>
					<path class="st18" d="M265.42,125.4c-1.9-9.22,3.41-14.7,3.41-14.7l-27.88-8.92c0,0-10.63,9.5-20.11,8.54
						c-9.46-0.95-27.09-13-37.67-21c-10.57-8-22.18-10.35-34.71-8.91c-12.55,1.44-30.73,12.88-35.42,35.07
						c-4.67,22.18,2.3,32-5.33,35.79c-7.63,3.79-13.35,5.59-11.44,26.7c1.9,21.12,5.11,35.53,14.22,36.92
						c7.32,0.41,9.77-1.71,9.77-1.71c4.56,0.14,8.26-0.84,9.33-5.58c1.06-4.72-2.51-7.77-4.96-5.27c-2.31-2.27-6.03-0.38-6.03-0.38
						s-20.78-10.82,9.64-38.47c7.33-7.67,22.27-17.87,23.08-16.18c7.02,9.74,36.76,20.79,44.57,22.69
						c4.31,14.59,10.42,33.38,18,42.77c4.01,4.94,14,6.88,21.99,6.56c5.01-0.35,6.97-2.44,6.97-2.44c2.01,0.32,2.58-1.69,2.92-2.69
						c1.58-0.14,3.78-3.63,2.73-7.71c-1.04-4.09-5.42-6.97-10.31-4.02c-4.9,2.93-13.47,2.87-15.03-0.13
						c-1.56-3-8.11-28.7-0.35-42.55c7.36-1.42,19.58-5.81,19.58-5.81s26.4-7.79,23.38-27.14
						C265.65,126.36,265.52,125.87,265.42,125.4z M122.88,205.35c0.07-0.02,0.16-0.03,0.25,0.01c0.01,0.01,0.02,0.02,0.03,0.02
						c0.02,0.01,0.04,0.02,0.05,0.03c1.9,0.87,1.14,3.5,0.13,4.82c-0.14,0.17-0.34,0.23-0.55,0.13
						C121.46,209.59,120.77,205.44,122.88,205.35z M237.93,205.85c1.6-0.49,3.97-0.09,5.1,1.2c0.05,0.07,0.08,0.16,0.09,0.23
						c0.76,1.03,1.07,2.45-0.05,3.21c-0.79,0.54-1.57,0.15-2.36-0.21c-0.96-0.42-1.94-0.88-2.81-1.46
						C236.73,208.05,236.28,206.33,237.93,205.85z M239.06,211.43c1.34,2.66-1.55,5.38-4.9,5.23c-2.59-0.11-7.1-0.6-7.59-3.85
						C225.68,206.88,237.84,205.8,239.06,211.43z M114.75,204.31c3.69,0.49,5.14,3.25,3.8,6.54c-0.67,4.79-12.4,3.21-11.77-1.8
						C107.2,205.67,111.83,203.93,114.75,204.31z M241.49,128.2c-4.26,3.5-9,6.2-13.54,9.3c-4.8,3.29-9.14,7.18-11.93,12.38
						c-2.62,4.88-4.1,10.31-4.82,15.79c-0.81,6.06-0.92,12.29-0.37,18.37c0.42,4.74,2.69,9.84,1.62,14.58
						c-0.05,0.23-0.3,0.3-0.5,0.27c-1.98-0.4-3.34-2.22-4.3-3.87c-1.47-2.51-2.5-5.26-3.39-8.01c-2.22-6.88-4.42-13.93-5.24-21.12
						c-1-8.77-0.22-18.26,3.46-26.39c1.81-3.95,4.16-7.72,7.12-10.91c0.67-0.73,1.44-1.38,2.22-1.97c-2.13,0.44-4.2,1.11-6.17,2.09
						c-1.91,0.96-3.78,2.02-5.32,3.51c-1.22,1.19-2.36,2.5-3.67,3.61c-2.19,1.86-4.4,2.88-6.92,1.08c-3.34-2.39-6.76-4.55-9.75-7.41
						c-2.9-2.78-5.62-5.89-7.59-9.42c-2.1-3.74-3.6-7.79-5.74-11.49c-2.25-3.92-5.02-6.78-8.65-9.44c-1.17-0.85-2.34-1.71-3.45-2.62
						c1.76,6.94,4.52,13.65,2.97,20.96c-0.03,0.18-0.22,0.29-0.39,0.29c0.08,0-1.13,3.03-1.38,3.54c-0.81,1.62-1.69,3.18-2.71,4.65
						c-1.92,2.79-4.08,5.41-6.41,7.86c-4.87,5.1-10.29,9.59-15.74,14.06c-5.9,4.83-12.74,9.17-17.69,15.02
						c-5.16,6.1-7.14,13.67-8.56,21.36c-0.06,0.34-0.58,0.37-0.73,0.06c-3.3-6.89-4.92-16.3-2.26-23.68
						c1.31-3.66,4.29-5.87,7.42-7.97c1.53-1.03,4-2.2,4.41-4.21c0.25-1.17,0.33-2.36,0.5-3.55c0.55-6.51,0.35-13.08,0.93-19.6
						c0.59-6.77,1.76-13.51,4.54-19.76c3.93-8.83,11.6-15.88,20.77-18.99c9.42-3.21,19.99-2.53,29.25,0.97
						c9.78,3.69,17.41,10.79,26.08,16.4c8.09,5.22,16.74,8.58,26.06,9.28c3.14-0.86,6.55-1.68,9.42-0.75
						c4.3,1.42,6.47,5.59,9.51,8.6c1.07,1.07,2.82,2.28,3.03,3.91C243.76,126.28,242.35,127.49,241.49,128.2z"/>
				</g>
				<g class="st14">
					<path class="st15" d="M197.01,145.41c-1.06,1.69-2.06,3.4-2.72,5.31c-0.66,1.96-1.29,3.92-1.96,5.88
						c-0.21,0.66-0.26,1.54-0.63,2.12c-0.79,1.21-4.21-0.19-5.06-0.63c-3.19-1.64-6.39-3.33-9.5-5.13
						c-3.58-2.06-7.06-4.29-10.33-6.81c-1.76-1.37-4.52-2.75-4.79-5.22c-0.34-3.21,1.03-6.95,1.76-10.01
						c0.2-0.79,0.38-1.59,0.54-2.38c-3.3,7.75-9.7,14.11-16.36,19.74c1.85-0.99,3.11-1.41,3.33-0.95
						c6.6,9.15,34.89,19.9,44.56,22.69c0.19-1.58-1.16-3.57-0.84-5.06c0.02-0.1,0.05-0.19,0.07-0.27c-0.45-2.8-0.69-5.63-0.6-8.46
						c0.14-3.82,1.46-7.26,2.63-10.74C197.09,145.44,197.05,145.42,197.01,145.41z"/>
				</g>
				<path class="st0" d="M260.42,126.2c-5.11,0.87-9.96,3.44-14.37,6.09c-1.94,1.16-3.82,2.47-5.63,3.87
					c-3.86,3.47-7.02,7.64-9.87,12c-2.23,3.39-4.47,6.85-6.48,10.4c-0.19,0.36-0.4,0.71-0.6,1.07c7.41-1.53,18.91-5.66,18.91-5.66
					s26.1-7.71,23.42-26.82C264.34,125.93,262.23,125.91,260.42,126.2z"/>
				<g>
					<path class="st22" d="M264.17,131.93c-1.77,3.89-4.12,7.54-7.24,10.48c-6.92,6.52-16.63,10.17-25.97,11.25
						c-0.23,0.03-0.53-0.11-0.5-0.4c0.62-5.5,3.89-10.13,7.31-14.5c-2.7,2.87-5.05,6.07-7.22,9.4c-2.23,3.39-4.47,6.85-6.48,10.4
						c-0.19,0.36-0.4,0.71-0.6,1.07c7.41-1.53,18.91-5.66,18.91-5.66s25.87-7.65,23.44-26.58
						C265.4,128.99,264.8,130.53,264.17,131.93z"/>
				</g>
				<g>
					<path class="st20" d="M268.82,110.7l-27.88-8.92c0,0-3.37,3.01-8.01,5.48c1.06-0.15,3.39-0.42,5.42-1.31
						c3.64-1.61,4.83-1.04,7.85,1.38c3.43,2.78,7.29,7.29,13.7,7.11c4.44-0.38,6.42-1.12,5.85,0.52c-0.57,1.6-1.01,4.02-0.74,6.27
						C265.09,114.56,268.82,110.7,268.82,110.7z"/>
				</g>
				<path class="st23" d="M240.1,137c0,0-9.77,10.59-13.17,17.29c-2.26,4.62,7.64,2.03,18.1-1.5c-10.59,5.2-18.98,6.7-21.9,7.65
					C220.2,161.4,228.48,147.06,240.1,137z"/>
				<path class="st24" d="M163.09,106.85c0,0,14.63,18.58-21.38,45.84C163.08,138.99,174.86,122.96,163.09,106.85z"/>
				<g>
					<g>
						<g>
							<g>
								<g>
									<path class="st0" d="M237.82,29.56c0,0,18.44-9.02,40.4,0.73c14.39-14.86,36.46-18.95,40.21-17.88
										c3.74,1.06-1.15,33.24-6.11,42.75c8.83,15.14,15.14,25.26,23.16,20.55c0.67,5.12-4.46,5.61-4.46,5.61s4.12,4.18,0.33,8.65
										c-0.08-4.61-4.57-5.44-4.57-5.44s0.69,15.18-26.69,25.18c-15.69,5.72-30.72,10.12-30.72,10.12s-5.73,5.88-15.96,4.46
										c-7.8-1.19-11.98-6.29-11.98-6.29s-22.86-6.19-37.21-15.28c-14.36-9.09-25.77-24.09-18.94-30.2
										c-3.31,0.21-4.86,1.77-4.84,2.32c0.03,0.55-0.44-4.21,4.53-7.46c-4.63-0.46-6.38-4.96-6.38-4.96s11.14,7.44,24.05-10.84
										c-1.98-17.57,1.09-40.41,7.76-42.84C213.32,7.82,235.35,25.12,237.82,29.56z"/>
									<path class="st13" d="M335.48,75.71c-8.02,4.71-14.33-5.41-23.16-20.55c4.96-9.51,9.85-41.68,6.11-42.75
										c-3.75-1.07-25.82,3.02-40.21,17.88c-21.97-9.75-40.4-0.73-40.4-0.73c-2.48-4.45-24.51-21.75-27.41-20.84
										c-6.67,2.44-9.74,25.28-7.76,42.84c-12.91,18.28-24.05,10.84-24.05,10.84s1.75,4.51,6.38,4.96
										c-4.46,2.91-4.53,7.03-4.53,7.45c-0.02-0.54,1.54-2.11,4.84-2.32c-6.83,6.12,4.58,21.11,18.94,30.2
										c1.84,1.16,3.83,2.28,5.88,3.35c-0.36-0.78-0.62-1.42-0.7-1.6c-0.78-1.76-1.51-3.56-2.12-5.39
										c-0.39-1.18-0.85-2.44-0.88-3.69c0-0.31,0.5-0.39,0.56-0.08c0.41,2.17,1.58,3.98,3.09,5.52c-0.48-2.58-1.32-5.16-1.29-7.8
										c0.02-3.33,1.31-6.31,2.2-9.46c0.1-0.35,0.61-0.2,0.55,0.16c-0.3,1.62-0.34,3.28-0.07,4.91c1.17-3.67,4.8-5.9,8.23-7.33
										c5.65-2.37,11.74-3.69,17.55-5.61c1.7-0.56,3.39-1.13,5.08-1.77c1.43-0.54,2.98-1.04,4.16-2.07
										c0.33-0.5,0.62-1.03,0.88-1.57c1.86-8.03,1.66-16.28,1.48-24.51c0-0.29,0.39-0.38,0.54-0.14c0.95,1.56,1.46,3.19,1.74,4.93
										c0.6-2.7,1.11-5.41,1.14-8.19c0-0.27,0.29-0.36,0.48-0.2c1.16,0.96,2.01,2.2,2.32,3.58c0.31-0.84,0.69-1.64,1.2-2.4
										c0.15-0.22,0.53-0.15,0.53,0.14c-0.01,1.56-0.19,3.11-0.29,4.67c0.35-0.95,0.71-1.9,1.07-2.84
										c0.1-0.29,0.59-0.27,0.56,0.07c-0.18,1.62-0.25,3.25-0.23,4.88c0.83-1.42,1.92-2.7,3.15-3.76c0.24-0.2,0.6,0.06,0.44,0.34
										c-3.42,6.12-2.62,13.97-0.31,20.64c2.43,5.35,7.59,7.61,12.97,9.15c4.39,1.26,9.15,1.97,13.16,4.27
										c3.29,1.88,5.15,4.72,5.32,8.29c0.36-1.26,0.58-2.55,0.71-3.87c0.03-0.31,0.46-0.39,0.56-0.08
										c0.61,1.8,0.72,3.61,0.64,5.46c0.96-1.53,1.72-3.14,2.22-4.9c0.07-0.22,0.32-0.26,0.48-0.12
										c7.17,5.96,6.04,17.38,0.61,24.81c0.76-0.27,1.5-0.54,2.26-0.82c27.38-10,26.69-25.18,26.69-25.18s4.48,0.83,4.57,5.44
										c3.8-4.46-0.33-8.65-0.33-8.65S336.15,80.83,335.48,75.71z"/>
									<path class="st12" d="M255.85,125.3c-0.84-0.03-1.69-0.11-2.54-0.23c-7.23-1.1-11.43-5.38-12.32-6.37
										c-2.48-0.7-23.68-6.77-37.2-15.32c-11.73-7.43-20.69-18.08-21.3-25.32c-0.14-1.69,0.14-3.16,0.86-4.42
										c-1.35,0.41-1.98,1.05-2.1,1.25c-0.03,0.4-0.35,0.75-0.74,0.77c-0.22,0.02-0.44-0.06-0.6-0.2
										c-0.16-0.15-0.24-0.36-0.26-0.57l0,0c0-0.01,0-0.01,0-0.02l0,0c0-0.02,0-0.05,0-0.09v-0.01c0-0.72,0.2-4.13,3.46-7
										c-3.73-1.25-5.19-4.9-5.26-5.08c-0.13-0.32-0.02-0.69,0.25-0.91c0.27-0.22,0.65-0.23,0.95-0.03c0.02,0,1.95,1.26,5.06,1.35
										l0,0c4.17,0.14,10.62-1.8,17.71-11.74c-1.72-15.95,0.64-40.59,8.32-43.38c0.2-0.07,0.4-0.09,0.6-0.08
										c2.86,0.09,11.87,6.93,14.56,9.03c5.18,4.03,10.9,9,12.82,11.64c2.23-0.96,9.96-3.9,20.57-3.57
										c6.64,0.2,13.14,1.66,19.35,4.35c13.82-13.95,33.79-18.06,39.17-17.89c0.58,0.02,1.08,0.08,1.44,0.18
										c0.55,0.16,0.96,0.58,1.25,1.27c2.3,5.36-2.08,32.9-6.66,42.23c7.33,12.54,12.57,20.77,18.15,20.94
										c1.2,0.04,2.42-0.31,3.68-1.05c0.24-0.14,0.53-0.15,0.77-0.03c0.23,0.12,0.4,0.34,0.44,0.61c0.23,1.74-0.12,3.2-1.03,4.34
										c-0.81,1.03-1.93,1.58-2.8,1.87c1.33,2,2.31,5.39-0.48,8.67c-0.21,0.25-0.55,0.34-0.87,0.24
										c-0.32-0.11-0.53-0.41-0.53-0.74c-0.06-2.74-1.88-3.92-3.02-4.38c-0.37,3.77-3.48,16.22-27.16,24.87
										c-14.58,5.32-28.79,9.55-30.59,10.08C268.87,121.41,264.02,125.55,255.85,125.3z M185.31,71.71
										c0.31,0.01,0.6,0.2,0.71,0.49c0.14,0.31,0.06,0.67-0.19,0.9c-1.33,1.19-1.91,2.81-1.75,4.82
										c0.57,6.68,9.41,17.04,20.57,24.11c14.09,8.92,36.76,15.13,37,15.19c0.16,0.04,0.29,0.14,0.41,0.27
										c0.04,0.05,4.1,4.87,11.49,6c0.78,0.11,1.57,0.17,2.36,0.2c8.19,0.25,12.85-4.39,12.9-4.43c0.1-0.1,0.22-0.16,0.35-0.21
										c0.15-0.04,15.18-4.45,30.68-10.1c26.41-9.64,26.17-24.25,26.16-24.4c-0.02-0.24,0.08-0.48,0.28-0.63
										c0.18-0.17,0.44-0.23,0.67-0.19c1.43,0.27,3.89,1.44,4.83,4.07c1.31-3.17-1.2-5.8-1.32-5.93
										c-0.21-0.21-0.28-0.54-0.17-0.83c0.1-0.29,0.36-0.49,0.66-0.51c0.02,0,1.98-0.23,3.06-1.59c0.42-0.52,0.66-1.18,0.71-1.95
										c-1.13,0.48-2.26,0.72-3.38,0.69c-6.46-0.2-11.76-8.5-19.7-22.11c-0.14-0.24-0.14-0.53-0.01-0.77
										c5.5-10.57,8.85-40.29,6.58-41.62c-0.15-0.04-0.47-0.1-1.04-0.12c-5.26-0.15-24.9,3.9-38.36,17.79
										c-0.24,0.24-0.6,0.31-0.9,0.18c-6.16-2.74-12.63-4.23-19.25-4.43c-11.97-0.37-20.39,3.65-20.46,3.7
										c-0.39,0.19-0.86,0.04-1.05-0.33c-2.39-4.29-23.14-20.37-26.44-20.47c-5.69,2.05-9.35,23.25-7.25,41.99
										c0.03,0.19-0.02,0.38-0.13,0.55c-7.58,10.72-14.65,12.81-19.25,12.67l0,0c-1.37-0.04-2.52-0.27-3.44-0.56
										c0.9,1.09,2.34,2.22,4.45,2.43c0.34,0.03,0.62,0.27,0.7,0.61c0.08,0.33-0.05,0.67-0.34,0.85
										c-2.19,1.43-3.23,3.18-3.73,4.55c0.91-0.45,2.1-0.78,3.55-0.87C185.27,71.71,185.29,71.71,185.31,71.71z"/>
								</g>
								<g>
									<path class="st25" d="M306,77.85c0,0,12.77,10.69-2.63,22.88C311.96,96.4,318.32,83.71,306,77.85z"/>
								</g>
								<g>
									<path class="st26" d="M327.23,82.49l0.27,0.21C327.5,82.7,327.44,82.62,327.23,82.49z"/>
									<g>
										<path class="st18" d="M228.77,98.47c0.29,4.69,3.58,8.2,7.4,10.5c2.99,1.79,6.31,3.31,9.86,3.19
											c1.8-0.07,3.57-0.5,5.21-1.21c2.21-0.98,2.05-0.3,3.84,0.9c0.82,0.55,1.72,0.99,2.64,1.34c7.41,2.85,19.51-0.55,20-9.9
											c0.57-11.15-10.93-19.41-29.12-17.93C235.92,86.38,228.38,92.1,228.77,98.47z"/>
									</g>
									<g>
										<path class="st18" d="M335.48,75.71c-8.02,4.71-14.33-5.41-23.16-20.55c0.97-1.86,1.94-4.59,2.84-7.78
											c-2.08,0.23-4.36-0.49-2.65-5.5c2.82-8.37,5.37-21.16,3.31-25.9c-1.09-3.49-18.12,4.4-26.02,13.29
											c-2.1,2.13-3.97,0.46-5.34-0.34c-1-0.57,5.99-8.42,17.14-13.27c-7.61,2.77-16.4,7.45-23.37,14.65
											c20.42,9.02,32.05,24.36,35.88,31.8c3.82,7.43,9.7,15.42,14.94,16.24c-2.58,2.18-12.52-1.45-12.52-1.45l10.7,5.61
											c0.21,0.13,0.27,0.21,0.27,0.21l-0.27-0.21c-0.49-0.28-15.44-4.52-18.46-4.96c11.53,7.3,7.25,23.46-15.1,31.09
											c-14.51,4.95-23.54,11.03-19.67,6.41c0.47-0.55,0.76-0.95,0.92-1.26c-4.11,1.94-7.99,4.53-12.24,6.05
											c-0.88,0.42-1.56,0.66-1.9,0.6c-1.3,0.34-2.61,0.58-4,0.65c-4.25,0.22-8.01-0.78-11.42-2.65
											c-0.84-0.16-2.34-1.11-5.05-2.74c-3.83-0.84-18.16-7.97-18.16-7.97c-47.84-19.69-14.9-39.61-14.9-39.61
											s-12.79,1.93-18.79,1.76c0.83-1.51,10.2-4.2,11.68-5.19c-0.97,0.56-9.89,1.47-12.1,0.44c0,0,8.42-2.31,14.87-11.48
											c6.44-9.17,19.44-19.63,34.9-24.06c-1.67-3-12.23-11.83-19.83-17c2.35,1.96,4.75,4.34,7.18,7.26
											c5.97,7.18,7.56,7.97,0.82,9.93c-6.07-11.65-13.72-18.4-16.44-20.57c-6.07,3.99-8.79,25.59-6.91,42.39
											c-12.91,18.28-24.05,10.84-24.05,10.84s1.75,4.51,6.38,4.96c-4.44,2.9-4.54,7-4.53,7.45c-0.02-0.56,1.55-2.11,4.84-2.32
											c-6.83,6.12,4.58,21.11,18.94,30.2c14.35,9.09,37.21,15.28,37.21,15.28s4.18,5.1,11.98,6.29
											c10.23,1.42,15.96-4.46,15.96-4.46s15.03-4.39,30.72-10.12c27.38-10,26.69-25.18,26.69-25.18s4.48,0.83,4.57,5.44
											c3.8-4.46-0.33-8.65-0.33-8.65S336.15,80.83,335.48,75.71z"/>
									</g>
								</g>
								<path class="st0" d="M252.57,85.13c0,0-25.03,2.62-22.5,14.03c2.39,10.81,22.53,14.33,23.21,6.64c0,0,5.69,8.3,14.34,6.42
									c8.65-1.91,13.15-12.38,4.42-20.28C263.32,84.03,252.57,85.13,252.57,85.13z"/>
								<path class="st27" d="M275.22,106.82c-0.95,1.14-2.53,2.16-4.62,3.33c-5.27,2.92-12.79,0.63-15.35-1.45
									c-2.56-2.08-1.99-9.53-1.99-9.53l-0.44-0.14c0,0,1.32,9.71-5.38,11.01c-3.37,0.65-7.99-1.37-11.59-4.01
									c-1.43-0.86-2.76-1.88-3.83-3.1c-0.86-0.98-1.87-2.2-2.49-3.51c0.03,0.53,0.15,1.1,0.4,1.71
									c1.97,4.89,16.18,14.73,22.58,6.38c2.22,2.75,10.32,7.64,17.86,3.98c3.31-1.61,5.08-3.4,5.8-5.16
									c0.02-0.16,0.03-0.3,0.03-0.45C275.92,106.22,275.59,106.53,275.22,106.82z"/>
								<g>
									<path class="st28" d="M247.73,84.5c0,0,10.72-0.64,18.04,1.79c7.32,2.43,6.17,7.11-2.15,12c-8.3,4.9-15.24,0.4-20.23-4.32
										C238.4,89.25,239.5,85.39,247.73,84.5z"/>
									<g class="st16">
										<path class="st28" d="M266.17,86.43c3.7,4.76-5.68,14.19-16.98,8.66c-5.17-2.53-7.63-4.87-8.73-6.79
											c-0.33,1.59,0.68,3.55,2.92,5.68c5,4.71,11.93,9.22,20.23,4.32C271.77,93.49,273.04,88.9,266.17,86.43z"/>
									</g>
									<path class="st28" d="M255.5,85.81c0,0-6.96,0.17-13.47,2.5C240.57,89.05,244.76,83.16,255.5,85.81z"/>
									<path class="st28" d="M260.79,86.54c-0.03,0.44-0.95,0.75-2.03,0.67c-1.13-0.06-2-0.46-1.96-0.9
										c0.02-0.42,0.92-0.72,2.04-0.67C259.93,85.71,260.82,86.12,260.79,86.54z"/>
								</g>
								<g>
									<g>
										<path class="st29" d="M225.79,76.26c0,0,7.68-3.14,14.62-1.72c-1.46-1.3-3.31-1.49-4.11-1.58c0,0,5.46-12.39-0.16-16.73
											c-3.62-1.96-9.25,8.04-4.69,16.85C231.45,73.07,226.83,74.34,225.79,76.26z"/>
									</g>
									<g>
										<path class="st29" d="M268.89,75.87c0,0,7.26-1.6,14.37,2.66c-1.64-2.41-4-2.77-4-2.77s7.27-15.68-0.24-17.9
											c-7.49-2.23-6.93,12.8-5.53,16.74C270.44,73.94,268.89,75.87,268.89,75.87z"/>
									</g>
									<g>
										<path class="st30" d="M237.9,65.6c-0.49,4.44-2.47,7.86-4.44,7.64c-1.96-0.21-3.15-4-2.65-8.44
											c0.5-4.45,2.5-7.87,4.44-7.65C237.22,57.36,238.4,61.15,237.9,65.6z"/>
										<path class="st31" d="M236.24,65.4c-0.25,2.26-1.25,4-2.25,3.89c-1-0.11-1.6-2.04-1.35-4.29c0.26-2.26,1.28-4,2.26-3.89
											C235.9,61.21,236.5,63.14,236.24,65.4z"/>
										<path class="st0" d="M237.02,61.47c-0.04,1.01-0.48,1.82-0.99,1.79c-0.49-0.02-0.88-0.86-0.83-1.86
											c0.04-1.02,0.48-1.82,1-1.8C236.68,59.63,237.06,60.45,237.02,61.47z"/>
									</g>
									<g>
										<path class="st30" d="M280.68,68.06c-0.48,4.44-2.47,7.87-4.44,7.65c-1.95-0.22-3.14-4-2.65-8.45
											c0.5-4.44,2.5-7.86,4.44-7.64C280,59.82,281.18,63.62,280.68,68.06z"/>
										<path class="st31" d="M279.04,67.87c-0.25,2.25-1.26,4-2.26,3.88c-1-0.11-1.6-2.03-1.35-4.29c0.25-2.26,1.27-4,2.26-3.89
											C278.69,63.68,279.29,65.6,279.04,67.87z"/>
										<path class="st0" d="M279.81,63.94c-0.04,1.01-0.49,1.82-0.99,1.8c-0.5-0.03-0.88-0.85-0.85-1.86
											c0.05-1.01,0.48-1.82,1-1.8C279.47,62.09,279.85,62.92,279.81,63.94z"/>
									</g>
								</g>
								<g class="st16">
									<path class="st17" d="M233.31,54.18c0,0,3.77-6.21,8.15,1.57C239.82,47.25,235.11,48.4,233.31,54.18z"/>
								</g>
								<g class="st16">
									<path class="st17" d="M273.48,56.33c0,0,4.39-6.35,9.82,1.18C281.15,49.12,275.45,52,273.48,56.33z"/>
								</g>
								<path class="st31" d="M233.13,53.24c0,0,3.75-6.22,8.14,1.58C239.68,46.62,234.97,47.29,233.13,53.24z"/>
								<path class="st31" d="M273.33,55.45c0,0,4.39-6.36,9.83,1.18C280.8,46.6,275.29,51.12,273.33,55.45z"/>
								<g>
									<path class="st23" d="M221.88,81.53c0,0,28.74-14.35,68.21,0.92C278.31,74.5,240.75,69.1,221.88,81.53z"/>
								</g>
								<path class="st28" d="M205.98,47.35c0,0,7.5-8.21,18.48-13.3c-1.54-14.98-14.16-21.98-14.16-21.98
									S199.85,22.45,205.98,47.35z"/>
								<path class="st28" d="M287.93,35.13c0,0,12.57,6.34,18.72,12.85c8.61-19.35,9.31-29.81,6.82-30.77
									C310.96,16.26,295.8,22.03,287.93,35.13z"/>
								<g>
									<path class="st28" d="M224.46,34.05c-1.54-14.98-14.16-21.98-14.16-21.98s-0.12,0.11-0.29,0.32
										c2.4,4.42,6.63,12.95,6.98,18.78c0.45,7.44-5.61,7.37-11.02,16.07c0,0.04,0.01,0.06,0.02,0.1
										C205.98,47.35,213.48,39.14,224.46,34.05z"/>
								</g>
								<g>
									<path class="st28" d="M297.78,32.16c5.79-7.73,12.05-12.59,16.33-14.37c-0.18-0.28-0.4-0.47-0.64-0.57
										c-2.5-0.96-17.67,4.82-25.54,17.92c0,0,12.57,6.34,18.72,12.85c0.07-0.14,0.14-0.29,0.2-0.44
										C302.28,37.83,294.69,36.9,297.78,32.16z"/>
								</g>
								<g>
									<path class="st17" d="M235.53,97.03c0.01,0.36-0.25,0.67-0.62,0.7c-0.35,0.02-0.66-0.25-0.68-0.61
										c-0.02-0.36,0.24-0.67,0.61-0.69C235.2,96.41,235.49,96.68,235.53,97.03z"/>
									<path class="st17" d="M236.98,99.24c0.02,0.35-0.25,0.65-0.6,0.69c-0.36,0.02-0.66-0.25-0.69-0.61
										c-0.02-0.35,0.26-0.68,0.61-0.68C236.65,98.6,236.96,98.88,236.98,99.24z"/>
									<path class="st17" d="M235.74,100.58c0.02,0.35-0.25,0.66-0.62,0.69c-0.34,0.01-0.65-0.26-0.67-0.62
										c-0.02-0.36,0.25-0.66,0.61-0.69C235.41,99.94,235.71,100.22,235.74,100.58z"/>
								</g>
								<g>
									<path class="st17" d="M270.72,103.41c0.02,0.36-0.25,0.67-0.61,0.69c-0.36,0.02-0.67-0.25-0.69-0.6
										c-0.03-0.36,0.25-0.66,0.61-0.69C270.39,102.78,270.71,103.06,270.72,103.41z"/>
									<g>
										<path class="st17" d="M270.06,105.44c0.01,0.36-0.25,0.67-0.62,0.68c-0.36,0.03-0.66-0.24-0.69-0.6
											c-0.02-0.35,0.25-0.67,0.61-0.68C269.73,104.81,270.04,105.08,270.06,105.44z"/>
									</g>
									<path class="st17" d="M270.6,107.51c0.03,0.36-0.24,0.66-0.61,0.68c-0.36,0.02-0.66-0.25-0.69-0.61
										c-0.02-0.35,0.25-0.66,0.61-0.68C270.28,106.87,270.59,107.15,270.6,107.51z"/>
								</g>
								<g>
									<path class="st32" d="M234.88,97.08c0,0-0.19,0.04-0.5,0.08c-0.15,0.03-0.35,0.03-0.57,0.04c-0.22,0-0.48,0.02-0.76,0.02
										c-0.27,0-0.57,0.01-0.88-0.01c-0.32-0.02-0.65-0.05-0.98-0.08c-0.68-0.07-1.39-0.17-2.11-0.27
										c-0.73-0.09-1.42-0.29-2.09-0.46c-0.65-0.16-1.27-0.33-1.79-0.48c-0.53-0.17-0.95-0.3-1.25-0.41
										c-0.31-0.1-0.47-0.16-0.47-0.16s0.18,0.01,0.49,0.05c0.33,0.04,0.78,0.07,1.31,0.14c0.54,0.08,1.16,0.17,1.83,0.29
										c0.33,0.06,0.67,0.12,1.01,0.19c0.34,0.08,0.69,0.15,1.06,0.18c0.7,0.12,1.41,0.22,2.07,0.34
										c0.33,0.06,0.65,0.12,0.96,0.19c0.31,0.04,0.59,0.07,0.86,0.12c0.53,0.05,0.97,0.16,1.29,0.18
										C234.7,97.05,234.88,97.08,234.88,97.08z"/>
									<path class="st32" d="M236.34,99.27c0,0-0.21,0.07-0.57,0.16c-0.38,0.09-0.88,0.25-1.51,0.4c-1.24,0.3-2.91,0.66-4.59,0.96
										c-1.7,0.29-3.38,0.54-4.66,0.69c-0.64,0.07-1.17,0.12-1.55,0.14c-0.37,0.05-0.59,0.05-0.59,0.05s0.2-0.07,0.56-0.17
										c0.37-0.09,0.89-0.23,1.51-0.38c1.25-0.31,2.91-0.66,4.6-0.97c1.68-0.29,3.37-0.54,4.65-0.68
										c0.64-0.08,1.16-0.12,1.54-0.15C236.11,99.29,236.34,99.27,236.34,99.27z"/>
									<path class="st32" d="M235.09,100.61c0,0-0.17,0.12-0.49,0.31c-0.31,0.18-0.76,0.45-1.29,0.77
										c-0.53,0.3-1.15,0.67-1.82,1.05c-0.66,0.39-1.38,0.79-2.09,1.21c-0.71,0.4-1.4,0.83-2.08,1.2
										c-0.65,0.41-1.26,0.78-1.8,1.09c-0.52,0.33-0.94,0.6-1.25,0.79c-0.3,0.21-0.49,0.3-0.49,0.3s0.15-0.14,0.4-0.38
										c0.28-0.25,0.63-0.63,1.11-1.03c0.49-0.38,1.08-0.81,1.71-1.27c0.66-0.42,1.35-0.87,2.07-1.29
										c0.73-0.4,1.44-0.81,2.16-1.13c0.69-0.34,1.35-0.65,1.92-0.89C234.29,100.86,235.09,100.61,235.09,100.61z"/>
								</g>
								<g>
									<path class="st32" d="M270.07,103.46c0,0,0.24-0.03,0.66-0.09c0.4-0.04,1-0.11,1.71-0.2c1.43-0.14,3.31-0.33,5.2-0.52
										c0.95-0.08,1.89-0.22,2.77-0.3c0.45-0.05,0.87-0.13,1.27-0.19c0.41-0.05,0.79-0.1,1.14-0.16c0.36-0.04,0.67-0.12,0.95-0.17
										c0.29-0.05,0.54-0.1,0.73-0.14c0.42-0.08,0.66-0.12,0.66-0.12s-0.22,0.09-0.63,0.24c-0.19,0.06-0.43,0.15-0.7,0.25
										c-0.29,0.09-0.59,0.24-0.94,0.31c-0.36,0.08-0.73,0.17-1.13,0.27c-0.42,0.08-0.84,0.21-1.29,0.27
										c-0.88,0.13-1.83,0.29-2.78,0.38c-0.48,0.05-0.95,0.09-1.43,0.13c-0.46,0.04-0.93,0.05-1.37,0.07
										c-0.9,0.05-1.73,0.06-2.45,0.05c-0.71,0.01-1.32-0.05-1.73-0.05C270.31,103.48,270.07,103.46,270.07,103.46z"/>
									<path class="st32" d="M269.42,105.47c0,0,0.21,0.02,0.57,0.04c0.37,0.05,0.89,0.07,1.52,0.13
										c0.62,0.07,1.35,0.14,2.12,0.22c0.79,0.1,1.62,0.18,2.44,0.29c1.65,0.19,3.31,0.39,4.56,0.54
										c0.61,0.06,1.14,0.12,1.49,0.14c0.36,0.04,0.59,0.07,0.59,0.07s-0.22,0.02-0.57,0.06c-0.38,0.03-0.9,0.09-1.53,0.11
										c-0.63,0-1.37-0.01-2.16-0.04c-0.78-0.05-1.61-0.13-2.46-0.23c-0.82-0.11-1.65-0.21-2.43-0.37
										c-0.78-0.13-1.49-0.27-2.11-0.42c-0.61-0.13-1.12-0.28-1.47-0.37C269.61,105.55,269.42,105.47,269.42,105.47z"/>
									<path class="st32" d="M269.96,107.54c0,0,0.19,0.06,0.51,0.17c0.32,0.11,0.78,0.26,1.34,0.44c0.54,0.2,1.17,0.44,1.84,0.69
										c0.68,0.25,1.4,0.52,2.13,0.81c0.71,0.29,1.41,0.58,2.07,0.86c0.68,0.24,1.31,0.49,1.84,0.7c0.55,0.21,0.97,0.43,1.29,0.56
										c0.31,0.14,0.48,0.23,0.48,0.23s-0.19-0.03-0.52-0.1c-0.32-0.08-0.8-0.17-1.38-0.31c-0.56-0.14-1.22-0.32-1.92-0.53
										c-0.69-0.23-1.41-0.52-2.13-0.78c-0.7-0.3-1.44-0.58-2.1-0.89c-0.65-0.31-1.26-0.61-1.77-0.88
										C270.61,107.98,269.96,107.54,269.96,107.54z"/>
								</g>
								<g>
									<path class="st17" d="M180.45,74.82L180.45,74.82C180.45,74.89,180.45,74.87,180.45,74.82z"/>
									<path class="st17" d="M327.23,82.49l0.27,0.21C327.5,82.7,327.44,82.62,327.23,82.49z"/>
									<path class="st17" d="M237.82,29.56c1.5-0.42,2.81-0.93,3.95-1.48C239.25,28.88,237.82,29.56,237.82,29.56z"/>
									<path class="st17" d="M193.31,64.66c0.35-0.2,0.56-0.36,0.56-0.36S193.66,64.44,193.31,64.66z"/>
								</g>
								<g>
									<path class="st17" d="M230.58,76.91c0,0,18.24-6.41,42.76-0.33C266.02,72.79,249.42,69.35,230.58,76.91z"/>
								</g>
								<g>
									<path class="st25" d="M221.59,38.88c0,0,23.2-13.38,39.41-11.29C253.14,24.24,237.03,28,221.59,38.88z"/>
								</g>
								<path class="st26" d="M327.23,82.49l0.27,0.21C327.5,82.7,327.44,82.62,327.23,82.49z"/>
								<g>
									<path class="st18" d="M225.45,80.1c0,0,32.07-8.57,63.74,2.18C272.07,73.98,244.88,71.18,225.45,80.1z"/>
								</g>
								<g>
									<path class="st25" d="M316.14,13.73c0,0-13.25,1.01-25.18,12.59C288.2,28.48,298.6,13.21,316.14,13.73z"/>
								</g>
								<g>
									<path class="st25" d="M212.42,10.38c0,0,8.02,8.16,14.52,16.65C229.31,29.78,223.87,16.57,212.42,10.38z"/>
								</g>
								<g>
									<path class="st25" d="M202.88,55.68c0,0-4.58,6.84-11.29,8.71C197.24,65.02,202.27,59.61,202.88,55.68z"/>
								</g>
								<g>
									<path class="st25" d="M204.65,66.65c0,0-6.96-0.19-12.45,1.72C196.29,65.44,200.5,64.58,204.65,66.65z"/>
								</g>
								<g>
									<path class="st25" d="M316.02,68.43c0,0,2.91,6.97,10.36,9.35C322.15,79.2,316.17,73.74,316.02,68.43z"/>
								</g>
							</g>
						</g>
					</g>
					<g>
						<path class="st25" d="M205.93,70.92c0,0-17.69,13.69,5.77,30.79C202.33,98.14,189.12,81.07,205.93,70.92z"/>
					</g>
				</g>
				<path class="st21" d="M162.71,82.04c0,0-30.21-5.04-43.75,28.48C121.82,98.64,133.95,76.34,162.71,82.04z"/>
				<path class="st12" d="M235.25,208.14c0,0,4.5,1.24,6.09,7.07C241.86,216.73,242.25,208.22,235.25,208.14z"/>
				<path class="st12" d="M239.67,205.5c0,0,4.48,1.24,6.09,7.06C246.27,214.08,246.68,205.58,239.67,205.5z"/>
				<path class="st23" d="M244.03,202.66c0,0,3.86,1.94,4.28,7.51C248.49,211.64,250.37,203.99,244.03,202.66z"/>
				<path class="st12" d="M119.41,204.89c0,0,2.28,2.23,0.22,6.8c-0.62,1.96,1.49-0.33,1.6-3.65
					C121.32,204.7,119.25,203.96,119.41,204.89z"/>
				<path class="st12" d="M123.88,204.32c0,0,2.27,2.24,0.21,6.8c-0.61,1.96,1.49-0.32,1.6-3.66
					C125.79,204.14,123.71,203.39,123.88,204.32z"/>
				<path class="st12" d="M127.52,203.69c0,0,2.14,2.36-0.17,6.8c-0.72,1.92,1.52-0.24,1.8-3.56
					C129.44,203.62,127.41,202.76,127.52,203.69z"/>
				<path class="st21" d="M228.08,142.83c0,0-19.92,13.24-11.36,47.16C210.29,176.33,209.88,153.8,228.08,142.83z"/>
				<path class="st0" d="M210.44,14.89c0,0-6.21,10.54-4.31,23.83C204.05,31.09,204.74,22.29,210.44,14.89z"/>
				<path class="st25" d="M318.05,23.79c0,0-0.97,9.47-6.39,20.16C315.83,37.88,318.24,31.54,318.05,23.79z"/>
				<path class="st24" d="M203.68,134.27c0.05-0.07,0-0.12-0.06-0.08c-10.71,9.33-12.07,28.44-6.23,40.6
					c0.1,0.22,0.46-0.04,0.41-0.23c-1.57-6.35-2.08-12.43-1.48-19C196.99,148.36,198.62,139.79,203.68,134.27z"/>
			</g>
			<path class="st12" d="M254.35,203.19c-0.87-2.28-3.73-3.71-6.12-3.29c-0.03,0-0.04,0.04-0.01,0.04c1.69-0.07,3.19,1.04,4.28,2.22
				c1.4,1.55,1.63,5.16-0.22,6.47c-0.07,0.05-0.07,0.16,0.03,0.14C254.14,208.08,254.99,204.88,254.35,203.19z"/>
			<path class="st12" d="M260.55,201.79c-0.38-1.01-0.97-2.03-1.91-2.61c-1.15-0.71-2.37-0.78-3.61-1.21c0,0-0.03,0.01-0.01,0.02
				c1.29,0.71,2.5,0.92,3.49,2.13c1.61,1.96,1.64,4.71-0.04,6.58c-0.1,0.12-0.03,0.29,0.13,0.19
				C260.17,205.85,261.24,203.66,260.55,201.79z"/>
		</g>
	</g>
</g>
</svg>
