<?xml version="1.0" encoding="utf-8"?>
<!-- Generator: Adobe Illustrator 27.6.1, SVG Export Plug-In . SVG Version: 6.00 Build 0)  -->
<svg version="1.1" xmlns="http://www.w3.org/2000/svg" xmlns:xlink="http://www.w3.org/1999/xlink" x="0px" y="0px"
	 viewBox="0 0 500 500" style="enable-background:new 0 0 500 500;" xml:space="preserve">
<style type="text/css">
	.st0{fill:#FFFFFF;}
	.st1{fill:#EBF6FF;}
	.st2{fill:#DC6F2A;}
	.st3{fill:#D0571A;}
	.st4{fill:#EDBC92;}
	.st5{fill:#9C2D1D;}
	.st6{fill:#EDB95A;}
	.st7{fill:#BA371D;}
	.st8{fill:#D75228;}
	.st9{fill:#E8A36C;}
	.st10{fill:#F1CBAA;}
	.st11{fill:#C84422;}
	.st12{fill:#EBEBEB;}
	.st13{fill:#253147;}
	.st14{fill:#35455F;}
	.st15{fill:#192230;}
	.st16{fill:#DFA246;}
	.st17{fill:#E38049;}
	.st18{fill:#E06D44;}
	.st19{fill:#BC3A1E;}
	.st20{fill:#E27D44;}
	.st21{fill:#8D2D16;}
</style>
<g id="BACKGROUND">
	<rect class="st0" width="500" height="500"/>
</g>
<g id="OBJECTS">
	<circle class="st1" cx="250" cy="250" r="200.98"/>
	<g>
		<g>
			<path class="st2" d="M427.78,110.88c-0.01,0.61-0.04,1.22-0.07,1.82c-0.37,7.32-2,14.37-5.31,21.03
				c-3.8,7.64-9.58,13.15-17.36,16.61c-0.4,0.18-0.8,0.35-1.21,0.52c-7.16,2.99-14.67,4.46-22.42,4.7
				c-9.71,0.3-22.53-3.38-32.06-12.76c-3.32-3.27-6.24-7.23-8.49-11.95c-3.12-6.54-5.18-13.4-6.5-20.5
				c-1.03-5.54-1.71-11.12-1.75-14.43c-0.03-6.61,0.63-12.13,2.13-17.09c0.59-1.95,1.3-3.8,2.16-5.62c0.42-0.9,0.89-1.79,1.38-2.66
				c0.75-1.33,1.58-2.6,2.65-3.68c0.16-0.16,0.32-0.32,0.49-0.46c0.85-0.75,1.16-0.72,1.81,0.19c0.9,1.25,1.32,2.7,1.72,4.16
				c0.83,3.09,1.24,6.25,1.73,9.4c0.78,5.01,1.93,9.89,4.1,14.51c2.32,4.94,5.44,9.19,10.19,12.04c1.14,0.69,1.23,1.51,0.97,2.62
				c-0.74,3.18-1.09,6.41-0.93,9.67c0.04,0.94,0.13,1.89,0.24,2.82c0.92,7.39,4.11,14.47,9.76,19.75c3.49,3.27,7.92,5.85,13.34,7.4
				c0.61,0.17,1.24,0.3,1.86,0.43c0.44,0.09,0.83-0.03,0.98-0.49c0.12-0.39-0.13-0.69-0.45-0.85c-0.57-0.29-1.15-0.54-1.75-0.77
				c-2.84-1.05-5.56-2.33-8.09-4c-7.55-4.98-11.59-12.15-12.99-20.93c-0.69-4.3-0.36-8.5,0.58-12.63c0.04-0.2,0.09-0.4,0.14-0.6
				c0.05-0.2,0.1-0.41,0.15-0.61c0.15-0.61,0.32-1.22,0.5-1.82c0.18-0.6,0.37-1.21,0.57-1.81c0.66-1.98,1.32-3.96,2.03-5.92
				c2.89-7.93,3.15-15.97,1.12-24.14c-0.8-3.21-1.61-6.41-2.09-9.69c-0.17-1.15-0.24-2.31-0.23-3.47c0.06-5.29,2.78-8.44,7.96-9.38
				c4.67-0.84,9.13,0.02,13.49,1.57c1.72,0.61,3.38,1.34,4.99,2.16c3.34,1.7,6.46,3.8,9.42,6.15c8.15,6.46,14.93,14.09,19.52,23.5
				C425.98,93.61,427.98,102.02,427.78,110.88z"/>
			<path class="st3" d="M427.71,112.7c-0.37,7.32-2,14.37-5.31,21.03c-3.8,7.64-9.58,13.15-17.36,16.61c-0.4,0.17-0.8,0.34-1.19,0.5
				c0,0-0.01,0.01-0.01,0.01c-7.16,2.99-14.67,4.46-22.42,4.7c-9.71,0.3-22.53-3.38-32.06-12.76c2.57,0.29,5.18,0.14,7.69-0.49
				c2.34-0.59,5.02-2.28,4.65-4.68c-0.21-1.35-1.35-2.32-2.22-3.37c-4.65-5.65-1.85-14.41-4.8-21.11c-1.58-3.61-4.7-6.31-6.69-9.71
				c-3.91-6.71-2.94-15.13-5.18-22.56c-0.86-2.85-2.2-5.11-4.64-6.83c-0.45-0.32-0.87-0.58-1.26-0.84c0.42-0.9,0.89-1.79,1.38-2.66
				c0.75-1.33,1.58-2.6,2.65-3.68c0.16-0.16,0.32-0.32,0.49-0.46c0.85-0.75,1.16-0.72,1.81,0.19c0.9,1.25,1.32,2.7,1.72,4.16
				c0.83,3.09,1.24,6.25,1.73,9.4c0.78,5.01,1.93,9.89,4.1,14.51c2.32,4.94,5.44,9.19,10.19,12.04c1.14,0.69,1.23,1.51,0.97,2.62
				c-0.74,3.18-1.09,6.41-0.93,9.67c0.04,0.94,0.13,1.89,0.24,2.82c0.92,7.39,4.11,14.47,9.76,19.75c3.49,3.27,7.92,5.85,13.34,7.4
				c0.61,0.17,1.24,0.3,1.86,0.43c0.44,0.09,0.83-0.03,0.98-0.49c0.12-0.39-0.13-0.69-0.45-0.85c-0.57-0.29-1.15-0.54-1.75-0.77
				c-2.84-1.05-5.56-2.33-8.09-4c-7.55-4.98-11.59-12.15-12.99-20.93c-0.69-4.3-0.36-8.5,0.58-12.63v0.01l0.14-0.61
				c0.05-0.2,0.1-0.41,0.15-0.61c0.16-0.61,0.32-1.22,0.5-1.82c0.18-0.6,0.37-1.21,0.57-1.81c0.66-1.98,1.32-3.96,2.03-5.92
				c2.89-7.93,3.15-15.97,1.12-24.14c-0.8-3.21-1.61-6.41-2.09-9.69c-0.17-1.15-0.24-2.31-0.23-3.47c0.06-5.29,2.78-8.44,7.96-9.38
				c4.67-0.84,9.13,0.02,13.49,1.57c1.72,0.61,3.38,1.34,4.99,2.16c-2.07-0.52-4.16-0.86-6.28-0.78c-3.71,0.13-7.58,1.81-9.35,5.07
				c-2.29,4.24-0.43,9.42,1.22,13.94c2.59,7.1,4.6,14.89,2.53,22.16c-1.62,5.67-5.57,10.46-7.22,16.12
				c-2.08,7.13-0.06,15.31,5.1,20.65c5.16,5.34,13.26,7.64,20.46,5.81c3.97-1.01,7.57-3.16,10.85-5.62
				C417.71,127.93,423.62,120.77,427.71,112.7z"/>
			<path class="st4" d="M132.04,219.35c-0.06-0.01-0.11-0.03-0.17-0.04c-2.37-0.33-3.73-1.31-4.16-4.04
				c-0.53-3.34-2.52-6.2-4.86-8.68c-1.55-1.64-3.19-3.2-4.83-4.76c-2.69-2.57-5.24-5.25-7.51-8.2c-1.9-2.46-3.4-5.11-3.83-8.26
				c-0.35-2.58,0.9-4.91,3.45-6.05c-0.97,4.2,0.7,7.46,2.91,10.54c1.46,2.03,3.2,3.81,4.97,5.57c2.39,2.37,4.87,4.64,7.13,7.13
				c2.5,2.77,4.7,5.74,6.34,9.1c1,2.05,1.61,4.22,1.94,6.46C133.62,219.5,133.37,219.68,132.04,219.35z"/>
			<path class="st5" d="M212.87,193.81c0.35-0.2,0.66-0.47,1-0.7c3.46-2.38,9.42-2.14,12.05,0.9c0.64,0.74,1.23,0.6,2,0.28
				c4.49-1.85,8.61-1.17,12.35,1.92c0.93,0.77,0.98,0.79,1.81-0.17c1.21-1.4,2.43-2.81,3.53-4.3c2.17-2.93,4.11-6.01,5.74-9.41
				c-0.73-0.29-1.1,0.07-1.51,0.24c-11.5,4.94-23.5,7.39-36.01,7.37c-0.52,0-1.04,0-1.57,0.03c-0.58,0.03-0.81,0.31-0.66,0.92
				c0.21,0.84,0.34,1.7,0.52,2.55C212.2,193.87,212.47,194.04,212.87,193.81z"/>
			<path class="st2" d="M160.42,268.67c-6.09,7.53-14.15,12.17-23.36,14.58h0c-1.23,0.33-2.49,0.61-3.77,0.85
				c-3.88,0.74-7.79,1.1-11.76,0.82c-7.07-0.51-13.43-2.94-19.26-6.87c-5.9-3.98-10.64-9.13-14.83-14.82
				c-7.05-9.58-11.97-20.11-14.17-31.84c-1.27-6.75-1.45-13.49,0.5-20.16c0.04-0.15,0.09-0.3,0.14-0.45c1-3.27,2.51-6.27,4.97-8.73
				c1.45-1.45,3.1-2.61,4.98-3.44c3.85-1.69,7.56-1.41,11.11,0.85c1.62,1.03,3.05,2.31,4.43,3.64c1.83,1.78,3.66,3.57,5.47,5.36
				c5.52,5.45,12.07,9.15,19.48,11.39c3.99,1.21,8.05,2.19,11.93,3.77c5.64,2.29,10.4,5.77,14.46,10.3
				c1.11,1.24,2.13,2.52,3.06,3.84c1.07,1.51,2.02,3.09,2.86,4.71c1.72,3.31,3,6.85,3.87,10.6c0.52,2.21,0.62,4.48,0.76,6.73
				c0.03,0.46-0.09,0.93,0.31,1.73c0.44-1.5,0.48-2.7,0.48-3.89c0.01-5.72-1.42-11.59-4.07-16.98c-0.7-1.42-1.48-2.81-2.34-4.15
				c-4.45-6.94-11.02-12.68-19.1-15.64c-1.04-0.38-1.56-0.86-1.63-2.07c-0.31-5.02-2.26-9.41-5.26-13.4
				c-2.24-2.98-4.76-5.71-7.4-8.31c-2.69-2.65-5.29-5.38-7.62-8.36c-1.18-1.52-2.16-3.15-2.68-5.03c-0.58-2.07,0-3.89,1.04-5.64
				c0.44-0.73,1.19-0.89,1.93-1.05c3.86-0.85,7.72-0.68,11.56,0.16c0.82,0.18,1.64,0.38,2.44,0.61c6.05,1.7,11.52,4.66,16.64,8.33
				c10.73,7.69,19.06,17.4,23.59,29.88c1.43,3.96,2.45,7.85,3.03,11.69C174.47,242.4,170.54,256.16,160.42,268.67z"/>
			<path class="st2" d="M238.67,261.46c-0.65,0.4-1.06,0.25-1.42-0.37c-0.98-1.72-1.84-3.49-2.51-5.35
				c-0.54-1.51-0.96-3.05-1.31-4.61c-0.18-0.81-0.35-1.63-0.51-2.45c-0.15-0.76-0.17-1.57-0.59-2.37c-0.7,0.5-0.53,1.12-0.53,1.65
				c0,1.96,0.14,3.9,0.45,5.8c0.44,2.7,1.23,5.32,2.49,7.84c0.16,0.31,0.32,0.62,0.46,0.94c0.2,0.43,0.11,0.79-0.32,1.03
				c-0.4,0.23-0.81,0.46-1.22,0.67c-4.01,2.09-8.1,4.02-12.28,5.76c-7.92,3.3-15.8,6.7-23.39,10.69c-1.99,1.04-3.7,0.9-5.57-0.07
				c-5.02-2.59-7.09-8.05-5.07-13.18c0.12-0.3,0.25-0.6,0.4-0.89c0.29-0.58,0.67-1.07,1.17-1.48c1.56-1.3,3.18-2.53,4.89-3.62
				c4.98-3.19,9.8-6.61,14.52-10.2c5.38-4.09,11.21-7.42,17.48-9.95c1.89-0.76,3.87-1.18,5.87-1.55c0.99-0.18,1.77,0.04,2.48,0.83
				c0.17,0.19,0.35,0.37,0.53,0.54c0.84,0.79,1.81,1.49,2.33,2.44c0.65,1.18,0.17,2.73,0.29,4.11c0.36,3.99,0.97,7.93,2.09,11.79
				C239.76,260.68,239.62,260.88,238.67,261.46z"/>
			<path class="st2" d="M192.07,283.55c-1.27,0.46-2.24,0.04-3.18-0.37c-3.17-1.41-5.59-3.69-7.44-6.59
				c-0.16-0.24-0.31-0.49-0.46-0.73c-0.28-0.44-0.56-0.89-0.87-1.38c-0.14,0.5-0.09,1.17,0.12,1.91c0.39,1.41,1.32,3.12,2.52,4.61
				c1.5,1.86,3.41,3.21,5.83,4.36c-1.27,0.67-2.32,0.69-3.31,0.81c-5.31,0.66-10.52,0.17-15.64-1.35
				c-4.77-1.41-9.51-2.95-14.21-4.58c-0.54-0.19-1.09-0.4-1.61-0.65c-0.92-0.43-0.96-0.65-0.1-1.27c2.59-1.88,5.03-3.92,7.26-6.22
				c3.01-3.11,5.44-6.63,7.5-10.41c0.08-0.15,0.16-0.3,0.24-0.45c0,0,0-0.01,0-0.01c0.16-0.31,0.32-0.62,0.49-0.92
				c0.64-1.16,0.68-1.2,1.82-0.48c3.97,2.5,8.35,3.63,12.99,3.92c3.1,0.2,3.1,0.22,1.79,2.95c-0.91,1.91-1.32,3.86-1.25,5.75
				c0.14,3.83,2.22,7.4,5.98,9.82C191.03,282.61,191.7,282.76,192.07,283.55z"/>
			<path class="st6" d="M238.81,199.39c-1.14,0.99-2.23,2.03-3.41,2.97c-4.48,3.56-9.26,6.57-14.86,8.06
				c-2.58,0.68-5.17,1.23-7.83,0.74c-0.24-0.04-0.49-0.1-0.73-0.16c-2.51-0.64-3.45-2.07-2.93-4.62c0.2-0.96,0.44-1.93,0.81-2.83
				c0.89-2.15,1.53-4.38,2.08-6.62c0.15-0.61,0.41-1.07,0.81-1.49c0.07-0.08,0.15-0.16,0.24-0.24c3.58-3.26,8.36-2.28,11.16-0.55
				c1.11,0.69,1.09,1.05,0.01,1.91c-1.5,1.18-2.84,2.51-4.02,4c-0.33,0.42-0.66,0.86-0.97,1.3c-0.31,0.45-0.79,0.86-0.53,1.61
				c0.79-0.21,1.17-0.82,1.62-1.31c0.95-1.03,1.96-2.01,3.03-2.89c0.84-0.7,1.71-1.36,2.64-1.96c1.76-1.15,3.66-1.97,5.76-2.31
				c3.01-0.48,5.26,0.86,7.24,2.92C239.44,198.44,239.34,198.93,238.81,199.39z"/>
			<path class="st0" d="M221.51,122.44c-1.9,3.01-3.32,6.24-4.19,9.7c-0.2,0.78-0.67,1.1-1.43,1.3c-7.07,1.82-14.15,3.55-21.35,4.75
				c-4.06,0.68-8.11,1.36-12.2,1.84c-0.99,0.12-1.47-0.2-1.92-1.03c-0.5-0.93-0.93-1.89-1.29-2.88c-3.07-8.39-1.33-18.71,4.64-25.27
				c4.45-4.89,10.01-7.35,16.7-7.4c5.44,0.16,10.42,1.74,14.7,5.29l0.01,0.01c3.74,3.11,5.78,7.17,6.69,11.87
				C222.01,121.3,221.87,121.88,221.51,122.44z"/>
			<path class="st7" d="M280.66,163.77c-4.72,4.47-10.07,8-16.41,9.84c-0.55,0.16-1.58,0.08-1.36,1.17c0.18,0.9,0.78,1.1,2.08,0.69
				c0.83-0.26,1.65-0.55,2.44-0.91c3.95-1.75,7.57-4.05,11.01-6.62c7.1-5.3,12.64-11.92,16.47-19.92c3.15-6.6,4.36-13.68,4.73-20.9
				c0.31-6.08-0.02-12.18-0.21-18.27c-0.34-10.87,0.45-21.65,2.29-32.39c1.65-9.61,5.39-18.18,11.57-25.7
				c0.4-0.49,0.9-0.91,1.14-1.73c-0.3,0.09-0.43,0.09-0.51,0.16c-0.35,0.3-0.7,0.61-1.03,0.93c-3.12,3.14-5.84,6.61-8.09,10.42
				c-5.29,8.95-7.61,18.73-8,29.04c-0.32,8.49,0.74,16.91,1.16,25.37c0.36,7.22,0.1,14.38-1.59,21.43
				C293.79,147.03,288.62,156.23,280.66,163.77z"/>
			<path class="st8" d="M343.66,237.33c-0.15,3.4-1,6.65-2.33,9.76c-3.13,7.34-7.51,13.82-13.22,19.44
				c-3.22,3.17-6.66,5.95-10.64,8.05c-3.84,2.04-7.94,3.22-12.32,3.27c-0.29,0-0.58,0-0.87-0.02c-2.53-0.13-2.5-0.14-2.41-2.71
				c0.32-8.92-2.22-16.94-7.65-24.03c-1.71-2.24-3.81-4.04-6.17-5.58c-1.1-0.72-1.11-0.81-0.13-1.57c2.87-2.2,5.32-4.83,7.83-7.42
				c1.27-1.31,2.54-2.62,3.82-3.93c4.92-5.06,9.85-10.09,14.75-15.18c1.2-1.25,2.37-2.52,3.5-3.83c4.58-5.27,8.61-10.97,12.37-16.86
				c0.28-0.44,0.57-0.87,0.87-1.3c0.06-0.09,0.19-0.12,0.48-0.29c1.04,1.5,1.56,3.16,2.21,4.76c0.17,0.43,0.03,0.79-0.45,0.97
				c-0.16,0.06-0.32,0.14-0.49,0.19c-4.93,1.39-7.36,5.06-8.53,9.68c-1.21,4.78-1.31,9.64-0.29,14.49c0.51,2.42,1.59,4.58,2.85,6.69
				c1.41,2.36,3.42,3.5,6.14,3.59c0.62,0.02,1.25,0.05,1.88,0.09c0.13,0.01,0.26,0.01,0.4,0.02c2.31,0.13,4.62,0.3,6.94,0.12
				C343.62,235.63,343.73,235.8,343.66,237.33z"/>
			<path class="st8" d="M328.7,194.17c-5.38,8.74-11.6,16.81-18.79,24.13c-6.27,6.38-12.49,12.79-18.74,19.18
				c-1.38,1.41-2.8,2.79-4.36,4c-1.37,1.06-1.45,1.03-2.26-0.52c-4.71-9.04-10.23-17.54-16.49-25.54c-0.86-1.1-1.73-2.19-2.62-3.27
				c-0.56-0.68-1.12-1.35-1.69-2.02c-1.13-1.32-2.3-2.6-3.55-3.8c-0.23-0.22-0.43-0.52-0.74-0.69c-0.03-0.02-0.06-0.03-0.09-0.05
				c-0.15-0.07-0.31-0.1-0.52-0.09c-0.08,0-0.17,0.01-0.27,0.03c0.2,0.9,0.81,1.39,1.28,1.95c0.77,0.91,1.53,1.83,2.28,2.76
				c6.72,8.29,12.61,17.13,17.48,26.66c0.11,0.21,0.21,0.41,0.32,0.62c0.83,1.66,1.63,3.33,2.41,5.02c0.44,0.96,0.32,1.21-0.71,1.48
				c-1.85,0.5-3.75,0.83-5.64,1.09c-0.97,0.13-1.95,0.24-2.92,0.34c-5.56,0.57-11.14,0.54-16.7,0.33c-4.05-0.15-8.1-0.45-12.04-1.6
				c-3.02-0.89-5.61-2.46-7.84-4.67c-1.66-1.63-3.11-3.45-4.52-5.29c-2.9-3.78-5.87-7.5-9.03-11.06c-0.33-0.38-0.81-0.69-0.78-1.3
				c0.27-0.34,0.69-0.42,1.06-0.55c3.3-1.16,6.39-2.59,9.28-4.28c6.59-3.85,12.16-9.03,16.87-15.33c0.25-0.34,0.5-0.68,0.75-1.03
				c0.53-0.74,0.95-1.55,1.39-2.35c0.01-0.01,0.02-0.03,0.03-0.05c0.25-0.46,0.51-1.06,0-1.43c-0.57-0.41-0.93,0.18-1.26,0.57
				c-0.37,0.45-0.7,0.93-1.06,1.38c-5.5,7.12-12.01,13.06-20.05,17.21c-3.52,1.82-7.18,3.25-11.13,3.83
				c-3.57,0.53-6.94-0.03-10.11-1.73c-3.85-2.06-5.38-5.53-4.39-9.81c0.48-2.04,1.31-3.96,2.12-5.88c0.68-1.6,1.29-3.22,1.65-4.94
				c0.49-2.39,0.21-4.61-1.15-6.66c-0.13-0.19-0.23-0.4-0.33-0.6c-0.02-0.04,0-0.11,0-0.17c0.5-0.16,0.93-0.24,1.31-0.25
				c1.06-0.05,1.68,0.49,2.22,1.79c1.05,2.52,0.97,5.11,0.32,7.69c-0.4,1.57-0.89,3.12-1.37,4.67c-0.37,1.23-0.66,2.46-0.64,3.76
				c0.03,2.23,1.07,3.76,3.22,4.43c2.44,0.75,4.94,0.63,7.41,0.21c6.22-1.05,11.57-4.03,16.58-7.68c4.25-3.1,7.96-6.77,11.16-10.94
				c2.48-3.22,5.04-6.37,7.12-9.88c0.61-1.03,0.73-1.15,1.52-0.66c0.1,0.06,0.21,0.13,0.33,0.21c1.3,0.84,2.68,1.36,4.24,1.38
				c0.39,0.01,0.82,0.08,1.08-0.3c0.03-0.3-0.15-0.45-0.36-0.54c-0.26-0.12-0.54-0.2-0.82-0.29c-3.93-1.3-5.68-4.16-5.87-8.15
				c-0.05-1.22-0.07-2.44-0.1-3.66c-0.01-0.28,0.04-0.59-0.3-0.76c-0.66,0.13-0.72,0.72-0.82,1.19c-0.44,2-0.72,4.03-0.29,6.04
				c0.23,1.06-0.16,1.46-1.03,1.81c-3.01,1.23-6.09,2.26-9.19,3.22c-10.19,3.14-20.61,4.38-31.2,4c-0.07,0-0.15,0-0.22-0.01
				c-0.76-0.03-1.52-0.06-2.28-0.11c-10.42-0.62-20.51-3.02-30.39-6.34c-13.11-4.42-25.3-10.73-36.84-18.29
				c-13.15-8.62-25.36-18.41-36.09-29.96c-7.3-7.86-13.61-16.45-18.84-25.83c-0.34-0.61-0.69-1.22-0.94-1.86
				c-0.2-0.5-0.18-0.83,0.08-1.05c0.16-0.13,0.4-0.21,0.73-0.26c1.72-0.28,3.42,1.04,3.71,2.89c0.05,0.34,0.02,0.7,0.05,1.05
				c0.11,1.43,0.65,1.77,1.86,1.03c1.74-1.06,3.4-0.99,5.05,0.12c1.74,1.16,2.33,2.81,1.74,4.82c-0.08,0.28-0.23,0.54-0.26,0.83
				c-0.17,1.1,0.56,1.69,1.56,1.29c0.26-0.11,0.48-0.33,0.73-0.46c1.84-0.91,4.22-0.38,5.5,1.24c0.9,1.13,1.15,2.38,0.58,3.75
				c-0.11,0.27-0.25,0.53-0.38,0.78c-0.26,0.5-0.36,1,0.08,1.45c0.43,0.43,0.98,0.44,1.44,0.14c0.88-0.56,1.86-0.69,2.84-0.7
				c3.97-0.06,6.73,3.47,5.52,6.59c-0.23,0.6-0.37,1.29,0.28,1.74c0.59,0.41,1.22,0.26,1.79-0.12c0.2-0.13,0.4-0.24,0.59-0.37
				c4.03-2.83,9.82,0.42,10.14,4.85c0.05,0.64,0.26,1.27,0.25,1.89c-0.03,1.2,0.56,1.83,1.65,2.12c6.94,1.83,13.72,4.33,20.94,4.96
				c6.95,0.6,13.91,0.65,20.87,0.16c6.08-0.43,12.11-1.18,18.13-2.11c7.8-1.2,15.52-2.76,23.15-4.76c0.62-0.16,1.23-0.35,1.85-0.47
				c1.04-0.2,1.25-0.04,1.2,1.05c-0.08,2.09-0.2,4.19,0.03,6.26c1.08,9.96,5.59,17.81,14.68,22.41c0.6,0.3,1.2,0.58,1.8,0.83
				c5.66,2.39,11.4,2.58,17.03,0.85c1.77-0.54,3.52-1.27,5.26-2.19c9.49-4.98,15.05-13.03,17.13-23.49
				c0.56-2.79,0.86-5.62,0.47-8.48c-0.01-0.12-0.02-0.23-0.02-0.35c0-1.02,0.18-1.18,1.1-0.82c1.14,0.44,2.26,0.91,3.3,1.57
				c4.42,2.79,8.7,5.78,12.77,9.07c1.16,0.94,1.19,0.97,0.65,2.15c-0.63,1.39-1.3,2.74-2.03,4.05
				c-4.45,8.14-10.62,14.74-19.01,19.34c-2.15,1.18-4.45,1.97-6.78,2.67c-1.1,0.33-1.11,0.29-1.33-0.8c-0.01-0.05,0-0.12-0.01-0.17
				c-0.06-0.4-0.08-0.9-0.56-0.97c-0.57-0.08-0.76,0.42-0.89,0.87c-0.68,2.39-0.15,4.6,1.05,6.68c0.8,1.39,1.97,2.43,3.27,3.32
				c0.56,0.38,1.18,0.58,1.74,0.03c0.53-0.53,0.21-1.06-0.13-1.56c-0.07-0.09-0.09-0.21-0.14-0.32c0.06-0.33,0.36-0.43,0.61-0.54
				c13.06-5.44,23.11-14.25,29.91-26.7c0.97-1.76,0.96-1.78,2.36-0.43c4.48,4.33,8.68,8.9,12.57,13.74c1.52,1.9,3,3.84,4.43,5.82
				c4.82,6.7,9.05,13.77,13.18,20.9C329.47,192.26,329.35,193.11,328.7,194.17z"/>
			<path class="st0" d="M251.05,164.54c-12.2,4.53-24.92-0.86-29.95-12.9c-1.15-2.77-1.87-5.5-2.19-8.19
				c-0.37-3.19-0.18-6.32,0.53-9.4c0.85-3.68,2.45-7.27,4.7-10.76c4.45-6.9,10.8-11.2,18.98-12.64c1.21-0.21,2.42-0.19,3.68-0.29
				c6.48,0.34,11.76,2.46,15.79,6.41c2.2,2.15,4.01,4.85,5.45,8.11c0.15,0.34,0.29,0.68,0.42,1.02
				C274.24,140.63,266.1,158.94,251.05,164.54z"/>
			<path class="st7" d="M164.4,141c-0.22-0.27-0.42-0.55-0.65-0.8c-3.34-3.5-6.27-7.32-8.81-11.43c-3.75-6.07-6.76-12.45-7.6-19.64
				c-0.78-6.65,0.98-12.48,5.62-17.44c5.75-6.14,13.08-9.31,21.01-11.26c3.64-0.9,7.43-1.22,11.14-1.85
				c3.32-0.56,6.69-0.72,10.02-1.16c5.24-0.68,10.48-1.24,15.77-1.27c3.25-0.02,6.49-0.35,9.71-0.82c6.02-0.87,11.98-2.14,17.93-3.4
				c4.97-1.06,9.71-2.74,13.97-5.59c3.19-2.14,5.77-4.84,7.52-8.29c0.28-0.55,0.69-1.07,0.61-1.89c-0.57,0.18-0.73,0.58-0.97,0.89
				c-2.91,3.72-6.5,6.61-10.64,8.84c-4.85,2.62-10.06,4.14-15.43,5.2c-8.39,1.65-16.9,2.24-25.41,2.73
				c-6.72,0.39-13.45,0.57-20.16,1.07c-6.62,0.5-13.12,1.56-19.45,3.55c-5.98,1.88-11.55,4.53-16.26,8.76
				c-6.31,5.68-9.57,12.75-9.47,21.24c0.06,5.3,1.54,10.29,4,14.99c3.47,6.61,8.43,12.06,13.56,17.36
				C161.37,141.8,162.93,141.83,164.4,141z"/>
			<path class="st9" d="M287.27,314.17c-0.13,0.05-0.26,0.12-0.38,0.23c0.31,0.73,0.91,0.8,1.46,0.91c2.17,0.46,4.34,0.87,6.53,0.98
				c1.38,0.07,2.77,0.02,4.16-0.21c1.36-0.23,2.13,0.24,2.82,1.4c1.58,2.7,2.53,5.62,2.96,8.67c0.77,5.39,0.15,10.64-2,15.68
				c-0.98,2.32-2.32,4.4-3.9,6.36c-1.14,1.42-2.56,2.03-4.34,2.15c-3.37,0.23-6.72,0.25-10.05-0.32c-0.23-0.04-0.46-0.02-0.67,0.18
				c0,0.1,0,0.18,0.03,0.26c0.12,0.49,0.69,0.49,1.05,0.58c1.93,0.52,3.89,0.9,5.87,1.07c1.42,0.12,2.84,0.14,4.28,0.02
				c1.74-0.14,1.75-0.15,2.46,1.44c1.45,3.25,1.77,6.61,0.88,10.04c-1.75,6.72-5.23,12.35-10.7,16.69
				c-4.3,3.41-9.23,4.99-14.71,4.93c-0.4,0-0.81,0.03-1.21,0.05c-0.04,0-0.08,0.07-0.2,0.19c0.05,0.61,0.65,0.65,1.06,0.87
				c0.9,0.48,0.95,0.6,0.24,1.35c-1.58,1.66-3.42,2.96-5.46,3.99c-4.11,2.08-8.53,3.14-13.09,3.13c-4.59-0.01-8.84,1-12.92,2.96
				c-1.26,0.6-2.54,1.11-3.89,1.49c-1.52,0.42-2.74,0.02-3.63-1.31c-0.29-0.43-0.61-0.85-0.88-1.29c-1.3-2.17-1.44-4.37-0.07-6.57
				c0.4-0.64,0.83-1.26,1.31-1.84c2.5-3.05,4.84-6.23,7.1-9.47c0.96-1.38,1.97-2.73,3.18-3.92c0.92-0.91,1.97-1.63,3.22-1.99
				c1.25-0.36,1.78-0.17,2.54,0.86c4.13,5.57,9.92,8.6,16.35,10.61c0.71,0.23,1.77,0.82,2.09-0.27c0.28-0.95-0.92-1.01-1.55-1.29
				c-2.45-1.07-4.84-2.24-7.17-3.54c-2.04-1.14-3.87-2.56-5.52-4.21c-3.8-3.78-5.34-8.29-4.56-13.63c0.32-2.2,0.85-4.31,1.63-6.33
				c0.61-1.57,1.37-3.09,2.29-4.55c0.56-0.89,1.18-1.73,1.9-2.48c1.49-1.56,1.59-1.58,3.51-0.5c3.45,1.93,7.21,2.86,11.09,3.3
				c2.59,0.29,5.19,0.63,7.8,0.07c0.57-0.12,1.36-0.09,1.55-0.63c0.03-0.09,0.04-0.2,0.04-0.33c-0.07-0.99-1.09-0.65-1.71-0.64
				c-4.26,0.03-8.44-0.52-12.53-1.72c-1.34-0.39-2.62-0.92-3.88-1.51c-5.06-2.36-7.66-6.44-8.06-11.9
				c-0.04-0.57-0.08-1.15-0.11-1.72c-0.23-4.64,0-9.29,0.49-13.92c0.2-1.92,0.83-3.73,1.73-5.44c0.33-0.62,0.73-0.84,1.4-0.47
				c4.57,2.53,9.61,2.91,14.66,3.04c2.84,0.07,5.69,0.2,8.52-0.28c0.29-0.05,0.58-0.04,0.86-0.11c0.45-0.12,0.96-0.28,0.88-0.87
				c-0.04-0.26-0.19-0.41-0.38-0.49c-0.16-0.07-0.36-0.1-0.55-0.11c-0.99-0.02-1.97-0.03-2.96-0.03c-4.53,0.01-9.05-0.21-13.51-1.06
				c-1.6-0.3-3.16-0.74-4.66-1.37c-2.87-1.21-4.89-3.25-6.09-6.13c-1.29-3.08-1.87-6.33-2.31-9.61c-0.26-1.93-0.41-3.87-0.46-5.8
				c-0.04-1.25-0.03-2.5,0.03-3.75c0.08-1.69,0.34-3.35,0.95-4.93c0.5-1.31,0.7-1.4,1.89-0.82c3.55,1.76,7.31,2.56,11.24,2.69
				c3.89,0.12,7.78,0.11,11.64-0.38c0.7-0.09,1.37-0.25,2.02-0.5c0.27-0.11,0.47-0.34,0.44-0.68c-0.03-0.34-0.28-0.52-0.57-0.56
				c-0.26-0.04-0.54-0.05-0.82-0.04c-0.07,0-0.15,0.01-0.22,0.01c-4.64,0.29-9.28,0.33-13.91-0.17c-6.63-0.72-12.09-3.5-15.83-9.21
				c-0.58-0.88-1.13-1.78-1.64-2.68c-0.04-0.06-0.07-0.12-0.1-0.18c-3.1-5.47-5.08-11.35-5.88-17.67c-0.18-1.44-0.44-2.87-0.4-4.33
				c0.03-1.04,0.21-1.22,1.1-0.85c1.48,0.61,2.98,1.08,4.51,1.44c1.28,0.31,2.58,0.53,3.89,0.71c2.86,0.38,5.77,0.49,8.68,0.56
				c5.05,0.12,10.1,0.15,15.13-0.36c2.51-0.26,5.03-0.53,7.49-1.08c0,0,0.01,0,0.01,0c0.42-0.09,0.84-0.19,1.26-0.3
				c0.56-0.15,1.11-0.3,1.65-0.49c1.08-0.36,1.86-0.15,2.74,0.45c3.35,2.26,5.91,5.12,7.9,8.42c0.98,1.62,1.83,3.35,2.57,5.17
				c1.97,4.85,2.88,9.9,2.48,15.15c-0.02,0.29-0.03,0.58-0.07,0.87c-0.24,2.03-0.24,2.05-2.22,2.5c-2.15,0.5-4.33,0.79-6.54,0.85
				c-0.44,0.01-0.92-0.13-1.4,0.25c0.03,0.07,0.07,0.13,0.11,0.19h0c0.32,0.44,0.83,0.39,1.32,0.46c1.09,0.16,2.18,0.25,3.27,0.27
				c0,0,0,0,0,0c1.8,0.05,3.6-0.08,5.4-0.36c0.82-0.12,1.32,0.13,1.79,0.73c3.88,4.95,6.24,10.45,5.97,16.85
				c-0.18,4.3-1.41,8.33-3.68,12.01c-0.4,0.64-0.87,1.23-1.35,1.82c-0.98,1.21-2.13,1.92-3.81,2.09c-3.14,0.32-6.26,0.21-9.39,0.24
				C288.23,314.12,287.74,314,287.27,314.17z"/>
			<path class="st4" d="M347.6,75.97c0.77,4.39,1.49,8.79,2.75,13.08c1.21,4.09,2.93,7.93,5.6,11.29c1.6,2.02,3.54,3.66,5.73,5
				c0.44,0.27,0.98,0.63,1.28-0.14c0.41-1.08,0.75-2.19,1.1-3.29c0.15-0.47-0.11-0.74-0.52-0.95c-2.72-1.35-4.42-3.67-5.93-6.18
				c-2.72-4.55-3.97-9.6-4.99-14.73c-0.57-2.84-1.14-5.68-1.78-8.5c-0.37-1.64-0.98-3.22-1.93-4.63c-0.85-1.26-1.95-2.14-3.64-2.2
				c-0.65,0.01-0.9,0.3-0.55,0.93C346.5,68.86,346.98,72.43,347.6,75.97z"/>
			<path class="st2" d="M397.44,222.65c-0.91,0.62-1.87,1.17-2.83,1.71c-1.72,0.96-3.36,0.68-4.86-0.48
				c-1.5-1.15-2.56-2.68-3.52-4.28c-0.53-0.89-0.98-1.81-1.38-2.75c-0.42-0.98-0.78-1.97-1.14-2.98c-0.2-0.56-0.16-1.28-1.2-1.83
				c0.23,2.03,0.6,3.95,1.18,5.75c0.83,2.56,2.11,4.87,4.08,6.91c-0.34,0.21-0.48,0.36-0.63,0.37c-3.8,0.29-7.34,1.64-10.97,2.61
				c-8.24,2.2-16.59,3.85-25.07,4.8c-4.15,0.46-8.32,0.65-12.5,0.75c-1.7,0.04-2.67-0.64-3.36-2.14c-1.38-2.98-2.21-6.09-2.65-9.33
				c-0.41-2.96-0.5-5.93-0.19-8.9c0.04-0.33,0.08-0.66,0.12-0.99c0.04-0.26,0.13-0.58-0.27-0.77c-0.22,0.03-0.36,0.13-0.44,0.26
				c-0.15,0.22-0.15,0.53-0.2,0.79c-1.39,6.36-1.37,12.66,0.92,18.84c0.19,0.51,0.81,1.11,0.29,1.56c-0.56,0.48-1.34,0.09-1.97-0.16
				c-0.66-0.27-1.06-0.89-1.46-1.46c-1.93-2.71-3.02-5.74-3.32-9.04c-0.3-3.37-0.14-6.73,0.59-10.04c0.27-1.19,0.7-2.33,1.25-3.43
				c0.59-1.17,1.32-2.17,2.22-2.97c0.94-0.84,2.05-1.47,3.39-1.87c3.24-0.99,6.57-1.42,9.9-1.84c3.91-0.49,7.83-0.93,11.75-1.29
				c5.32-0.49,10.66-0.49,15.99,0.04c3.46,0.35,6.91,0.79,10.3,1.58c0.39,0.09,0.78,0.24,1.17,0.31c0.99,0.16,1.45,0.75,1.73,1.69
				c0.82,2.77,1.89,5.45,3.26,8c0.2,0.37,0.4,0.74,0.61,1.1c2.18,3.75,4.89,6.91,9.14,8.41
				C398.1,221.86,398.12,222.19,397.44,222.65z"/>
			<path class="st2" d="M411.16,208.13c-0.77,2.64-1.88,5.12-3.58,7.3c-4.71,6.07-10,4.48-13.75,0.91
				c-0.98-0.94-1.81-1.99-2.53-3.11c-0.75-1.16-1.4-2.39-2-3.65c-2.37-4.9-3.67-10.13-4.71-15.43c-0.98-4.93-1.95-13.29-1.75-20.2
				c0.24-3.5,0.03-8.57,0.94-13.56c0.07-0.34,0.11-0.69,0.19-1.02c0.32-1.29,0.42-1.39,1.73-1.5c3.01-0.25,5.97-0.7,8.89-1.36
				c2.15-0.48,4.28-1.07,6.39-1.76c1.63-0.53,1.67-0.55,2.68,0.95c2.75,4.08,4.64,8.56,5.95,13.28c2.01,7.23,3.3,14.59,3.49,22.11
				C413.24,196.85,412.78,202.56,411.16,208.13z"/>
			<path class="st2" d="M233.14,385.73c-0.14,0.19-0.29,0.36-0.44,0.54c-0.99,1.16-0.99,1.16-2.29,0.46
				c-2.04-1.1-3.87-2.51-5.68-3.94c-0.06-0.04-0.11-0.09-0.17-0.13c-5.45-4.33-10.59-9.04-15.95-13.5c-0.74-0.61-1.48-1.22-2.23-1.8
				c-5.51-4.34-11.41-8.04-18.02-10.57c-1.63-0.62-3.28-1.22-4.96-1.71c-0.43-0.13-0.87-0.25-1.31-0.37
				c-0.56-0.15-1.12-0.29-1.68-0.42c-0.28-0.07-0.62-0.17-0.7,0.24c-0.05,0.25,0.17,0.39,0.41,0.46c0.44,0.14,0.88,0.3,1.32,0.43
				c0.76,0.24,1.52,0.48,2.27,0.74c8.07,2.8,15.35,7.04,21.97,12.47c0.24,0.19,0.48,0.39,0.71,0.59c2.32,1.94,4.42,4.11,6.64,6.15
				c2.91,2.68,5.83,5.38,8.9,7.86c2.37,1.92,4.85,3.72,7.5,5.3c0.66,0.39,1.1,0.78,0.65,1.66c-0.48,0.94-0.6,1.1-1.76,0.81
				c-4.57-1.14-8.96-2.78-13.26-4.7c-1.26-0.56-2.5-1.14-3.74-1.74c-0.97-0.46-1.93-0.94-2.9-1.42c-2.94-1.47-5.87-2.98-8.82-4.44
				c-3.68-1.81-7.38-3.56-11.25-4.91v0c-0.9-0.31-1.8-0.6-2.71-0.87c-5.36-1.57-10.76-2.3-16.28-0.76c-1,0.28-1.18,0.12-1.53-1.09
				c-0.89-3.02-1.31-6.12-1.32-8.71c0.11-7.02,1.42-13.22,4.14-19.1c0.8-1.74,1.78-3.35,3.01-4.81c0.27-0.32,0.56-0.64,0.86-0.94
				c2.98-3.05,6.46-3.89,10.5-2.44c1.31,0.47,2.56,1.06,3.76,1.73c1.27,0.71,2.49,1.51,3.69,2.35c3.65,2.57,7.02,5.45,10.2,8.53
				c2.15,2.08,4.21,4.25,6.21,6.48c4.86,5.43,9.27,11.21,13.69,16.99c0.77,0.99,1.53,1.99,2.29,2.98c1.6,2.08,3.21,4.15,4.9,6.14
				c1.05,1.23,2.13,2.43,3.27,3.59C233.9,384.75,233.89,384.77,233.14,385.73z"/>
			<path class="st8" d="M348.83,296.1c-0.11,6.46-0.72,12.82-2.05,19.03c-1.08,5.05-2.65,10-4.82,14.82
				c-2.3,5.1-5.39,9.63-10.05,12.89c-5.8,4.05-12.27,6.46-19.27,7.5c-2.19,0.32-4.38,0.41-6.59,0.39c-0.7,0-1.39-0.02-2.09-0.08
				c-2.99-0.28-3.1-0.53-1.46-2.97c2.75-4.07,4.24-8.57,4.73-13.47c0.41-4.16,0.05-8.22-1.12-12.21c-0.49-1.67-1.14-3.29-2.02-4.79
				c-0.23-0.4-0.55-0.76-0.49-1.36c1.35-0.62,2.89-0.58,4.34-0.83c1.93-0.33,3.85-0.71,5.76-1.14c5.56-1.23,10.99-2.89,16.24-5.17
				c5.79-2.52,11.1-5.79,15.52-10.38c0.76-0.8,1.45-1.66,2.19-2.48c0.25-0.28,0.41-0.73,0.91-0.68
				C348.93,295.4,348.83,295.77,348.83,296.1z"/>
			<path class="st8" d="M350.29,283.82c-1.52,6.78-5.19,12.06-10.66,16.21c-5.29,4.01-11.21,6.73-17.48,8.78
				c-5.13,1.68-10.38,2.88-15.69,3.79c-0.45,0.08-0.91,0.18-1.46-0.05c-0.17-0.61,0.3-1.03,0.57-1.49
				c2.44-4.15,3.63-8.63,3.68-13.43c0.07-5.65-1.64-10.72-4.96-15.27c-0.37-0.5-0.89-0.92-1.03-1.83c1.82-0.19,3.55-0.09,5.27-0.32
				c1.85-0.25,3.64-0.67,5.36-1.24c2.15-0.71,4.21-1.66,6.2-2.81c0.8-0.46,1.59-0.97,2.34-1.5c8.32-5.81,14.99-13.11,19.83-22.05
				c1.58-2.91,2.69-6.03,3.51-9.25c0.13-0.5,0.21-1.02,0.56-1.53c0.71,0.3,0.78,0.98,1.01,1.52c2.07,4.95,3.44,10.1,4.13,15.4
				c0.17,1.28,0.3,2.56,0.39,3.83C352.41,269.71,351.87,276.79,350.29,283.82z"/>
			<path class="st2" d="M232.02,399.96c0.03,0.37-0.23,0.49-0.52,0.57c-0.61,0.17-1.23,0.33-1.84,0.5
				c-6.06,1.71-11.72,4.38-17.28,7.28c-0.46,0.24-0.93,0.49-1.39,0.73c-0.24,0.13-0.48,0.25-0.72,0.38
				c-4.43,2.37-8.79,4.86-13.16,7.33c-3.02,1.71-6.04,3.4-9.09,5.04c-2.2,1.18-4.42,2.3-6.74,3.23c-1.46,0.58-2.95,1.01-4.5,1.31
				c-3.54,0.68-6.53-0.36-9.12-2.74c-1.6-1.46-2.84-3.22-3.88-5.11c-2.92-5.25-4.49-10.91-5.05-16.87
				c-0.37-3.94-0.46-7.87,0.01-11.81c0.19-1.62,0.47-3.21,0.98-4.76c0.85-2.61,2.1-4.74,3.73-6.41c2.39-2.47,5.6-3.95,9.56-4.52
				c4.78-0.69,9.31,0.43,13.77,1.94c0.07,0.02,0.13,0.05,0.2,0.07c0.16,0.05,0.31,0.11,0.47,0.16c4.95,1.73,9.63,4.07,14.29,6.43
				c3.39,1.73,6.78,3.46,10.23,5.07c2.75,1.28,5.54,2.48,8.4,3.52c1.97,0.72,3.97,1.32,5.99,1.88c0.55,0.15,1.1,0.3,1.66,0.45
				c0.28,0.07,0.57,0.11,0.85,0.2c0.77,0.25,0.81,0.92,0.82,1.56c0.01,0.73-0.58,0.8-1.09,0.85c-1.54,0.17-3.07,0.3-4.61,0.4
				c-2.28,0.15-4.56,0.21-6.85,0.15c-2.06-0.06-4.12-0.19-6.18-0.34c-4.65-0.36-9.29-0.86-13.95-1.11
				c-7.22-0.39-14.36,0.32-21.38,2.14c-0.08,0.02-0.15,0.04-0.22,0.06c-0.54,0.14-1.09,0.28-1.64,0.42
				c-0.56,0.14-1.11,0.28-1.67,0.42c-0.49,0.12-0.97,0.27-1.33,0.72c1.1,0.26,2.14,0.05,3.16-0.2c0.26-0.06,0.53-0.13,0.8-0.19
				c0.39-0.09,0.78-0.17,1.17-0.24c3.37-0.66,6.79-0.92,10.2-1.27c2.3-0.24,4.62-0.39,6.95-0.4c4.54-0.03,9.03,0.52,13.54,0.86
				c1.27,0.09,2.54,0.19,3.81,0.27c4.05,0.27,8.11,0.46,12.16,0.39c1.34-0.02,2.68-0.07,4.02-0.15c0.98-0.06,1.96-0.26,2.94-0.34
				C230.52,397.74,231.95,398.98,232.02,399.96z"/>
			<path class="st2" d="M235.28,405.04c-2.11,3.25-3.56,6.79-4.87,10.4c-0.25,0.7-0.5,1.4-0.74,2.1c-0.52,1.48-1.02,2.97-1.52,4.45
				c-1.6,4.78-3.17,9.57-5.15,14.21c-0.56,1.31-1.17,2.6-1.83,3.84c-1.54,2.88-3.42,5.56-5.81,7.89c-1.76,1.72-3.72,3.13-5.91,4.25
				c-5.82,2.97-11.51,2.64-17.05-0.71c-4.6-2.78-8.2-6.62-11.28-10.96c-1.79-2.52-3.13-5.26-4.21-8.13
				c-0.23-0.61-0.45-1.22-0.66-1.84c-0.4-1.19-0.26-1.44,0.98-1.63c3.08-0.47,5.89-1.68,8.65-3.05c0.25-0.12,0.5-0.25,0.76-0.38
				c3.75-1.88,7.4-3.95,11.04-6.04c2.35-1.35,4.7-2.72,7.06-4.06c2.92-1.66,5.84-3.32,8.79-4.92c2.91-1.58,5.86-3.08,8.88-4.44
				c2.03-0.91,4.09-1.76,6.18-2.51c0.96-0.35,1.92-0.68,2.9-0.99c0.55-0.17,1.11-0.32,1.68-0.43c0.2-0.04,0.48-0.01,0.53,0.31
				c0.03,0.19-0.05,0.33-0.2,0.44c-0.19,0.13-0.38,0.26-0.58,0.38c-2.44,1.47-4.65,3.18-6.67,5.09c-1.17,1.1-2.28,2.27-3.33,3.48
				c-1.03,1.18-2,2.41-2.94,3.68c-1.79,2.43-3.56,4.87-5.35,7.3c-4.63,6.32-10.64,10.91-17.68,14.19c-0.17,0.08-0.35,0.16-0.53,0.24
				c-0.79,0.36-1.72,0.58-2.29,1.62c0.84,0.06,1.41-0.22,1.99-0.42c0.52-0.19,1.04-0.38,1.55-0.59c7.83-3.1,14.38-7.93,19.39-14.88
				c2.27-3.15,4.5-6.33,6.96-9.36c0.26-0.33,0.53-0.65,0.81-0.97c0.12-0.14,0.24-0.28,0.37-0.42c2.4-2.74,5.09-5.16,8.18-7.13
				c0.61-0.39,1.18-0.93,1.95-0.87C235.61,404.55,235.43,404.81,235.28,405.04z"/>
			<path class="st2" d="M254.43,445.97c-0.4,4.71-2.63,8.2-6.94,10.28c-2.9,1.4-5.98,2.21-9.14,2.69c-2.28,0.34-4.53,0.52-6.78,0.56
				c-6.36,0.09-12.61-1.03-18.76-3.08c-0.28-0.09-0.57-0.16-0.81-0.3c-0.58-0.33-1.62-0.28-1.66-1.03
				c-0.04-0.75,0.97-0.85,1.54-1.19c5-2.94,8.61-7.17,11.36-12.2c0.47-0.86,0.9-1.73,1.31-2.61c1.22-2.64,2.21-5.38,3.17-8.13
				c0.18-0.51,0.35-1.02,0.52-1.54c1.25-3.7,2.38-7.45,3.6-11.17c0.57-1.72,1.15-3.43,1.77-5.13c0.8-2.18,1.68-4.32,2.76-6.38
				c0.65-1.23,0.66-1.23,1.8-0.61c0.81,0.44,1.87,0.73,2.33,1.42c0.5,0.74-0.27,1.73-0.41,2.64c-0.21,1.44-0.38,2.87-0.37,4.33
				c0.04,4.29,0.08,8.59,0.08,12.88c0,0.62-0.02,1.24-0.05,1.86c-0.26,5.05-1.57,9.8-3.86,14.27c-0.46,0.9-0.97,1.8-1.51,2.68
				c-0.97,1.58-2.06,3.09-3.09,4.63c-0.08,0.11-0.17,0.22-0.26,0.33c-0.21,0.25-0.41,0.52-0.41,0.95c0.66,0.19,1.01-0.12,1.3-0.47
				c0.08-0.09,0.15-0.19,0.22-0.28c1.84-2.33,3.48-4.75,4.85-7.28c2.4-4.42,3.97-9.19,4.37-14.48c0.01-0.09,0.01-0.19,0.02-0.28
				c0.28-3.74,0.25-7.46,0.12-11.2c-0.09-2.61,0-5.22,0.49-7.8c0.09-0.45,0.22-0.9,0.36-1.34c0.17-0.53,0.53-0.81,1.09-0.75
				c0.04,0,0.07,0.01,0.11,0.01c0.46,0.08,0.92,0.11,1.38,0.2c1.59,0.3,1.58,0.31,1.8,1.98c0.35,2.62,0.95,5.17,1.64,7.71
				c0.42,1.55,0.87,3.08,1.31,4.62c0.26,0.91,0.54,1.83,0.81,2.74c1.19,3.96,2.42,7.9,3.26,11.95c0.03,0.13,0.06,0.26,0.08,0.39
				C254.38,440.53,254.66,443.23,254.43,445.97z"/>
			<path class="st8" d="M331.28,348.31c-2.65,8.05-6.4,15.35-11.51,21.72c-2.85,3.56-6.12,6.83-9.85,9.79
				c-3.39,2.68-7.08,4.84-11.06,6.52c-4.25,1.8-8.66,2.01-13.15,1.45c-1.36-0.17-2.78-0.16-4.16-0.75c0.09-0.46,0.37-0.56,0.64-0.66
				c7.68-2.99,12.76-8.65,16.27-15.9c1.5-3.11,2.4-6.41,2.68-9.85c0.18-2.29-0.22-4.51-0.98-6.66c-0.13-0.38-0.38-0.73-0.24-1.32
				c1.7,0.32,3.39,0.52,5.06,0.62c9.36,0.57,18.12-2.13,26.46-6.81C331.84,347.26,331.45,347.8,331.28,348.31z"/>
			<path class="st8" d="M287.89,391.96c-2.05,2.06-4.32,3.83-6.77,5.35c-1,0.62-2.03,1.2-3.08,1.74
				c-7.04,3.61-14.51,5.79-22.36,6.71c-1.85,0.22-3.7,0.31-5.55,0.35c-2.87,0.1-5.68-0.14-8.39-1.18c-1.31-0.5-2.55-1.13-3.59-2.08
				c-0.58-0.53-0.52-0.88,0.24-1.1c2.19-0.61,4.22-1.62,6.27-2.58c2.36-1.1,4.81-1.62,7.33-1.85c0.88-0.08,1.76-0.13,2.65-0.15
				c3.92-0.12,7.7-0.92,11.34-2.4c3.06-1.25,5.74-3.03,7.93-5.51c0.61-0.69,1.16-0.92,2.11-0.66c3.75,1.02,7.56,1.74,11.45,1.96
				c0.38,0.02,0.9-0.11,1.03,0.41C288.61,391.44,288.17,391.68,287.89,391.96z"/>
			<path class="st4" d="M239.47,389.73c-0.11,0.55-0.19,1.14,0,1.67c0.18,0.51,0.59,0.9,1.03,1.2c1.43,0.97,3.28,1.1,4.99,0.85
				c1.71-0.26,3.34-0.86,5.01-1.28c3.2-0.79,6.53-0.86,9.78-1.43c3.25-0.56,6.56-1.72,8.75-4.19c0.34-0.38,0.66-0.87,0.53-1.36
				c-0.12-0.45-0.57-0.72-0.99-0.93c-4.82-2.43-10.12-4.01-14.1-7.82c-2.25-2.16-3.41-2.27-5.98-0.45c-2.16,1.54-4.05,3.4-5.57,5.58
				C241.24,384.02,240.03,386.81,239.47,389.73z"/>
			<path class="st10" d="M247.16,382.38c-0.64,1.88-0.06,4.26,1.68,5.21c1.52,0.83,3.38,0.4,5.09,0.15c2.25-0.33,4.55-0.32,6.8,0.03
				c1.11,0.17,2.27,0.43,3.35,0.1c1.08-0.33,1.98-1.53,1.55-2.57c-0.2-0.49-0.65-0.83-1.12-1.09c-2.39-1.3-5.56-0.81-7.69-2.5
				c-1.02-0.81-1.65-2.01-2.61-2.88C251.5,376.37,248.07,379.74,247.16,382.38z"/>
			<path class="st11" d="M343.66,237.33c-0.15,3.4-1,6.65-2.33,9.76c-3.13,7.34-7.51,13.82-13.22,19.44
				c-3.22,3.17-6.66,5.95-10.64,8.05c-3.84,2.04-7.94,3.22-12.32,3.27c-0.29,0-0.58,0-0.87-0.02c-2.53-0.13-2.5-0.14-2.41-2.71
				c0.32-8.92-2.22-16.94-7.65-24.03c-1.71-2.24-3.81-4.04-6.17-5.58c-1.1-0.72-1.11-0.81-0.13-1.57c2.87-2.2,5.32-4.83,7.83-7.42
				c1.27-1.31,2.54-2.62,3.82-3.93c-0.38,0.99-0.63,2.03-0.7,3.14c-0.48,7.47,7.15,12.99,8.9,20.27c0.63,2.62,0.54,5.59,2.27,7.67
				c1.55,1.87,4.25,2.47,6.63,2c2.37-0.47,4.47-1.85,6.33-3.4c7.77-6.47,12.28-16.58,12.25-26.66c2.31,0.13,4.62,0.3,6.94,0.12
				C343.62,235.63,343.73,235.8,343.66,237.33z"/>
			<path class="st11" d="M350.29,283.82c-1.52,6.78-5.19,12.06-10.66,16.21c-5.29,4.01-11.21,6.73-17.48,8.78
				c-5.13,1.68-10.38,2.88-15.69,3.79c-0.45,0.08-0.91,0.18-1.46-0.05c-0.17-0.61,0.3-1.03,0.57-1.49
				c2.44-4.15,3.63-8.63,3.68-13.43c0.07-5.65-1.64-10.72-4.96-15.27c-0.37-0.5-0.89-0.92-1.03-1.83c1.82-0.19,3.55-0.09,5.27-0.32
				c1.85-0.25,3.64-0.67,5.36-1.24c2.32,2.3,3.51,6.82,3.51,9.61c0.03,2.25-0.47,4.49-0.37,6.74c0.11,2.25,0.98,4.66,2.96,5.73
				c1.76,0.95,3.92,0.61,5.84,0.03c9.6-2.89,17.06-10.9,21.2-20.03c2.64-5.83,4.07-12.09,4.83-18.46
				C352.41,269.71,351.87,276.79,350.29,283.82z"/>
			<path class="st11" d="M346.77,315.13c-1.08,5.05-2.65,10-4.82,14.82c-2.3,5.1-5.39,9.63-10.05,12.89
				c-5.8,4.05-12.27,6.46-19.27,7.5c-2.19,0.32-4.38,0.41-6.59,0.39c-0.7,0-1.39-0.02-2.09-0.08c-2.99-0.28-3.1-0.53-1.46-2.97
				c2.75-4.07,4.24-8.57,4.73-13.47c0.41-4.16,0.05-8.22-1.12-12.21c-0.49-1.67-1.14-3.29-2.02-4.79c-0.23-0.4-0.55-0.76-0.49-1.36
				c1.35-0.62,2.89-0.58,4.34-0.83c1.93-0.33,3.85-0.71,5.76-1.14c1.41,1.85,2.34,4.46,2.73,6.21c0.8,3.63,0.39,7.43-0.52,11.03
				c-0.34,1.35-0.75,2.71-0.71,4.11c0.04,1.39,0.63,2.86,1.85,3.54c0.86,0.48,1.91,0.51,2.89,0.45c7.73-0.47,14.66-5.3,19.46-11.38
				C342.44,323.96,344.75,319.62,346.77,315.13z"/>
			<path class="st11" d="M319.77,370.04c-2.85,3.56-6.12,6.83-9.85,9.79c-3.39,2.68-7.08,4.84-11.06,6.52
				c-4.25,1.8-8.66,2.01-13.15,1.45c-1.36-0.17-2.78-0.16-4.16-0.75c0.09-0.46,0.37-0.56,0.64-0.66c7.68-2.99,12.76-8.65,16.27-15.9
				c1.5-3.11,2.4-6.41,2.68-9.85c0.18-2.29-0.22-4.51-0.98-6.66c-0.13-0.38-0.38-0.73-0.24-1.32c1.7,0.32,3.39,0.52,5.06,0.62
				c1.09,2.28,1.65,4.91,1.56,7.28c-0.14,3.83-1.24,7.55-1.66,11.36c-0.11,0.98-0.16,2.02,0.3,2.9c0.65,1.23,2.17,1.78,3.56,1.66
				c1.38-0.12,2.65-0.78,3.85-1.48C315.09,373.52,317.5,371.86,319.77,370.04z"/>
			<path class="st11" d="M281.12,397.31c-1,0.62-2.03,1.2-3.08,1.74c-7.04,3.61-14.51,5.79-22.36,6.71
				c-1.85,0.22-3.7,0.31-5.55,0.35c-2.87,0.1-5.68-0.14-8.39-1.18c-1.31-0.5-2.55-1.13-3.59-2.08c-0.58-0.53-0.52-0.88,0.24-1.1
				c2.19-0.61,4.22-1.62,6.27-2.58c2.36-1.1,4.81-1.62,7.33-1.85c3.12,0.89,6.14,2.2,9.34,2.76c3.67,0.65,7.46,0.29,11.13-0.41
				C275.4,399.11,278.3,398.32,281.12,397.31z"/>
			<path class="st8" d="M334.86,235.59c-3.12,2.88-8.54,3.07-12.2,0.63c-4.28-2.86-6.27-8.29-6.28-13.44
				c-0.01-3.11,0.6-6.17,1.44-9.18c4.58-5.27,8.61-10.97,12.37-16.86c0.28-0.44,0.57-0.87,0.87-1.3c0.06-0.09,0.19-0.12,0.48-0.29
				c1.04,1.5,1.56,3.16,2.21,4.76c0.17,0.43,0.03,0.79-0.45,0.97c-0.16,0.06-0.32,0.14-0.49,0.19c-4.93,1.39-7.36,5.06-8.53,9.68
				c-1.21,4.78-1.31,9.64-0.29,14.49c0.51,2.42,1.59,4.58,2.85,6.69c1.41,2.36,3.42,3.5,6.14,3.59
				C333.6,235.53,334.23,235.56,334.86,235.59z"/>
			<path class="st12" d="M221.51,122.44c-1.9,3.01-3.32,6.24-4.19,9.7c-0.2,0.78-0.67,1.1-1.43,1.3
				c-7.07,1.82-14.15,3.55-21.35,4.75c-4.06,0.68-8.11,1.36-12.2,1.84c-0.99,0.12-1.47-0.2-1.92-1.03c-0.5-0.93-0.93-1.89-1.29-2.88
				c6.92,1.52,14.25,1.36,20.82-1.21c6.62-2.59,12.44-7.85,15.03-14.54c1.07-2.76,0.31-7.55,0.18-11.62l0.01,0.01
				c3.74,3.11,5.78,7.17,6.69,11.87C222.01,121.3,221.87,121.88,221.51,122.44z"/>
			<path class="st12" d="M251.05,164.54c-12.2,4.53-24.92-0.86-29.95-12.9c-1.15-2.77-1.87-5.5-2.19-8.19
				c0.92,1.32,2.03,2.53,3.27,3.56c3.15,2.61,7.09,4.16,11.12,4.82c7.68,1.26,15.9-0.74,21.96-5.64c6.06-4.89,9.78-12.64,9.51-20.42
				c-0.11-3.1-0.87-6.17-2.17-8.99c2.2,2.15,4.01,4.85,5.45,8.11c0.15,0.34,0.29,0.68,0.42,1.02
				C274.24,140.63,266.1,158.94,251.05,164.54z"/>
			<path class="st13" d="M255.58,133.21c-0.17,0.49-0.36,0.98-0.56,1.44c-3.36,7.74-11.47,13.46-20.07,13.02
				c-3.36-0.17-6.77-1.59-8.77-4.29c-4-5.39-1.76-14.23,1.64-19.34c0.13-0.2,0.27-0.4,0.42-0.6c3.31-4.63,8.47-7.92,14.13-8.6
				c3.35-0.4,6.74,0.11,9.49,1.97C257.11,120.37,257.5,127.6,255.58,133.21z"/>
			<path class="st13" d="M208.16,123.8c-0.01,0.02-0.02,0.04-0.03,0.06c-3.03,6.89-10.26,11.97-17.92,11.58
				c-3-0.15-6.05-1.42-7.84-3.83c-3.58-4.82-1.57-12.72,1.47-17.3c0.11-0.16,0.21-0.31,0.32-0.46c2.96-4.17,7.6-7.15,12.69-7.76
				c2.99-0.36,6.03,0.1,8.49,1.76C210.44,111.31,210.39,118.66,208.16,123.8z"/>
			<path class="st14" d="M208.13,123.86c-3.03,6.89-10.26,11.97-17.92,11.58c-3-0.15-6.05-1.42-7.84-3.83
				c-3.58-4.82-1.57-12.72,1.47-17.3c0.11-0.16,0.21-0.31,0.32-0.46c0.05,0.19,0.09,0.4,0.13,0.61c0.51,2.97,0.96,5.35,3.21,7.56
				c2.16,2.13,5.11,3.42,8.08,3.91C199.83,126.65,204.3,125.86,208.13,123.86z"/>
			<path class="st15" d="M196.26,110.86c2.02-0.24,4.07,0.06,5.72,1.19c3.44,2.33,3.41,7.29,1.9,10.76
				c-2.03,4.67-6.92,8.11-12.1,7.85c-2.03-0.1-4.08-0.96-5.29-2.59c-2.41-3.25-1.06-8.58,0.99-11.66
				C189.47,113.43,192.7,111.28,196.26,110.86z"/>
			<circle class="st0" cx="190.59" cy="114.72" r="3.71"/>
			<path class="st14" d="M255.58,133.21c-0.17,0.49-0.36,0.98-0.56,1.44c-3.36,7.74-11.47,13.46-20.07,13.02
				c-3.36-0.17-6.77-1.59-8.77-4.29c-4-5.39-1.76-14.23,1.64-19.34c0.13-0.2,0.27-0.4,0.42-0.6c0.03,0.09,0.05,0.18,0.08,0.27
				c0.71,2.4,1.58,4.41,3.52,6.11c2.68,2.33,6.2,3.45,9.69,4.09C246.18,134.76,251.21,134.74,255.58,133.21z"/>
			<path class="st15" d="M241.72,120.18c2.26-0.27,4.55,0.07,6.4,1.33c3.85,2.61,3.81,8.15,2.13,12.03
				c-2.27,5.22-7.74,9.07-13.53,8.78c-2.26-0.11-4.56-1.07-5.92-2.89c-2.7-3.64-1.19-9.59,1.11-13.04
				C234.13,123.05,237.74,120.65,241.72,120.18z"/>
			<path class="st0" d="M236.27,127.01c0,2.05-1.66,3.71-3.71,3.71s-3.71-1.66-3.71-3.71c0-2.05,1.66-3.71,3.71-3.71
				S236.27,124.96,236.27,127.01z"/>
			<path class="st16" d="M215.2,194.47c-0.42,0.11-1.49,0.68-2.45,0.96c0.07-0.08,0.15-0.16,0.24-0.24
				c3.58-3.26,8.36-2.28,11.16-0.55c1.11,0.69,1.09,1.05,0.01,1.91c-1.5,1.18-2.84,2.51-4.02,4c0.23-0.65,0.4-1.31,0.45-1.99
				c0.11-1.51-0.48-3.17-1.8-3.91C217.72,194.04,216.39,194.15,215.2,194.47z"/>
			<path class="st16" d="M238.81,199.39c-1.14,0.99-2.23,2.03-3.41,2.97c-4.48,3.56-9.26,6.57-14.86,8.06
				c-2.58,0.68-5.17,1.23-7.83,0.74c2.49-0.14,4.95-0.75,7.26-1.68c3.05-1.23,5.85-3.01,8.44-5.04c0.75-0.58,1.48-1.2,2.03-1.98
				c0.54-0.78,0.88-1.74,0.73-2.68c-0.09-0.56-0.38-1.11-0.86-1.41c-0.3-0.19-0.66-0.28-1.02-0.33c-1.93-0.3-3.94,0.14-5.68,1.04
				c-0.1,0.05-0.2,0.11-0.31,0.17c0.84-0.7,1.71-1.36,2.64-1.96c1.76-1.15,3.66-1.97,5.76-2.31c3.01-0.48,5.26,0.86,7.24,2.92
				C239.44,198.44,239.34,198.93,238.81,199.39z"/>
			<path class="st11" d="M254.63,183.18c-5.91,12.99-16.39,23.85-29.18,30.18c-3.14,1.56-6.54,2.87-10.03,2.7
				c-3.5-0.18-7.1-2.18-8.23-5.5c-0.45-1.32-0.48-2.76-0.32-4.14c0.46-4.05,2.65-8.01,2.11-12.15c0-0.04-0.01-0.08-0.02-0.12
				c-0.24-1.38-1.6-2.92-1.87-4.36c1.06-0.05,1.68,0.49,2.22,1.79c1.05,2.52,0.97,5.11,0.32,7.69c-0.4,1.57-0.89,3.12-1.37,4.67
				c-0.37,1.23-0.66,2.46-0.64,3.76c0.03,2.23,1.07,3.76,3.22,4.43c2.44,0.75,4.94,0.63,7.41,0.21c6.22-1.05,11.57-4.03,16.58-7.68
				c4.25-3.1,7.96-6.77,11.16-10.94c2.48-3.22,5.04-6.37,7.12-9.88C253.72,182.82,253.83,182.69,254.63,183.18z"/>
			<path class="st11" d="M232.89,166.88c-1.42-0.21-2.81-0.54-4.17-0.98c-8.95-2.9-15.3-10.25-19.31-18.76
				c-7.27,1.92-14.79,2.7-22.29,3.19c-9.48,0.62-18.99,0.82-28.48,0.57c-11.23-0.29-23.2-0.86-31.81-8.07
				c0.32-2.4-0.15-4.9-1.32-7.03c-0.6-1.09-1.39-2.09-2.43-2.77c-1.54-1.01-3.52-1.22-5.32-0.81c-1.8,0.41-3.42,1.39-4.82,2.58
				c0.35-2.82,0.52-5.97-1.23-8.21c-1.8-2.29-5.36-3.16-7.69-1.4c1.11-2.32,0.64-5.36-1.29-7.07c-1.92-1.71-5.17-1.75-6.99,0.07
				c0.14-2.15,0.06-4.46-1.21-6.2c-1.27-1.74-4.12-2.43-5.57-0.85c-0.2-1.81-0.43-3.71-1.42-5.24c-0.62-0.97-1.65-1.75-2.74-2.03
				c0.16-0.13,0.4-0.21,0.73-0.26c1.72-0.28,3.42,1.04,3.71,2.89c0.05,0.34,0.02,0.7,0.05,1.05c0.11,1.43,0.65,1.77,1.86,1.03
				c1.74-1.06,3.4-0.99,5.05,0.12c1.74,1.16,2.33,2.81,1.74,4.82c-0.08,0.28-0.23,0.54-0.26,0.83c-0.17,1.1,0.56,1.69,1.56,1.29
				c0.26-0.11,0.48-0.33,0.73-0.46c1.84-0.91,4.22-0.38,5.5,1.24c0.9,1.13,1.15,2.38,0.58,3.75c-0.11,0.27-0.25,0.53-0.38,0.78
				c-0.26,0.5-0.36,1,0.08,1.45c0.43,0.43,0.98,0.44,1.44,0.14c0.88-0.56,1.86-0.69,2.84-0.7c3.97-0.06,6.73,3.47,5.52,6.59
				c-0.23,0.6-0.37,1.29,0.28,1.74c0.59,0.41,1.22,0.26,1.79-0.12c0.2-0.13,0.4-0.24,0.59-0.37c4.03-2.83,9.82,0.42,10.14,4.85
				c0.05,0.64,0.26,1.27,0.25,1.89c-0.03,1.2,0.56,1.83,1.65,2.12c6.94,1.83,13.72,4.33,20.94,4.96c6.95,0.6,13.91,0.65,20.87,0.16
				c6.08-0.43,12.11-1.18,18.13-2.11c7.8-1.2,15.52-2.76,23.15-4.76c0.62-0.16,1.23-0.35,1.85-0.47c1.04-0.2,1.25-0.04,1.2,1.05
				c-0.08,2.09-0.2,4.19,0.03,6.26c1.08,9.96,5.59,17.81,14.68,22.41C231.69,166.35,232.29,166.63,232.89,166.88z"/>
			<path class="st11" d="M328.7,194.17c-5.38,8.74-11.6,16.81-18.79,24.13c-6.27,6.38-12.49,12.79-18.74,19.18
				c-1.38,1.41-2.8,2.79-4.36,4c-1.37,1.06-1.45,1.03-2.26-0.52c-5.36-10.28-11.76-19.87-19.12-28.82
				c-1.66-2.02-3.35-4.01-5.25-5.82c-0.23-0.22-0.43-0.52-0.74-0.69c1.82,0.56,3.67,2.28,4.67,3.31c3.53,3.66,7.36,7.14,11.9,9.44
				c4.54,2.3,9.88,3.35,14.78,1.99c3.76-1.04,7.02-3.41,9.79-6.16c8.36-8.33,12.52-20.3,12.78-32.1c0.13-5.97-0.66-11.91-2.13-17.7
				c1.52,1.9,3,3.84,4.43,5.82c4.82,6.7,9.05,13.77,13.18,20.9C329.47,192.26,329.35,193.11,328.7,194.17z"/>
			<path class="st11" d="M281.61,244.02c-1.85,0.5-3.75,0.83-5.64,1.09c-0.97,0.13-1.95,0.24-2.92,0.34
				c-5.56,0.57-11.14,0.54-16.7,0.33c-4.05-0.15-8.1-0.45-12.04-1.6c-3.02-0.89-5.61-2.46-7.84-4.67c-1.66-1.63-3.11-3.45-4.52-5.29
				c-2.9-3.78-5.87-7.5-9.03-11.06c-0.33-0.38-0.81-0.69-0.78-1.3c0.27-0.34,0.69-0.42,1.06-0.55c3.3-1.16,6.39-2.59,9.28-4.28
				c6.59-3.85,12.16-9.03,16.87-15.33c0.25-0.34,0.5-0.68,0.75-1.03c0.53-0.74,0.95-1.55,1.39-2.35c0.41,0.2,0.88,0.53,1.46,1.03
				c2.24,1.97,4.37,4.05,6.4,6.24c-0.15-0.07-0.31-0.1-0.52-0.09c-0.08,0-0.17,0.01-0.27,0.03c0.2,0.9,0.81,1.39,1.28,1.95
				c0.77,0.91,1.53,1.83,2.28,2.76c6.72,8.29,12.61,17.13,17.48,26.66c0.11,0.21,0.21,0.41,0.32,0.62c0.83,1.66,1.63,3.33,2.41,5.02
				C282.77,243.5,282.64,243.75,281.61,244.02z"/>
			<path class="st11" d="M290.58,145.2c-0.63,1.39-1.3,2.74-2.03,4.05c-2.66-1.58-5.63-2.66-8.41-1.59
				c-1.93,0.75-3.34,2.41-4.7,3.98c-4.05,4.66-8.54,9.04-13.91,12.1c-3.33,1.89-7.52,3.59-11.62,3.99c1.77-0.54,3.52-1.27,5.26-2.19
				c9.49-4.98,15.05-13.03,17.13-23.49c0.56-2.79,0.86-5.62,0.47-8.48c-0.01-0.12-0.02-0.23-0.02-0.35c0-1.02,0.18-1.18,1.1-0.82
				c1.14,0.44,2.26,0.91,3.3,1.57c4.42,2.79,8.7,5.78,12.77,9.07C291.08,143.99,291.12,144.02,290.58,145.2z"/>
			<path class="st3" d="M188.58,285.37c-1.27,0.67-2.32,0.69-3.31,0.81c-5.31,0.66-10.52,0.17-15.64-1.35
				c-4.77-1.41-9.51-2.95-14.21-4.58c-0.54-0.19-1.09-0.4-1.61-0.65c-0.92-0.43-0.96-0.65-0.1-1.27c2.59-1.88,5.03-3.92,7.26-6.22
				c3.01-3.11,5.44-6.63,7.5-10.41c0.08-0.15,0.16-0.3,0.24-0.45c-0.09,0.23-0.16,0.41-0.2,0.54c-1.09,3.46-2.18,6.92-3.27,10.38
				c-0.28,0.89-0.57,1.83-0.38,2.74c0.24,1.14,1.17,2.01,2.16,2.62c2.81,1.71,6.42,1.81,9.53,0.74c1.32-0.45,2.55-1.1,3.7-1.89
				c0.39,1.41,1.32,3.12,2.52,4.61C184.25,282.87,186.16,284.21,188.58,285.37z"/>
			<path class="st8" d="M192.07,283.55c-1.27,0.46-2.24,0.04-3.18-0.37c-3.17-1.41-5.59-3.69-7.44-6.59
				c-0.16-0.24-0.31-0.49-0.46-0.73c1.27-0.96,2.43-2.08,3.47-3.29c0.03-0.04,0.06-0.07,0.09-0.11c0.14,3.83,2.22,7.4,5.98,9.82
				C191.03,282.61,191.7,282.76,192.07,283.55z"/>
			<path class="st3" d="M235.21,262.55c0.2,0.43,0.11,0.79-0.32,1.03c-0.4,0.23-0.81,0.46-1.22,0.67c-4.01,2.09-8.1,4.02-12.28,5.76
				c-7.92,3.3-15.8,6.7-23.39,10.69c-1.99,1.04-3.7,0.9-5.57-0.07c-5.02-2.59-7.09-8.05-5.07-13.18c-0.03,1.02,0.06,2.05,0.28,3.05
				c0.16,0.71,0.4,1.43,0.92,1.94c1.01,0.99,2.64,0.84,4.03,0.53c3.33-0.73,6.54-1.93,9.73-3.16c6.87-2.65,13.69-5.45,20.44-8.41
				c2.09-0.91,4.2-1.86,5.96-3.3c1.46-1.19,2.64-2.68,3.54-4.33c0.44,2.7,1.23,5.32,2.49,7.84
				C234.91,261.92,235.07,262.23,235.21,262.55z"/>
			<path class="st8" d="M238.67,261.46c-0.65,0.4-1.06,0.25-1.42-0.37c-0.98-1.72-1.84-3.49-2.51-5.35
				c-0.54-1.51-0.96-3.05-1.31-4.61c0.36-0.99,0.63-2.02,0.83-3.05c0.44-2.29,0.53-4.62,0.43-6.95c0.84,0.79,1.81,1.49,2.33,2.44
				c0.65,1.18,0.17,2.73,0.29,4.11c0.36,3.99,0.97,7.93,2.09,11.79C239.76,260.68,239.62,260.88,238.67,261.46z"/>
			<path class="st3" d="M332.52,231c0.19,0.51,0.81,1.11,0.29,1.56c-0.56,0.48-1.34,0.09-1.97-0.16c-0.66-0.27-1.06-0.89-1.46-1.46
				c-1.93-2.71-3.02-5.74-3.32-9.04c-0.3-3.37-0.14-6.73,0.59-10.04c0.27-1.19,0.7-2.33,1.25-3.43c0.59-1.17,1.32-2.17,2.22-2.97
				c0.1,0.33,0.19,0.67,0.29,1.03c0.44,1.66,0.85,3.31,1.4,4.87c-0.15,0.22-0.15,0.53-0.2,0.79
				C330.22,218.52,330.23,224.81,332.52,231z"/>
			<path class="st3" d="M383.7,217.79c0.83,2.56,2.11,4.87,4.08,6.91c-0.34,0.21-0.48,0.36-0.63,0.37
				c-3.8,0.29-7.34,1.64-10.97,2.61c-8.24,2.2-16.59,3.85-25.07,4.8c-4.15,0.46-8.32,0.65-12.5,0.75c-1.7,0.04-2.67-0.64-3.36-2.14
				c-1.38-2.98-2.21-6.09-2.65-9.33c-0.41-2.96-0.5-5.93-0.19-8.9c0.91,2.08,2.19,3.95,4.26,5.42c2.33,1.65,5.17,2.41,7.97,2.89
				c9.29,1.61,18.8,0.63,28.17-0.36c3.48-0.37,7.08-0.78,10.12-2.52C383.18,218.13,383.44,217.97,383.7,217.79z"/>
			<path class="st3" d="M397.44,222.65c-0.91,0.62-1.87,1.17-2.83,1.71c-1.72,0.96-3.36,0.68-4.86-0.48
				c-1.5-1.15-2.56-2.68-3.52-4.28c-0.53-0.89-0.98-1.81-1.38-2.75c1.39-1.3,2.42-2.97,2.76-4.76c0.2,0.37,0.4,0.74,0.61,1.1
				c2.18,3.75,4.89,6.91,9.14,8.41C398.1,221.86,398.12,222.19,397.44,222.65z"/>
			<path class="st3" d="M411.16,208.13c-0.77,2.64-1.88,5.12-3.58,7.3c-4.71,6.07-10,4.48-13.75,0.91
				c-0.98-0.94-1.81-1.99-2.53-3.11c2.71,1.32,6.12,1.31,8.6-0.45c2.91-2.08,4.16-5.75,4.86-9.26c3.2-16.08-1.91-32.76-10.17-47.01
				c2.15-0.48,4.28-1.07,6.39-1.76c1.63-0.53,1.67-0.55,2.68,0.95c2.75,4.08,4.64,8.56,5.95,13.28c2.01,7.23,3.3,14.59,3.49,22.11
				C413.24,196.85,412.78,202.56,411.16,208.13z"/>
			<path class="st17" d="M169.05,267.98c-0.34,1.71-0.16,3.68,1.09,4.89c0.93,0.9,2.32,1.23,3.61,1.11
				c1.29-0.12,2.52-0.63,3.68-1.21c2.18-1.09,4.43-2.77,4.69-5.2c0.02-0.2,0.03-0.41-0.04-0.6c-0.24-0.66-1.15-0.7-1.85-0.61
				c-2.02,0.25-4.37,0.41-5.76-1.06c-0.61-0.65-0.93-1.53-1.57-2.15C170.39,260.65,169.36,266.48,169.05,267.98z"/>
			<path class="st17" d="M227.84,252.23c-1.43,2.22-3.91,3.55-6.43,4.34c-2.52,0.79-5.16,1.14-7.68,1.94
				c-7.06,2.23-12.86,7.82-20.14,9.15c-0.91,0.17-2.19-0.02-2.24-0.94c-0.02-0.45,0.3-0.83,0.62-1.15c2.18-2.14,5.09-3.32,7.77-4.79
				c9.14-5.05,15.94-13.96,25.65-17.8c2.8-1.11,3.83-0.68,3.92,2.22C229.38,247.61,229.18,250.14,227.84,252.23z"/>
			<path class="st17" d="M339.18,210.79c1.56,1.44,3.56,2.32,5.61,2.87c5.11,1.38,10.55,0.88,15.74-0.15s10.29-2.58,15.53-3.3
				c1.2-0.16,2.45-0.3,3.47-0.94c1.02-0.65,1.72-1.98,1.23-3.09c-0.3-0.67-0.95-1.1-1.61-1.42c-3.99-1.95-8.7-1.01-13.14-0.84
				c-2.81,0.1-5.61-0.12-8.42-0.18c-4.48-0.09-8.95,0.24-13.41,0.57c-1.79,0.13-5.3,0.04-6.65,1.52
				C336.1,207.4,337.97,209.67,339.18,210.79z"/>
			<path class="st17" d="M386.85,190.23c0.5,5.11,1.08,10.49,4.07,14.66c0.67,0.93,1.53,1.83,2.65,2.06
				c1.04,0.21,2.13-0.21,2.97-0.86c1.92-1.49,2.69-4.01,3.18-6.39c0.33-1.59,0.55-3.34-0.22-4.78c-0.51-0.95-1.39-1.63-2.14-2.41
				c-2.8-2.9-3.71-7.13-3.96-11.15s0.03-8.11-0.9-12.03c-0.42-1.75-1.59-5.45-4.01-5.05c-2.63,0.43-2.76,4.35-2.8,6.3
				C385.56,177.16,386.22,183.7,386.85,190.23z"/>
			<path class="st4" d="M287.49,267.29c-1.28,3.12-4.08,5.43-7.19,6.73c-3.11,1.29-6.53,1.67-9.89,1.78
				c-8.65,0.28-17.89-1.36-24.24-7.24c-3.1-5.47-5.08-11.35-5.88-17.67c-0.18-1.44-0.44-2.87-0.4-4.33c0.03-1.04,0.21-1.22,1.1-0.85
				c1.48,0.61,2.98,1.08,4.51,1.44c1.28,0.31,2.58,0.53,3.89,0.71c2.86,0.38,5.77,0.49,8.68,0.56c5.05,0.12,10.1,0.15,15.13-0.36
				c2.51-0.26,5.03-0.53,7.49-1.08c0,0,0.01,0,0.01,0c1.71,2.21,3.52,4.3,4.89,6.81C287.83,257.91,289.28,262.94,287.49,267.29z"/>
			<path class="st10" d="M278.81,261.25c0.21,2.75-0.62,5.73-2.79,7.43c-2.21,1.74-5.27,1.83-8.08,1.7
				c-5.5-0.24-11.15-1.04-15.88-3.86c-4.73-2.81-8.36-8.04-7.91-13.52c0.05-0.57,0.14-1.16,0.48-1.63c0.48-0.67,1.33-0.95,2.15-1.07
				c2.56-0.38,5.12,0.41,7.64,0.95c5.18,1.1,10.59,1.13,15.78,0.08c1.15-0.23,2.33-0.52,3.49-0.31
				C277.22,251.64,278.59,258.38,278.81,261.25z"/>
			<path class="st4" d="M296.54,294.44c-0.27,1.64-0.66,3.3-1.44,4.77c-1.65,3.14-4.91,5.2-8.33,6.16
				c-3.42,0.96-7.03,0.96-10.58,0.88c-3.16-0.07-6.36-0.2-9.4-1.05c-4.94-1.36-9.29-4.57-12.28-8.72c-1.48-2.05-2.64-4.33-3.48-6.72
				c-0.04-1.25-0.03-2.5,0.03-3.75c0.08-1.69,0.34-3.35,0.95-4.93c0.5-1.31,0.7-1.4,1.89-0.82c3.55,1.76,7.31,2.56,11.24,2.69
				c3.89,0.12,7.78,0.11,11.64-0.38c0.7-0.09,1.37-0.25,2.02-0.5c0.27-0.11,0.47-0.34,0.44-0.68c-0.03-0.34-0.28-0.52-0.57-0.56
				c-0.26-0.04-0.54-0.05-0.82-0.04c1.28-0.23,2.54-0.52,3.84-0.64c1.27-0.12,2.54-0.08,3.82-0.03c1.01,0.04,2.32-0.08,3.66-0.1h0
				c1.65-0.03,3.34,0.07,4.59,0.73c0,0,0,0,0,0c0.51,0.27,0.94,0.64,1.27,1.12C297.6,285.68,296.54,290.24,296.54,294.44z"/>
			<path class="st10" d="M287.85,293.05c-0.44,2.35-1.48,4.65-3.27,6.23c-2.44,2.16-5.91,2.72-9.17,2.64
				c-5.98-0.14-12.14-2.32-15.95-6.93c-1.01-1.22-1.85-2.63-2.07-4.2c-0.22-1.57,0.29-3.3,1.55-4.25c1.77-1.32,4.24-0.76,6.42-0.36
				c5.03,0.92,10.29,0.61,15.17-0.92c1.95-0.61,5.35-1.89,6.97,0.12C288.86,287.08,288.21,291.13,287.85,293.05z"/>
			<path class="st4" d="M295.64,329.38c-0.32,2.74-1,5.58-2.87,7.6c-2.18,2.36-5.56,3.17-8.75,3.54
				c-7.36,0.86-14.92,0.01-21.91-2.45c-2.73-0.96-5.45-2.21-7.5-4.26c-0.43-0.43-0.82-0.89-1.19-1.38c-0.23-4.64,0-9.29,0.49-13.92
				c0.2-1.92,0.83-3.73,1.73-5.44c0.33-0.62,0.73-0.84,1.4-0.47c4.57,2.53,9.61,2.91,14.66,3.04c2.84,0.07,5.69,0.2,8.52-0.28
				c0.29-0.05,0.58-0.04,0.86-0.11c0.45-0.12,0.96-0.28,0.88-0.87c-0.04-0.26-0.19-0.41-0.38-0.49c1.91-0.08,3.81-0.04,5.69,0.29
				c0.01,0,0.03,0,0.04,0.01c1.91,0.34,3.84,0.62,5.74,0.94c1.15,0.2,1.55,0.44,1.83,1.17c0.11,0.28,0.19,0.62,0.29,1.06
				C296.07,321.22,296.1,325.44,295.64,329.38z"/>
			<path class="st10" d="M286.22,332.55c-2.46,2.88-6.55,3.71-10.33,3.82c-5.07,0.15-10.28-0.73-14.63-3.33
				c-1.23-0.73-2.41-1.63-3.16-2.85c-0.99-1.6-1.12-3.58-1.16-5.46c-0.04-1.66,0.05-3.51,1.23-4.68c0.98-0.96,2.46-1.19,3.84-1.2
				c4.58-0.03,9.09,1.77,13.65,1.32c2.21-0.22,4.34-0.96,6.54-1.25c1.58-0.2,3.32-0.16,4.79,0.51c1.73,0.78,1.7,1.69,1.73,3.45
				C288.78,326.24,288.49,329.9,286.22,332.55z"/>
			<path class="st4" d="M291.56,363.07c-0.89,3.9-3.23,7.53-6.64,9.62c-5.21,3.19-11.97,2.4-17.72,0.31
				c-4.85-1.76-9.52-4.46-12.56-8.62c-1.96-2.68-3.12-6.04-3.08-9.33c0.61-1.57,1.37-3.09,2.29-4.55c0.56-0.89,1.18-1.73,1.9-2.48
				c1.49-1.56,1.59-1.58,3.51-0.5c3.45,1.93,7.21,2.86,11.09,3.3c2.59,0.29,5.19,0.63,7.8,0.07c0.57-0.12,1.36-0.09,1.55-0.63
				c1.09,0.03,2.17,0.08,3.25,0.15c0.28,0.02,0.6,0.03,0.94,0.04c2.25,0.08,5.62,0.12,6.92,1.66c0.06,0.07,0.11,0.13,0.16,0.2
				C292.68,354.88,292.2,360.25,291.56,363.07z"/>
			<path class="st10" d="M277.24,367.05c-4.56,1.29-9.54-0.11-13.53-2.67c-2.24-1.44-4.3-3.29-5.49-5.67
				c-0.82-1.63-1.15-3.73-0.08-5.21c1.07-1.48,3.18-1.82,4.98-1.47c1.79,0.35,3.43,1.25,5.18,1.78c3.19,0.97,6.56,0.66,9.81,0.22
				c2.17-0.29,6.25-1.5,7.17,1.42c0.6,1.91-0.67,5.12-1.63,6.71C282.23,364.5,279.87,366.3,277.24,367.05z"/>
			<path class="st18" d="M238.6,177.69c2.23-0.64,4.94-2.17,4.44-4.43c-11.89-0.48-24.47-1.18-34.31-7.85
				c-2.05-1.39-3.98-3.04-6.32-3.88c-3.34-1.2-7.02-0.57-10.55-0.19c-12.52,1.36-25.38-0.59-36.93-5.6
				c-2.76-1.2-6.62-1.56-4.95,2.23c1.02,2.3,6.21,4.97,8.27,6.38c5.66,3.87,11.76,7.11,18.12,9.68c12.63,5.1,26.33,7.57,39.94,7.12
				C223.85,180.91,231.36,179.77,238.6,177.69z"/>
			<path class="st18" d="M278.3,208.3c5.52,3.54,13.27,4.48,18.45,0.46c2.81-2.18,4.5-5.48,5.83-8.78
				c3.07-7.61,4.66-15.82,4.68-24.02c0-2.28-0.13-4.63-1.08-6.71c-0.95-2.08-2.88-3.84-5.16-3.99c-3.57-0.23-6.09,3.23-8.38,5.99
				c-3.69,4.45-8.52,7.95-13.91,10.05c-3.34,1.3-6.95,2.11-9.9,4.15C259.06,192.21,271.7,204.07,278.3,208.3z"/>
			<path class="st18" d="M311.78,224.29c-3.02,3.42-5.61,8.23-3.71,12.38c1.89,4.14,7.41,5.64,9.33,9.76
				c1.21,2.6,1.22,6.37,3.94,7.29c1.74,0.59,3.61-0.51,4.88-1.83c3.13-3.25,4.35-7.84,5.45-12.22c0.16-0.65,0.32-1.37,0.01-1.97
				c-0.35-0.68-1.17-0.95-1.9-1.19c-3.05-1.01-6-2.85-7.47-5.71c-1.69-3.28,1.26-13.89-0.78-15.51
				C319.09,213.35,313.31,222.55,311.78,224.29z"/>
			<path class="st18" d="M334.41,287.73c1.19-0.58,2.15-1.54,3.03-2.53c6.31-7.11,9.52-16.89,8.64-26.36
				c-0.05-0.56-0.14-1.16-0.53-1.56c-0.54-0.56-1.49-0.51-2.15-0.09c-0.66,0.42-1.08,1.11-1.47,1.78c-1.71,2.97-3.14,6.11-5.07,8.94
				c-1.84,2.69-4.1,4.9-7.04,6.35c-2.59,1.27-5.31,1.25-5.92,4.49C322.88,284.15,329.19,290.29,334.41,287.73z"/>
			<path class="st18" d="M338.58,320.79c-2.78,4.31-6.95,7.86-11.9,9.18c-1,0.27-2.25,0.37-2.91-0.43c-0.3-0.36-0.41-0.83-0.46-1.29
				c-0.43-3.49,1.76-7.11,0.62-10.43c-0.23-0.66-0.58-1.28-0.67-1.96c-0.2-1.58,1.07-3.03,2.53-3.67c1.46-0.64,3.09-0.69,4.67-0.95
				c3.15-0.51,10.7-6.51,12.19-4.92C345.39,309.25,340.13,318.39,338.58,320.79z"/>
			<path class="st18" d="M313.12,361.43c-0.26,1.96-0.04,4.31,1.65,5.34c1.4,0.85,3.29,0.38,4.55-0.66
				c1.27-1.04,2.06-2.53,2.86-3.95c1.32-2.34,2.76-4.64,3.5-7.22c0.21-0.75,0.33-1.65-0.19-2.23c-0.51-0.57-1.43-0.56-2.13-0.25
				s-1.25,0.87-1.88,1.3c-1.46,1.01-3.36,1.35-5.09,0.92c-1.54-0.38-2.64-0.59-3,1.12C313.03,357.49,313.35,359.65,313.12,361.43z"
				/>
			<path class="st19" d="M265.42,212.15c-0.56-0.68-1.12-1.35-1.69-2.02c1.5,1.67,2.94,3.44,4.32,5.29
				C267.19,214.32,266.31,213.23,265.42,212.15z"/>
			<path class="st19" d="M281.61,244.02c-1.85,0.5-3.75,0.83-5.64,1.09c-0.97,0.13-1.95,0.24-2.92,0.34
				c-5.56,0.57-11.14,0.54-16.7,0.33c-4.05-0.15-8.1-0.45-12.04-1.6c-3.02-0.89-5.61-2.46-7.84-4.67c-1.66-1.63-3.11-3.45-4.52-5.29
				c-2.9-3.78-5.87-7.5-9.03-11.06c-0.33-0.38-0.81-0.69-0.78-1.3c0.27-0.34,0.69-0.42,1.06-0.55c3.3-1.16,6.39-2.59,9.28-4.28
				c2.13,3.67,4.09,7.47,6.92,10.62c6.05,6.72,15.99,9.67,24.73,7.32c1.39-0.37,2.81-0.91,3.79-1.96c1.85-1.99,1.59-5.11,0.97-7.76
				c-0.78-3.31-1.94-6.53-3.44-9.58c-0.54-1.11-2.47-3.52-3.33-5.42c6.72,8.29,12.61,17.13,17.48,26.66
				c0.11,0.21,0.21,0.41,0.32,0.62c0.83,1.66,1.63,3.33,2.41,5.02C282.77,243.5,282.64,243.75,281.61,244.02z"/>
			<path class="st8" d="M176.78,426.34c-3.54,0.68-6.53-0.36-9.12-2.74c-1.6-1.46-2.84-3.22-3.88-5.11
				c-2.92-5.25-4.49-10.91-5.05-16.87c-0.37-3.94-0.46-7.87,0.01-11.81c0.19-1.62,0.47-3.21,0.98-4.76c0.85-2.61,2.1-4.74,3.73-6.41
				c2.39-2.47,5.6-3.95,9.56-4.52c4.78-0.69,9.31,0.43,13.77,1.94c-3.19,3.68-8.5,6.41-11.01,10.79c-1.85,3.22-1.91,7.33-0.36,10.69
				c0.15,0.32,0.31,0.63,0.49,0.93c0.35,0.6,0.75,1.17,1.22,1.7c3.79,4.31,10.16,5.23,14.7,8.75c2.54,1.97,4.38,4.77,5.3,7.85
				c-3.02,1.71-6.04,3.4-9.09,5.04c-2.2,1.18-4.42,2.3-6.74,3.23C179.82,425.61,178.32,426.05,176.78,426.34z"/>
			<path class="st8" d="M167.86,371.08c-0.89-3.02-1.31-6.12-1.32-8.71c0.11-7.02,1.42-13.22,4.14-19.1
				c0.8-1.74,1.78-3.35,3.01-4.81c0.27-0.32,0.56-0.64,0.86-0.94c2.98-3.05,6.46-3.89,10.5-2.44c1.31,0.47,2.56,1.06,3.76,1.73
				c1.27,0.71,2.49,1.51,3.69,2.35c3.65,2.57,7.02,5.45,10.2,8.53c-1.3-0.77-2.63-1.52-3.99-2.25c-3.16-1.68-6.82-3.28-10.21-2.14
				c-2.82,0.95-4.78,3.72-5.31,6.64c-0.3,1.7-0.18,3.44,0.24,5.13c0.09,0.37,0.2,0.74,0.31,1.1c0.26,0.83,0.6,1.64,0.98,2.42
				c1.88,3.87,4.99,7.52,4.67,11.81c-0.09,1.24-0.45,2.36-0.99,3.39c-0.9-0.31-1.8-0.6-2.71-0.87c-5.36-1.57-10.76-2.3-16.28-0.76
				C168.39,372.45,168.21,372.28,167.86,371.08z"/>
			<path class="st8" d="M215.36,447.95c-1.76,1.72-3.72,3.13-5.91,4.25c-5.82,2.97-11.51,2.64-17.05-0.71
				c-4.6-2.78-8.2-6.62-11.28-10.96c-1.79-2.52-3.13-5.26-4.21-8.13c-0.23-0.61-0.45-1.22-0.66-1.84c-0.4-1.19-0.26-1.44,0.98-1.63
				c3.08-0.47,5.89-1.68,8.65-3.05c0.25-0.12,0.5-0.25,0.76-0.38c3.75-1.88,7.4-3.95,11.04-6.04c0.17,1.43,0.14,2.87-0.11,4.29
				c-0.72,4.16-3.1,8.54-1.19,12.31c0.16,0.32,0.36,0.63,0.57,0.92c0.22,0.3,0.46,0.58,0.72,0.85c0.55,0.56,1.18,1.05,1.82,1.5
				c4.97,3.44,11.58,4.38,17.31,2.46c1.47-0.49,2.91-1.16,4.37-1.72C219.63,442.94,217.75,445.61,215.36,447.95z"/>
			<path class="st8" d="M254.43,445.97c-0.4,4.71-2.63,8.2-6.94,10.28c-2.9,1.4-5.98,2.21-9.14,2.69c-2.28,0.34-4.53,0.52-6.78,0.56
				c-6.36,0.09-12.61-1.03-18.76-3.08c-0.28-0.09-0.57-0.16-0.81-0.3c-0.58-0.33-1.62-0.28-1.66-1.03
				c-0.04-0.75,0.97-0.85,1.54-1.19c5-2.94,8.61-7.17,11.36-12.2c0.47-0.86,0.9-1.73,1.31-2.61c0.68-0.11,1.36-0.14,2.06-0.08
				c3.46,0.29,6.21,2.82,9.29,4.51c0.36,0.2,0.73,0.39,1.1,0.56c0.52,0.24,1.05,0.45,1.6,0.61c4.95,1.45,10.37-1.21,13.67-5.19
				c0.54-0.65,1.04-1.34,1.5-2.05c0.03,0.13,0.06,0.26,0.08,0.39C254.38,440.53,254.66,443.23,254.43,445.97z"/>
			<path class="st20" d="M211.54,394.7c0.65-2.28,0.73-4.6,0.44-6.9c2.75,1.28,5.54,2.48,8.4,3.52c1.97,0.72,3.97,1.32,5.99,1.88
				c0.55,0.15,1.1,0.3,1.66,0.45c0.28,0.07,0.57,0.11,0.85,0.2c0.77,0.25,0.81,0.92,0.82,1.56c0.01,0.73-0.58,0.8-1.09,0.85
				c-1.54,0.17-3.07,0.3-4.61,0.4c-2.28,0.15-4.56,0.21-6.85,0.15c-2.06-0.06-4.12-0.19-6.18-0.34
				C211.17,395.87,211.38,395.28,211.54,394.7z"/>
			<path class="st20" d="M211.34,384.57c-1-3.8-2.8-7.54-4.56-11.06c-0.76-1.52-1.53-3.27-1.08-4.86c0.24,0.19,0.48,0.39,0.71,0.59
				c2.32,1.94,4.42,4.11,6.64,6.15c2.91,2.68,5.83,5.38,8.9,7.86c2.37,1.92,4.85,3.72,7.5,5.3c0.66,0.39,1.1,0.78,0.65,1.66
				c-0.48,0.94-0.6,1.1-1.76,0.81c-4.57-1.14-8.96-2.78-13.26-4.7C213.82,385.74,212.58,385.16,211.34,384.57z"/>
			<path class="st20" d="M229.65,401.04c-6.06,1.71-11.72,4.38-17.28,7.28c-0.46,0.24-0.93,0.49-1.39,0.73
				c-0.74-0.61-1.35-1.35-1.75-2.27c-1.25-2.83-0.03-5.84,1.16-8.85c4.05,0.27,8.11,0.46,12.16,0.39c1.34-0.02,2.68-0.07,4.02-0.15
				c0.98-0.06,1.96-0.26,2.94-0.34c1.01-0.09,2.44,1.15,2.51,2.13c0.03,0.37-0.23,0.49-0.52,0.57
				C230.88,400.7,230.27,400.86,229.65,401.04z"/>
			<path class="st20" d="M208.62,369.16c-0.74-0.61-1.48-1.22-2.23-1.8c0.91-1.05,2.46-1.54,3.89-1.44c4,0.28,8.25,2.78,12.29,5.25
				c0.77,0.99,1.53,1.99,2.29,2.98c1.6,2.08,3.21,4.15,4.9,6.14c1.05,1.23,2.13,2.43,3.27,3.59c0.86,0.87,0.84,0.9,0.1,1.86
				c-0.14,0.19-0.29,0.36-0.44,0.54c-0.99,1.16-0.99,1.16-2.29,0.46c-2.04-1.1-3.87-2.51-5.68-3.94c-0.06-0.04-0.11-0.09-0.17-0.13
				C219.12,378.32,213.98,373.61,208.62,369.16z"/>
			<path class="st20" d="M222.91,411.81c-1.34-0.16-2.71-0.22-4.03-0.3c-1.77-0.11-3.68-0.4-5.36-1.03
				c2.91-1.58,5.86-3.08,8.88-4.44c2.03-0.91,4.09-1.76,6.18-2.51c0.96-0.35,1.92-0.68,2.9-0.99c0.55-0.17,1.11-0.32,1.68-0.43
				c0.2-0.04,0.48-0.01,0.53,0.31c0.03,0.19-0.05,0.33-0.2,0.44c-0.19,0.13-0.38,0.26-0.58,0.38c-2.44,1.47-4.65,3.18-6.67,5.09
				C225.07,409.43,223.96,410.59,222.91,411.81z"/>
			<path class="st20" d="M235.28,405.04c-2.11,3.25-3.56,6.79-4.87,10.4c-0.25-0.36-0.54-0.7-0.86-1.01
				c-1.21-1.19-2.72-1.85-4.36-2.24c2.4-2.74,5.09-5.16,8.18-7.13c0.61-0.39,1.18-0.93,1.95-0.87
				C235.61,404.55,235.43,404.81,235.28,405.04z"/>
			<path class="st20" d="M240.51,407.55c0.5,0.74-0.27,1.73-0.41,2.64c-0.21,1.44-0.38,2.87-0.37,4.33
				c0.04,4.29,0.08,8.59,0.08,12.88c0,0.62-0.02,1.24-0.05,1.86c-1.29-0.17-2.5-0.64-3.53-1.48c-2.74-2.24-3.15-6.15-4.39-9.51
				c0.57-1.72,1.15-3.43,1.77-5.13c0.8-2.18,1.68-4.32,2.76-6.38c0.65-1.23,0.66-1.23,1.8-0.61
				C238.98,406.58,240.04,406.86,240.51,407.55z"/>
			<path class="st20" d="M250.51,425.5c-1.09,0.78-2.2,1.53-3.38,2.17c-1.74,0.94-3.76,1.58-5.73,1.66
				c0.28-3.74,0.25-7.46,0.12-11.2c-0.09-2.61,0-5.22,0.49-7.8c0.09-0.45,0.22-0.9,0.36-1.34c0.17-0.53,0.53-0.81,1.09-0.75
				c0.04,0,0.07,0.01,0.11,0.01c0.46,0.08,0.92,0.11,1.38,0.2c1.59,0.3,1.58,0.31,1.8,1.98c0.35,2.62,0.95,5.17,1.64,7.71
				c0.42,1.55,0.87,3.08,1.31,4.62C249.96,423.68,250.23,424.59,250.51,425.5z"/>
			<path class="st4" d="M106.67,185.39c-0.35-2.58,0.9-4.91,3.45-6.05c-0.97,4.2,0.7,7.46,2.91,10.54c1.46,2.03,3.2,3.81,4.97,5.57
				c2.39,2.37,4.87,4.64,7.13,7.13c2.5,2.77,4.7,5.74,6.34,9.1c1,2.05,1.61,4.22,1.94,6.46c0.2,1.36-0.05,1.54-1.38,1.22
				c-0.06-0.01-0.11-0.03-0.17-0.04c-2.37-0.33-3.73-1.31-4.16-4.04c-0.53-3.34-2.52-6.2-4.86-8.68c-1.55-1.64-3.19-3.2-4.83-4.76
				c-2.69-2.57-5.24-5.25-7.51-8.2C108.6,191.18,107.1,188.53,106.67,185.39z"/>
			<path class="st3" d="M111.97,183.72c-0.58-2.07,0-3.89,1.04-5.64c0.44-0.73,1.19-0.89,1.93-1.05c3.86-0.85,7.72-0.68,11.56,0.16
				c0.82,0.18,1.64,0.38,2.44,0.61c-1.92,0.56-3.78,1.38-4.76,3.16c-2.42,4.39,0.58,9.87,4.31,13.22c3.72,3.35,8.4,5.97,10.63,10.46
				c2.34,4.73,1.43,10.52,3.51,15.37c1.68,3.92,5.09,6.76,8.09,9.77c1.97,1.97,3.87,4.23,4.95,6.75
				c-4.45-6.94-11.02-12.68-19.1-15.64c-1.04-0.38-1.56-0.86-1.63-2.07c-0.31-5.02-2.26-9.41-5.26-13.4
				c-2.24-2.98-4.76-5.71-7.4-8.31c-2.69-2.65-5.29-5.38-7.62-8.36C113.47,187.23,112.5,185.6,111.97,183.72z"/>
			<path class="st3" d="M160.42,268.67c-6.09,7.53-14.15,12.17-23.36,14.58h0c-1.23,0.33-2.49,0.61-3.77,0.85
				c-3.88,0.74-7.79,1.1-11.76,0.82c-7.07-0.51-13.43-2.94-19.26-6.87c-5.9-3.98-10.64-9.13-14.83-14.82
				c-7.05-9.58-11.97-20.11-14.17-31.84c-1.27-6.75-1.45-13.49,0.5-20.16c0.04-0.15,0.09-0.3,0.14-0.45
				c0.83,13.22,7.02,26.24,17.22,34.8c15.7,13.18,39.4,15.39,57.79,6.32c2.33-1.15,4.65-2.52,6.2-4.61c1.02-1.37,1.63-3.12,1.56-4.8
				c-0.03-0.88-0.24-1.74-0.68-2.52c0.65,0.33,1.33,0.57,2.03,0.71c3.53,0.72,7.49-0.91,9.96-3.66c2.31-2.57,3.55-5.89,4.24-9.31
				C174.47,242.4,170.54,256.16,160.42,268.67z"/>
			<path class="st17" d="M120.37,247.88c3.98,1.43,8.32,2.32,12.42,1.3c4.1-1.02,7.83-4.37,8.23-8.57c0.38-3.99-2.31-7.8-5.76-9.84
				c-3.45-2.04-7.56-2.64-11.55-2.98c-4-0.35-8.07-0.49-11.87-1.77c-4.26-1.43-7.95-4.21-11.17-7.35
				c-2.29-2.25-10.15-7.15-9.84-0.46c0.15,3.2,5.08,9.64,6.94,12.29C103.31,238.37,111.27,244.6,120.37,247.88z"/>
			<path class="st17" d="M161.28,214.72c0.51,1.89,0.88,3.85,0.63,5.79c-0.25,1.94-1.22,3.87-2.89,4.88
				c-2.88,1.75-6.85,0.14-8.8-2.61c-1.95-2.75-2.39-6.26-2.68-9.62c-0.3-3.36-0.57-6.85-2.27-9.76c-1.7-2.9-7.21-6.28-6.07-10.05
				c1.39-4.59,5.89-2.26,8.24-0.3C154.09,198.63,159.03,206.34,161.28,214.72z"/>
			<path class="st17" d="M393.46,95.92c-1.01,4.35-3,8.45-3.81,12.84c-0.81,4.39-0.16,9.47,3.24,12.38
				c2.16,1.85,5.14,2.53,7.98,2.43c5.71-0.2,11.15-3.43,14.35-8.15c3.21-4.72,4.22-10.8,3.06-16.39c-0.67-3.25-2.03-6.32-3.58-9.26
				c-3.34-6.28-7.67-12.04-12.77-17c-2.59-2.51-5.51-4.9-9.02-5.71c-2.97-0.69-5.88,0.61-5.47,4.05c0.3,2.49,2.57,4.32,3.74,6.47
				C394.17,83.12,394.87,89.82,393.46,95.92z"/>
			<path class="st17" d="M345.31,132.27c0.58,1.44,1.2,2.91,2.33,3.97c1.13,1.05,2.92,1.57,4.26,0.79c1.82-1.06,1.83-3.64,1.61-5.73
				c-0.31-2.9-0.61-5.8-0.92-8.71c-0.24-2.3-0.51-4.67-1.64-6.68c-1.85-3.3-5.64-5.01-8.02-7.95c-2.77-3.42-3.32-8.06-3.76-12.44
				c-0.07-0.69-0.14-1.41-0.48-2.02c-0.34-0.61-1-1.1-1.69-0.99c-2.97,0.43,1.11,17.12,1.66,19.4
				C340.33,118.85,342.65,125.64,345.31,132.27z"/>
		</g>
		<g>
			<path class="st21" d="M421.56,79.27c-5.96-9.56-13.77-17.32-23.3-23.34c-3.65-2.3-7.48-4.21-11.66-5.35
				c-4.6-1.26-9.24-1.8-13.91-0.52c-4.59,1.27-7.55,4.15-8.36,8.99c-0.33,1.96-0.27,3.93-0.03,5.89c0.42,3.47,1.31,6.83,2.12,10.21
				c1.28,5.35,1.94,10.73,0.83,16.2c-0.41,2.05-0.93,4.07-1.61,6.05c-0.43,1.23-0.81,1.35-1.89,0.63c-0.43-0.29-0.82-0.65-1.19-1.02
				c-1.3-1.28-2.27-2.78-3.13-4.37c-1.63-3.04-2.75-6.27-3.48-9.62c-0.86-3.91-1.62-7.84-2.48-11.74c-0.5-2.28-1.31-4.45-2.75-6.34
				c-1.8-2.35-4.16-3.24-7.06-2.71c-1.54,0.28-2.79,1.12-3.93,2.13c-1.45,1.29-2.54,2.85-3.52,4.51
				c-4.14,7.02-5.94,14.69-6.18,22.76c-0.17,5.65,0.44,11.24,1.35,16.8c1.18,7.24,2.98,14.3,5.94,21.04
				c4.28,9.77,10.83,17.51,20.3,22.64c6.36,3.44,13.12,5.55,20.36,5.98c1.19,0.07,1.8,0.58,2.17,1.61c0.43,1.22,0.58,2.48,0.53,3.77
				c-0.16,3.88-0.43,7.77-0.46,11.65c-0.06,7.74,0.86,15.39,2.53,22.96c0.31,1.4,0.13,1.61-1.22,1.32c-3.18-0.67-6.39-1.1-9.62-1.44
				c-7.02-0.73-14.02-0.49-21.02,0.31c-4.15,0.48-8.3,0.9-12.43,1.52c-1.47,0.22-1.57,0.17-1.96-1.05
				c-1.32-4.13-3.46-7.85-5.64-11.55c-4.99-8.47-10.7-16.42-17.1-23.9c-4.65-5.43-9.33-10.82-14.62-15.63
				c-0.86-0.78-0.63-1.47-0.32-2.32c2.17-6,3.12-12.25,3.4-18.58c0.24-5.22,0.03-10.44-0.18-15.67c-0.47-11.69,0.22-23.3,2.32-34.84
				c1.55-8.5,4.72-16.23,9.99-23.09c3.34-4.35,7.3-8.1,11.42-11.69c0.74-0.65,1.5-1.29,2.25-1.93c0.39-0.33,0.61-0.73,0.35-1.22
				c-0.27-0.52-0.73-0.47-1.21-0.34c-1.35,0.37-2.62,0.96-3.83,1.63c-12.82,7.08-21.62,17.52-26.13,31.49
				c-3.44,10.65-3.44,21.59-2.62,32.58c0.5,6.66,1.12,13.31,0.86,19.99c-0.21,5.41-1.02,10.73-2.73,15.9
				c-0.66,2.01-0.67,2.02-2.35,0.75c-5.38-4.07-10.98-7.79-17.06-10.74c-0.81-0.39-1.23-0.91-1.45-1.78
				c-0.74-2.88-1.87-5.62-3.54-8.09c-6.24-9.21-14.9-13.12-25.91-11.55c-6.89,0.98-12.48,4.47-17.2,9.46
				c-0.43,0.45-0.73,1.06-1.4,1.26c-0.61-0.35-0.54-0.99-0.68-1.53c-0.98-3.81-2.9-7.07-5.76-9.76c-3.84-3.62-8.42-5.65-13.64-6.39
				c-5.47-0.77-10.65,0-15.47,2.73c-10.7,6.05-14.45,17.57-12.78,28.44c0.36,2.36,1.12,4.61,2.12,6.79c0.55,1.21,0.46,1.32-0.9,1.46
				c-1.67,0.17-3.39,0.14-5.02,0.49c-2.08,0.45-3.56-0.28-4.98-1.67c-2.71-2.65-5.06-5.59-7.26-8.67c-4.3-6-7.63-12.49-9.18-19.75
				c-1.48-6.95,0.11-13.07,5.25-18.2c5.29-5.28,11.88-8.05,18.92-9.78c4.49-1.1,9.14-1.55,13.72-2.22c2.52-0.37,5.07-0.56,7.6-0.86
				c4.32-0.52,8.64-1.1,12.99-1.16c3.54-0.05,7.07-0.23,10.59-0.69c8-1.06,15.91-2.54,23.69-4.65c5.68-1.54,10.83-4.22,14.93-8.54
				c4.38-4.62,6.71-10.1,6.35-16.58c-0.07-1.28-0.27-2.54-0.78-3.72c-0.12-0.28-0.35-0.48-0.67-0.46c-0.33,0.02-0.5,0.27-0.59,0.56
				c-0.08,0.28-0.14,0.57-0.14,0.85c0.01,3.09-1.24,5.76-2.88,8.26c-2.4,3.66-5.61,6.48-9.33,8.73c-4.62,2.8-9.68,4.45-14.92,5.58
				c-9.1,1.96-18.37,2.59-27.63,3.12c-6.49,0.37-12.99,0.53-19.47,1.03c-6.38,0.48-12.67,1.46-18.82,3.23
				c-6.7,1.94-12.94,4.81-18.23,9.47c-5.74,5.07-9.45,11.29-10.33,18.97c-0.87,7.6,0.68,14.76,4.4,21.47
				c2.9,5.22,6.66,9.77,10.66,14.15c0.41,0.45,0.98,0.81,1.08,1.44c-0.3,0.42-0.67,0.32-1,0.32c-2.38,0-4.75-0.28-7.11-0.57
				c-5.38-0.66-10.53-2.21-15.66-3.9c-1.49-0.49-2.23-1.17-2.33-2.72c-0.11-1.67-0.78-3.18-1.91-4.39
				c-2.49-2.67-5.51-3.75-9.13-2.77c-1.3,0.35-1.3,0.36-1.53-0.91c-0.55-2.97-2.35-4.83-5.13-5.82c-0.9-0.32-1.83-0.27-2.76-0.27
				c-1.42,0-1.42,0.01-1.55-1.34c-0.33-3.47-3.11-5.94-6.58-5.86c-1.43,0.03-1.43,0.03-1.64-1.25c-0.56-3.47-3.34-5.71-6.87-5.56
				c-1.61,0.07-1.61,0.07-2.27-1.32c-1.32-2.78-4.44-4.1-7.31-3.08c-1.83,0.65-2.51,1.99-1.84,3.81c0.28,0.76,0.66,1.49,1.06,2.19
				c2.85,4.99,5.84,9.9,9.27,14.52c8.07,10.88,17.55,20.4,28.03,28.95c12.1,9.87,25.02,18.46,39.07,25.31
				c11.95,5.82,24.45,10,37.57,12.21c1.91,0.32,3.54,1.15,4.92,2.42c2.39,2.2,3.29,4.87,2.16,8.03c-0.43,1.2-0.94,2.37-1.43,3.55
				c-0.74,1.77-1.46,3.55-1.79,5.44c-0.88,5.14,0.38,9.1,5.15,12.08c3.21,2.01,6.76,2.71,10.5,2.51c2.16-0.11,3.88,0.68,5.21,2.27
				c3.02,3.6,5.82,7.38,8.61,11.17c0.7,0.95,0.59,1.17-0.66,1.4c-2.12,0.39-4.16,1.05-6.13,1.9c-5.15,2.2-10.01,4.92-14.48,8.27
				c-5.9,4.42-11.81,8.81-17.81,13.1c-1.52,1.08-2.75,1.68-4.67,1.15c-1.93-0.53-4.02-0.45-6.03-0.74c-2.71-0.4-5.37-1.01-7.65-2.65
				c-2.07-1.49-2.08-1.65-1.22-4c4.55-12.31,4.98-24.81,0.67-37.18c-6.63-19.02-19.74-32.21-37.99-40.39
				c-5.53-2.48-11.41-3.46-17.5-2.86c-2.8,0.28-5.45,1.07-7.89,2.51c-3.88,2.29-5.55,5.63-4.77,10.11c0.13,0.74,0.33,1.47,0.57,2.18
				c0.77,2.35,2.08,4.4,3.57,6.34c2.55,3.33,5.47,6.32,8.5,9.2c2.19,2.08,4.38,4.16,6.25,6.55c1.23,1.57,2.25,3.25,2.74,5.19
				c0.31,1.23,0.16,1.39-1.01,1.1c-0.11-0.03-0.22-0.06-0.33-0.1c-5.69-1.84-10.95-4.44-15.49-8.42c-2.49-2.18-4.8-4.55-7.17-6.86
				c-1.62-1.58-3.27-3.13-5.17-4.39c-5.12-3.38-10.35-3.39-15.6-0.4c-4.95,2.81-7.92,7.22-9.6,12.55
				c-2.26,7.15-2.24,14.43-0.91,21.7c3.09,16.79,10.98,31.1,23.06,43.04c9.45,9.33,20.73,14.26,34.28,13.1
				c7.07-0.6,13.83-2.31,20.09-5.69c1.82-0.98,3.52-1.01,5.31-0.22c3.83,1.68,7.81,2.94,11.73,4.37c7.21,2.61,14.58,3.68,22.23,2.59
				c3.72-0.53,7.08-1.76,9.85-4.36c0.52-0.48,1.09-0.85,1.72-1.16c6.1-2.98,12.27-5.8,18.53-8.41c7.55-3.15,15.05-6.42,22.13-10.55
				c0.15-0.09,0.3-0.18,0.45-0.27c0.43-0.24,0.78-0.16,1,0.29c0.13,0.26,0.24,0.53,0.37,0.79c2.14,4.67,4.58,9.14,8.49,12.62
				c0.54,0.48,0.54,0.91,0.22,1.52c-1.15,2.21-1.49,4.62-1.6,7.07c-0.2,4.6,0.18,9.17,1.08,13.68c0.71,3.54,1.61,7.04,4.01,9.89
				c0.6,0.71,0.32,1.24-0.05,1.87c-1.34,2.3-1.98,4.81-2.27,7.43c-0.47,4.34-0.45,8.69-0.39,13.04c0.06,4.39,0.96,8.53,3.9,11.99
				c0.48,0.57,0.41,0.97-0.12,1.47c-0.67,0.64-1.35,1.3-1.88,2.05c-4.76,6.73-6.77,14.05-4.56,22.2c0.27,1.01-0.11,1.24-0.9,1.38
				c-1.92,0.34-3.4,1.43-4.72,2.78c-0.77,0.79-1.5,1.62-2.17,2.49c-1.49,1.93-2.92,3.9-4.4,5.84c-0.95,1.24-1.04,1.24-2.04,0.04
				c-2.63-3.17-5.12-6.46-7.56-9.78c-5.29-7.21-10.55-14.44-16.56-21.08c-5.28-5.83-10.99-11.18-17.59-15.5
				c-2.09-1.37-4.25-2.62-6.66-3.37c-4.86-1.52-9.15-0.63-12.79,3.04c-1.99,2-3.55,4.31-4.66,6.88c-4.12,9.54-5.5,19.36-2.78,29.55
				c0.42,1.56,0.41,1.57-0.97,2.51c-3.6,2.44-5.99,5.77-7.24,9.92c-0.66,2.18-0.97,4.41-1.14,6.67c-0.57,7.55,0.05,14.96,2.51,22.15
				c1.53,4.49,3.65,8.66,7.06,12.06c1.67,1.67,3.6,3,5.93,3.47c1.23,0.25,1.69,0.81,2.04,1.95c2.9,9.52,8.58,17.02,16.77,22.61
				c4.58,3.12,9.62,4.17,15.09,3.13c0.68-0.13,1.34-0.23,1.98,0.27c1.64,1.26,3.57,1.9,5.5,2.53c7.44,2.41,15.06,3.29,22.84,2.66
				c4.29-0.34,8.5-1.2,12.44-3.05c5.7-2.67,8.62-7.17,8.85-13.46c0.14-3.99-0.58-7.85-1.61-11.68c-1.64-6.11-3.81-12.05-5.52-18.14
				c-0.52-1.84-0.96-3.7-1.38-5.57c-0.23-1.05-0.09-1.17,1.01-1.28c0.17-0.02,0.35-0.01,0.52-0.01c4.67,0.02,9.25-0.72,13.76-1.82
				c6.87-1.68,13.39-4.19,19.23-8.26c2.87-2,5.57-4.2,7.41-7.25c0.39-0.65,0.97-0.79,1.62-0.79c1.4-0.01,2.77-0.26,4.12-0.61
				c6.13-1.62,11.4-4.84,16.23-8.82c8-6.59,13.87-14.78,17.95-24.27c1.56-3.63,2.92-7.34,3.33-11.31c0.07-0.71,0.48-1.14,1-1.55
				c3.96-3.2,6.84-7.24,9.05-11.78c2.59-5.3,4.21-10.92,5.35-16.69c1.32-6.69,2.06-13.45,1.5-20.25c-0.21-2.47,0.15-4.58,1-6.85
				c1.67-4.42,2.3-9.08,2.69-13.79c0.67-8.12,0.06-16.11-2.16-23.96c-1.15-4.08-2.54-8.08-5.04-11.59c-0.71-1-0.35-2.18-0.09-3.2
				c0.19-0.77,1.22-0.4,1.85-0.62c0.27-0.09,0.57-0.08,0.86-0.1c4.57-0.37,9.1-1.06,13.59-1.93c6.55-1.27,12.99-2.94,19.35-4.95
				c2.11-0.67,4.26-1.17,6.5-0.8c2.68,0.44,5.05-0.3,7.23-1.8c0.72-0.49,1.48-0.94,2.12-1.52c1.4-1.26,2.87-2.14,4.8-2.53
				c2.79-0.56,4.75-2.57,6.45-4.76c2.16-2.8,3.47-6.01,4.31-9.43c1.81-7.42,1.9-14.94,1.13-22.49c-0.99-9.65-3.52-18.91-7.34-27.82
				c-0.48-1.12-1.05-2.2-1.62-3.28c-0.34-0.64-0.29-1.09,0.44-1.37c0.22-0.08,0.42-0.2,0.63-0.3c8.21-3.98,14.17-10.16,17.99-18.43
				c3.98-8.61,5.4-17.68,4.94-27.11C429.74,96.77,426.78,87.64,421.56,79.27z M345.26,64.72c1.69,0.07,2.8,0.95,3.64,2.2
				c0.95,1.41,1.56,2.99,1.93,4.63c0.64,2.82,1.22,5.66,1.78,8.5c1.03,5.13,2.27,10.18,4.99,14.73c1.5,2.51,3.21,4.84,5.93,6.18
				c0.42,0.21,0.67,0.48,0.52,0.95c-0.35,1.1-0.69,2.21-1.1,3.29c-0.29,0.77-0.83,0.41-1.28,0.14c-2.19-1.35-4.13-2.98-5.73-5
				c-2.67-3.37-4.39-7.2-5.6-11.29c-1.27-4.29-1.99-8.69-2.75-13.08c-0.62-3.54-1.1-7.1-2.88-10.32
				C344.37,65.01,344.61,64.72,345.26,64.72z M331.05,195.44c0.06-0.09,0.19-0.12,0.48-0.29c1.04,1.5,1.57,3.16,2.21,4.76
				c0.17,0.43,0.03,0.8-0.45,0.97c-0.16,0.06-0.32,0.14-0.49,0.19c-4.93,1.39-7.37,5.06-8.54,9.68c-1.21,4.78-1.31,9.64-0.29,14.49
				c0.51,2.42,1.59,4.58,2.85,6.69c1.41,2.36,3.42,3.5,6.14,3.59c3.07,0.1,6.13,0.47,9.22,0.23c1.43-0.11,1.54,0.06,1.47,1.59
				c-0.15,3.4-1,6.65-2.33,9.76c-3.13,7.34-7.51,13.82-13.22,19.44c-3.21,3.16-6.66,5.95-10.64,8.05
				c-3.84,2.04-7.94,3.22-12.32,3.27c-0.29,0-0.58,0-0.87-0.02c-2.53-0.13-2.5-0.14-2.41-2.71c0.32-8.92-2.22-16.94-7.65-24.03
				c-1.71-2.23-3.82-4.04-6.17-5.58c-1.1-0.72-1.11-0.81-0.13-1.57c2.87-2.2,5.32-4.83,7.83-7.42c6.18-6.37,12.41-12.71,18.57-19.1
				c6.07-6.29,11.17-13.34,15.87-20.69C330.47,196.3,330.75,195.87,331.05,195.44z M296.34,136.38c1.69-7.05,1.95-14.21,1.59-21.43
				c-0.42-8.45-1.49-16.88-1.16-25.37c0.39-10.31,2.71-20.08,8-29.04c2.25-3.81,4.97-7.28,8.09-10.42c0.33-0.33,0.68-0.63,1.03-0.93
				c0.08-0.07,0.21-0.07,0.51-0.16c-0.24,0.82-0.74,1.25-1.14,1.73c-6.18,7.53-9.92,16.09-11.57,25.7
				c-1.84,10.74-2.63,21.53-2.29,32.39c0.19,6.09,0.52,12.18,0.21,18.27c-0.37,7.22-1.57,14.3-4.73,20.9
				c-3.83,8-9.37,14.61-16.47,19.92c-3.45,2.57-7.07,4.87-11.01,6.62c-0.79,0.35-1.61,0.65-2.44,0.91c-1.3,0.41-1.9,0.22-2.08-0.69
				c-0.21-1.09,0.81-1.01,1.36-1.17c6.34-1.84,11.69-5.36,16.41-9.84C288.62,156.23,293.79,147.03,296.34,136.38z M224.15,123.28
				c4.45-6.9,10.8-11.2,18.98-12.64c1.21-0.21,2.43-0.18,3.68-0.29c10.01,0.52,17.18,5.3,21.24,14.52
				c6.56,14.91-1.59,33.94-17,39.67c-12.19,4.53-24.92-0.87-29.95-12.9C216.95,141.69,218.42,132.16,224.15,123.28z M183.78,110.85
				c4.45-4.89,10.02-7.35,16.7-7.4c5.45,0.16,10.43,1.74,14.7,5.3c3.74,3.11,5.78,7.17,6.69,11.87c0.13,0.68,0,1.25-0.36,1.82
				c-1.9,3.01-3.32,6.24-4.19,9.69c-0.19,0.78-0.67,1.1-1.43,1.3c-7.07,1.82-14.15,3.55-21.36,4.75c-4.06,0.67-8.11,1.36-12.2,1.84
				c-0.99,0.12-1.47-0.2-1.92-1.03C175.71,130.21,177.11,118.17,183.78,110.85z M146.85,123.45c-2.46-4.7-3.94-9.69-4-14.99
				c-0.1-8.49,3.16-15.57,9.47-21.24c4.71-4.24,10.28-6.89,16.26-8.76c6.34-1.99,12.84-3.05,19.45-3.55
				c6.71-0.51,13.44-0.69,20.16-1.07c8.51-0.49,17.02-1.07,25.41-2.73c5.37-1.06,10.59-2.59,15.43-5.2
				c4.14-2.23,7.73-5.12,10.64-8.84c0.24-0.31,0.4-0.71,0.97-0.89c0.08,0.82-0.33,1.34-0.61,1.89c-1.75,3.45-4.33,6.15-7.52,8.29
				c-4.26,2.86-8.99,4.53-13.97,5.59c-5.95,1.27-11.91,2.53-17.93,3.4c-3.21,0.47-6.45,0.8-9.71,0.82
				c-5.29,0.03-10.53,0.58-15.77,1.27c-3.33,0.43-6.7,0.59-10.02,1.16c-3.71,0.63-7.5,0.95-11.14,1.85
				c-7.93,1.95-15.26,5.12-21.01,11.26c-4.64,4.96-6.4,10.79-5.62,17.44c0.84,7.19,3.85,13.57,7.6,19.64
				c2.54,4.11,5.46,7.93,8.81,11.43c0.23,0.24,0.43,0.53,0.65,0.8c-1.47,0.84-3.03,0.8-3.99-0.19
				C155.28,135.5,150.31,130.06,146.85,123.45z M222.91,223.16c-0.33-0.38-0.81-0.69-0.78-1.3c0.27-0.35,0.69-0.42,1.06-0.55
				c11.22-3.94,20.01-11.06,26.9-20.65c0.54-0.75,0.97-1.58,1.41-2.39c0.25-0.46,0.51-1.06,0-1.43c-0.58-0.41-0.93,0.18-1.26,0.57
				c-0.37,0.45-0.7,0.92-1.06,1.38c-5.5,7.12-12.01,13.06-20.05,17.21c-3.52,1.82-7.18,3.24-11.13,3.83
				c-3.57,0.53-6.94-0.03-10.11-1.73c-3.85-2.06-5.38-5.53-4.39-9.81c0.47-2.04,1.3-3.96,2.12-5.89c0.68-1.6,1.29-3.22,1.65-4.94
				c0.49-2.39,0.22-4.61-1.15-6.66c-0.13-0.19-0.23-0.4-0.33-0.61c-0.02-0.04,0-0.11,0.01-0.17c1.91-0.59,2.8-0.22,3.52,1.53
				c1.04,2.52,0.97,5.11,0.32,7.69c-0.4,1.57-0.89,3.12-1.37,4.67c-0.38,1.23-0.66,2.46-0.64,3.76c0.03,2.23,1.07,3.76,3.22,4.43
				c2.43,0.75,4.94,0.63,7.41,0.21c6.22-1.05,11.57-4.03,16.58-7.68c4.25-3.1,7.95-6.77,11.16-10.94c2.47-3.22,5.04-6.37,7.12-9.88
				c0.69-1.16,0.75-1.17,1.85-0.46c1.3,0.84,2.68,1.36,4.24,1.38c0.39,0.01,0.82,0.08,1.08-0.31c0.03-0.3-0.15-0.45-0.36-0.54
				c-0.26-0.12-0.54-0.2-0.82-0.29c-3.93-1.3-5.68-4.16-5.87-8.15c-0.06-1.22-0.07-2.44-0.1-3.66c-0.01-0.28,0.04-0.59-0.3-0.75
				c-0.66,0.12-0.72,0.72-0.82,1.19c-0.43,1.99-0.72,4.03-0.29,6.04c0.23,1.07-0.16,1.46-1.03,1.82c-3.01,1.22-6.08,2.26-9.19,3.22
				c-10.99,3.39-22.25,4.56-33.7,3.88c-10.43-0.62-20.51-3.02-30.39-6.34c-13.11-4.42-25.3-10.73-36.84-18.29
				c-13.15-8.62-25.36-18.41-36.09-29.96c-7.3-7.86-13.61-16.45-18.84-25.82c-0.34-0.61-0.68-1.22-0.94-1.86
				c-0.32-0.8-0.06-1.17,0.81-1.31c1.72-0.28,3.42,1.04,3.71,2.9c0.05,0.34,0.02,0.7,0.05,1.04c0.11,1.44,0.65,1.77,1.86,1.03
				c1.74-1.06,3.4-0.99,5.05,0.12c1.74,1.16,2.33,2.81,1.74,4.82c-0.08,0.28-0.22,0.54-0.26,0.83c-0.16,1.1,0.56,1.69,1.57,1.29
				c0.26-0.11,0.47-0.34,0.73-0.46c1.84-0.9,4.22-0.38,5.5,1.24c0.9,1.13,1.15,2.39,0.57,3.75c-0.11,0.27-0.25,0.52-0.38,0.78
				c-0.26,0.5-0.36,1,0.08,1.45c0.43,0.43,0.98,0.44,1.44,0.14c0.88-0.56,1.86-0.69,2.84-0.7c3.97-0.06,6.73,3.47,5.52,6.59
				c-0.23,0.6-0.36,1.29,0.28,1.74c0.59,0.41,1.21,0.26,1.79-0.12c0.19-0.13,0.4-0.24,0.59-0.37c4.03-2.83,9.82,0.42,10.14,4.85
				c0.05,0.63,0.26,1.26,0.25,1.89c-0.03,1.2,0.56,1.83,1.65,2.12c6.94,1.83,13.72,4.33,20.94,4.96c6.95,0.6,13.9,0.65,20.87,0.16
				c6.08-0.43,12.11-1.18,18.14-2.11c7.8-1.2,15.52-2.76,23.15-4.76c0.62-0.16,1.23-0.35,1.85-0.47c1.04-0.2,1.25-0.04,1.21,1.05
				c-0.08,2.09-0.2,4.19,0.03,6.26c1.08,9.96,5.59,17.81,14.68,22.41c8.01,4.06,16.23,3.61,24.09-0.51
				c9.49-4.98,15.05-13.03,17.13-23.49c0.56-2.79,0.86-5.62,0.47-8.48c-0.02-0.11-0.02-0.23-0.02-0.35c0-1.02,0.18-1.18,1.1-0.82
				c1.13,0.44,2.26,0.91,3.3,1.57c4.42,2.79,8.7,5.78,12.77,9.07c1.16,0.94,1.19,0.97,0.66,2.15c-4.55,10.01-11.29,18.05-21.03,23.4
				c-2.15,1.18-4.45,1.97-6.78,2.67c-1.1,0.33-1.11,0.3-1.33-0.8c-0.01-0.06-0.01-0.12-0.01-0.17c-0.06-0.4-0.08-0.9-0.56-0.97
				c-0.57-0.08-0.76,0.42-0.89,0.87c-0.68,2.39-0.15,4.59,1.05,6.68c0.8,1.39,1.97,2.43,3.27,3.32c0.56,0.38,1.18,0.58,1.73,0.03
				c0.53-0.53,0.21-1.06-0.13-1.56c-0.06-0.09-0.09-0.21-0.14-0.31c0.06-0.33,0.36-0.43,0.61-0.54
				c13.06-5.44,23.11-14.25,29.91-26.7c0.97-1.77,0.96-1.78,2.36-0.43c6.24,6.02,11.93,12.52,17,19.56
				c4.82,6.7,9.04,13.77,13.18,20.9c0.65,1.12,0.53,1.97-0.12,3.03c-5.38,8.74-11.6,16.8-18.79,24.13
				c-6.26,6.38-12.49,12.79-18.74,19.18c-1.38,1.41-2.79,2.79-4.36,4c-1.37,1.06-1.45,1.03-2.26-0.52
				c-5.36-10.28-11.76-19.87-19.12-28.82c-1.66-2.02-3.35-4.01-5.24-5.82c-0.39-0.37-0.69-0.97-1.62-0.8
				c0.2,0.9,0.81,1.38,1.28,1.94c7.67,9.08,14.34,18.83,19.76,29.42c0.95,1.86,1.85,3.75,2.72,5.64c0.44,0.96,0.32,1.2-0.71,1.48
				c-2.81,0.75-5.68,1.13-8.57,1.42c-5.56,0.57-11.13,0.54-16.7,0.33c-4.05-0.15-8.1-0.45-12.04-1.6c-3.03-0.89-5.61-2.46-7.84-4.67
				c-1.66-1.64-3.11-3.45-4.52-5.29C229.04,230.44,226.07,226.72,222.91,223.16z M211.94,196.92c0.18-0.72,0.52-1.25,1.06-1.73
				c3.58-3.25,8.36-2.28,11.16-0.55c1.11,0.68,1.09,1.05,0.01,1.9c-1.93,1.52-3.59,3.28-4.98,5.3c-0.31,0.44-0.79,0.86-0.53,1.61
				c0.79-0.21,1.17-0.82,1.62-1.31c1.7-1.84,3.57-3.48,5.67-4.85c1.76-1.15,3.66-1.98,5.76-2.31c3.01-0.48,5.26,0.86,7.24,2.92
				c0.51,0.53,0.41,1.03-0.12,1.49c-1.13,0.99-2.23,2.03-3.41,2.97c-4.48,3.56-9.26,6.57-14.86,8.06c-2.81,0.75-5.64,1.33-8.57,0.58
				c-2.51-0.64-3.45-2.07-2.93-4.63c0.2-0.96,0.44-1.93,0.81-2.84C210.75,201.39,211.39,199.17,211.94,196.92z M212.25,189.97
				c0.52-0.03,1.04-0.03,1.57-0.03c12.51,0.02,24.52-2.42,36.01-7.37c0.4-0.17,0.78-0.53,1.51-0.24c-1.63,3.4-3.57,6.48-5.74,9.41
				c-1.1,1.49-2.32,2.9-3.53,4.3c-0.83,0.96-0.88,0.94-1.81,0.17c-3.74-3.09-7.85-3.77-12.35-1.92c-0.77,0.32-1.36,0.46-2-0.28
				c-2.63-3.04-8.59-3.28-12.05-0.9c-0.33,0.23-0.65,0.49-1,0.7c-0.4,0.23-0.66,0.06-0.75-0.37c-0.18-0.85-0.32-1.71-0.52-2.55
				C211.44,190.28,211.66,190,212.25,189.97z M122.84,206.6c-1.55-1.64-3.19-3.2-4.83-4.76c-2.68-2.57-5.24-5.26-7.51-8.2
				c-1.9-2.46-3.4-5.11-3.83-8.26c-0.35-2.58,0.9-4.91,3.45-6.05c-0.96,4.21,0.7,7.46,2.91,10.54c1.46,2.03,3.2,3.82,4.97,5.57
				c2.39,2.37,4.87,4.63,7.13,7.13c2.5,2.77,4.7,5.73,6.34,9.1c1,2.05,1.61,4.22,1.94,6.46c0.2,1.36-0.05,1.54-1.39,1.22
				c-0.06-0.01-0.11-0.03-0.17-0.04c-2.37-0.33-3.73-1.31-4.16-4.03C127.17,211.94,125.19,209.08,122.84,206.6z M133.29,284.11
				c-3.88,0.74-7.79,1.1-11.76,0.82c-7.07-0.51-13.43-2.94-19.26-6.87c-5.9-3.98-10.64-9.13-14.83-14.82
				c-7.05-9.57-11.97-20.11-14.17-31.84c-1.27-6.75-1.45-13.49,0.5-20.16c1-3.44,2.54-6.6,5.11-9.18c1.45-1.45,3.1-2.61,4.99-3.44
				c3.85-1.69,7.56-1.41,11.11,0.85c1.62,1.03,3.05,2.31,4.43,3.64c1.83,1.78,3.65,3.57,5.47,5.36c5.53,5.45,12.07,9.15,19.48,11.39
				c3.99,1.21,8.05,2.19,11.93,3.77c5.64,2.3,10.4,5.77,14.46,10.31c4.96,5.54,8.12,11.96,9.8,19.15c0.51,2.21,0.62,4.48,0.76,6.73
				c0.03,0.46-0.09,0.93,0.31,1.73c0.44-1.5,0.48-2.7,0.48-3.89c0.04-15.01-9.94-31.06-25.51-36.76c-1.04-0.38-1.56-0.86-1.64-2.07
				c-0.31-5.02-2.26-9.41-5.26-13.41c-2.24-2.98-4.75-5.7-7.41-8.31c-2.69-2.65-5.29-5.38-7.62-8.36c-1.19-1.52-2.16-3.15-2.68-5.03
				c-0.58-2.06,0-3.89,1.04-5.64c0.43-0.73,1.19-0.89,1.93-1.04c3.86-0.84,7.72-0.68,11.56,0.16c7.04,1.54,13.28,4.79,19.08,8.94
				c10.73,7.69,19.07,17.4,23.59,29.88c6.92,19.09,4.01,36.87-8.75,52.65C153.51,277.21,144.07,282.04,133.29,284.11z
				 M188.89,283.18c-3.17-1.41-5.59-3.69-7.44-6.59c-0.43-0.67-0.85-1.34-1.33-2.11c-0.4,1.43,0.8,4.23,2.64,6.52
				c1.5,1.86,3.41,3.21,5.83,4.36c-1.28,0.67-2.32,0.69-3.31,0.81c-5.31,0.66-10.51,0.17-15.64-1.35
				c-4.78-1.41-9.51-2.95-14.22-4.58c-0.55-0.19-1.09-0.4-1.61-0.64c-0.92-0.43-0.96-0.65-0.1-1.27c2.59-1.88,5.03-3.92,7.25-6.22
				c3.01-3.11,5.44-6.63,7.5-10.41c0.25-0.46,0.48-0.93,0.73-1.38c0.64-1.16,0.68-1.2,1.82-0.48c3.98,2.5,8.35,3.63,13,3.92
				c3.1,0.19,3.09,0.22,1.79,2.95c-2.76,5.77-0.87,11.95,4.73,15.56c0.51,0.33,1.17,0.48,1.55,1.27
				C190.81,284.02,189.84,283.6,188.89,283.18z M238.67,261.46c-0.65,0.4-1.06,0.25-1.41-0.37c-0.98-1.71-1.84-3.49-2.51-5.35
				c-0.83-2.3-1.37-4.67-1.82-7.06c-0.14-0.76-0.17-1.57-0.59-2.37c-0.7,0.5-0.54,1.12-0.54,1.65c0,4.76,0.81,9.34,2.95,13.64
				c0.15,0.31,0.32,0.62,0.46,0.94c0.19,0.43,0.11,0.79-0.32,1.03c-0.4,0.23-0.81,0.46-1.22,0.67c-4.01,2.09-8.1,4.02-12.27,5.76
				c-7.92,3.3-15.8,6.7-23.39,10.69c-1.98,1.04-3.7,0.9-5.57-0.07c-5.32-2.74-7.32-8.7-4.68-14.07c0.29-0.58,0.67-1.07,1.17-1.48
				c1.56-1.3,3.18-2.53,4.89-3.62c4.98-3.19,9.81-6.61,14.52-10.19c5.38-4.09,11.2-7.42,17.48-9.95c1.9-0.76,3.87-1.18,5.87-1.55
				c0.99-0.18,1.77,0.04,2.48,0.83c0.92,1.04,2.23,1.82,2.87,2.98c0.65,1.18,0.17,2.73,0.29,4.11c0.36,3.99,0.97,7.93,2.1,11.79
				C239.76,260.68,239.62,260.87,238.67,261.46z M234.26,388.24c2.51-3.05,4.84-6.23,7.1-9.47c0.96-1.38,1.97-2.73,3.18-3.92
				c0.92-0.91,1.97-1.63,3.22-1.99c1.25-0.36,1.78-0.18,2.54,0.85c4.13,5.57,9.92,8.6,16.35,10.61c0.71,0.22,1.77,0.82,2.09-0.27
				c0.28-0.95-0.92-1.01-1.55-1.29c-2.45-1.07-4.84-2.24-7.17-3.55c-2.04-1.14-3.87-2.56-5.52-4.21c-3.8-3.78-5.33-8.29-4.56-13.63
				c0.57-3.91,1.81-7.54,3.92-10.88c0.56-0.89,1.18-1.73,1.9-2.48c1.49-1.56,1.59-1.57,3.5-0.5c3.45,1.93,7.21,2.86,11.09,3.3
				c2.59,0.29,5.19,0.63,7.8,0.07c0.66-0.14,1.64-0.08,1.58-0.96c-0.07-0.99-1.08-0.64-1.71-0.64c-4.26,0.03-8.44-0.52-12.53-1.72
				c-1.34-0.39-2.62-0.92-3.89-1.51c-5.05-2.36-7.66-6.44-8.06-11.9c-0.38-5.22-0.17-10.44,0.38-15.64c0.2-1.92,0.83-3.73,1.73-5.44
				c0.33-0.62,0.73-0.84,1.4-0.47c4.57,2.52,9.61,2.91,14.67,3.04c2.84,0.07,5.69,0.2,8.51-0.28c0.29-0.05,0.58-0.04,0.86-0.11
				c0.45-0.12,0.96-0.28,0.88-0.87c-0.07-0.48-0.51-0.59-0.94-0.6c-0.99-0.02-1.97-0.03-2.96-0.03c-4.53,0.01-9.05-0.21-13.51-1.06
				c-1.6-0.3-3.16-0.74-4.66-1.37c-2.87-1.21-4.89-3.25-6.09-6.13c-1.29-3.08-1.87-6.33-2.31-9.61c-0.42-3.17-0.58-6.36-0.43-9.55
				c0.08-1.69,0.34-3.35,0.95-4.93c0.51-1.31,0.7-1.4,1.89-0.81c3.55,1.75,7.31,2.56,11.24,2.68c3.89,0.12,7.77,0.11,11.64-0.38
				c0.7-0.09,1.37-0.24,2.02-0.5c0.27-0.1,0.47-0.34,0.44-0.68c-0.03-0.34-0.28-0.52-0.57-0.56c-0.34-0.05-0.69-0.05-1.03-0.03
				c-4.64,0.29-9.28,0.33-13.91-0.17c-6.63-0.72-12.09-3.5-15.83-9.21c-4.11-6.26-6.69-13.09-7.63-20.53
				c-0.18-1.44-0.44-2.87-0.4-4.33c0.03-1.04,0.21-1.22,1.1-0.85c5.48,2.27,11.27,2.57,17.07,2.71c5.05,0.13,10.1,0.15,15.13-0.36
				c3.52-0.36,7.04-0.76,10.42-1.88c1.08-0.36,1.86-0.14,2.74,0.45c5,3.37,8.24,8.09,10.47,13.58c1.97,4.86,2.88,9.9,2.48,15.15
				c-0.02,0.29-0.03,0.58-0.07,0.87c-0.24,2.03-0.24,2.05-2.22,2.51c-2.15,0.5-4.33,0.79-6.54,0.85c-0.44,0.01-0.92-0.14-1.4,0.25
				c0.3,0.64,0.89,0.56,1.43,0.64c2.9,0.42,5.79,0.36,8.67-0.09c0.82-0.13,1.32,0.13,1.79,0.73c3.88,4.95,6.24,10.45,5.97,16.85
				c-0.18,4.31-1.41,8.33-3.69,12.01c-0.4,0.64-0.87,1.23-1.35,1.82c-0.98,1.21-2.13,1.92-3.81,2.09c-3.13,0.32-6.26,0.21-9.39,0.23
				c-0.6,0-1.25-0.19-1.81,0.28c0.31,0.73,0.91,0.79,1.46,0.91c3.53,0.76,7.08,1.35,10.69,0.76c1.37-0.22,2.14,0.24,2.82,1.4
				c1.58,2.7,2.53,5.62,2.96,8.67c0.77,5.39,0.15,10.64-2,15.68c-0.99,2.32-2.32,4.4-3.9,6.36c-1.14,1.42-2.55,2.03-4.34,2.15
				c-3.37,0.23-6.72,0.25-10.06-0.32c-0.23-0.04-0.46-0.02-0.67,0.18c-0.03,0.75,0.66,0.73,1.08,0.84c3.32,0.89,6.7,1.37,10.15,1.09
				c1.74-0.14,1.75-0.15,2.46,1.45c1.45,3.24,1.77,6.61,0.88,10.03c-1.75,6.72-5.24,12.35-10.71,16.69
				c-4.3,3.41-9.23,4.99-14.71,4.93c-0.4,0-0.81,0.02-1.21,0.05c-0.04,0-0.08,0.07-0.2,0.19c0.05,0.61,0.65,0.65,1.06,0.87
				c0.9,0.48,0.95,0.6,0.23,1.35c-1.58,1.65-3.42,2.96-5.45,3.99c-4.11,2.08-8.53,3.14-13.09,3.13c-4.59-0.01-8.84,1-12.92,2.96
				c-1.26,0.6-2.55,1.12-3.89,1.49c-1.53,0.42-2.74,0.02-3.63-1.31c-0.29-0.43-0.62-0.85-0.88-1.29c-1.3-2.17-1.44-4.37-0.07-6.57
				C233.35,389.44,233.78,388.82,234.26,388.24z M170.67,343.27c0.98-2.12,2.23-4.07,3.87-5.75c2.98-3.05,6.46-3.89,10.5-2.44
				c2.7,0.97,5.13,2.44,7.45,4.08c6.1,4.31,11.43,9.46,16.4,15.01c5.7,6.36,10.78,13.21,15.98,19.98c2.58,3.36,5.19,6.69,8.17,9.72
				c0.86,0.88,0.84,0.9,0.1,1.86c-0.14,0.18-0.29,0.36-0.44,0.54c-0.99,1.16-0.99,1.16-2.29,0.46c-2.1-1.14-3.99-2.59-5.85-4.07
				c-5.45-4.34-10.59-9.04-15.94-13.5c-6.15-5.11-12.74-9.5-20.25-12.37c-2.06-0.79-4.13-1.52-6.27-2.08
				c-0.56-0.15-1.12-0.29-1.69-0.42c-0.28-0.06-0.62-0.16-0.7,0.24c-0.05,0.25,0.17,0.39,0.41,0.46c0.44,0.14,0.88,0.3,1.32,0.43
				c9.28,2.86,17.53,7.58,24.95,13.8c2.32,1.94,4.42,4.11,6.64,6.15c5.17,4.76,10.32,9.54,16.4,13.15c0.66,0.39,1.1,0.78,0.65,1.66
				c-0.48,0.94-0.59,1.1-1.76,0.81c-4.57-1.14-8.96-2.78-13.26-4.69c-5.25-2.33-10.31-5.06-15.46-7.59
				c-4.53-2.23-9.1-4.36-13.96-5.79c-5.36-1.57-10.76-2.3-16.27-0.75c-1,0.28-1.18,0.12-1.53-1.09c-0.89-3.02-1.31-6.12-1.33-8.71
				C166.64,355.35,167.95,349.15,170.67,343.27z M167.66,423.61c-1.6-1.46-2.84-3.22-3.88-5.11c-2.92-5.25-4.49-10.91-5.05-16.87
				c-0.37-3.94-0.45-7.87,0.02-11.81c0.19-1.62,0.47-3.21,0.98-4.76c2.12-6.46,6.65-9.98,13.29-10.94c4.86-0.7,9.45,0.47,13.98,2.01
				c5.12,1.75,9.95,4.15,14.76,6.6c6.1,3.1,12.18,6.24,18.63,8.59c2.51,0.91,5.07,1.64,7.64,2.32c0.28,0.07,0.57,0.11,0.85,0.2
				c0.77,0.26,0.81,0.92,0.82,1.57c0.01,0.73-0.58,0.8-1.09,0.85c-3.81,0.41-7.62,0.65-11.46,0.54c-6.73-0.19-13.41-1.1-20.12-1.46
				c-7.22-0.39-14.36,0.32-21.38,2.14c-1.18,0.31-2.35,0.61-3.54,0.9c-0.49,0.12-0.97,0.26-1.33,0.71c1.39,0.33,2.67-0.09,3.96-0.38
				c3.74-0.84,7.57-1.12,11.37-1.52c2.3-0.24,4.62-0.39,6.95-0.4c4.54-0.03,9.03,0.52,13.54,0.86c6.66,0.5,13.31,0.93,19.99,0.52
				c0.98-0.06,1.95-0.26,2.94-0.34c1.01-0.09,2.44,1.15,2.51,2.13c0.02,0.37-0.23,0.49-0.52,0.57c-0.61,0.17-1.23,0.33-1.84,0.5
				c-6.06,1.71-11.71,4.38-17.28,7.28c-8.23,4.3-16.18,9.1-24.36,13.49c-2.2,1.18-4.42,2.31-6.74,3.23
				c-1.46,0.58-2.95,1.01-4.5,1.31C173.24,427.03,170.25,425.98,167.66,423.61z M192.4,451.49c-4.6-2.78-8.19-6.62-11.28-10.96
				c-2.17-3.05-3.68-6.44-4.87-9.97c-0.4-1.2-0.26-1.45,0.98-1.63c3.08-0.47,5.9-1.68,8.66-3.04c6.45-3.19,12.59-6.94,18.85-10.49
				c5.8-3.29,11.58-6.62,17.67-9.36c2.96-1.33,5.98-2.52,9.08-3.5c0.55-0.17,1.11-0.32,1.68-0.43c0.2-0.04,0.48-0.01,0.52,0.31
				c0.03,0.19-0.05,0.34-0.2,0.44c-0.19,0.14-0.38,0.27-0.58,0.39c-5.21,3.14-9.35,7.39-12.93,12.25c-1.79,2.43-3.57,4.87-5.35,7.3
				c-4.75,6.48-10.93,11.14-18.21,14.43c-0.79,0.36-1.72,0.58-2.3,1.61c0.84,0.06,1.41-0.22,1.99-0.42
				c8.53-3.07,15.61-8.07,20.94-15.47c2.27-3.15,4.51-6.34,6.96-9.36c2.69-3.32,5.75-6.22,9.35-8.52c0.61-0.39,1.18-0.93,1.95-0.87
				c0.3,0.37,0.12,0.62-0.03,0.85c-2.53,3.87-4.1,8.18-5.61,12.5c-2.18,6.24-4.07,12.58-6.66,18.67c-1.85,4.36-4.22,8.39-7.64,11.74
				c-1.76,1.72-3.72,3.13-5.91,4.25C203.63,455.17,197.94,454.83,192.4,451.49z M249.7,422.76c1.45,5.01,3.12,9.96,4.15,15.08
				c0.54,2.68,0.81,5.39,0.58,8.13c-0.4,4.71-2.63,8.2-6.94,10.28c-2.9,1.4-5.98,2.22-9.14,2.69c-8.72,1.31-17.22,0.24-25.54-2.53
				c-0.27-0.09-0.56-0.16-0.81-0.3c-0.58-0.33-1.62-0.28-1.66-1.03c-0.04-0.75,0.97-0.85,1.54-1.19c5-2.94,8.61-7.17,11.36-12.2
				c1.87-3.42,3.2-7.07,4.48-10.74c2.06-5.91,3.73-11.96,5.89-17.83c0.8-2.18,1.69-4.32,2.76-6.38c0.64-1.23,0.66-1.23,1.8-0.61
				c0.81,0.44,1.87,0.73,2.33,1.42c0.5,0.74-0.27,1.73-0.41,2.63c-0.22,1.44-0.39,2.87-0.37,4.33c0.04,4.29,0.08,8.59,0.08,12.88
				c-0.01,6.78-1.87,13.05-5.42,18.81c-0.97,1.58-2.06,3.09-3.09,4.63c-0.25,0.38-0.67,0.66-0.67,1.28
				c0.84,0.23,1.18-0.31,1.52-0.75c5.06-6.41,8.59-13.44,9.22-21.76c0.29-3.83,0.27-7.64,0.14-11.47c-0.09-2.61,0-5.22,0.49-7.8
				c0.09-0.45,0.22-0.9,0.36-1.34c0.19-0.57,0.57-0.84,1.2-0.74c0.46,0.08,0.92,0.11,1.38,0.2c1.59,0.3,1.57,0.31,1.8,1.98
				C247.3,414.64,248.52,418.7,249.7,422.76z M287.89,391.96c-2.9,2.9-6.22,5.23-9.85,7.09c-7.04,3.61-14.51,5.78-22.36,6.71
				c-1.85,0.22-3.7,0.31-5.55,0.35c-2.87,0.1-5.68-0.14-8.39-1.18c-1.31-0.5-2.55-1.13-3.59-2.08c-0.58-0.53-0.52-0.88,0.24-1.09
				c2.19-0.62,4.22-1.62,6.26-2.58c3.18-1.49,6.54-1.9,9.98-2c3.92-0.12,7.7-0.92,11.33-2.4c3.06-1.24,5.74-3.03,7.93-5.51
				c0.61-0.69,1.16-0.92,2.1-0.66c3.75,1.02,7.56,1.74,11.45,1.97c0.38,0.02,0.9-0.11,1.03,0.41
				C288.61,391.44,288.17,391.68,287.89,391.96z M331.29,348.31c-4.12,12.53-10.93,23.25-21.37,31.51
				c-3.39,2.68-7.08,4.84-11.05,6.52c-4.25,1.8-8.67,2.01-13.15,1.45c-1.37-0.17-2.78-0.16-4.16-0.75c0.09-0.47,0.37-0.56,0.64-0.66
				c7.68-2.99,12.76-8.65,16.26-15.9c1.5-3.11,2.4-6.41,2.68-9.85c0.18-2.29-0.22-4.51-0.98-6.67c-0.13-0.38-0.38-0.73-0.24-1.32
				c11.28,2.08,21.7-0.68,31.52-6.2C331.84,347.26,331.45,347.8,331.29,348.31z M348.83,296.1c-0.2,11.71-2.03,23.09-6.88,33.85
				c-2.3,5.1-5.39,9.63-10.05,12.89c-5.81,4.05-12.27,6.46-19.27,7.5c-2.19,0.32-4.39,0.41-6.59,0.39c-0.7-0.01-1.39-0.02-2.09-0.08
				c-2.99-0.28-3.1-0.53-1.46-2.97c2.75-4.07,4.25-8.58,4.73-13.47c0.41-4.16,0.05-8.22-1.12-12.21c-0.49-1.67-1.14-3.28-2.02-4.8
				c-0.23-0.39-0.55-0.76-0.49-1.36c1.35-0.62,2.88-0.58,4.34-0.83c7.56-1.31,14.95-3.24,22-6.31c5.79-2.52,11.1-5.79,15.52-10.38
				c0.76-0.79,1.45-1.66,2.19-2.48c0.25-0.28,0.41-0.73,0.91-0.68C348.93,295.39,348.83,295.77,348.83,296.1z M347.34,243.36
				c2.07,4.95,3.44,10.1,4.13,15.41c1.09,8.41,0.68,16.76-1.19,25.06c-1.52,6.78-5.19,12.06-10.66,16.21
				c-5.29,4.01-11.21,6.74-17.48,8.79c-5.13,1.68-10.38,2.88-15.69,3.79c-0.45,0.08-0.91,0.18-1.46-0.05
				c-0.17-0.61,0.3-1.03,0.57-1.49c2.44-4.14,3.63-8.63,3.69-13.43c0.07-5.65-1.64-10.72-4.96-15.27c-0.37-0.5-0.89-0.92-1.03-1.82
				c1.82-0.19,3.55-0.09,5.28-0.32c4.15-0.56,7.97-1.97,11.57-4.06c0.8-0.46,1.59-0.97,2.35-1.5c8.32-5.81,14.99-13.11,19.82-22.05
				c1.58-2.92,2.69-6.03,3.51-9.25c0.13-0.5,0.21-1.01,0.55-1.53C347.04,242.14,347.12,242.82,347.34,243.36z M397.44,222.65
				c-0.91,0.61-1.87,1.17-2.83,1.71c-1.72,0.96-3.36,0.68-4.87-0.48c-1.49-1.15-2.56-2.68-3.52-4.28c-1.08-1.8-1.82-3.75-2.52-5.72
				c-0.2-0.56-0.16-1.28-1.2-1.83c0.57,4.92,1.91,9.18,5.26,12.66c-0.35,0.21-0.48,0.36-0.63,0.37c-3.8,0.29-7.34,1.64-10.97,2.61
				c-8.24,2.2-16.59,3.85-25.07,4.8c-4.15,0.46-8.32,0.65-12.5,0.75c-1.7,0.04-2.67-0.64-3.36-2.14c-1.38-2.98-2.21-6.09-2.65-9.33
				c-0.45-3.29-0.52-6.59-0.07-9.89c0.04-0.26,0.12-0.59-0.27-0.77c-0.6,0.09-0.55,0.65-0.64,1.05c-1.39,6.36-1.37,12.66,0.92,18.84
				c0.19,0.51,0.81,1.11,0.29,1.56c-0.56,0.48-1.34,0.09-1.97-0.16c-0.66-0.27-1.06-0.89-1.46-1.46c-1.93-2.71-3.02-5.74-3.32-9.04
				c-0.31-3.37-0.14-6.72,0.59-10.04c0.26-1.19,0.69-2.33,1.24-3.42c1.2-2.39,2.99-4.05,5.61-4.85c3.24-0.99,6.57-1.42,9.9-1.84
				c3.91-0.49,7.83-0.93,11.75-1.29c5.32-0.49,10.65-0.5,15.98,0.04c3.46,0.35,6.91,0.79,10.3,1.58c0.39,0.09,0.78,0.24,1.17,0.31
				c0.99,0.16,1.45,0.75,1.73,1.69c0.95,3.18,2.21,6.23,3.88,9.1c2.17,3.75,4.88,6.91,9.14,8.41
				C398.1,221.86,398.13,222.19,397.44,222.65z M409.61,168.98c2.01,7.23,3.3,14.59,3.49,22.11c0.14,5.76-0.32,11.47-1.94,17.04
				c-0.77,2.64-1.88,5.12-3.58,7.3c-4.71,6.07-9.99,4.48-13.75,0.91c-2-1.9-3.34-4.29-4.53-6.76c-2.37-4.9-3.67-10.13-4.71-15.42
				c-0.97-4.93-1.95-13.29-1.75-20.2c0.24-3.5,0.02-8.57,0.94-13.56c0.06-0.34,0.1-0.69,0.19-1.03c0.32-1.29,0.43-1.39,1.73-1.5
				c5.22-0.43,10.31-1.48,15.29-3.12c1.63-0.53,1.67-0.55,2.68,0.95C406.41,159.78,408.3,164.26,409.61,168.98z M427.78,110.88
				c-0.18,7.98-1.8,15.64-5.38,22.84c-3.8,7.64-9.58,13.15-17.37,16.61c-7.52,3.34-15.44,4.96-23.63,5.21
				c-13.1,0.41-31.84-6.43-40.56-24.71c-3.12-6.54-5.18-13.4-6.5-20.5c-1.03-5.54-1.71-11.12-1.74-14.43
				c-0.04-10.49,1.63-18.22,5.68-25.37c0.86-1.52,1.82-2.97,3.14-4.14c0.85-0.75,1.16-0.71,1.81,0.19c0.9,1.25,1.33,2.7,1.72,4.16
				c0.84,3.09,1.24,6.25,1.73,9.4c0.78,5.01,1.93,9.9,4.1,14.51c2.32,4.94,5.44,9.19,10.19,12.04c1.14,0.68,1.23,1.51,0.97,2.62
				c-0.75,3.18-1.09,6.41-0.93,9.67c0.61,13,8.05,25.61,23.35,29.97c0.61,0.17,1.24,0.3,1.86,0.43c0.44,0.09,0.83-0.02,0.98-0.49
				c0.12-0.39-0.13-0.69-0.45-0.85c-0.57-0.29-1.15-0.54-1.75-0.77c-2.84-1.05-5.56-2.34-8.09-4c-7.55-4.98-11.59-12.15-12.99-20.93
				c-0.96-5.99,0.06-11.78,1.94-17.47c0.66-1.98,1.32-3.96,2.03-5.92c2.88-7.93,3.15-15.97,1.12-24.14
				c-0.8-3.21-1.61-6.41-2.09-9.69c-0.17-1.16-0.24-2.31-0.23-3.47c0.06-5.29,2.78-8.44,7.96-9.38c4.67-0.84,9.13,0.02,13.49,1.57
				c5.3,1.88,10.03,4.82,14.42,8.3c8.15,6.46,14.93,14.09,19.53,23.51C425.97,93.61,427.98,102.02,427.78,110.88z"/>
		</g>
	</g>
</g>
</svg>
