<?xml version="1.0" encoding="utf-8"?>
<!-- Generator: Adobe Illustrator 27.6.1, SVG Export Plug-In . SVG Version: 6.00 Build 0)  -->
<svg version="1.1" id="Layer_1" xmlns="http://www.w3.org/2000/svg" xmlns:xlink="http://www.w3.org/1999/xlink" x="0px" y="0px"
	 viewBox="0 0 342 245.14" style="enable-background:new 0 0 342 245.14;" xml:space="preserve">
<style type="text/css">
	.st0{fill:#FFFFFF;}
	.st1{fill:#F1F1F1;}
	.st2{fill:#E2E2E2;}
	.st3{fill:#D4D4D4;}
	.st4{fill:#C5C5C5;}
	.st5{fill:#B7B7B7;}
	.st6{fill:#A8A8A8;}
	.st7{fill:#9A9A9A;}
	.st8{fill:#8B8B8B;}
	.st9{fill:#7D7D7D;}
	.st10{fill:#6E6E6E;}
	.st11{fill:#606060;}
	.st12{fill:url(#SVGID_1_);}
	.st13{filter:url(#Adobe_OpacityMaskFilter);}
	.st14{filter:url(#Adobe_OpacityMaskFilter_00000129902454911354942090000004427528265302422686_);}
	
		.st15{mask:url(#SVGID_00000000911440780889292700000006943066382258148530_);fill:url(#SVGID_00000149363702292207470110000014566572309906629768_);}
	.st16{fill:url(#SVGID_00000026130948642759871110000016748138872886525605_);}
	.st17{opacity:0.5;}
	.st18{fill:url(#SVGID_00000080190964451590180090000002852211573968469144_);}
	.st19{fill:#003A9A;}
	.st20{fill:#2E2E2E;}
	.st21{fill:url(#SVGID_00000088828693349312666110000017639553886723030179_);}
	.st22{fill:url(#SVGID_00000078033044783910619370000012694781187479926409_);}
	.st23{fill:url(#SVGID_00000062188974405533946780000017773641279416649897_);}
	.st24{fill:url(#SVGID_00000045602954218335229710000004256541246709587853_);}
	.st25{opacity:0.5;fill:url(#SVGID_00000137825889140323986890000012018915722204291969_);}
	.st26{fill:url(#SVGID_00000020385418886549902390000006325068631405897383_);}
	.st27{filter:url(#Adobe_OpacityMaskFilter_00000087387374910393364430000009568085195599846307_);}
	.st28{filter:url(#Adobe_OpacityMaskFilter_00000120542723896361567430000009927045241596421278_);}
	
		.st29{mask:url(#SVGID_00000115491785266833659820000010618047001819407289_);fill:url(#SVGID_00000038403248771294227750000007911613476185026966_);}
	.st30{fill:url(#SVGID_00000036212876979689385880000013305957414120396716_);}
	.st31{filter:url(#Adobe_OpacityMaskFilter_00000156565386410178978100000016680227641928864698_);}
	.st32{filter:url(#Adobe_OpacityMaskFilter_00000015335652333242050030000004776817519426518161_);}
	
		.st33{mask:url(#SVGID_00000065766922896480860210000004005780422106788510_);fill:url(#SVGID_00000075140049866078328210000005141210177298429074_);}
	.st34{fill:url(#SVGID_00000023272302776278140500000006480946137799835314_);}
</style>
<g>
	<g>
		<path class="st0" d="M43.2,148.49c11.39-3.32,20.38-5.94,26.66-5.94c2.94,0,5.02,0.57,6.52,1.79c5.7,4.62,11.61,7.7,21.9,7.7
			c4.76,0,10.4-0.67,17.23-2.03l2.45-0.49c13.79-2.73,23.67-4.45,28.34-5.23l0.05-0.01c4.55,4.52,16.98,15.56,35.62,22.09
			c7.6,2.66,13.34,3.96,17.57,3.96c5.54,0,8.13-2.33,9.33-4.28c1.9-3.1,1.59-7.18-0.92-12.13c-1.08-2.12-2.13-4.18-3.08-6.07
			c12.14,2.93,33.31,9.18,49.7,20.04c0.68,0.45,1.33,0.89,1.96,1.33l0.66,0.47c0.39,0.28,0.77,0.55,1.14,0.82l0.7,0.52
			c0.33,0.25,0.65,0.49,0.96,0.73l0.63,0.49c0.45,0.35,0.87,0.7,1.28,1.04c0.17,0.14,0.33,0.29,0.5,0.43l0.72,0.63
			c0.22,0.2,0.44,0.4,0.67,0.61c0.13,0.12,0.26,0.25,0.4,0.38c0.21,0.2,0.42,0.4,0.62,0.61l0.22,0.23c0.68,0.71,1.27,1.4,1.75,2.03
			l0.12,0.16c0.15,0.21,0.3,0.42,0.41,0.59c0,0,0.06,0.09,0.06,0.09c0.53,0.82,0.91,1.58,1.17,2.35c0,0.01,0.01,0.02,0.01,0.03
			c0.97,2.96,0.03,6-1.85,11.53c-1.06,3.12-2.26,6.66-3.18,10.89c-3.65,16.77-0.47,28.32,3.73,33.53c2.13,2.64,4.86,4.1,7.69,4.1
			c2.51,0,7.16-1.16,10.12-8.89c3.86-10.1,11.56-20.54,17.75-20.54c0.27,0,0.53,0.02,0.79,0.07c2.24,0.41,5.88,1.97,9.4,3.48
			c5.64,2.43,10.97,4.72,15.31,4.72c4.5,0,7.75-2.61,8.49-6.81c0.1-0.55,0.1-1.12,0-1.68c-3.91-22.17-33.9-30.91-35.09-31.24
			c-3.87-1.18-4.23-1.85-6.46-12.04c-0.75-3.43-1.68-7.69-3.08-12.92c-0.03-0.09-0.05-0.19-0.08-0.28
			c-15.65-47.07-48.08-74.06-72.53-88.42c-19.72-11.58-37.27-16.96-45.3-19.03c0.44-3.11,0.96-7.47,1.18-11.99
			c0.66-13.48-1.69-20.87-7.37-23.28c-1.32-0.56-2.76-0.84-4.29-0.84c-7.85,0-16.21,7.51-20.5,11.98
			c-6.24,6.51-11.89,14.86-15.81,23.26c-0.63,0.05-1.25,0.1-1.87,0.16c-0.35,0.03-0.68,0.07-1.02,0.11l-0.86,0.09
			c-0.95,0.1-1.91,0.2-2.83,0.32c-0.32,0.04-0.63,0.09-0.95,0.14l-0.78,0.12c-0.96,0.14-1.91,0.28-2.83,0.44
			c-0.25,0.04-0.49,0.09-0.73,0.14l-0.41,0.08c-1.1,0.2-2.19,0.41-3.23,0.63c-0.2,0.04-0.39,0.09-0.58,0.13l-0.26,0.06
			c-1.15,0.26-2.28,0.53-3.42,0.82l-0.52,0.14c-1.3,0.35-2.45,0.68-3.52,1.01l-0.28,0.09c-1.23,0.38-2.44,0.78-3.59,1.19
			c-0.02,0.01-0.09,0.04-0.11,0.04c-1.16,0.42-2.33,0.86-3.47,1.32c-0.07,0.03-0.14,0.05-0.21,0.08
			c-31.9,12.99-41.5,38.12-43.1,43.02c-3.83,11.73-6.14,13.96-18.77,22.52c-16.81,11.4-23.24,18.4-22.93,24.96
			c0,0.11,0.01,0.22,0.02,0.31c0.03,0.36,0.08,0.71,0.15,1.08c0.02,0.09,0.06,0.27,0.08,0.36c0.12,0.47,0.26,0.89,0.43,1.29
			c0.34,0.79,0.76,1.72,1.31,2.58h0c0.01,0.02,0.02,0.03,0.03,0.05c0.1,0.15,0.2,0.3,0.31,0.44c0,0.01,0.01,0.01,0.01,0.02
			c0.01,0.02,0.03,0.04,0.04,0.05c0.12,0.16,0.24,0.3,0.36,0.45c0.03,0.03,0.05,0.06,0.08,0.09c0.01,0.01,0.03,0.03,0.05,0.05
			c0.6,0.67,1.29,1.23,2.11,1.68v0c0.05,0.03,0.11,0.06,0.15,0.08c0.2,0.1,0.41,0.2,0.59,0.28c0.04,0.02,0.14,0.06,0.18,0.07
			c0.18,0.07,0.37,0.13,0.55,0.19c0.05,0.02,0.18,0.05,0.23,0.07c0.18,0.05,0.37,0.09,0.59,0.14c0.06,0.01,0.11,0.02,0.17,0.03
			c0.19,0.04,0.39,0.07,0.6,0.09l0.01,0c0.02,0,0.04,0.01,0.06,0.01c0.58,0.06,1.24,0.08,1.85,0.05c0.08,0,0.15-0.01,0.23-0.01
			c0.15-0.01,0.3-0.02,0.47-0.04l0.25-0.02c0.16-0.01,0.32-0.03,0.46-0.05l0.35-0.05c0.15-0.02,0.3-0.04,0.38-0.06l0.34-0.06
			c0.01,0,0.1-0.02,0.1-0.02l0.74-0.14c0.23-0.04,0.47-0.09,0.72-0.15l4.9-1.23c2.36-0.65,5.14-1.46,8.67-2.48L43.2,148.49z"/>
		<path class="st1" d="M42.64,147.75c11.39-3.32,20.38-5.94,26.66-5.94c2.94,0,5.01,0.57,6.52,1.79c5.7,4.62,11.61,7.7,21.9,7.7
			c4.76,0,10.4-0.66,17.23-2.03l2.45-0.49c13.79-2.73,23.67-4.45,28.34-5.23l0.05-0.01c4.55,4.52,16.98,15.56,35.62,22.09
			c7.59,2.66,13.34,3.96,17.56,3.96c5.54,0,8.13-2.33,9.33-4.28c1.9-3.1,1.6-7.18-0.92-12.13c-1.08-2.12-2.13-4.19-3.08-6.07
			c12.14,2.93,33.31,9.18,49.7,20.04c0.68,0.45,1.33,0.89,1.96,1.33l0.66,0.47c0.39,0.28,0.77,0.55,1.14,0.82l0.7,0.52
			c0.33,0.25,0.65,0.49,0.97,0.73l0.63,0.49c0.45,0.35,0.88,0.7,1.28,1.04c0.17,0.14,0.33,0.29,0.5,0.43l0.72,0.63
			c0.23,0.2,0.44,0.4,0.67,0.61c0.13,0.12,0.26,0.25,0.4,0.38c0.21,0.2,0.42,0.4,0.62,0.61l0.22,0.23c0.68,0.71,1.27,1.4,1.75,2.03
			l0.12,0.16c0.15,0.21,0.3,0.42,0.41,0.59c0,0.01,0.06,0.09,0.06,0.1c0.53,0.81,0.91,1.58,1.17,2.34c0,0.01,0.01,0.02,0.01,0.03
			c0.98,2.96,0.03,6-1.85,11.53c-1.06,3.12-2.26,6.66-3.18,10.89c-3.65,16.77-0.47,28.32,3.73,33.53c2.13,2.64,4.86,4.1,7.69,4.1
			c2.51,0,7.16-1.15,10.12-8.89c3.86-10.1,11.56-20.54,17.75-20.54c0.27,0,0.53,0.02,0.79,0.07c2.24,0.41,5.88,1.97,9.4,3.48
			c5.64,2.43,10.97,4.72,15.31,4.72c4.5,0,7.75-2.61,8.49-6.8c0.1-0.56,0.1-1.12,0-1.68c-3.91-22.16-33.91-30.9-35.09-31.24
			c-3.88-1.14-4.23-1.85-6.46-12.04c-0.75-3.43-1.67-7.7-3.08-12.92c-0.03-0.09-0.05-0.19-0.08-0.28
			c-15.65-47.07-48.08-74.06-72.53-88.42c-19.72-11.58-37.27-16.96-45.3-19.03c0.44-3.11,0.96-7.47,1.18-11.99
			c0.66-13.47-1.69-20.87-7.37-23.28c-1.32-0.56-2.76-0.84-4.29-0.84c-7.85,0-16.21,7.51-20.5,11.98
			c-6.24,6.51-11.89,14.86-15.81,23.26c-0.63,0.05-1.25,0.1-1.87,0.15c-0.35,0.03-0.68,0.07-1.02,0.11l-0.86,0.09
			c-0.95,0.1-1.91,0.2-2.82,0.32c-0.32,0.04-0.63,0.09-0.95,0.14l-0.78,0.12c-0.95,0.14-1.91,0.28-2.83,0.44
			c-0.25,0.04-0.49,0.09-0.73,0.14l-0.41,0.08c-1.1,0.2-2.19,0.41-3.23,0.63c-0.2,0.04-0.39,0.09-0.58,0.13l-0.26,0.06
			c-1.15,0.26-2.29,0.53-3.42,0.82l-0.52,0.14c-1.3,0.35-2.45,0.68-3.52,1.01l-0.28,0.09c-1.23,0.38-2.44,0.77-3.59,1.19
			c-0.02,0.01-0.09,0.04-0.11,0.04c-1.15,0.45-2.32,0.88-3.47,1.32c-0.07,0.03-0.14,0.05-0.21,0.08
			C63.7,66.7,53.97,91.51,52.37,96.42c-3.83,11.73-6.14,13.96-18.77,22.52c-16.81,11.4-23.24,18.4-22.93,24.96
			c0,0.11,0.01,0.22,0.02,0.31c0.03,0.36,0.08,0.71,0.15,1.08c0.02,0.09,0.06,0.27,0.08,0.36c0.11,0.47,0.26,0.89,0.43,1.29
			c0.34,0.79,0.76,1.72,1.31,2.58h0c0.01,0.01,0.02,0.03,0.03,0.05c0.1,0.15,0.2,0.3,0.3,0.44c0,0.01,0.01,0.01,0.01,0.02
			c0.01,0.02,0.03,0.04,0.04,0.05c0.11,0.16,0.23,0.3,0.35,0.45c0.03,0.03,0.05,0.06,0.08,0.09c0.01,0.02,0.03,0.03,0.04,0.05
			c0.6,0.67,1.29,1.23,2.11,1.68v0c0.05,0.03,0.11,0.06,0.15,0.08c0.2,0.11,0.41,0.2,0.59,0.27c0.04,0.02,0.14,0.06,0.18,0.08
			c0.18,0.07,0.37,0.13,0.55,0.19c0.05,0.01,0.18,0.05,0.23,0.07c0.18,0.05,0.37,0.1,0.59,0.14c0.06,0.01,0.11,0.02,0.17,0.03
			c0.19,0.03,0.39,0.07,0.6,0.09c0,0,0.01,0,0.01,0c0.02,0,0.04,0,0.06,0.01c0.58,0.07,1.24,0.07,1.85,0.05
			c0.08,0,0.15-0.01,0.23-0.01c0.15-0.01,0.31-0.02,0.47-0.04l0.25-0.02c0.16-0.02,0.32-0.03,0.46-0.05l0.35-0.05
			c0.15-0.02,0.3-0.04,0.38-0.06l0.34-0.06c0.01,0,0.1-0.02,0.1-0.02l0.74-0.14c0.23-0.04,0.47-0.09,0.72-0.15l4.9-1.23
			c2.36-0.65,5.14-1.46,8.67-2.49L42.64,147.75z"/>
		<path class="st2" d="M42.09,147.02c11.39-3.32,20.38-5.94,26.66-5.94c2.94,0,5.02,0.57,6.52,1.79c5.7,4.62,11.61,7.7,21.9,7.7
			c4.76,0,10.4-0.67,17.23-2.03l2.45-0.49c13.79-2.73,23.67-4.45,28.34-5.23l0.05-0.01c4.55,4.52,16.98,15.56,35.62,22.09
			c7.6,2.66,13.34,3.96,17.56,3.96c5.54,0,8.13-2.33,9.33-4.28c1.9-3.1,1.59-7.18-0.92-12.13c-1.08-2.12-2.13-4.18-3.08-6.07
			c12.14,2.93,33.31,9.18,49.7,20.04c0.68,0.45,1.33,0.89,1.96,1.33l0.66,0.46c0.39,0.28,0.78,0.55,1.14,0.82l0.7,0.52
			c0.33,0.25,0.65,0.49,0.97,0.73l0.63,0.49c0.45,0.35,0.88,0.7,1.28,1.04c0.17,0.14,0.33,0.29,0.5,0.43l0.72,0.63
			c0.22,0.2,0.44,0.4,0.67,0.61c0.13,0.12,0.26,0.25,0.4,0.38c0.21,0.2,0.42,0.4,0.62,0.61l0.22,0.23c0.68,0.71,1.27,1.4,1.75,2.03
			l0.12,0.16c0.15,0.21,0.3,0.42,0.41,0.59c0,0,0.06,0.09,0.06,0.09c0.53,0.82,0.91,1.59,1.17,2.35c0,0.01,0.01,0.02,0.01,0.03
			c0.87,3,0.04,6-1.84,11.53c-1.06,3.12-2.26,6.66-3.18,10.89c-3.65,16.77-0.47,28.32,3.73,33.53c2.13,2.65,4.86,4.1,7.69,4.1
			c2.51,0,7.16-1.16,10.12-8.89c3.86-10.1,11.56-20.54,17.75-20.54c0.27,0,0.53,0.02,0.79,0.07c2.24,0.41,5.88,1.97,9.4,3.49
			c5.64,2.43,10.97,4.72,15.31,4.72c4.5,0,7.75-2.61,8.49-6.81c0.1-0.55,0.1-1.12,0-1.68c-3.91-22.16-33.91-30.89-35.09-31.24
			c-3.88-1.14-4.23-1.86-6.46-12.05c-0.75-3.43-1.66-7.7-3.08-12.92c-0.03-0.09-0.05-0.18-0.08-0.28
			c-15.65-47.07-48.08-74.06-72.53-88.42c-19.72-11.58-37.27-16.96-45.3-19.02c0.44-3.11,0.96-7.47,1.18-11.99
			c0.66-13.48-1.69-20.87-7.37-23.28c-1.32-0.56-2.76-0.84-4.29-0.84c-7.85,0-16.21,7.51-20.5,11.98
			c-6.24,6.51-11.89,14.86-15.81,23.26c-0.63,0.05-1.25,0.1-1.87,0.16c-0.34,0.03-0.68,0.07-1.02,0.11l-0.86,0.09
			c-0.95,0.1-1.91,0.2-2.83,0.32c-0.32,0.04-0.63,0.09-0.95,0.14l-0.78,0.12c-0.96,0.14-1.91,0.28-2.83,0.44
			c-0.25,0.04-0.49,0.09-0.73,0.14l-0.41,0.08c-1.1,0.2-2.19,0.41-3.23,0.63c-0.2,0.04-0.39,0.09-0.58,0.13l-0.26,0.06
			c-1.15,0.26-2.28,0.53-3.42,0.82l-0.52,0.14c-1.3,0.35-2.45,0.68-3.52,1.01l-0.28,0.09c-1.23,0.38-2.45,0.77-3.59,1.19
			c-0.02,0.01-0.09,0.04-0.11,0.04c-1.16,0.43-2.32,0.87-3.47,1.32c-0.07,0.03-0.14,0.05-0.21,0.08
			c-31.77,13.31-41.5,38.12-43.1,43.03c-3.83,11.73-6.14,13.96-18.77,22.52c-16.81,11.4-23.22,18.4-22.93,24.96
			c0,0.11,0.01,0.22,0.02,0.31c0.03,0.36,0.08,0.71,0.15,1.08c0.02,0.09,0.06,0.27,0.08,0.36c0.12,0.47,0.26,0.89,0.43,1.29
			c0.34,0.79,0.76,1.72,1.31,2.58h0c0.01,0.02,0.02,0.03,0.03,0.05c0.1,0.15,0.2,0.3,0.31,0.44c0,0,0.01,0.01,0.01,0.02
			c0.01,0.02,0.03,0.04,0.04,0.05c0.12,0.16,0.23,0.3,0.36,0.45c0.03,0.03,0.05,0.06,0.08,0.09c0.01,0.01,0.03,0.03,0.05,0.05
			c0.61,0.66,1.29,1.23,2.11,1.68v0c0.05,0.03,0.11,0.06,0.15,0.08c0.2,0.1,0.41,0.2,0.59,0.27c0.04,0.02,0.14,0.06,0.18,0.08
			c0.18,0.07,0.37,0.13,0.55,0.19c0.05,0.01,0.18,0.05,0.23,0.07c0.18,0.05,0.37,0.1,0.59,0.14c0.06,0.01,0.11,0.02,0.17,0.03
			c0.19,0.03,0.39,0.07,0.6,0.09c0,0,0.01,0,0.01,0c0.02,0,0.05,0,0.07,0.01c0.58,0.06,1.24,0.07,1.85,0.05
			c0.08,0,0.15-0.01,0.23-0.01c0.15-0.01,0.3-0.02,0.47-0.04l0.25-0.02c0.16-0.01,0.32-0.03,0.46-0.05l0.35-0.05
			c0.15-0.02,0.3-0.04,0.38-0.06l0.34-0.06c0,0,0.1-0.02,0.1-0.02l0.74-0.14c0.23-0.05,0.47-0.09,0.72-0.15l4.9-1.23
			c2.36-0.65,5.14-1.46,8.67-2.49L42.09,147.02z"/>
		<path class="st3" d="M41.54,146.28c11.39-3.32,20.38-5.94,26.66-5.94c2.94,0,5.02,0.57,6.52,1.79c5.7,4.62,11.61,7.7,21.9,7.7
			c4.76,0,10.4-0.66,17.23-2.03l2.45-0.49c13.79-2.73,23.67-4.45,28.34-5.23l0.05-0.01c4.55,4.52,16.98,15.56,35.62,22.09
			c7.59,2.66,13.34,3.96,17.56,3.96c5.54,0,8.13-2.33,9.33-4.28c1.9-3.1,1.6-7.18-0.92-12.13c-1.08-2.12-2.13-4.18-3.08-6.07
			c12.14,2.93,33.31,9.18,49.7,20.04c0.68,0.45,1.33,0.89,1.96,1.33l0.66,0.46c0.39,0.28,0.77,0.55,1.14,0.82l0.7,0.52
			c0.33,0.25,0.65,0.49,0.97,0.73l0.63,0.49c0.45,0.35,0.88,0.7,1.28,1.04c0.17,0.14,0.33,0.29,0.5,0.43l0.72,0.63
			c0.23,0.2,0.44,0.4,0.67,0.61c0.13,0.12,0.26,0.25,0.4,0.38c0.21,0.2,0.42,0.4,0.62,0.61l0.22,0.23c0.68,0.71,1.27,1.4,1.75,2.03
			l0.12,0.16c0.15,0.21,0.3,0.42,0.41,0.59c0,0,0.06,0.09,0.06,0.1c0.53,0.81,0.9,1.58,1.17,2.34c0,0,0.01,0.02,0.01,0.03
			c0.98,2.96,0.03,6-1.85,11.53c-1.06,3.12-2.26,6.66-3.18,10.89c-3.65,16.77-0.47,28.32,3.73,33.53c2.13,2.65,4.86,4.1,7.69,4.1
			c2.51,0,7.16-1.16,10.12-8.89c3.86-10.09,11.56-20.54,17.75-20.54c0.27,0,0.53,0.02,0.79,0.07c2.24,0.4,5.88,1.97,9.4,3.49
			c5.64,2.43,10.97,4.72,15.31,4.72c4.5,0,7.75-2.61,8.49-6.81c0.1-0.55,0.1-1.12,0-1.68c-3.91-22.17-33.91-30.9-35.09-31.24
			c-3.88-1.14-4.23-1.85-6.46-12.04c-0.75-3.43-1.66-7.7-3.08-12.92c-0.03-0.09-0.05-0.18-0.08-0.28
			c-15.65-47.07-48.08-74.06-72.53-88.42c-19.72-11.58-37.27-16.97-45.3-19.03c0.44-3.11,0.96-7.47,1.18-11.99
			c0.66-13.47-1.69-20.87-7.37-23.28c-1.32-0.56-2.76-0.84-4.29-0.84c-7.85,0-16.21,7.51-20.5,11.98
			c-6.24,6.51-11.89,14.86-15.81,23.26c-0.63,0.05-1.25,0.1-1.87,0.16c-0.35,0.03-0.68,0.07-1.02,0.11l-0.86,0.09
			c-0.95,0.1-1.91,0.2-2.83,0.32c-0.32,0.04-0.63,0.09-0.95,0.14l-0.78,0.12c-0.95,0.14-1.91,0.28-2.83,0.44
			c-0.25,0.04-0.49,0.09-0.73,0.14l-0.41,0.08c-1.1,0.2-2.19,0.41-3.23,0.63c-0.2,0.04-0.39,0.09-0.58,0.13l-0.26,0.06
			c-1.15,0.26-2.29,0.53-3.42,0.82l-0.52,0.14c-1.3,0.35-2.45,0.68-3.52,1.01l-0.28,0.09c-1.23,0.38-2.45,0.77-3.59,1.19
			c-0.02,0.01-0.09,0.04-0.11,0.04c-1.15,0.46-2.33,0.87-3.47,1.32c-0.07,0.03-0.14,0.05-0.21,0.08
			c-31.74,13.39-41.5,38.12-43.1,43.02c-3.83,11.73-6.14,13.96-18.77,22.52c-16.81,11.4-23.24,18.4-22.93,24.96
			c0,0.11,0.01,0.22,0.02,0.31c0.03,0.36,0.08,0.71,0.15,1.08c0.02,0.09,0.06,0.27,0.08,0.37c0.12,0.47,0.26,0.89,0.43,1.29
			c0.34,0.79,0.76,1.72,1.31,2.58h0c0.01,0.02,0.02,0.03,0.03,0.05c0.1,0.15,0.2,0.3,0.3,0.44c0,0.01,0.01,0.01,0.01,0.02
			c0.01,0.02,0.03,0.04,0.04,0.05c0.12,0.15,0.23,0.3,0.35,0.45c0.03,0.03,0.05,0.06,0.08,0.09c0.01,0.01,0.03,0.03,0.04,0.05
			c0.6,0.67,1.29,1.23,2.11,1.68v0c0.05,0.03,0.11,0.06,0.15,0.08c0.2,0.1,0.41,0.2,0.6,0.28c0.04,0.02,0.14,0.06,0.18,0.07
			c0.18,0.07,0.37,0.13,0.55,0.19c0.05,0.02,0.18,0.05,0.23,0.07c0.18,0.05,0.37,0.1,0.59,0.14c0.06,0.01,0.11,0.02,0.17,0.03
			c0.19,0.03,0.39,0.07,0.6,0.09l0.01,0c0.02,0,0.04,0.01,0.06,0.01c0.58,0.06,1.24,0.07,1.85,0.05c0.08,0,0.15-0.01,0.23-0.01
			c0.15-0.01,0.3-0.02,0.47-0.04l0.25-0.02c0.16-0.01,0.32-0.03,0.45-0.05l0.35-0.05c0.15-0.02,0.3-0.04,0.38-0.06l0.34-0.06
			c0,0,0.1-0.02,0.1-0.02l0.74-0.14c0.23-0.05,0.47-0.1,0.72-0.15l4.9-1.23c2.36-0.65,5.14-1.46,8.67-2.49L41.54,146.28z"/>
		<path class="st4" d="M40.99,145.54c11.39-3.32,20.38-5.94,26.66-5.94c2.94,0,5.02,0.57,6.52,1.79c5.7,4.62,11.61,7.7,21.9,7.7
			c4.76,0,10.4-0.67,17.23-2.03l2.45-0.49c13.79-2.73,23.67-4.45,28.34-5.23l0.05-0.01c4.55,4.52,16.98,15.56,35.62,22.09
			c7.6,2.66,13.34,3.96,17.57,3.96c5.54,0,8.13-2.33,9.33-4.28c1.9-3.1,1.59-7.18-0.92-12.13c-1.08-2.12-2.13-4.19-3.08-6.07
			c12.14,2.93,33.31,9.18,49.7,20.04c0.68,0.45,1.33,0.89,1.96,1.33l0.66,0.47c0.39,0.28,0.77,0.55,1.14,0.82l0.7,0.52
			c0.33,0.25,0.65,0.49,0.96,0.73l0.63,0.49c0.45,0.35,0.87,0.7,1.28,1.04c0.17,0.14,0.33,0.29,0.5,0.43l0.72,0.63
			c0.22,0.2,0.44,0.4,0.67,0.61c0.13,0.12,0.26,0.25,0.4,0.38c0.21,0.2,0.42,0.4,0.62,0.61l0.22,0.23c0.68,0.71,1.28,1.4,1.75,2.03
			l0.12,0.16c0.15,0.21,0.3,0.42,0.41,0.59c0,0,0.06,0.09,0.06,0.1c0.53,0.81,0.91,1.58,1.17,2.34c0,0.01,0.01,0.02,0.01,0.03
			c0.98,2.96,0.03,6-1.85,11.53c-1.06,3.12-2.26,6.66-3.18,10.89c-3.65,16.77-0.47,28.32,3.73,33.53c2.13,2.64,4.86,4.1,7.69,4.1
			c2.51,0,7.16-1.15,10.12-8.89c3.86-10.1,11.56-20.54,17.75-20.54c0.27,0,0.53,0.02,0.79,0.07c2.24,0.41,5.88,1.97,9.4,3.49
			c5.64,2.43,10.97,4.72,15.31,4.72c4.5,0,7.75-2.61,8.49-6.8c0.1-0.56,0.1-1.12,0-1.68c-3.91-22.17-33.91-30.9-35.09-31.24
			c-3.88-1.14-4.23-1.85-6.46-12.04c-0.75-3.43-1.67-7.7-3.08-12.92c-0.03-0.09-0.05-0.18-0.08-0.28
			c-15.45-47.14-48.08-74.06-72.53-88.42c-19.72-11.58-37.27-16.96-45.3-19.03c0.44-3.11,0.96-7.47,1.18-11.99
			c0.66-13.48-1.69-20.87-7.37-23.28c-1.32-0.56-2.76-0.84-4.29-0.84c-7.85,0-16.21,7.51-20.5,11.98
			c-6.24,6.51-11.89,14.86-15.81,23.26c-0.63,0.05-1.25,0.1-1.87,0.16c-0.35,0.03-0.68,0.07-1.02,0.11l-0.86,0.09
			c-0.95,0.1-1.91,0.2-2.83,0.32c-0.32,0.04-0.63,0.09-0.95,0.14l-0.78,0.12c-0.96,0.14-1.91,0.28-2.83,0.44
			c-0.25,0.04-0.49,0.09-0.73,0.14l-0.41,0.08c-1.1,0.2-2.19,0.41-3.23,0.63c-0.2,0.04-0.39,0.09-0.58,0.13l-0.26,0.06
			c-1.15,0.26-2.29,0.53-3.42,0.82l-0.52,0.14c-1.3,0.35-2.45,0.68-3.52,1.01l-0.28,0.09c-1.23,0.38-2.44,0.77-3.59,1.19
			c-0.02,0.01-0.09,0.04-0.11,0.04c-1.16,0.43-2.33,0.87-3.47,1.32c-0.07,0.03-0.14,0.05-0.2,0.08
			c-31.77,13.31-41.5,38.12-43.1,43.02c-3.83,11.73-6.14,13.96-18.77,22.52c-16.81,11.4-23.2,18.4-22.93,24.96
			c0,0.11,0.01,0.22,0.02,0.31c0.03,0.36,0.08,0.71,0.15,1.08c0.02,0.09,0.06,0.27,0.08,0.36c0.12,0.47,0.26,0.89,0.43,1.29
			c0.34,0.79,0.76,1.72,1.31,2.58h0c0.01,0.01,0.02,0.03,0.03,0.05c0.1,0.15,0.2,0.3,0.3,0.44c0,0.01,0.01,0.01,0.01,0.02
			c0.01,0.02,0.02,0.04,0.04,0.05c0.12,0.15,0.24,0.3,0.36,0.45c0.03,0.03,0.05,0.06,0.08,0.09c0.01,0.01,0.03,0.03,0.04,0.05
			c0.6,0.67,1.29,1.23,2.11,1.68v0c0.05,0.03,0.1,0.06,0.15,0.08c0.2,0.1,0.41,0.2,0.59,0.27c0.04,0.02,0.14,0.06,0.18,0.08
			c0.18,0.07,0.37,0.13,0.55,0.19c0.05,0.01,0.18,0.05,0.23,0.07c0.18,0.05,0.37,0.1,0.59,0.14c0.06,0.01,0.11,0.02,0.17,0.03
			c0.19,0.03,0.39,0.07,0.6,0.09l0.01,0c0.02,0,0.04,0.01,0.06,0.01c0.58,0.06,1.24,0.07,1.85,0.05c0.08,0,0.15-0.01,0.23-0.01
			c0.15-0.01,0.3-0.02,0.47-0.04l0.25-0.02c0.16-0.02,0.31-0.03,0.46-0.05l0.35-0.05c0.15-0.02,0.3-0.04,0.38-0.06l0.34-0.06
			c0.01,0,0.1-0.02,0.1-0.02l0.74-0.14c0.23-0.05,0.47-0.09,0.72-0.15l4.9-1.23c2.36-0.65,5.14-1.46,8.67-2.48L40.99,145.54z"/>
		<path class="st5" d="M40.43,144.81c11.39-3.32,20.38-5.94,26.66-5.94c2.94,0,5.02,0.57,6.52,1.79c5.7,4.62,11.61,7.7,21.9,7.7
			c4.76,0,10.4-0.67,17.23-2.03l2.45-0.49c13.79-2.73,23.67-4.45,28.34-5.23l0.05-0.01c4.55,4.52,16.98,15.56,35.62,22.09
			c7.59,2.66,13.34,3.96,17.56,3.96c5.54,0,8.13-2.33,9.33-4.28c1.9-3.1,1.6-7.18-0.92-12.13c-1.08-2.12-2.13-4.18-3.08-6.07
			c12.14,2.93,33.31,9.18,49.7,20.04c0.68,0.45,1.33,0.89,1.96,1.33l0.66,0.47c0.39,0.27,0.77,0.55,1.14,0.81l0.7,0.52
			c0.33,0.25,0.65,0.49,0.97,0.73l0.63,0.49c0.45,0.35,0.88,0.7,1.28,1.04c0.17,0.14,0.33,0.28,0.5,0.43l0.72,0.63
			c0.23,0.2,0.44,0.4,0.67,0.61c0.13,0.12,0.26,0.25,0.4,0.38c0.21,0.2,0.42,0.4,0.62,0.61l0.22,0.23c0.68,0.71,1.27,1.4,1.75,2.03
			l0.12,0.16c0.15,0.21,0.3,0.42,0.41,0.59c0,0,0.06,0.09,0.06,0.1c0.53,0.81,0.95,1.57,1.17,2.34c0,0.01,0.01,0.02,0.01,0.03
			c0.98,2.96,0.03,6-1.85,11.53c-1.06,3.12-2.26,6.66-3.18,10.89c-3.65,16.77-0.47,28.32,3.73,33.53c2.13,2.65,4.86,4.1,7.69,4.1
			c2.51,0,7.16-1.15,10.12-8.89c3.86-10.1,11.56-20.54,17.75-20.54c0.27,0,0.53,0.02,0.79,0.07c2.24,0.41,5.88,1.97,9.4,3.48
			c5.64,2.43,10.97,4.72,15.31,4.72c4.5,0,7.75-2.61,8.49-6.81c0.1-0.55,0.1-1.12,0-1.68c-3.91-22.17-33.91-30.89-35.08-31.24
			c-3.88-1.14-4.23-1.86-6.46-12.05c-0.75-3.43-1.67-7.69-3.08-12.92c-0.03-0.09-0.05-0.18-0.08-0.28
			c-15.65-47.07-48.08-74.06-72.53-88.42c-19.72-11.58-37.27-16.96-45.3-19.02c0.44-3.11,0.96-7.47,1.18-11.99
			c0.66-13.48-1.69-20.87-7.37-23.28c-1.32-0.56-2.76-0.84-4.29-0.84c-7.85,0-16.21,7.51-20.5,11.98
			c-6.24,6.51-11.89,14.85-15.81,23.26c-0.63,0.05-1.25,0.1-1.87,0.16c-0.34,0.03-0.68,0.07-1.02,0.11l-0.86,0.09
			c-0.95,0.1-1.91,0.2-2.82,0.32c-0.32,0.04-0.63,0.09-0.95,0.14l-0.78,0.12c-0.96,0.14-1.91,0.28-2.83,0.44
			c-0.24,0.04-0.49,0.09-0.73,0.14l-0.41,0.08c-1.1,0.2-2.19,0.41-3.23,0.63c-0.2,0.04-0.39,0.09-0.58,0.13l-0.26,0.06
			c-1.15,0.26-2.29,0.53-3.42,0.82l-0.52,0.14c-1.3,0.35-2.45,0.68-3.52,1.01l-0.28,0.09c-1.23,0.38-2.46,0.74-3.59,1.19
			c-0.02,0.01-0.09,0.04-0.11,0.04c-1.17,0.4-2.32,0.87-3.47,1.32c-0.07,0.03-0.14,0.05-0.21,0.08
			c-31.69,13.49-41.5,38.12-43.1,43.03c-3.83,11.72-6.13,13.95-18.77,22.52c-16.81,11.4-23.25,18.4-22.93,24.96
			c0.01,0.11,0.01,0.22,0.02,0.31c0.03,0.36,0.08,0.71,0.15,1.08c0.02,0.09,0.06,0.27,0.08,0.36c0.12,0.47,0.26,0.89,0.43,1.29
			c0.34,0.79,0.76,1.72,1.31,2.57h0c0.01,0.02,0.02,0.03,0.03,0.05c0.1,0.15,0.2,0.3,0.3,0.44l0.01,0.02
			c0.01,0.02,0.03,0.04,0.04,0.05c0.12,0.16,0.23,0.3,0.35,0.45c0.03,0.03,0.05,0.06,0.08,0.09c0.01,0.02,0.03,0.03,0.04,0.05
			c0.62,0.65,1.29,1.23,2.11,1.68v0c0.05,0.03,0.11,0.06,0.15,0.08c0.2,0.11,0.41,0.2,0.59,0.27c0.04,0.02,0.14,0.06,0.18,0.08
			c0.18,0.07,0.37,0.13,0.55,0.19c0.05,0.01,0.18,0.05,0.23,0.07c0.18,0.05,0.37,0.1,0.59,0.14c0.06,0.01,0.11,0.02,0.17,0.03
			c0.2,0.03,0.39,0.07,0.6,0.09c0,0,0.01,0,0.01,0c0.02,0,0.04,0,0.06,0.01c0.58,0.06,1.24,0.07,1.85,0.05
			c0.08,0,0.15-0.01,0.23-0.01c0.15-0.01,0.31-0.02,0.47-0.04l0.25-0.02c0.16-0.01,0.32-0.03,0.46-0.05l0.35-0.05
			c0.15-0.02,0.3-0.04,0.38-0.06l0.34-0.06c0.01,0,0.1-0.02,0.1-0.02l0.74-0.14c0.23-0.05,0.47-0.09,0.72-0.15l4.9-1.23
			c2.36-0.65,5.14-1.46,8.67-2.48L40.43,144.81z"/>
		<path class="st6" d="M39.88,144.07c11.39-3.32,20.38-5.94,26.66-5.94c2.94,0,5.02,0.57,6.52,1.79c5.7,4.62,11.61,7.7,21.9,7.7
			c4.76,0,10.4-0.67,17.23-2.03l2.45-0.49c13.79-2.73,23.67-4.45,28.34-5.23l0.05-0.01c4.55,4.52,16.98,15.56,35.62,22.09
			c7.6,2.66,13.34,3.96,17.57,3.96c5.54,0,8.13-2.33,9.33-4.28c1.9-3.1,1.59-7.18-0.92-12.13c-1.08-2.12-2.13-4.18-3.08-6.07
			c12.14,2.93,33.31,9.18,49.7,20.04c0.68,0.45,1.33,0.89,1.96,1.33l0.66,0.47c0.39,0.28,0.77,0.55,1.14,0.82l0.7,0.52
			c0.33,0.25,0.65,0.49,0.96,0.73l0.63,0.49c0.45,0.35,0.88,0.7,1.28,1.04c0.17,0.14,0.34,0.29,0.5,0.43l0.73,0.63
			c0.22,0.2,0.44,0.4,0.67,0.61c0.13,0.12,0.26,0.25,0.4,0.38c0.21,0.2,0.42,0.4,0.62,0.61l0.22,0.23c0.68,0.71,1.27,1.4,1.75,2.03
			l0.12,0.16c0.15,0.21,0.3,0.42,0.41,0.59l0.06,0.1c0.53,0.81,0.88,1.59,1.17,2.34c0,0.01,0.01,0.02,0.01,0.03
			c0.87,3,0.04,6-1.84,11.53c-1.06,3.12-2.26,6.66-3.18,10.89c-3.65,16.77-0.47,28.32,3.73,33.53c2.13,2.64,4.86,4.1,7.69,4.1
			c2.51,0,7.16-1.15,10.12-8.89c3.86-10.1,11.56-20.54,17.75-20.54c0.28,0,0.54,0.02,0.8,0.07c2.24,0.41,5.88,1.97,9.39,3.48
			c5.64,2.43,10.97,4.72,15.31,4.72c4.5,0,7.75-2.61,8.49-6.81c0.1-0.55,0.1-1.12,0-1.68c-3.91-22.16-33.91-30.9-35.09-31.24
			c-3.88-1.14-4.23-1.85-6.46-12.04c-0.75-3.43-1.64-7.7-3.08-12.92c-0.03-0.09-0.05-0.19-0.08-0.28
			c-15.65-47.07-48.08-74.06-72.53-88.42c-19.72-11.58-37.27-16.96-45.3-19.03c0.44-3.11,0.96-7.47,1.18-11.99
			c0.66-13.48-1.69-20.87-7.37-23.28c-1.31-0.56-2.76-0.84-4.29-0.84c-7.85,0-16.21,7.51-20.5,11.98
			c-6.23,6.51-11.89,14.86-15.81,23.26c-0.63,0.05-1.25,0.1-1.87,0.16c-0.34,0.03-0.68,0.07-1.02,0.11l-0.86,0.09
			c-0.95,0.1-1.91,0.2-2.83,0.32c-0.32,0.04-0.63,0.09-0.95,0.14l-0.78,0.12c-0.95,0.14-1.91,0.28-2.83,0.44
			c-0.24,0.04-0.48,0.09-0.72,0.14l-0.41,0.08c-1.1,0.2-2.19,0.41-3.23,0.63c-0.2,0.04-0.39,0.09-0.58,0.13l-0.26,0.06
			c-1.15,0.26-2.28,0.53-3.42,0.82l-0.52,0.14c-1.3,0.35-2.45,0.68-3.52,1.01l-0.28,0.09c-1.23,0.38-2.45,0.76-3.59,1.19
			c-0.02,0.01-0.09,0.04-0.11,0.04c-1.16,0.43-2.32,0.87-3.47,1.32c-0.07,0.03-0.14,0.05-0.21,0.08
			c-31.8,13.23-41.5,38.12-43.1,43.02c-3.83,11.73-6.14,13.96-18.77,22.52c-16.81,11.4-23.25,18.4-22.93,24.96
			c0.01,0.11,0.01,0.22,0.02,0.31c0.03,0.36,0.08,0.71,0.15,1.08c0.02,0.09,0.06,0.27,0.08,0.36c0.12,0.47,0.26,0.89,0.43,1.29
			c0.34,0.79,0.76,1.72,1.31,2.58h0c0.01,0.02,0.02,0.03,0.03,0.05c0.1,0.15,0.2,0.3,0.31,0.44c0,0,0.01,0.01,0.01,0.02
			c0.01,0.02,0.03,0.04,0.04,0.05c0.12,0.15,0.23,0.3,0.35,0.45c0.03,0.03,0.05,0.06,0.08,0.09c0.01,0.01,0.03,0.03,0.04,0.05
			c0.62,0.66,1.29,1.23,2.11,1.68v0c0.05,0.03,0.11,0.06,0.15,0.08c0.2,0.1,0.41,0.2,0.59,0.28c0.05,0.02,0.14,0.06,0.18,0.07
			c0.18,0.07,0.38,0.13,0.55,0.19c0.05,0.02,0.18,0.05,0.23,0.07c0.18,0.05,0.37,0.1,0.59,0.14c0.06,0.01,0.11,0.02,0.17,0.03
			c0.2,0.03,0.39,0.07,0.6,0.09c0,0,0,0,0,0c0.03,0,0.05,0.01,0.07,0.01c0.58,0.06,1.24,0.07,1.85,0.05c0.08,0,0.15-0.01,0.23-0.01
			c0.15-0.01,0.3-0.02,0.47-0.04l0.25-0.02c0.16-0.01,0.32-0.03,0.46-0.05l0.35-0.05c0.15-0.02,0.3-0.04,0.38-0.06l0.34-0.06
			c0.01,0,0.1-0.02,0.1-0.02l0.75-0.14c0.23-0.04,0.47-0.09,0.72-0.15l4.9-1.23c2.36-0.65,5.14-1.46,8.67-2.48L39.88,144.07z"/>
		<path class="st7" d="M39.33,143.33c11.39-3.32,20.38-5.94,26.66-5.94c2.94,0,5.02,0.57,6.52,1.79c5.7,4.62,11.61,7.7,21.9,7.7
			c4.76,0,10.4-0.67,17.23-2.03l2.45-0.49c13.79-2.73,23.67-4.45,28.34-5.23l0.05-0.01c4.55,4.52,16.98,15.56,35.62,22.09
			c7.59,2.66,13.34,3.96,17.56,3.96c5.54,0,8.13-2.33,9.33-4.28c1.9-3.1,1.6-7.18-0.92-12.13c-1.08-2.12-2.13-4.19-3.08-6.07
			c12.14,2.93,33.31,9.18,49.7,20.04c0.68,0.45,1.33,0.89,1.96,1.33l0.66,0.47c0.39,0.28,0.77,0.55,1.14,0.82l0.7,0.52
			c0.33,0.25,0.65,0.49,0.97,0.73l0.63,0.49c0.45,0.35,0.88,0.7,1.28,1.04c0.17,0.14,0.33,0.29,0.5,0.43l0.72,0.63
			c0.23,0.2,0.44,0.4,0.67,0.61c0.13,0.12,0.26,0.25,0.4,0.38c0.21,0.2,0.42,0.4,0.62,0.61l0.22,0.23c0.68,0.71,1.28,1.4,1.75,2.03
			l0.12,0.16c0.15,0.21,0.3,0.42,0.41,0.59c0,0,0.06,0.09,0.06,0.1c0.53,0.81,0.91,1.58,1.16,2.34c0,0.01,0.01,0.02,0.01,0.03
			c0.98,2.96,0.03,6-1.85,11.53c-1.06,3.12-2.26,6.66-3.18,10.89c-3.65,16.77-0.47,28.32,3.73,33.53c2.13,2.64,4.86,4.1,7.69,4.1
			c2.51,0,7.16-1.15,10.12-8.89c3.86-10.1,11.56-20.54,17.75-20.54c0.27,0,0.53,0.02,0.79,0.07c2.24,0.41,5.88,1.97,9.4,3.49
			c5.64,2.43,10.97,4.72,15.31,4.72c4.5,0,7.75-2.61,8.49-6.8c0.1-0.56,0.1-1.12,0-1.68c-3.91-22.16-33.91-30.9-35.09-31.24
			c-3.88-1.14-4.23-1.85-6.46-12.04c-0.75-3.43-1.67-7.7-3.08-12.92c-0.03-0.09-0.05-0.18-0.08-0.28
			c-15.65-47.07-48.08-74.06-72.53-88.42c-19.72-11.58-37.27-16.96-45.3-19.03c0.44-3.11,0.96-7.47,1.18-11.99
			c0.66-13.48-1.69-20.87-7.37-23.28c-1.32-0.56-2.76-0.84-4.29-0.84c-7.85,0-16.21,7.51-20.5,11.98
			c-6.24,6.51-11.89,14.86-15.81,23.26c-0.63,0.05-1.25,0.1-1.87,0.16c-0.35,0.03-0.68,0.07-1.02,0.11l-0.86,0.09
			c-0.95,0.1-1.91,0.2-2.83,0.32c-0.32,0.04-0.63,0.09-0.95,0.14l-0.78,0.12c-0.96,0.14-1.91,0.28-2.83,0.44
			c-0.25,0.04-0.49,0.09-0.73,0.14l-0.41,0.08c-1.1,0.2-2.19,0.41-3.23,0.63c-0.2,0.04-0.39,0.09-0.58,0.13l-0.26,0.06
			c-1.15,0.26-2.29,0.53-3.42,0.82l-0.52,0.14c-1.3,0.35-2.45,0.68-3.52,1.01l-0.28,0.09c-1.23,0.38-2.44,0.77-3.59,1.19
			c-0.02,0.01-0.09,0.04-0.11,0.04c-1.16,0.43-2.33,0.87-3.47,1.32c-0.07,0.03-0.14,0.05-0.21,0.08
			C60.39,62.28,50.66,87.09,49.06,92c-3.83,11.73-6.14,13.96-18.77,22.52c-16.81,11.4-23.24,18.4-22.93,24.96
			c0,0.11,0.01,0.22,0.02,0.31c0.03,0.36,0.08,0.71,0.15,1.08c0.02,0.09,0.06,0.27,0.08,0.36c0.12,0.47,0.26,0.89,0.43,1.29
			c0.34,0.79,0.76,1.72,1.31,2.58h0c0.01,0.01,0.02,0.03,0.03,0.05c0.1,0.15,0.2,0.3,0.3,0.44c0,0.01,0.01,0.01,0.01,0.02
			c0.01,0.02,0.03,0.04,0.04,0.05c0.12,0.15,0.23,0.3,0.36,0.45c0.03,0.03,0.05,0.06,0.08,0.09c0.01,0.01,0.03,0.03,0.04,0.05
			c0.6,0.67,1.29,1.23,2.11,1.68v0c0.05,0.03,0.11,0.06,0.16,0.08c0.2,0.1,0.41,0.2,0.59,0.27c0.04,0.02,0.14,0.06,0.18,0.08
			c0.18,0.07,0.37,0.13,0.55,0.19c0.05,0.01,0.18,0.05,0.23,0.07c0.18,0.05,0.37,0.1,0.59,0.14c0.06,0.01,0.11,0.02,0.17,0.03
			c0.19,0.03,0.39,0.07,0.6,0.09l0.01,0c0.02,0,0.04,0.01,0.06,0.01c0.58,0.06,1.24,0.07,1.85,0.05c0.08,0,0.15-0.01,0.23-0.01
			c0.15-0.01,0.3-0.02,0.47-0.04l0.25-0.02c0.15-0.02,0.31-0.03,0.45-0.05l0.35-0.05c0.15-0.02,0.3-0.04,0.38-0.06l0.34-0.06
			c0,0,0.1-0.02,0.1-0.02l0.74-0.14c0.23-0.05,0.47-0.09,0.72-0.15l4.9-1.23c2.36-0.65,5.15-1.46,8.67-2.48L39.33,143.33z"/>
		<path class="st8" d="M38.77,142.59c11.39-3.32,20.38-5.94,26.66-5.94c2.94,0,5.02,0.57,6.52,1.79c5.7,4.62,11.61,7.7,21.9,7.7
			c4.76,0,10.4-0.66,17.23-2.03l2.45-0.49c13.79-2.73,23.67-4.45,28.34-5.23l0.05-0.01c4.55,4.52,16.98,15.56,35.62,22.09
			c7.6,2.66,13.34,3.96,17.57,3.96c5.54,0,8.13-2.33,9.33-4.28c1.9-3.1,1.59-7.18-0.92-12.13c-1.08-2.12-2.13-4.18-3.08-6.07
			c12.14,2.93,33.31,9.18,49.7,20.04c0.68,0.45,1.33,0.89,1.96,1.33l0.66,0.47c0.39,0.28,0.77,0.55,1.14,0.82l0.7,0.52
			c0.33,0.25,0.65,0.49,0.96,0.73l0.63,0.49c0.45,0.35,0.87,0.7,1.28,1.04c0.17,0.14,0.34,0.29,0.5,0.43l0.73,0.63
			c0.22,0.2,0.44,0.4,0.67,0.61c0.13,0.12,0.26,0.25,0.4,0.38c0.21,0.2,0.42,0.4,0.62,0.61l0.22,0.23c0.68,0.71,1.27,1.4,1.74,2.03
			l0.12,0.16c0.15,0.21,0.3,0.42,0.41,0.59c0,0,0.06,0.09,0.06,0.1c0.53,0.81,0.91,1.58,1.16,2.34c0,0.01,0.01,0.02,0.01,0.03
			c1.09,2.92,0.03,6-1.85,11.53c-1.06,3.12-2.26,6.66-3.18,10.89c-3.65,16.77-0.47,28.32,3.73,33.53c2.13,2.65,4.86,4.1,7.69,4.1
			c2.51,0,7.16-1.15,10.12-8.89c3.86-10.1,11.56-20.54,17.75-20.54c0.27,0,0.53,0.02,0.79,0.07c2.24,0.41,5.88,1.97,9.4,3.49
			c5.64,2.43,10.97,4.72,15.31,4.72c4.5,0,7.75-2.61,8.49-6.81c0.1-0.55,0.1-1.12,0-1.68c-3.91-22.17-33.91-30.89-35.09-31.24
			c-3.88-1.14-4.23-1.86-6.46-12.04c-0.75-3.43-1.66-7.7-3.08-12.92c-0.03-0.09-0.05-0.18-0.08-0.28
			c-15.65-47.07-48.08-74.06-72.53-88.42c-19.72-11.58-37.27-16.96-45.3-19.02c0.44-3.11,0.96-7.47,1.18-11.99
			c0.65-13.48-1.69-20.87-7.37-23.28c-1.32-0.56-2.76-0.84-4.29-0.84c-7.85,0-16.21,7.51-20.5,11.98
			c-6.24,6.51-11.89,14.86-15.81,23.26c-0.63,0.05-1.25,0.1-1.87,0.16c-0.35,0.03-0.68,0.07-1.02,0.11l-0.86,0.09
			c-0.95,0.1-1.91,0.2-2.83,0.32c-0.32,0.04-0.63,0.09-0.95,0.14l-0.78,0.12c-0.96,0.14-1.91,0.28-2.83,0.44
			c-0.24,0.04-0.49,0.09-0.73,0.14l-0.41,0.08c-1.1,0.2-2.19,0.41-3.23,0.63c-0.2,0.04-0.39,0.09-0.58,0.13l-0.26,0.06
			c-1.15,0.26-2.28,0.53-3.41,0.82l-0.52,0.14c-1.3,0.35-2.45,0.68-3.52,1.01l-0.28,0.09c-1.23,0.38-2.44,0.77-3.59,1.19
			c-0.02,0.01-0.09,0.04-0.11,0.04c-1.16,0.43-2.32,0.87-3.47,1.32c-0.07,0.03-0.14,0.05-0.21,0.08
			C59.83,61.55,50.1,86.35,48.5,91.26c-3.83,11.73-6.13,13.95-18.77,22.52c-16.81,11.4-23.25,18.4-22.93,24.96
			c0.01,0.11,0.01,0.22,0.02,0.31c0.03,0.36,0.08,0.71,0.15,1.08c0.02,0.09,0.06,0.27,0.08,0.36c0.12,0.47,0.26,0.89,0.43,1.29
			c0.34,0.79,0.76,1.72,1.31,2.58l0,0c0.01,0.02,0.02,0.03,0.03,0.05c0.1,0.15,0.2,0.3,0.31,0.44c0,0.01,0.01,0.01,0.01,0.01
			c0.02,0.02,0.03,0.04,0.04,0.06c0.12,0.16,0.23,0.3,0.36,0.45c0.03,0.03,0.05,0.06,0.08,0.09c0.01,0.01,0.03,0.03,0.04,0.05
			c0.61,0.66,1.29,1.23,2.11,1.68v0c0.05,0.03,0.11,0.06,0.15,0.08c0.2,0.1,0.41,0.2,0.59,0.27c0.04,0.02,0.14,0.06,0.18,0.08
			c0.18,0.07,0.37,0.13,0.55,0.19c0.05,0.01,0.18,0.05,0.23,0.07c0.18,0.05,0.37,0.1,0.59,0.14c0.06,0.01,0.11,0.02,0.17,0.03
			c0.19,0.03,0.39,0.07,0.6,0.09c0,0,0.01,0,0.01,0c0.02,0,0.04,0,0.07,0.01c0.58,0.06,1.24,0.07,1.85,0.05
			c0.08,0,0.15-0.01,0.23-0.01c0.15-0.01,0.3-0.02,0.47-0.04l0.25-0.02c0.16-0.01,0.32-0.03,0.46-0.05l0.35-0.05
			c0.15-0.02,0.3-0.04,0.38-0.06l0.34-0.06c0.01,0,0.1-0.02,0.1-0.02l0.74-0.14c0.23-0.05,0.47-0.09,0.72-0.15l4.9-1.23
			c2.36-0.65,5.15-1.46,8.67-2.49L38.77,142.59z"/>
		<path class="st9" d="M38.22,141.86c11.39-3.32,20.38-5.94,26.66-5.94c2.94,0,5.02,0.57,6.52,1.79c5.7,4.62,11.61,7.7,21.9,7.7
			c4.76,0,10.4-0.67,17.23-2.03l2.45-0.49c13.79-2.73,23.67-4.45,28.34-5.23l0.05-0.01c4.55,4.52,16.98,15.56,35.62,22.09
			c7.59,2.66,13.34,3.96,17.56,3.96c5.54,0,8.13-2.33,9.33-4.28c1.9-3.1,1.6-7.18-0.92-12.13c-1.08-2.12-2.13-4.18-3.08-6.07
			c12.14,2.93,33.31,9.18,49.7,20.04c0.68,0.45,1.33,0.89,1.96,1.33l0.66,0.47c0.39,0.28,0.77,0.55,1.14,0.82l0.7,0.52
			c0.33,0.25,0.65,0.49,0.97,0.73l0.63,0.49c0.45,0.35,0.87,0.7,1.28,1.04c0.17,0.14,0.33,0.29,0.5,0.43l0.72,0.63
			c0.23,0.2,0.44,0.4,0.67,0.61c0.13,0.12,0.26,0.25,0.4,0.38c0.21,0.2,0.42,0.4,0.62,0.61l0.22,0.23c0.68,0.71,1.27,1.4,1.75,2.03
			l0.12,0.16c0.15,0.21,0.3,0.42,0.41,0.59c0,0,0.06,0.09,0.06,0.09c0.53,0.82,0.91,1.58,1.17,2.35c0,0.01,0.01,0.02,0.01,0.03
			c0.98,2.96,0.03,6-1.85,11.53c-1.06,3.12-2.26,6.66-3.18,10.89c-3.65,16.77-0.46,28.32,3.73,33.53c2.13,2.64,4.86,4.1,7.69,4.1
			c2.51,0,7.16-1.15,10.12-8.89c3.86-10.1,11.56-20.54,17.75-20.54c0.27,0,0.53,0.02,0.79,0.07c2.24,0.41,5.88,1.97,9.4,3.48
			c5.64,2.43,10.97,4.72,15.31,4.72c4.5,0,7.75-2.61,8.49-6.81c0.1-0.55,0.1-1.12,0-1.68c-3.91-22.16-33.91-30.9-35.09-31.24
			c-3.88-1.14-4.23-1.85-6.46-12.04c-0.75-3.43-1.67-7.7-3.08-12.92c-0.03-0.09-0.05-0.19-0.08-0.28
			c-15.65-47.07-48.08-74.06-72.53-88.42c-19.72-11.58-37.27-16.96-45.3-19.03c0.44-3.11,0.96-7.47,1.18-11.99
			c0.66-13.47-1.69-20.87-7.37-23.28c-1.32-0.56-2.76-0.84-4.29-0.84c-7.85,0-16.21,7.51-20.5,11.98
			c-6.24,6.51-11.89,14.86-15.81,23.26c-0.63,0.05-1.25,0.1-1.87,0.16c-0.34,0.03-0.68,0.07-1.02,0.11l-0.86,0.09
			c-0.95,0.1-1.91,0.2-2.83,0.32c-0.32,0.04-0.63,0.09-0.95,0.14l-0.78,0.12c-0.95,0.14-1.91,0.28-2.83,0.44
			c-0.25,0.04-0.49,0.09-0.73,0.14l-0.41,0.08c-1.1,0.2-2.19,0.41-3.23,0.63c-0.2,0.04-0.39,0.09-0.58,0.13l-0.26,0.06
			c-1.15,0.26-2.28,0.53-3.41,0.82l-0.52,0.14c-1.3,0.35-2.45,0.68-3.52,1.01l-0.28,0.09c-1.23,0.38-2.45,0.77-3.59,1.19
			c-0.02,0.01-0.09,0.04-0.11,0.04c-1.15,0.45-2.33,0.87-3.47,1.32c-0.07,0.03-0.14,0.05-0.21,0.08
			c-31.77,13.31-41.5,38.12-43.1,43.02c-3.83,11.73-6.13,13.96-18.77,22.52C12.37,124.44,5.94,131.45,6.25,138
			c0,0.11,0.01,0.22,0.02,0.31c0.03,0.36,0.08,0.71,0.15,1.08c0.02,0.09,0.06,0.27,0.08,0.36c0.12,0.47,0.26,0.89,0.43,1.29
			c0.34,0.79,0.76,1.72,1.31,2.58h0c0.01,0.02,0.02,0.03,0.03,0.05c0.1,0.15,0.2,0.3,0.31,0.44c0,0,0.01,0.01,0.01,0.02
			c0.01,0.02,0.03,0.04,0.04,0.05c0.12,0.15,0.23,0.3,0.35,0.45c0.03,0.03,0.05,0.06,0.08,0.09c0.01,0.01,0.03,0.03,0.04,0.05
			c0.61,0.66,1.29,1.23,2.11,1.68v0c0.05,0.03,0.1,0.06,0.15,0.08c0.2,0.1,0.41,0.2,0.59,0.28c0.04,0.02,0.14,0.06,0.18,0.07
			c0.18,0.07,0.37,0.13,0.55,0.19c0.05,0.02,0.18,0.05,0.23,0.07c0.18,0.05,0.37,0.1,0.59,0.14c0.06,0.01,0.11,0.02,0.17,0.03
			c0.19,0.03,0.39,0.07,0.6,0.09c0,0,0.01,0,0.01,0c0.02,0,0.05,0.01,0.07,0.01c0.58,0.06,1.24,0.07,1.85,0.05
			c0.08,0,0.15-0.01,0.23-0.01c0.15-0.01,0.31-0.02,0.47-0.04l0.25-0.02c0.16-0.01,0.32-0.03,0.45-0.05l0.35-0.05
			c0.15-0.02,0.3-0.04,0.38-0.06l0.34-0.06c0.01,0,0.1-0.02,0.1-0.02l0.75-0.14c0.23-0.04,0.47-0.09,0.72-0.15l4.9-1.23
			c2.36-0.65,5.15-1.46,8.67-2.48L38.22,141.86z"/>
		<path class="st10" d="M37.67,141.12c11.39-3.32,20.38-5.94,26.66-5.94c2.94,0,5.02,0.57,6.52,1.79c5.7,4.62,11.61,7.7,21.9,7.7
			c4.76,0,10.4-0.67,17.23-2.03l2.45-0.49c13.79-2.73,23.67-4.45,28.34-5.23l0.05-0.01c4.55,4.52,16.98,15.56,35.62,22.09
			c7.6,2.66,13.34,3.96,17.57,3.96c5.54,0,8.13-2.33,9.33-4.28c1.9-3.1,1.59-7.18-0.92-12.13c-1.08-2.12-2.13-4.19-3.08-6.07
			c12.14,2.93,33.31,9.18,49.7,20.04c0.68,0.45,1.33,0.89,1.96,1.33l0.66,0.47c0.39,0.28,0.77,0.55,1.14,0.82l0.7,0.52
			c0.33,0.25,0.65,0.49,0.96,0.73l0.63,0.49c0.45,0.35,0.87,0.7,1.28,1.04c0.17,0.14,0.34,0.29,0.5,0.43l0.73,0.63
			c0.22,0.2,0.44,0.4,0.67,0.61c0.13,0.12,0.26,0.25,0.4,0.38c0.21,0.2,0.42,0.4,0.62,0.61l0.22,0.23c0.68,0.71,1.27,1.4,1.75,2.03
			l0.12,0.16c0.15,0.21,0.3,0.42,0.41,0.59c0,0,0.06,0.09,0.06,0.1c0.53,0.81,0.88,1.59,1.17,2.34c0,0.01,0.01,0.02,0.01,0.03
			c0.87,3,0.04,6-1.85,11.53c-1.06,3.12-2.26,6.66-3.18,10.89c-3.65,16.77-0.47,28.31,3.73,33.52c2.13,2.65,4.86,4.1,7.69,4.1
			c2.51,0,7.16-1.15,10.12-8.89c3.86-10.1,11.56-20.54,17.75-20.54c0.28,0,0.54,0.02,0.8,0.07c2.24,0.4,5.88,1.97,9.39,3.49
			c5.64,2.43,10.97,4.72,15.31,4.72c4.5,0,7.75-2.61,8.49-6.8c0.1-0.56,0.1-1.12,0-1.68c-3.91-22.17-33.91-30.9-35.09-31.24
			c-3.88-1.14-4.23-1.85-6.46-12.04c-0.75-3.43-1.66-7.7-3.08-12.92c-0.03-0.09-0.05-0.18-0.08-0.28
			c-15.45-47.14-48.08-74.06-72.53-88.42c-19.73-11.58-37.27-16.96-45.3-19.03c0.44-3.11,0.96-7.47,1.18-11.99
			c0.66-13.48-1.69-20.87-7.37-23.28c-1.31-0.56-2.76-0.84-4.29-0.84c-7.85,0-16.21,7.51-20.5,11.98
			c-6.23,6.51-11.89,14.86-15.81,23.26c-0.63,0.05-1.25,0.1-1.87,0.16c-0.35,0.03-0.68,0.07-1.02,0.11l-0.86,0.09
			c-0.95,0.1-1.91,0.2-2.83,0.32c-0.32,0.04-0.63,0.09-0.95,0.14l-0.78,0.12c-0.95,0.14-1.91,0.28-2.83,0.44
			c-0.25,0.04-0.49,0.09-0.73,0.14l-0.41,0.08c-1.1,0.2-2.19,0.41-3.23,0.63c-0.2,0.04-0.39,0.09-0.58,0.13l-0.26,0.06
			c-1.15,0.26-2.29,0.53-3.41,0.82l-0.52,0.14c-1.3,0.35-2.45,0.68-3.52,1.01l-0.28,0.09c-1.23,0.38-2.44,0.77-3.59,1.19
			c-0.02,0.01-0.09,0.04-0.11,0.04c-1.16,0.43-2.32,0.87-3.47,1.32c-0.07,0.03-0.14,0.05-0.21,0.08C58.7,59.99,49,84.88,47.4,89.79
			c-3.83,11.73-6.14,13.96-18.77,22.52c-16.81,11.4-23.23,18.4-22.93,24.96c0,0.11,0.01,0.22,0.02,0.31
			c0.03,0.36,0.08,0.71,0.15,1.08c0.02,0.09,0.06,0.27,0.08,0.36c0.12,0.47,0.26,0.89,0.43,1.29c0.34,0.79,0.76,1.72,1.31,2.58h0
			c0.01,0.01,0.02,0.03,0.03,0.05c0.1,0.15,0.2,0.3,0.3,0.44c0,0.01,0.01,0.01,0.01,0.02c0.01,0.02,0.03,0.04,0.04,0.05
			c0.12,0.15,0.23,0.31,0.35,0.45c0.03,0.03,0.05,0.06,0.08,0.09c0.01,0.01,0.03,0.03,0.04,0.05c0.62,0.66,1.29,1.23,2.11,1.68v0
			c0.05,0.03,0.11,0.06,0.15,0.08c0.2,0.1,0.41,0.2,0.59,0.27c0.04,0.02,0.14,0.06,0.18,0.08c0.18,0.07,0.37,0.13,0.55,0.19
			c0.05,0.01,0.18,0.05,0.23,0.07c0.18,0.05,0.37,0.09,0.59,0.14c0.06,0.01,0.11,0.02,0.17,0.03c0.19,0.03,0.39,0.07,0.6,0.09
			l0.01,0c0.02,0,0.04,0.01,0.06,0.01c0.58,0.06,1.24,0.07,1.85,0.05c0.08,0,0.15-0.01,0.23-0.01c0.15-0.01,0.3-0.02,0.47-0.04
			l0.25-0.02c0.16-0.02,0.32-0.03,0.46-0.05l0.35-0.05c0.15-0.02,0.3-0.04,0.38-0.06l0.35-0.06c0,0,0.1-0.02,0.1-0.02l0.74-0.14
			c0.23-0.05,0.47-0.09,0.72-0.15l4.9-1.23c2.36-0.65,5.14-1.46,8.67-2.48L37.67,141.12z"/>
		<path class="st11" d="M37.12,140.38c11.39-3.32,20.38-5.94,26.66-5.94c2.94,0,5.02,0.57,6.52,1.79c5.7,4.62,11.61,7.7,21.9,7.7
			c4.76,0,10.4-0.67,17.23-2.03l2.45-0.49c13.79-2.73,23.67-4.45,28.34-5.23l0.05-0.01c4.55,4.52,16.98,15.56,35.62,22.09
			c7.59,2.66,13.34,3.96,17.56,3.96c5.54,0,8.13-2.33,9.33-4.28c1.9-3.1,1.6-7.18-0.92-12.13c-1.08-2.12-2.13-4.18-3.08-6.07
			c12.14,2.93,33.31,9.18,49.7,20.04c0.68,0.45,1.33,0.89,1.96,1.33l0.66,0.47c0.39,0.28,0.77,0.55,1.14,0.82l0.7,0.52
			c0.33,0.25,0.65,0.49,0.97,0.73l0.63,0.49c0.45,0.35,0.87,0.7,1.28,1.04c0.17,0.14,0.33,0.29,0.5,0.43l0.72,0.63
			c0.23,0.2,0.44,0.4,0.67,0.61c0.13,0.12,0.26,0.25,0.4,0.38c0.21,0.2,0.42,0.4,0.62,0.61l0.22,0.23c0.68,0.71,1.27,1.4,1.75,2.03
			l0.12,0.16c0.15,0.21,0.3,0.42,0.41,0.59c0,0,0.06,0.09,0.06,0.1c0.53,0.81,0.91,1.58,1.17,2.34c0,0.01,0.01,0.02,0.01,0.03
			c0.97,2.96,0.03,6-1.85,11.53c-1.06,3.12-2.26,6.66-3.18,10.89c-3.65,16.77-0.47,28.32,3.73,33.53c2.13,2.64,4.86,4.1,7.69,4.1
			c2.51,0,7.16-1.16,10.12-8.89c3.86-10.1,11.56-20.54,17.75-20.54c0.27,0,0.53,0.02,0.79,0.07c2.24,0.41,5.88,1.97,9.4,3.49
			c5.64,2.43,10.97,4.72,15.31,4.72c4.5,0,7.75-2.61,8.49-6.81c0.1-0.55,0.1-1.12,0-1.68c-3.91-22.16-33.9-30.91-35.09-31.24
			c-3.87-1.18-4.23-1.86-6.46-12.04c-0.75-3.43-1.68-7.69-3.08-12.92c-0.03-0.09-0.05-0.18-0.08-0.28
			c-15.65-47.07-48.08-74.06-72.53-88.42c-19.72-11.58-37.27-16.96-45.3-19.02c0.44-3.11,0.96-7.47,1.18-11.99
			c0.66-13.48-1.69-20.87-7.37-23.28c-1.32-0.56-2.76-0.84-4.29-0.84c-7.85,0-16.21,7.51-20.5,11.98
			c-6.24,6.51-11.89,14.86-15.81,23.26c-0.63,0.05-1.25,0.1-1.87,0.16c-0.35,0.03-0.68,0.07-1.02,0.11l-0.86,0.09
			c-0.95,0.1-1.91,0.2-2.83,0.32c-0.32,0.04-0.63,0.09-0.95,0.14l-0.78,0.12c-0.96,0.14-1.91,0.28-2.83,0.44
			c-0.25,0.04-0.49,0.09-0.73,0.14l-0.41,0.08c-1.1,0.2-2.19,0.41-3.23,0.63c-0.2,0.04-0.39,0.09-0.58,0.13l-0.26,0.06
			c-1.15,0.26-2.29,0.53-3.42,0.82l-0.52,0.14c-1.3,0.35-2.45,0.68-3.52,1.01l-0.28,0.09c-1.23,0.38-2.44,0.78-3.59,1.19
			c-0.02,0.01-0.09,0.04-0.11,0.04c-1.16,0.42-2.33,0.86-3.47,1.32c-0.07,0.03-0.14,0.05-0.21,0.08
			c-31.9,12.99-41.5,38.12-43.1,43.03c-3.83,11.73-6.14,13.96-18.77,22.52c-16.81,11.4-23.24,18.4-22.93,24.96
			c0,0.11,0.01,0.22,0.02,0.31c0.03,0.36,0.08,0.71,0.15,1.08c0.02,0.09,0.06,0.27,0.08,0.36c0.12,0.47,0.26,0.89,0.43,1.29
			c0.34,0.79,0.76,1.72,1.31,2.58h0c0.01,0.02,0.02,0.03,0.03,0.05c0.1,0.15,0.2,0.3,0.3,0.44c0,0.01,0.01,0.01,0.01,0.02
			c0.01,0.02,0.03,0.04,0.04,0.05c0.12,0.16,0.23,0.3,0.35,0.44c0.03,0.03,0.05,0.06,0.08,0.09c0.01,0.01,0.03,0.03,0.04,0.05
			c0.6,0.67,1.29,1.23,2.11,1.68v0c0.05,0.03,0.1,0.06,0.15,0.08c0.2,0.1,0.41,0.2,0.59,0.27c0.04,0.02,0.14,0.06,0.18,0.08
			c0.18,0.07,0.37,0.13,0.55,0.19c0.05,0.01,0.18,0.05,0.23,0.07c0.18,0.05,0.37,0.09,0.59,0.14c0.06,0.01,0.11,0.02,0.17,0.03
			c0.19,0.04,0.39,0.07,0.6,0.09l0.01,0c0.02,0,0.04,0,0.06,0.01c0.58,0.06,1.24,0.08,1.85,0.05c0.08,0,0.15-0.01,0.23-0.01
			c0.15-0.01,0.3-0.02,0.47-0.04l0.25-0.02c0.16-0.01,0.32-0.03,0.46-0.05l0.35-0.05c0.15-0.02,0.3-0.04,0.38-0.06l0.34-0.06
			c0.01,0,0.1-0.02,0.1-0.02l0.74-0.14c0.23-0.05,0.47-0.09,0.72-0.15l4.9-1.23c2.36-0.65,5.14-1.46,8.67-2.49L37.12,140.38z"/>
	</g>
	<path class="st0" d="M37.12,140.38c11.39-3.32,20.38-5.94,26.66-5.94c2.94,0,5.02,0.57,6.52,1.79c5.7,4.62,11.61,7.7,21.9,7.7
		c4.76,0,10.4-0.67,17.23-2.03l2.45-0.49c13.79-2.73,23.67-4.45,28.34-5.23l0.05-0.01c4.55,4.52,16.98,15.56,35.62,22.09
		c7.59,2.66,13.34,3.96,17.56,3.96c5.54,0,8.13-2.33,9.33-4.28c1.9-3.1,1.6-7.18-0.92-12.13c-1.08-2.12-2.13-4.18-3.08-6.07
		c12.14,2.93,33.31,9.18,49.7,20.04c0.68,0.45,1.33,0.89,1.96,1.33l0.66,0.47c0.39,0.28,0.77,0.55,1.14,0.82l0.7,0.52
		c0.33,0.25,0.65,0.49,0.97,0.73l0.63,0.49c0.45,0.35,0.87,0.7,1.28,1.04c0.17,0.14,0.33,0.29,0.5,0.43l0.72,0.63
		c0.23,0.2,0.44,0.4,0.67,0.61c0.13,0.12,0.26,0.25,0.4,0.38c0.21,0.2,0.42,0.4,0.62,0.61l0.22,0.23c0.68,0.71,1.27,1.4,1.75,2.03
		l0.12,0.16c0.15,0.21,0.3,0.42,0.41,0.59c0,0,0.06,0.09,0.06,0.1c0.53,0.81,0.91,1.58,1.17,2.34c0,0.01,0.01,0.02,0.01,0.03
		c0.97,2.96,0.03,6-1.85,11.53c-1.06,3.12-2.26,6.66-3.18,10.89c-3.65,16.77-0.47,28.32,3.73,33.53c2.13,2.64,4.86,4.1,7.69,4.1
		c2.51,0,7.16-1.16,10.12-8.89c3.86-10.1,11.56-20.54,17.75-20.54c0.27,0,0.53,0.02,0.79,0.07c2.24,0.41,5.88,1.97,9.4,3.49
		c5.64,2.43,10.97,4.72,15.31,4.72c4.5,0,7.75-2.61,8.49-6.81c0.1-0.55,0.1-1.12,0-1.68c-3.91-22.16-33.9-30.91-35.09-31.24
		c-3.87-1.18-4.23-1.86-6.46-12.04c-0.75-3.43-1.68-7.69-3.08-12.92c-0.03-0.09-0.05-0.18-0.08-0.28
		c-15.65-47.07-48.08-74.06-72.53-88.42c-19.72-11.58-37.27-16.96-45.3-19.02c0.44-3.11,0.96-7.47,1.18-11.99
		c0.66-13.48-1.69-20.87-7.37-23.28c-1.32-0.56-2.76-0.84-4.29-0.84c-7.85,0-16.21,7.51-20.5,11.98
		c-6.24,6.51-11.89,14.86-15.81,23.26c-0.63,0.05-1.25,0.1-1.87,0.16c-0.35,0.03-0.68,0.07-1.02,0.11l-0.86,0.09
		c-0.95,0.1-1.91,0.2-2.83,0.32c-0.32,0.04-0.63,0.09-0.95,0.14l-0.78,0.12c-0.96,0.14-1.91,0.28-2.83,0.44
		c-0.25,0.04-0.49,0.09-0.73,0.14l-0.41,0.08c-1.1,0.2-2.19,0.41-3.23,0.63c-0.2,0.04-0.39,0.09-0.58,0.13l-0.26,0.06
		c-1.15,0.26-2.29,0.53-3.42,0.82l-0.52,0.14c-1.3,0.35-2.45,0.68-3.52,1.01l-0.28,0.09c-1.23,0.38-2.44,0.78-3.59,1.19
		c-0.02,0.01-0.09,0.04-0.11,0.04c-1.16,0.42-2.33,0.86-3.47,1.32c-0.07,0.03-0.14,0.05-0.21,0.08
		c-31.9,12.99-41.5,38.12-43.1,43.03c-3.83,11.73-6.14,13.96-18.77,22.52c-16.81,11.4-23.24,18.4-22.93,24.96
		c0,0.11,0.01,0.22,0.02,0.31c0.03,0.36,0.08,0.71,0.15,1.08c0.02,0.09,0.06,0.27,0.08,0.36c0.12,0.47,0.26,0.89,0.43,1.29
		c0.34,0.79,0.76,1.72,1.31,2.58h0c0.01,0.02,0.02,0.03,0.03,0.05c0.1,0.15,0.2,0.3,0.3,0.44c0,0.01,0.01,0.01,0.01,0.02
		c0.01,0.02,0.03,0.04,0.04,0.05c0.12,0.16,0.23,0.3,0.35,0.44c0.03,0.03,0.05,0.06,0.08,0.09c0.01,0.01,0.03,0.03,0.04,0.05
		c0.6,0.67,1.29,1.23,2.11,1.68v0c0.05,0.03,0.1,0.06,0.15,0.08c0.2,0.1,0.41,0.2,0.59,0.27c0.04,0.02,0.14,0.06,0.18,0.08
		c0.18,0.07,0.37,0.13,0.55,0.19c0.05,0.01,0.18,0.05,0.23,0.07c0.18,0.05,0.37,0.09,0.59,0.14c0.06,0.01,0.11,0.02,0.17,0.03
		c0.19,0.04,0.39,0.07,0.6,0.09l0.01,0c0.02,0,0.04,0,0.06,0.01c0.58,0.06,1.24,0.08,1.85,0.05c0.08,0,0.15-0.01,0.23-0.01
		c0.15-0.01,0.3-0.02,0.47-0.04l0.25-0.02c0.16-0.01,0.32-0.03,0.46-0.05l0.35-0.05c0.15-0.02,0.3-0.04,0.38-0.06l0.34-0.06
		c0.01,0,0.1-0.02,0.1-0.02l0.74-0.14c0.23-0.05,0.47-0.09,0.72-0.15l4.9-1.23c2.36-0.65,5.14-1.46,8.67-2.49L37.12,140.38z"/>
	<g>
		<g>
			
				<radialGradient id="SVGID_1_" cx="8315.3887" cy="2688.5496" r="484.5998" gradientTransform="matrix(-0.9506 -0.3103 -0.3103 0.9506 8905.1758 20.4696)" gradientUnits="userSpaceOnUse">
				<stop  offset="0" style="stop-color:#00D3EF"/>
				<stop  offset="0.4588" style="stop-color:#004EAF"/>
				<stop  offset="1" style="stop-color:#003A9A"/>
			</radialGradient>
			<path class="st12" d="M294.21,177.11c0,0,28.3,8.02,31.72,27.44c-1.42,8.08-19.1-3.79-27.55-5.33
				c-8.45-1.54-18.41,9.04-23.94,23.51c-5.54,14.47-17.98,0.24-12.27-25.97c4.04-18.61,14.4-24.19-11.02-41.02
				c-25.42-16.84-61.29-22.85-61.29-22.85s3.62,7.15,7.67,15.13c3.8,7.48,2.37,13.54-20.05,5.68
				c-22.42-7.86-35.49-22.72-35.49-22.72s-12.89,2.04-33.51,6.17c-20.63,4.13-27.83,1.24-35.13-4.68
				c-7.3-5.92-20.34-1.75-40.14,4.01c-19.8,5.75-20.78,6.25-22.93,1.2c-2.16-5.05,7.26-13.1,20.51-22.09
				c13.25-8.98,16.42-12.02,20.66-25.03c4.24-13,22.91-44.39,73.17-46.99c8.61-20.54,27.11-38.13,35.46-34.59
				c8.35,3.54,2.58,34.51,2.58,34.51s89.35,16.92,118.73,105.27C286.8,168.94,285.08,174.33,294.21,177.11z"/>
			<defs>
				<filter id="Adobe_OpacityMaskFilter" filterUnits="userSpaceOnUse" x="32.43" y="51.89" width="153.55" height="92.01">
					<feFlood  style="flood-color:white;flood-opacity:1" result="back"/>
					<feBlend  in="SourceGraphic" in2="back" mode="normal"/>
				</filter>
			</defs>
			
				<mask maskUnits="userSpaceOnUse" x="32.43" y="51.89" width="153.55" height="92.01" id="SVGID_00000168083871820719327290000009466633149080542139_">
				<g class="st13">
					<defs>
						
							<filter id="Adobe_OpacityMaskFilter_00000072978242331456223470000002331200200485203627_" filterUnits="userSpaceOnUse" x="32.43" y="51.89" width="153.55" height="92.01">
							<feFlood  style="flood-color:white;flood-opacity:1" result="back"/>
							<feBlend  in="SourceGraphic" in2="back" mode="normal"/>
						</filter>
					</defs>
					
						<mask maskUnits="userSpaceOnUse" x="32.43" y="51.89" width="153.55" height="92.01" id="SVGID_00000168083871820719327290000009466633149080542139_">
						<g style="filter:url(#Adobe_OpacityMaskFilter_00000072978242331456223470000002331200200485203627_);">
						</g>
					</mask>
					
						<radialGradient id="SVGID_00000150782288815617216280000011359894251637063056_" cx="8408.1807" cy="2765.6282" r="151.3533" gradientTransform="matrix(-0.9506 -0.3103 -0.3103 0.9506 8905.1758 20.4696)" gradientUnits="userSpaceOnUse">
						<stop  offset="0" style="stop-color:#FFFFFF"/>
						<stop  offset="1" style="stop-color:#000000"/>
					</radialGradient>
					
						<path style="mask:url(#SVGID_00000168083871820719327290000009466633149080542139_);fill:url(#SVGID_00000150782288815617216280000011359894251637063056_);" d="
						M110.55,51.91c0,0-22.32-1.14-38.36,13.5c-13.33,12.16-17,21.06-19.44,29.54c-2.44,8.48-12.04,16.16-18.38,21.37
						c-6.34,5.21,3.98-0.03,13.91-4.07c9.93-4.04,22.4,0.36,20.37-5.6c-2.03-5.96,0.87-4.68,10.44-1.56
						c9.58,3.13,36.74,0.07,44.05-9.14c7.31-9.2,7.42,7.72,34.24,30.05c26.82,22.33,35.49,23.17,22.94,5.83
						c-12.55-17.34-16.15-21.13-15.28-39.43C166.27,66.53,139.04,52.77,110.55,51.91z"/>
				</g>
			</mask>
			
				<radialGradient id="SVGID_00000086684715405826241680000015088808826658831781_" cx="8408.1807" cy="2765.6282" r="151.3533" gradientTransform="matrix(-0.9506 -0.3103 -0.3103 0.9506 8905.1758 20.4696)" gradientUnits="userSpaceOnUse">
				<stop  offset="0" style="stop-color:#00D3EF"/>
				<stop  offset="1" style="stop-color:#003A9A"/>
			</radialGradient>
			<path style="fill:url(#SVGID_00000086684715405826241680000015088808826658831781_);" d="M110.55,51.91
				c0,0-22.32-1.14-38.36,13.5c-13.33,12.16-17,21.06-19.44,29.54c-2.44,8.48-12.04,16.16-18.38,21.37
				c-6.34,5.21,3.98-0.03,13.91-4.07c9.93-4.04,22.4,0.36,20.37-5.6c-2.03-5.96,0.87-4.68,10.44-1.56
				c9.58,3.13,36.74,0.07,44.05-9.14c7.31-9.2,7.42,7.72,34.24,30.05c26.82,22.33,35.49,23.17,22.94,5.83
				c-12.55-17.34-16.15-21.13-15.28-39.43C166.27,66.53,139.04,52.77,110.55,51.91z"/>
			<g class="st17">
				
					<radialGradient id="SVGID_00000059271112881202192210000000150194897375168680_" cx="8315.3887" cy="2688.5496" r="484.6003" gradientTransform="matrix(-0.9506 -0.3103 -0.3103 0.9506 8905.1758 20.4696)" gradientUnits="userSpaceOnUse">
					<stop  offset="0" style="stop-color:#00D3EF"/>
					<stop  offset="0.4588" style="stop-color:#004EAF"/>
					<stop  offset="1" style="stop-color:#003A9A"/>
				</radialGradient>
				<path style="fill:url(#SVGID_00000059271112881202192210000000150194897375168680_);" d="M23.67,127.1
					c20.75-12.49,36.32-15.93,45.34-15.21c9.03,0.72,2.44-1.8,1.97-6.03c-0.47-4.23,4.17,7.66,26.07,1.84
					c21.9-5.82,30.17-1.64,31.7-6.32c1.53-4.69,2.73,9.78,24.01,28.58c21.28,18.8,48.18,28.32,33.91,8.47
					c-14.27-19.85-15.98-29.78-14.07-40.9c2.9-16.83,4.33-1.92,8.06,5.96c3.72,7.88,33.12,7.48,63.8,33.79
					c30.68,26.31,30.29,35.45,25.79,45.83c-4.5,10.38-8.27,31.01-1.79,34.98c6.48,3.97,8.14-34.02,33.71-22.71
					c17.87,7.69,14.85-5.78-2.41-11.9c-13.28-4.71-16.91-4.3-19.84-20.92c-8.2-46.39-40.81-79.26-80.37-101.06
					c-30.38-14.73-34.37-10.48-36.33-4.45c-1.97,6.03-20.78,2.37-27.91-6.19c-10.44-12.53,17.99-36.52,18.13-37.56
					c0.97-7.2-23.85,15.92-27.74,33.91c-2.17,5.72-11.24-1.92-33.85,3.25c9.03-3.67,19.85-6.25,32.77-6.91
					c8.61-20.54,27.11-38.13,35.46-34.59c8.35,3.54,2.58,34.51,2.58,34.51s89.35,16.92,118.73,105.27
					c5.4,20.17,3.69,25.56,12.81,28.35c0,0,28.3,8.02,31.72,27.44c-1.42,8.08-19.1-3.79-27.55-5.33
					c-8.45-1.54-18.41,9.04-23.94,23.51c-5.54,14.47-17.98,0.24-12.27-25.97c4.04-18.61,14.4-24.19-11.02-41.02
					c-25.42-16.84-61.29-22.85-61.29-22.85s3.62,7.15,7.67,15.13c3.8,7.48,2.37,13.54-20.05,5.68
					c-22.42-7.86-35.49-22.72-35.49-22.72s-12.89,2.04-33.51,6.17c-20.63,4.13-27.83,1.24-35.13-4.68
					c-7.3-5.92-20.34-1.75-40.14,4.01c-19.8,5.75-20.78,6.25-22.93,1.2c-0.7-1.63-0.17-3.59,1.3-5.78
					C13.7,132.06,17.39,130.88,23.67,127.1z"/>
			</g>
			<g>
				<g>
					<path class="st19" d="M177.38,104.78c0,0,0.02,0.48,0.16,1.32c0.06,0.42,0.15,0.94,0.28,1.51c0.12,0.58,0.23,1.24,0.43,1.95
						c0.39,1.4,0.83,3.05,1.49,4.75c0.32,0.85,0.61,1.75,0.99,2.63c0.39,0.87,0.78,1.76,1.17,2.65c0.42,0.88,0.79,1.77,1.25,2.61
						c0.43,0.85,0.91,1.66,1.33,2.47c0.85,1.61,1.74,3.05,2.57,4.25c0.79,1.22,1.52,2.19,2,2.89c0.49,0.69,0.79,1.07,0.79,1.07
						s-0.18-0.46-0.52-1.23c-0.36-0.77-0.83-1.89-1.46-3.18c-0.32-0.65-0.66-1.35-1.03-2.09c-0.34-0.75-0.71-1.54-1.08-2.36
						c-0.39-0.81-0.77-1.66-1.2-2.5c-0.44-0.84-0.79-1.73-1.19-2.6c-0.82-1.73-1.61-3.47-2.31-5.12c-0.35-0.83-0.74-1.61-1.04-2.37
						c-0.32-0.76-0.62-1.48-0.9-2.14c-0.27-0.67-0.52-1.28-0.74-1.83c-0.23-0.54-0.42-1.02-0.55-1.42
						C177.55,105.23,177.38,104.78,177.38,104.78z"/>
					<path class="st19" d="M141.99,130.97c0,0-0.74-1.12-1.85-2.75c-0.56-0.8-1.21-1.75-1.91-2.76c-0.64-1.04-1.46-2.06-2.13-3.18
						c-0.71-1.09-1.48-2.14-2.09-3.2c-0.62-1.04-1.33-1.96-1.8-2.82c-0.99-1.69-1.8-2.79-1.8-2.79s0.29,1.3,0.96,3.2
						c0.29,0.97,0.86,1.99,1.4,3.12c0.29,0.56,0.55,1.15,0.93,1.69c0.35,0.56,0.7,1.12,1.06,1.69c1.48,2.23,3.23,4.25,4.68,5.63
						C140.87,130.23,141.99,130.97,141.99,130.97z"/>
					<path class="st19" d="M162.67,43.49c0,0-0.31,0.59-0.57,1.49c-0.27,0.9-0.5,2.11-0.59,3.33c-0.08,1.22-0.04,2.45,0.1,3.38
						c0.13,0.93,0.35,1.56,0.35,1.56s0.32-0.59,0.58-1.49c0.28-0.9,0.5-2.11,0.59-3.32c0.08-1.22,0.03-2.45-0.11-3.38
						C162.9,44.12,162.67,43.49,162.67,43.49z"/>
				</g>
				<g>
					<path class="st19" d="M89.17,111.92c0,0-0.23,0.03-0.61,0.02c-0.37,0.03-0.91,0-1.53,0c-0.31,0.01-0.65-0.06-1-0.06
						c-0.35-0.03-0.72-0.02-1.1-0.09c-0.38-0.05-0.76-0.13-1.16-0.16c-0.4-0.01-0.78-0.17-1.17-0.25c-0.39-0.08-0.79-0.17-1.18-0.25
						c-0.37-0.14-0.75-0.26-1.11-0.38c-0.36-0.13-0.72-0.23-1.06-0.32c-0.34-0.09-0.63-0.27-0.93-0.38
						c-1.15-0.5-2.04-0.74-2.04-0.74s0.55,0.67,1.57,1.55c0.26,0.21,0.51,0.49,0.85,0.66c0.33,0.18,0.69,0.38,1.07,0.56
						c0.38,0.18,0.76,0.39,1.17,0.55c0.43,0.11,0.87,0.22,1.31,0.34c0.45,0.07,0.88,0.23,1.32,0.22c0.45,0.04,0.89,0.02,1.31,0.03
						c0.42,0.04,0.83-0.07,1.21-0.12c0.38-0.07,0.74-0.11,1.06-0.22C88.46,112.49,89.17,111.92,89.17,111.92z"/>
					<path class="st19" d="M81.95,112.2c0,0-0.25,0.17-0.76,0.41c-0.51,0.23-1.27,0.55-2.27,0.85c-0.49,0.17-1.05,0.32-1.67,0.45
						c-0.62,0.12-1.27,0.33-1.99,0.4c-0.72,0.1-1.48,0.21-2.29,0.32c-0.81,0.07-1.66,0.13-2.56,0.21c-1.79,0.2-3.69,0.08-5.8,0.14
						c-2.07,0.13-4.22-0.02-6.52,0.51c-1.14,0.2-2.32,0.37-3.43,0.76c-1.12,0.37-2.31,0.61-3.4,1.11c-1.1,0.46-2.25,0.88-3.34,1.39
						l-3.28,1.56c-2.13,1.11-4.26,2.21-6.36,3.3c-2.09,1.1-4.2,2.06-6.22,3.02c-2.08,0.97-3.98,1.97-5.83,2.91
						c-1.83,0.96-3.61,1.75-5.16,2.7c-1.56,0.93-2.97,1.81-4.22,2.58c-1.27,0.74-2.28,1.55-3.13,2.15c-0.85,0.62-1.53,1.1-1.95,1.48
						c-0.43,0.37-0.66,0.56-0.66,0.56s0.25-0.17,0.71-0.49c0.45-0.34,1.18-0.73,2.07-1.29c0.9-0.54,1.95-1.26,3.27-1.9
						c1.3-0.67,2.75-1.43,4.32-2.29c1.57-0.86,3.4-1.58,5.27-2.45c1.87-0.86,3.85-1.76,5.89-2.69c2.06-0.94,4.21-1.88,6.32-2.96
						c2.12-1.06,4.27-2.13,6.41-3.21l3.2-1.59c1.07-0.51,2.16-0.93,3.23-1.4c1.06-0.51,2.19-0.74,3.26-1.12
						c1.07-0.4,2.17-0.57,3.24-0.77c2.1-0.52,4.35-0.51,6.38-0.72c2.01-0.16,4.03-0.14,5.82-0.42c0.9-0.12,1.77-0.21,2.58-0.34
						c0.81-0.18,1.58-0.34,2.3-0.5c0.72-0.13,1.38-0.39,1.99-0.56c0.61-0.17,1.17-0.37,1.66-0.58C81,112.99,81.95,112.2,81.95,112.2
						z"/>
				</g>
				<path class="st19" d="M102.95,93.52c0,0-1.13-0.76-3.14-1.12c-0.5-0.09-1.05-0.17-1.63-0.19c-0.58-0.02-1.2-0.04-1.83,0.04
					c-1.28,0.08-2.61,0.43-3.9,0.86c-0.62,0.28-1.26,0.51-1.85,0.82c-0.58,0.32-1.16,0.64-1.68,0.99c-0.52,0.36-1,0.73-1.46,1.08
					c-0.44,0.38-0.83,0.76-1.19,1.1c-0.75,0.66-1.22,1.37-1.59,1.81c-0.35,0.46-0.54,0.73-0.54,0.73s0.28-0.18,0.77-0.49
					c0.49-0.3,1.12-0.83,1.95-1.32c0.4-0.26,0.84-0.54,1.31-0.84c0.48-0.26,0.99-0.53,1.5-0.84c0.51-0.3,1.09-0.51,1.63-0.81
					c0.55-0.28,1.15-0.47,1.72-0.71c0.59-0.21,1.18-0.41,1.77-0.57c0.6-0.12,1.17-0.33,1.76-0.4c1.15-0.24,2.25-0.3,3.21-0.34
					C101.64,93.28,102.95,93.52,102.95,93.52z"/>
			</g>
			<g>
				<path class="st20" d="M83.55,87.87c0.97,3.63,3.73,6.05,6.18,5.4c2.45-0.65,3.65-4.12,2.69-7.76c-0.97-3.63-3.73-6.05-6.18-5.39
					C83.78,80.77,82.58,84.24,83.55,87.87z"/>
				<path class="st0" d="M83.97,86c0.51,1.92,1.98,3.2,3.27,2.86c1.3-0.34,1.94-2.18,1.42-4.11c-0.51-1.92-1.98-3.2-3.27-2.86
					C84.1,82.24,83.46,84.08,83.97,86z"/>
			</g>
			<g>
				
					<radialGradient id="SVGID_00000073705996671536879540000000874631656239832735_" cx="8352.3984" cy="2833.009" r="350.7903" gradientTransform="matrix(-0.9506 -0.3103 -0.3103 0.9506 8905.1758 20.4696)" gradientUnits="userSpaceOnUse">
					<stop  offset="0.2448" style="stop-color:#D2F0FF"/>
					<stop  offset="1" style="stop-color:#A8E7FF"/>
				</radialGradient>
				<path style="fill:url(#SVGID_00000073705996671536879540000000874631656239832735_);" d="M182.99,116.37
					c4.29,1.4,22.04,3.87,45.57,17.73c18.55,10.93,36.3,23.37,38.49,37.63c-1.53-4.58-5.99-9.43-15.9-16
					c-25.42-16.84-61.29-22.85-61.29-22.85s0.03,0.05,0.07,0.13c-1.4-2.01-2.78-4.23-4.01-6.65
					C180.12,114.96,178.69,114.97,182.99,116.37z"/>
				
					<radialGradient id="SVGID_00000008125385472172000060000010266009022007261119_" cx="8352.3984" cy="2833.0183" r="350.7991" gradientTransform="matrix(-0.9506 -0.3103 -0.3103 0.9506 8905.1758 20.4696)" gradientUnits="userSpaceOnUse">
					<stop  offset="0.2448" style="stop-color:#D2F0FF"/>
					<stop  offset="1" style="stop-color:#A8E7FF"/>
				</radialGradient>
				<path style="fill:url(#SVGID_00000008125385472172000060000010266009022007261119_);" d="M42.51,122.82
					c27.09-11.6,27.14-4.46,35.54-8.37c8.41-3.91,7.15,1.39,34.01-2.21c22.99-3.08,17.03,4.61,28.83,18.91
					c-3.5,0.57-15.26,2.56-32.41,5.99c-20.63,4.13-27.83,1.24-35.13-4.68c-7.3-5.92-20.34-1.75-40.14,4.01
					c-16.93,4.92-20.1,5.99-22.01,3.04C17.15,135.44,27.28,129.35,42.51,122.82z"/>
			</g>
			<g>
				
					<radialGradient id="SVGID_00000147932443586447962980000016705997011155847308_" cx="8352.3984" cy="2833.0183" r="350.7991" gradientTransform="matrix(-0.9506 -0.3103 -0.3103 0.9506 8905.1758 20.4696)" gradientUnits="userSpaceOnUse">
					<stop  offset="0.2448" style="stop-color:#D2F0FF"/>
					<stop  offset="1" style="stop-color:#A8E7FF"/>
				</radialGradient>
				<path style="fill:url(#SVGID_00000147932443586447962980000016705997011155847308_);" d="M11.21,139.51
					c1.91,2.95,5.07,1.88,22.01-3.04c19.8-5.76,32.83-9.92,40.14-4.01c7.3,5.92,14.5,8.81,35.13,4.68
					c17.15-3.43,28.91-5.42,32.41-5.99c-11.79-14.3-5.84-21.99-28.83-18.91c-26.85,3.6-25.6-1.7-34.01,2.21
					c-8.41,3.91-8.45-3.23-35.54,8.37C27.28,129.35,17.15,135.44,11.21,139.51z M28.16,132.38c17.49-8.04,29.5-15.26,42.48-12.89
					c12.97,2.38,7.46-3.51,15.17-2.11c7.72,1.4,15.3-0.21,30.6-1.53c15.3-1.32,13.69,9.3,13.69,9.3
					c-0.4,8.04-44.49,12.23-52.24,6.36c-7.75-5.87-8.98-6.65-23.25-2.76C40.34,132.64,10.67,140.42,28.16,132.38z"/>
			</g>
			<g>
				
					<radialGradient id="SVGID_00000111913230984667800570000004608605131023011458_" cx="8352.3984" cy="2833.009" r="350.7903" gradientTransform="matrix(-0.9506 -0.3103 -0.3103 0.9506 8905.1758 20.4696)" gradientUnits="userSpaceOnUse">
					<stop  offset="0.2448" style="stop-color:#D2F0FF"/>
					<stop  offset="1" style="stop-color:#A8E7FF"/>
				</radialGradient>
				<path style="fill:url(#SVGID_00000111913230984667800570000004608605131023011458_);" d="M185.91,126.36
					c1.23,2.42,2.61,4.64,4.01,6.65c-0.04-0.08-0.07-0.13-0.07-0.13s35.87,6.01,61.29,22.85c9.91,6.57,14.37,11.42,15.9,16
					c-2.19-14.26-19.94-26.71-38.49-37.63c-23.53-13.86-41.27-16.32-45.57-17.73C178.69,114.97,180.12,114.96,185.91,126.36z
					 M211.78,127.27c24,10.74,43.56,26.69,35.02,23.04c0,0-17.99-10.83-40-16.13c-15.12-2.88-16.52-5.9-19.74-11.22
					C183.83,117.64,196.59,120.48,211.78,127.27z"/>
			</g>
			<g>
				
					<radialGradient id="SVGID_00000154418020699825651570000000254763100353158586_" cx="8830.5117" cy="221.087" r="63.7998" gradientTransform="matrix(-1 -7.600000e-03 -7.600000e-03 1 8905.0156 -48.2303)" gradientUnits="userSpaceOnUse">
					<stop  offset="0.2448" style="stop-color:#D2F0FF"/>
					<stop  offset="1" style="stop-color:#A8E7FF"/>
				</radialGradient>
				<path style="opacity:0.5;fill:url(#SVGID_00000154418020699825651570000000254763100353158586_);" d="M88.65,98.36
					c-0.02,2.55,3.97,4.64,8.92,4.68c4.94,0.04,8.97-1.99,8.99-4.54c0.02-2.54-3.97-4.64-8.92-4.68
					C92.69,93.78,88.67,95.81,88.65,98.36z"/>
				
					<radialGradient id="SVGID_00000058557500916734917080000012528598478263578028_" cx="8689.6182" cy="-1448.7474" r="19.3689" gradientTransform="matrix(-0.9825 0.186 0.186 0.9825 8893.627 -93.5545)" gradientUnits="userSpaceOnUse">
					<stop  offset="0.2448" style="stop-color:#D2F0FF"/>
					<stop  offset="1" style="stop-color:#A8E7FF"/>
				</radialGradient>
				<path style="fill:url(#SVGID_00000058557500916734917080000012528598478263578028_);" d="M90.99,96.57
					c0.12,0.63,1.42,0.92,2.9,0.63c1.48-0.28,2.59-1.02,2.47-1.65c-0.12-0.63-1.42-0.91-2.9-0.63
					C91.97,95.2,90.87,95.94,90.99,96.57z"/>
			</g>
			<defs>
				
					<filter id="Adobe_OpacityMaskFilter_00000101785947865493972350000009518426012563690635_" filterUnits="userSpaceOnUse" x="170.33" y="56.71" width="101.64" height="95.31">
					<feFlood  style="flood-color:white;flood-opacity:1" result="back"/>
					<feBlend  in="SourceGraphic" in2="back" mode="normal"/>
				</filter>
			</defs>
			
				<mask maskUnits="userSpaceOnUse" x="170.33" y="56.71" width="101.64" height="95.31" id="SVGID_00000004512820019656584370000000722847558243508635_">
				<g style="filter:url(#Adobe_OpacityMaskFilter_00000101785947865493972350000009518426012563690635_);">
					<defs>
						
							<filter id="Adobe_OpacityMaskFilter_00000008832832464344462660000009950164052074612895_" filterUnits="userSpaceOnUse" x="170.33" y="56.71" width="101.64" height="95.31">
							<feFlood  style="flood-color:white;flood-opacity:1" result="back"/>
							<feBlend  in="SourceGraphic" in2="back" mode="normal"/>
						</filter>
					</defs>
					
						<mask maskUnits="userSpaceOnUse" x="170.33" y="56.71" width="101.64" height="95.31" id="SVGID_00000004512820019656584370000000722847558243508635_">
						<g style="filter:url(#Adobe_OpacityMaskFilter_00000008832832464344462660000009950164052074612895_);">
						</g>
					</mask>
					
						<radialGradient id="SVGID_00000178201907008824678670000008161102444420220078_" cx="8247.4033" cy="2652.0452" r="191.0113" gradientTransform="matrix(-0.9506 -0.3103 -0.3103 0.9506 8905.1758 20.4696)" gradientUnits="userSpaceOnUse">
						<stop  offset="0" style="stop-color:#FFFFFF"/>
						<stop  offset="1" style="stop-color:#000000"/>
					</radialGradient>
					
						<path style="mask:url(#SVGID_00000004512820019656584370000000722847558243508635_);fill:url(#SVGID_00000178201907008824678670000008161102444420220078_);" d="
						M183.21,84.1c0,0,7.3,9.58,34.75,24.65c27.45,15.07,37.36,27.66,47.71,40.03c10.34,12.37,10.09-12.17-17.15-45.52
						c-27.24-33.34-66.48-49.75-74.88-46.02C165.22,60.96,174.51,75.5,183.21,84.1z"/>
				</g>
			</mask>
			
				<radialGradient id="SVGID_00000039813811240987690010000015760322127195775929_" cx="8247.4033" cy="2652.0452" r="191.0113" gradientTransform="matrix(-0.9506 -0.3103 -0.3103 0.9506 8905.1758 20.4696)" gradientUnits="userSpaceOnUse">
				<stop  offset="0" style="stop-color:#00D3EF"/>
				<stop  offset="1" style="stop-color:#003A9A"/>
			</radialGradient>
			<path style="fill:url(#SVGID_00000039813811240987690010000015760322127195775929_);" d="M183.21,84.1c0,0,7.3,9.58,34.75,24.65
				c27.45,15.07,37.36,27.66,47.71,40.03c10.34,12.37,10.09-12.17-17.15-45.52c-27.24-33.34-66.48-49.75-74.88-46.02
				C165.22,60.96,174.51,75.5,183.21,84.1z"/>
			<defs>
				
					<filter id="Adobe_OpacityMaskFilter_00000129166610540979205740000008046241670036268680_" filterUnits="userSpaceOnUse" x="268.44" y="178.56" width="37.05" height="31.93">
					<feFlood  style="flood-color:white;flood-opacity:1" result="back"/>
					<feBlend  in="SourceGraphic" in2="back" mode="normal"/>
				</filter>
			</defs>
			
				<mask maskUnits="userSpaceOnUse" x="268.44" y="178.56" width="37.05" height="31.93" id="SVGID_00000175313542459924920630000013020099182225677205_">
				<g style="filter:url(#Adobe_OpacityMaskFilter_00000129166610540979205740000008046241670036268680_);">
					<defs>
						
							<filter id="Adobe_OpacityMaskFilter_00000101789509237793249950000008187274462710883212_" filterUnits="userSpaceOnUse" x="268.44" y="178.56" width="37.05" height="31.93">
							<feFlood  style="flood-color:white;flood-opacity:1" result="back"/>
							<feBlend  in="SourceGraphic" in2="back" mode="normal"/>
						</filter>
					</defs>
					
						<mask maskUnits="userSpaceOnUse" x="268.44" y="178.56" width="37.05" height="31.93" id="SVGID_00000175313542459924920630000013020099182225677205_">
						<g style="filter:url(#Adobe_OpacityMaskFilter_00000101789509237793249950000008187274462710883212_);">
						</g>
					</mask>
					
						<radialGradient id="SVGID_00000129896408244419163700000001440495108878802860_" cx="8134.0024" cy="2789.8452" r="99.1416" gradientTransform="matrix(-0.9506 -0.3103 -0.3103 0.9506 8905.1758 20.4696)" gradientUnits="userSpaceOnUse">
						<stop  offset="0" style="stop-color:#FFFFFF"/>
						<stop  offset="1" style="stop-color:#000000"/>
					</radialGradient>
					
						<path style="mask:url(#SVGID_00000175313542459924920630000013020099182225677205_);fill:url(#SVGID_00000129896408244419163700000001440495108878802860_);" d="
						M275.41,180.87c0,0-6.86,10.24-6.97,22.35c-0.12,12.12,4.57,7.57,7.58-2.64c3.01-10.21,7.41-13.89,19.36-10.31
						c11.95,3.58,14.61-1.63,0.83-5.49C282.43,180.92,279.13,175.36,275.41,180.87z"/>
				</g>
			</mask>
			
				<radialGradient id="SVGID_00000008861279862988108950000003750065437379818667_" cx="8134.0024" cy="2789.8452" r="99.1416" gradientTransform="matrix(-0.9506 -0.3103 -0.3103 0.9506 8905.1758 20.4696)" gradientUnits="userSpaceOnUse">
				<stop  offset="0" style="stop-color:#00D3EF"/>
				<stop  offset="1" style="stop-color:#003A9A"/>
			</radialGradient>
			<path style="fill:url(#SVGID_00000008861279862988108950000003750065437379818667_);" d="M275.41,180.87
				c0,0-6.86,10.24-6.97,22.35c-0.12,12.12,4.57,7.57,7.58-2.64c3.01-10.21,7.41-13.89,19.36-10.31c11.95,3.58,14.61-1.63,0.83-5.49
				C282.43,180.92,279.13,175.36,275.41,180.87z"/>
		</g>
		<path class="st0" d="M89.6,61.63c0,0-15.58,5.92-26.85,24.26c-11.27,18.33-4.54-6.33,9.02-18.19
			C85.33,55.83,96.06,56.69,89.6,61.63z"/>
		<path class="st0" d="M94.74,58.86c0.11,1.06,1.57,1.78,3.26,1.6c1.69-0.17,2.98-1.17,2.87-2.23c-0.11-1.06-1.57-1.78-3.26-1.6
			C95.91,56.8,94.62,57.8,94.74,58.86z"/>
		<path class="st0" d="M202.86,73.33c0,0,18.59,9.49,33.11,26.21c14.52,16.73,12-1.79-11.79-19.83
			C200.38,61.68,187.52,62.62,202.86,73.33z"/>
		<path class="st0" d="M245.24,109.19c-0.3,0.93,0.2,1.93,1.13,2.24c0.93,0.3,1.93-0.21,2.24-1.13c0.3-0.93-0.21-1.93-1.14-2.24
			C246.55,107.76,245.55,108.26,245.24,109.19z"/>
	</g>
</g>
</svg>
