<?xml version="1.0" encoding="utf-8"?>
<!-- Generator: Adobe Illustrator 27.6.1, SVG Export Plug-In . SVG Version: 6.00 Build 0)  -->
<svg version="1.1" xmlns="http://www.w3.org/2000/svg" xmlns:xlink="http://www.w3.org/1999/xlink" x="0px" y="0px"
	 viewBox="0 0 500 500" style="enable-background:new 0 0 500 500;" xml:space="preserve">
<style type="text/css">
	.st0{fill:url(#SVGID_1_);}
	.st1{fill:url(#SVGID_00000047056911903258115160000013735115427794075577_);}
	.st2{fill:url(#SVGID_00000070819235312618474280000005536150542158027400_);}
	.st3{fill:#904013;}
	.st4{fill:url(#SVGID_00000091723844201966256050000017335079064608876956_);}
	.st5{fill:url(#SVGID_00000086681451614062726690000001777211629650874282_);}
	.st6{fill:url(#SVGID_00000095330831664059824500000012225432427439349429_);}
	.st7{fill:url(#SVGID_00000116934505115256052340000001977032910905795720_);}
	.st8{fill:url(#SVGID_00000007399669251619755230000016349381378471940273_);}
	.st9{fill:url(#SVGID_00000099636025099364864370000004636518905919363224_);}
	.st10{fill:url(#SVGID_00000038372389570389396930000013943472971184980621_);}
	.st11{fill:url(#SVGID_00000004519752182514846790000006748714499824822658_);}
	.st12{fill:url(#SVGID_00000003784114688398523460000003800376175448642225_);}
	.st13{fill:url(#SVGID_00000018949254607106403330000012878645445725689989_);}
	.st14{fill:url(#SVGID_00000103229734435017180740000008472629100899072949_);}
	.st15{fill:url(#SVGID_00000116233867253454132350000008423858125879309503_);}
	.st16{fill:url(#SVGID_00000036252892103361309620000002678861226078914434_);}
	.st17{fill:url(#SVGID_00000038399858552228506330000005814589006166262943_);}
	.st18{fill:url(#SVGID_00000105412741108850183660000016394800155771094960_);}
	.st19{fill:url(#SVGID_00000051351304287779024500000009293073464812787125_);}
	.st20{fill:url(#SVGID_00000023261788092509672050000012222211544975856826_);}
	.st21{opacity:0.93;fill:url(#SVGID_00000132054919384836883750000014423883280092955546_);}
	.st22{opacity:0.93;fill:url(#SVGID_00000007390423228959590870000004527622192113099393_);}
	.st23{opacity:0.93;fill:url(#SVGID_00000027581366534770529660000010466952654532447881_);}
	.st24{opacity:0.93;fill:url(#SVGID_00000029756228166774294770000006386238010175957159_);}
	.st25{opacity:0.93;fill:url(#SVGID_00000153663777624960162140000014720166318790706359_);}
	.st26{opacity:0.93;fill:url(#SVGID_00000091013980938346697250000006229906516958244492_);}
	.st27{opacity:0.93;fill:url(#SVGID_00000101081606070817741030000007165274098642927501_);}
	.st28{opacity:0.93;fill:url(#SVGID_00000109027126992181533760000008122622040648035474_);}
	.st29{opacity:0.93;fill:url(#SVGID_00000115479734142226736920000003046613695748491919_);}
	.st30{opacity:0.93;fill:url(#SVGID_00000075155863706021705560000005033286185101975458_);}
	.st31{opacity:0.93;fill:url(#SVGID_00000022553978083081126800000011376604219196244396_);}
</style>
<g id="BACKGROUND">
</g>
<g id="OBJECTS">
	<g>
		<g>
			<g>
				<linearGradient id="SVGID_1_" gradientUnits="userSpaceOnUse" x1="56.1773" y1="287.8514" x2="435.9501" y2="287.8514">
					<stop  offset="0.1224" style="stop-color:#F2D8A3"/>
					<stop  offset="0.7296" style="stop-color:#C25317"/>
					<stop  offset="1" style="stop-color:#C04E12"/>
				</linearGradient>
				<path class="st0" d="M435.95,355.63c0,0-8.56,46.2-73.09,46.97c-13.83,0.16-25.78,23.17-74.34,4.83
					c-10.34-3.9-18.94,7.04-49.58-13.88c-6.94-4.74-37.42,14.55-57.95-26.39c-3.94-7.86-36.72,13.83-55.75-38.87
					c-3.78-10.48-29.28-2.78-30.96-34.77c-0.29-5.53-24.5-4.66-19.79-32.89c0.87-5.24-17.63-9.05-11.93-32.6
					c1.5-6.21-21.54-23.29,11.82-65.28C91.81,140.79,435.95,355.63,435.95,355.63z"/>
				
					<linearGradient id="SVGID_00000014609627064279418680000011472389824048086668_" gradientUnits="userSpaceOnUse" x1="56.1773" y1="287.713" x2="429.7741" y2="287.713">
					<stop  offset="0" style="stop-color:#E4BD84"/>
					<stop  offset="0.801" style="stop-color:#C3783B"/>
					<stop  offset="0.9286" style="stop-color:#C3783B"/>
				</linearGradient>
				<path style="fill:url(#SVGID_00000014609627064279418680000011472389824048086668_);" d="M429.77,347.93
					c0,0-2.4,52.74-66.93,53.51c-13.83,0.16-25.77,24.33-74.33,5.99c-10.34-3.9-18.94,7.04-49.58-13.88
					c-6.94-4.74-37.42,14.55-57.95-26.39c-3.94-7.86-36.72,13.83-55.75-38.87c-3.78-10.48-29.28-2.78-30.96-34.77
					c-0.29-5.53-24.5-4.66-19.79-32.89c0.87-5.24-17.63-9.05-11.93-32.6c1.5-6.21-21.54-23.29,11.82-65.28
					C91.81,140.79,429.77,347.93,429.77,347.93z"/>
				
					<linearGradient id="SVGID_00000059995389517100937470000008758414158616099712_" gradientUnits="userSpaceOnUse" x1="67.276" y1="278.2695" x2="440.8713" y2="278.2695">
					<stop  offset="0.7296" style="stop-color:#C25317"/>
					<stop  offset="1" style="stop-color:#C04E12"/>
				</linearGradient>
				<path style="fill:url(#SVGID_00000059995389517100937470000008758414158616099712_);" d="M440.87,341.27
					c0,0-6.56,47.63-71.09,48.4c-13.83,0.17-36.1,17.14-70.17,11.1c-10.89-1.93-18.94,7.04-49.58-13.88
					c-6.93-4.74-37.42,14.55-57.95-26.39c-3.94-7.86-56.86,8.37-60.38-41.04c-0.79-11.11-24.65-0.61-26.33-32.6
					c-0.29-5.53-24.5-4.66-19.79-32.89c0.87-5.24-17.63-9.05-11.93-32.6c1.5-6.21-21.54-23.29,11.82-65.28
					C102.91,134.13,440.87,341.27,440.87,341.27z"/>
				<path class="st3" d="M321.97,415.69c-10.02,0-21.1-2.34-33.87-7.16c-1.58-0.6-3.23-0.86-5.33-0.86c-1.27,0-2.59,0.09-3.98,0.19
					c-1.67,0.12-3.4,0.24-5.34,0.24c-7.11,0-17.54-1.54-35.17-13.57c-1.28-0.88-4.61-0.62-9-0.08c-3.12,0.38-6.67,0.81-10.56,0.81
					c-16.8,0-29.49-9.01-38.79-27.55c-0.49-0.98-1.88-1.36-4.95-1.36c-0.94,0-1.97,0.03-3.08,0.07c-1.31,0.04-2.71,0.09-4.21,0.09
					c-13.93,0-31.47-4.3-43.57-37.79c-1.14-3.16-4.74-4.46-9.31-6.11c-8.69-3.14-20.59-7.44-21.72-29
					c-0.05-0.96-2.22-2.03-4.52-3.16c-7-3.46-18.71-9.25-15.26-29.98c0.17-1.02-1.4-2.46-3.2-4.12
					c-4.78-4.39-12.78-11.74-8.71-28.56c0.24-1-0.65-2.94-1.69-5.19c-4.41-9.57-12.62-27.37,13.73-60.55
					c1.06-1.34,2.98-2.02,5.7-2.02c45.11,0,344.69,186.69,357.42,194.63l0.67,0.42l-0.15,0.78c-0.09,0.47-9.49,47.15-74.22,47.93
					c-3.67,0.04-7.24,1.83-11.75,4.09C344.18,411.35,335.52,415.69,321.97,415.69L321.97,415.69z M282.77,405.33
					c2.4,0,4.29,0.31,6.15,1.01c12.5,4.72,23.31,7.02,33.05,7.02h0c12.99,0,21.37-4.2,28.1-7.58c4.59-2.3,8.56-4.29,12.77-4.34
					c58.3-0.7,70.29-39.32,71.78-45.26c-16.58-10.32-312.06-193.84-355.48-193.84c-1.94,0-3.28,0.39-3.88,1.14
					c-25.46,32.05-17.64,49.01-13.44,58.12c1.32,2.86,2.27,4.93,1.84,6.71c-3.75,15.49,3.34,21.99,8.03,26.3
					c2.4,2.21,4.3,3.95,3.92,6.22c-3.17,19.03,7.16,24.13,13.99,27.51c3.18,1.57,5.69,2.81,5.81,5.13
					c1.05,20.02,11.67,23.85,20.19,26.93c4.93,1.78,9.19,3.32,10.7,7.5c11.6,32.13,28.21,36.26,41.38,36.26
					c1.47,0,2.85-0.04,4.13-0.09c1.13-0.04,2.19-0.07,3.15-0.07c2.76,0,5.81,0.2,7.04,2.65c11.81,23.55,26.6,26.27,36.7,26.27
					c3.75,0,7.22-0.42,10.28-0.8c5.05-0.61,8.66-0.85,10.59,0.47c17.1,11.67,27.07,13.17,33.86,13.17c1.87,0,3.55-0.12,5.18-0.23
					C280.08,405.43,281.45,405.33,282.77,405.33z"/>
			</g>
			<g>
				<g>
					
						<linearGradient id="SVGID_00000089566706598268443540000005565430633635220122_" gradientUnits="userSpaceOnUse" x1="210.1837" y1="172.1329" x2="253.3405" y2="228.3676">
						<stop  offset="0.1224" style="stop-color:#F2D8A3"/>
						<stop  offset="0.7296" style="stop-color:#C25317"/>
						<stop  offset="1" style="stop-color:#C04E12"/>
					</linearGradient>
					<path style="fill:url(#SVGID_00000089566706598268443540000005565430633635220122_);" d="M370.91,115.85
						c-5.08-2.63-14.07-3.97-19.57-6.12c-49.09,19.69-188,85.58-246.1,178.4c-2.32,32.38,28.25,23.5,31.33,31.34
						C197.01,225.36,344.27,131.7,370.91,115.85z"/>
					
						<linearGradient id="SVGID_00000060711089930238569000000006428373500840247445_" gradientUnits="userSpaceOnUse" x1="205.8145" y1="175.4842" x2="248.9721" y2="231.72">
						<stop  offset="0.3673" style="stop-color:#F2D8A3"/>
						<stop  offset="0.801" style="stop-color:#C3783B"/>
					</linearGradient>
					<path style="fill:url(#SVGID_00000060711089930238569000000006428373500840247445_);" d="M105.25,288.13
						c-2.32,32.38,28.25,23.5,31.33,31.34c54.51-84.88,179.63-169.38,223.2-196.77c-2.08-4.77-2.08-8.94-9.63-12.48
						C300.04,130.48,162.88,196.05,105.25,288.13z"/>
					<path class="st3" d="M136.32,319.34l-0.84-2.12c-0.75-1.91-4.35-2.68-8.52-3.56c-9.77-2.07-24.55-5.21-22.89-28.29l0.02-0.29
						l0.16-0.25c57.32-91.57,193.81-153.74,249.84-176.22l0.43-0.17l0.43,0.17c5.39,2.11,10.75,4.54,15.95,7.23l1.86,0.96l-1.8,1.07
						C342.53,134.8,197.6,223.92,137.55,317.43L136.32,319.34z M106.39,285.83c-1.38,20.8,11.06,23.43,21.06,25.55
						c3.82,0.81,7.23,1.53,9.08,3.33c59.69-91.57,199.23-178.46,231.43-197.74c-4.4-2.21-8.91-4.23-13.43-6.01
						C310.51,128.66,164.85,192.72,106.39,285.83z"/>
				</g>
				<g>
					
						<linearGradient id="SVGID_00000083065492246717567930000000863797938605137594_" gradientUnits="userSpaceOnUse" x1="179.9451" y1="118.4162" x2="208.7171" y2="170.075">
						<stop  offset="0" style="stop-color:#D49D63"/>
						<stop  offset="0.8061" style="stop-color:#BF5838"/>
					</linearGradient>
					<path style="fill:url(#SVGID_00000083065492246717567930000000863797938605137594_);" d="M345.08,105.06
						c-8.92-2.65-22.51-5.91-32.61-7.28c-57.27,10.68-205.41,48.59-240.39,120.57c-1.47,26.75,9.17,27.06,12.84,30.15
						C142.4,165.9,299.64,117.22,345.08,105.06z"/>
					
						<linearGradient id="SVGID_00000163781702836728601460000009356727924077397388_" gradientUnits="userSpaceOnUse" x1="179.9451" y1="118.4162" x2="208.7171" y2="170.075">
						<stop  offset="0.3673" style="stop-color:#F2D8A3"/>
						<stop  offset="0.801" style="stop-color:#C3783B"/>
					</linearGradient>
					<path style="fill:url(#SVGID_00000163781702836728601460000009356727924077397388_);" d="M345.08,105.06
						c-8.92-2.65-22.51-5.91-32.61-7.28c-57.27,10.68-205.41,48.59-240.39,120.57c-1.47,26.75,9.17,27.06,12.84,30.15
						C142.4,165.9,299.64,117.22,345.08,105.06z"/>
					<path class="st3" d="M85.14,247.55l-0.98-0.82c-0.52-0.44-1.26-0.84-2.12-1.31c-4.63-2.53-12.39-6.76-11.13-29.8l0.11-0.44
						c34.93-71.9,180.22-106.04,241.07-117.38l0.18-0.04l0.19,0.03c9.87,1.34,19.51,3.39,28.66,6.1l3.96,1.17l-3.99,1.07
						c-45.41,12.15-198.02,58.18-255.21,140.37L85.14,247.55z M73.23,215.98c-1.12,21.37,5.53,24.99,9.93,27.39
						c0.52,0.28,1.01,0.55,1.48,0.84c56.52-79.95,201.98-125.58,251.8-139.24c-7.76-2.1-15.84-3.74-24.09-4.86
						C251.79,111.42,107.84,145.26,73.23,215.98z"/>
				</g>
				<g>
					
						<linearGradient id="SVGID_00000049205593050603311830000018440039152093518517_" gradientUnits="userSpaceOnUse" x1="193.8641" y1="148.4279" x2="226.5591" y2="196.8166">
						<stop  offset="0.3673" style="stop-color:#F2D8A3"/>
						<stop  offset="0.801" style="stop-color:#C3783B"/>
					</linearGradient>
					<path style="fill:url(#SVGID_00000049205593050603311830000018440039152093518517_);" d="M354.54,109.7
						c-4.43-1.73-9.02-3.3-13.75-4.7c-45.43,12.16-198.39,58.22-255.87,140.84c0.83,0.7,1.31,1.54,1.2,2.86
						c-2.65,33.16,19.79,29.4,19.21,35.51c-0.04,0.43-0.05,0.83-0.08,1.24C163.34,192.64,305.45,129.4,354.54,109.7z"/>
					
						<linearGradient id="SVGID_00000114785726597411276960000004799744500976297621_" gradientUnits="userSpaceOnUse" x1="193.8641" y1="148.4279" x2="226.5591" y2="196.8166">
						<stop  offset="0.3673" style="stop-color:#F2D8A3"/>
						<stop  offset="0.801" style="stop-color:#C3783B"/>
					</linearGradient>
					<path style="fill:url(#SVGID_00000114785726597411276960000004799744500976297621_);" d="M354.54,109.7
						c-4.43-1.73-9.02-3.3-13.75-4.7c-45.43,12.16-198.39,58.22-255.87,140.84c0.83,0.7,1.31,1.54,1.2,2.86
						c-2.65,33.16,19.79,29.4,19.21,35.51c-0.04,0.43-0.05,0.83-0.08,1.24C163.34,192.64,305.45,129.4,354.54,109.7z"/>
					<path class="st3" d="M103.76,290.03l0.36-5.11c0.02-0.27,0.03-0.54,0.06-0.82c0.1-1-1.3-1.74-3.78-2.96
						c-6.49-3.21-17.35-8.58-15.43-32.53c0.06-0.83-0.15-1.34-0.79-1.88l-0.81-0.68l0.61-0.87
						c57.64-82.84,210.92-129.1,256.53-141.3l0.32-0.08l0.32,0.09c4.82,1.43,9.48,3.02,13.84,4.73l2.73,1.07l-2.72,1.09
						c-43.55,17.47-190.18,81.75-248.74,175.29L103.76,290.03z M86.42,245.72c0.67,0.86,0.95,1.88,0.85,3.07
						c-1.79,22.38,8.19,27.31,14.14,30.26c1.94,0.96,3.69,1.82,4.54,3.11c57.33-88.65,188.33-149.29,245.38-172.43
						c-3.38-1.25-6.93-2.43-10.57-3.52C295.12,118.45,143.9,164.21,86.42,245.72z"/>
				</g>
				<g>
					
						<linearGradient id="SVGID_00000091693429151634907830000007131884593669052860_" gradientUnits="userSpaceOnUse" x1="165.4849" y1="99.5864" x2="192.5128" y2="158.0018">
						<stop  offset="0.3673" style="stop-color:#F2D8A3"/>
						<stop  offset="0.801" style="stop-color:#C3783B"/>
					</linearGradient>
					<path style="fill:url(#SVGID_00000091693429151634907830000007131884593669052860_);" d="M312.31,98.94
						c-41.64-5.65-94.07,0.01-163.32,21.11c-119.49,36.42-76.84,94.31-76.84,94.31c-0.03,0.46-0.05,0.88-0.07,1.33
						C107.05,143.7,255.04,109.61,312.31,98.94z"/>
					<path class="st3" d="M70.59,221.41l0.37-6.71c-1.78-2.59-11.77-18.39-5.18-38.28c7.89-23.79,35.77-43.13,82.87-57.48
						c51.27-15.62,94.39-23.22,131.82-23.22c11.12,0,21.88,0.69,31.99,2.07l7.17,0.97l-7.11,1.33
						c-60.5,11.28-204.93,45.17-239.4,116.11L70.59,221.41z M280.47,98.05c-37.2,0-80.1,7.56-131.14,23.12
						C103,135.28,75.63,154.12,68,177.15c-5.69,17.17,1.89,31.43,4.36,35.41c35.69-67.36,168.64-100.89,232.31-113.35
						C296.89,98.44,288.78,98.05,280.47,98.05z"/>
				</g>
				<g>
					
						<linearGradient id="SVGID_00000021089275111352520400000002817967897681785487_" gradientUnits="userSpaceOnUse" x1="372.0285" y1="273.9402" x2="453.8438" y2="273.9402">
						<stop  offset="0.1224" style="stop-color:#F2D8A3"/>
						<stop  offset="0.7296" style="stop-color:#C25317"/>
						<stop  offset="1" style="stop-color:#C04E12"/>
					</linearGradient>
					<path style="fill:url(#SVGID_00000021089275111352520400000002817967897681785487_);" d="M423.25,163.67
						c6.68,38.8,8.64,118.4-51.22,220.53c1.32-0.21,2.67-0.39,4.04-0.53c59.14-6.12,77.77-33.23,77.77-120.22
						C453.84,218.92,438.63,185.8,423.25,163.67z"/>
					
						<linearGradient id="SVGID_00000140730063966416826470000009958342330682823829_" gradientUnits="userSpaceOnUse" x1="372.0285" y1="318.1524" x2="444.9311" y2="318.1524">
						<stop  offset="0.1224" style="stop-color:#F2D8A3"/>
						<stop  offset="0.801" style="stop-color:#C3783B"/>
					</linearGradient>
					<path style="fill:url(#SVGID_00000140730063966416826470000009958342330682823829_);" d="M422.25,252.1
						c-6.33,37.15-20.8,81.9-50.23,132.1c1.32-0.21,2.67-0.39,4.04-0.53c28.42-2.94,47.46-10.75,59.6-27.7
						C451,326.52,447.81,288.28,422.25,252.1z"/>
					<path class="st3" d="M369.78,385.74l1.24-2.12c59.78-102,57.66-181.46,51.08-219.74l-0.89-5.17l2.99,4.3
						c20.15,28.99,30.81,63.72,30.81,100.44c0,86.77-18.41,115.13-78.82,121.38c-1.35,0.14-2.68,0.32-3.98,0.53L369.78,385.74z
						 M425.23,168.71c5.84,40.04,5.37,116.79-50.98,214.01c0.56-0.07,1.13-0.14,1.7-0.2c58.8-6.09,76.73-33.9,76.73-119.06
						C452.68,220.85,438.38,189,425.23,168.71z"/>
				</g>
				<g>
					
						<linearGradient id="SVGID_00000092453733079541382130000005415784264425010593_" gradientUnits="userSpaceOnUse" x1="234.886" y1="197.0803" x2="291.7752" y2="263.124">
						<stop  offset="0.1224" style="stop-color:#F2D8A3"/>
						<stop  offset="0.7296" style="stop-color:#C25317"/>
						<stop  offset="1" style="stop-color:#C04E12"/>
					</linearGradient>
					<path style="fill:url(#SVGID_00000092453733079541382130000005415784264425010593_);" d="M383.79,124.55
						c-4.28-2.73-8.7-5.29-13.27-7.66c-26.65,15.84-173.37,105.8-233.8,199.91c0.08,0.19,0.15,0.39,0.19,0.6
						c7.78,40.21,36.51,31.85,48.18,33.23C288.51,274.4,367.57,150.92,383.79,124.55z"/>
					
						<linearGradient id="SVGID_00000127011169353687189780000006602843025156232327_" gradientUnits="userSpaceOnUse" x1="228.9037" y1="202.2333" x2="285.793" y2="268.2771">
						<stop  offset="0.2194" style="stop-color:#F2D8A3"/>
						<stop  offset="0.7296" style="stop-color:#C3783B"/>
					</linearGradient>
					<path style="fill:url(#SVGID_00000127011169353687189780000006602843025156232327_);" d="M136.72,316.8
						c0.08,0.19,0.15,0.39,0.19,0.6c7.78,40.21,36.51,31.85,48.18,33.23c88.45-65.19,159.07-164.93,187.81-208.95
						c-2.5-6.52-5-14.04-12.78-18.5C317.31,149.51,191.53,231.44,136.72,316.8z"/>
					<path class="st3" d="M185.27,351.84l-0.46-0.05c-1.01-0.12-2.22-0.17-3.93-0.17c-0.92,0-1.88,0.01-2.89,0.03
						c-1.11,0.02-2.27,0.03-3.47,0.03c-15.98,0-33.11-4.05-38.91-34.05c-0.03-0.14-0.08-0.26-0.13-0.39l-0.22-0.56l0.32-0.5
						c60.33-93.95,205.67-183.32,234.19-200.28l0.56-0.33l0.57,0.3c4.51,2.33,9,4.93,13.36,7.71l0.96,0.62l-0.6,0.98
						c-14.97,24.35-94.92,149.7-198.99,226.4L185.27,351.84z M180.89,349.28c1.56,0,2.74,0.04,3.74,0.14
						c102.22-75.49,181.08-198.05,197.43-224.51c-3.81-2.4-7.72-4.64-11.63-6.69c-29.67,17.68-172.71,105.99-232.56,198.73
						c0.02,0.08,0.04,0.15,0.05,0.23c5.47,28.27,20.84,32.17,36.62,32.17c1.18,0,2.33-0.02,3.43-0.04
						C178.99,349.29,179.96,349.28,180.89,349.28z"/>
				</g>
				<g>
					
						<linearGradient id="SVGID_00000150063999711078941940000014520769739833457574_" gradientUnits="userSpaceOnUse" x1="311.4874" y1="254.2533" x2="377.5315" y2="285.6406">
						<stop  offset="0.1224" style="stop-color:#F2D8A3"/>
						<stop  offset="0.7296" style="stop-color:#C25317"/>
						<stop  offset="1" style="stop-color:#C04E12"/>
					</linearGradient>
					<path style="fill:url(#SVGID_00000150063999711078941940000014520769739833457574_);" d="M411.39,148.52
						c-4.07-4.61-7.81-8.33-10.94-11.22c-9.22,32.79-47.9,147.93-156.69,240.17c0.26,0.13,0.5,0.28,0.7,0.47
						c25.54,24.04,44,12.61,54.75,11.95C392.58,302.34,408.67,189.24,411.39,148.52z"/>
					
						<linearGradient id="SVGID_00000147185555214888882100000009020683165872270464_" gradientUnits="userSpaceOnUse" x1="304.1622" y1="269.666" x2="370.2038" y2="301.0521">
						<stop  offset="0.1224" style="stop-color:#F2D8A3"/>
						<stop  offset="0.7347" style="stop-color:#C3783B"/>
					</linearGradient>
					<path style="fill:url(#SVGID_00000147185555214888882100000009020683165872270464_);" d="M243.76,377.47
						c0.26,0.13,0.5,0.28,0.7,0.47c25.54,24.04,44,12.61,54.75,11.95c66.22-62.09,93.54-137.01,104.82-189.87
						c0-9.68-3.59-22.45-14.45-30.09C370.73,219.81,328.53,305.59,243.76,377.47z"/>
					<path class="st3" d="M277.68,394.34L277.68,394.34c-11.77,0-22.89-5.09-34.01-15.55c-0.1-0.09-0.24-0.18-0.43-0.28l-1.57-0.79
						l1.34-1.14c108.35-91.88,147.04-206.62,156.32-239.6l0.51-1.83l1.4,1.29c3.77,3.48,7.48,7.28,11.03,11.31l0.32,0.36l-0.03,0.48
						c-2.93,43.82-19.76,155.14-112.54,242.14l-0.3,0.29l-0.42,0.03c-2.01,0.12-4.33,0.65-7.01,1.25
						C288.05,393.26,283.25,394.34,277.68,394.34z M245.62,377.42c10.54,9.82,21.04,14.59,32.06,14.59h0
						c5.32,0,9.97-1.05,14.08-1.98c2.6-0.59,4.87-1.1,6.96-1.28c91.57-86.08,108.48-196,111.48-239.83
						c-2.96-3.34-6.03-6.52-9.15-9.47C390.88,174.71,351.72,286.91,245.62,377.42z"/>
				</g>
				<g>
					
						<linearGradient id="SVGID_00000106842948524145206190000016256859694062004125_" gradientUnits="userSpaceOnUse" x1="351.9556" y1="268.2632" x2="419.3077" y2="287.2264">
						<stop  offset="0.1224" style="stop-color:#F2D8A3"/>
						<stop  offset="0.7296" style="stop-color:#C25317"/>
						<stop  offset="1" style="stop-color:#C04E12"/>
					</linearGradient>
					<path style="fill:url(#SVGID_00000106842948524145206190000016256859694062004125_);" d="M423.25,163.67
						c-4.03-5.8-8.07-10.86-11.86-15.15c-2.72,40.72-18.81,153.82-112.17,241.37c1.26-0.08,2.42-0.02,3.46,0.28
						c32.39,9.06,47.46-2.52,69.35-5.96C431.89,282.07,429.92,202.47,423.25,163.67z"/>
					
						<linearGradient id="SVGID_00000052795501084376614670000013788911409928778140_" gradientUnits="userSpaceOnUse" x1="344.9656" y1="293.0812" x2="412.3089" y2="312.0419">
						<stop  offset="0.1633" style="stop-color:#F2D8A3"/>
						<stop  offset="0.699" style="stop-color:#C3783B"/>
					</linearGradient>
					<path style="fill:url(#SVGID_00000052795501084376614670000013788911409928778140_);" d="M299.21,389.89
						c1.26-0.08,2.42-0.02,3.46,0.28c32.39,9.06,47.46-2.52,69.35-5.96c29.43-50.21,43.9-94.95,50.23-132.1
						c1.25-17.05-4.13-38.2-18.22-52.08C392.76,252.88,365.43,327.8,299.21,389.89z"/>
					<path class="st3" d="M325.64,394.72L325.64,394.72c-7.4,0-15.02-1.12-23.28-3.43c-0.85-0.24-1.89-0.31-3.08-0.24l-3.22,0.2
						l2.36-2.21c92.18-86.44,108.9-197.05,111.81-240.6l0.19-2.79l1.85,2.1c4.19,4.76,8.21,9.89,11.94,15.26l0.19,0.47
						c6.64,38.6,8.79,118.68-51.36,221.32l-0.28,0.47l-0.54,0.09c-6.12,0.96-11.82,2.6-17.33,4.19
						C346.03,392.09,336.89,394.72,325.64,394.72z M302.03,388.83c0.34,0.05,0.66,0.12,0.97,0.21c8.06,2.25,15.46,3.35,22.65,3.35
						c10.91,0,19.9-2.59,28.6-5.09c5.42-1.56,11.02-3.17,17.06-4.16c59.37-101.55,57.38-180.69,50.84-219.02
						c-3.09-4.43-6.38-8.69-9.79-12.71C408.92,196.69,391.14,303.93,302.03,388.83z"/>
				</g>
				<g>
					
						<linearGradient id="SVGID_00000149358077867069460950000012593539536847656628_" gradientUnits="userSpaceOnUse" x1="283.5668" y1="239.1528" x2="342.4173" y2="277.7327">
						<stop  offset="0.1224" style="stop-color:#F2D8A3"/>
						<stop  offset="0.7296" style="stop-color:#C25317"/>
						<stop  offset="1" style="stop-color:#C04E12"/>
					</linearGradient>
					<path style="fill:url(#SVGID_00000149358077867069460950000012593539536847656628_);" d="M400.45,137.3
						c-5.3-4.9-8.8-7.36-8.8-7.36c-2.61-1.87-5.28-3.66-8-5.4c-16.22,26.37-95.28,149.86-198.69,226.08c1.91,0.23,3.38,0.7,4.21,1.7
						c29.02,34.88,48.67,22.16,54.6,25.15C352.54,285.23,391.23,170.09,400.45,137.3z"/>
					
						<linearGradient id="SVGID_00000145737391712462888040000014101376292951602111_" gradientUnits="userSpaceOnUse" x1="278.0346" y1="247.5915" x2="336.8849" y2="286.1711">
						<stop  offset="0.2398" style="stop-color:#F2D8A3"/>
						<stop  offset="0.7398" style="stop-color:#C3783B"/>
					</linearGradient>
					<path style="fill:url(#SVGID_00000145737391712462888040000014101376292951602111_);" d="M184.95,350.63
						c1.91,0.23,3.38,0.7,4.21,1.7c29.02,34.88,48.67,22.16,54.6,25.15c84.77-71.88,126.96-157.66,145.83-207.54
						c0-7.89-4.36-20.1-16.76-28.36C344.14,185.53,273.47,285.39,184.95,350.63z"/>
					<path class="st3" d="M243.93,378.86l-0.69-0.35c-0.96-0.48-3.02-0.41-5.73-0.21c-1.65,0.12-3.53,0.26-5.66,0.26
						c-9.61,0-24.58-2.64-43.59-25.49c-0.55-0.66-1.68-1.08-3.45-1.29l-2.93-0.34l2.37-1.75
						c103.72-76.45,183.46-201.47,198.39-225.75l0.62-1.01l1,0.64c2.95,1.89,5.59,3.67,8.05,5.44c0.14,0.09,3.61,2.55,8.91,7.45
						l0.53,0.48l-0.19,0.69c-9.33,33.14-48.2,148.44-157.06,240.74L243.93,378.86z M187.7,350.03c0.88,0.32,1.73,0.8,2.36,1.55
						c18.38,22.09,32.66,24.65,41.8,24.65c2.04,0,3.87-0.14,5.49-0.26c2.75-0.2,4.82-0.28,6.2,0.15
						c107.2-91.17,145.99-204.65,155.59-238.46c-4.89-4.46-8.13-6.75-8.16-6.78c-2.16-1.55-4.44-3.1-6.96-4.73
						C367.67,152.61,289.41,274.22,187.7,350.03z"/>
				</g>
			</g>
		</g>
		
			<linearGradient id="SVGID_00000173142540238669593630000016501137857173401512_" gradientUnits="userSpaceOnUse" x1="65.8888" y1="194.958" x2="282.9846" y2="57.2023">
			<stop  offset="0" style="stop-color:#D4D4D4"/>
			<stop  offset="0.08" style="stop-color:#BBBBBB"/>
			<stop  offset="0.3102" style="stop-color:#7A7A7A"/>
			<stop  offset="0.5038" style="stop-color:#4A4A4A"/>
			<stop  offset="0.6511" style="stop-color:#2C2C2C"/>
			<stop  offset="0.7347" style="stop-color:#212121"/>
			<stop  offset="0.787" style="stop-color:#1E1E1E"/>
			<stop  offset="1" style="stop-color:#141414"/>
		</linearGradient>
		<path style="opacity:0.93;fill:url(#SVGID_00000173142540238669593630000016501137857173401512_);" d="M252.8,103.18
			c0,0-148.81,34.98-169.44,82.92C74.36,162.75,90.63,124.89,252.8,103.18z"/>
		
			<linearGradient id="SVGID_00000133518447022330212590000012921378695192700035_" gradientUnits="userSpaceOnUse" x1="81.6769" y1="219.8367" x2="298.7716" y2="82.0818">
			<stop  offset="0" style="stop-color:#D4D4D4"/>
			<stop  offset="0.08" style="stop-color:#BBBBBB"/>
			<stop  offset="0.3102" style="stop-color:#7A7A7A"/>
			<stop  offset="0.5038" style="stop-color:#4A4A4A"/>
			<stop  offset="0.6511" style="stop-color:#2C2C2C"/>
			<stop  offset="0.7347" style="stop-color:#212121"/>
			<stop  offset="0.787" style="stop-color:#1E1E1E"/>
			<stop  offset="1" style="stop-color:#141414"/>
		</linearGradient>
		<path style="opacity:0.93;fill:url(#SVGID_00000133518447022330212590000012921378695192700035_);" d="M299.21,108.45
			c0,0-170.32,43.44-214.3,105.45C99.35,190.46,100.64,147.63,299.21,108.45z"/>
		
			<linearGradient id="SVGID_00000170998144147749619510000008833688959410327724_" gradientUnits="userSpaceOnUse" x1="97.4245" y1="244.6569" x2="314.5203" y2="106.9013">
			<stop  offset="0" style="stop-color:#D4D4D4"/>
			<stop  offset="0.08" style="stop-color:#BBBBBB"/>
			<stop  offset="0.3102" style="stop-color:#7A7A7A"/>
			<stop  offset="0.5038" style="stop-color:#4A4A4A"/>
			<stop  offset="0.6511" style="stop-color:#2C2C2C"/>
			<stop  offset="0.7347" style="stop-color:#212121"/>
			<stop  offset="0.787" style="stop-color:#1E1E1E"/>
			<stop  offset="1" style="stop-color:#141414"/>
		</linearGradient>
		<path style="opacity:0.93;fill:url(#SVGID_00000170998144147749619510000008833688959410327724_);" d="M327.13,115.55
			c0,0-211.15,92.27-222.01,135.13C114.17,223.59,138.15,177.53,327.13,115.55z"/>
		
			<linearGradient id="SVGID_00000165924169384502396410000003510014098865595287_" gradientUnits="userSpaceOnUse" x1="116.1528" y1="274.1681" x2="333.2477" y2="136.4131">
			<stop  offset="0" style="stop-color:#D4D4D4"/>
			<stop  offset="0.08" style="stop-color:#BBBBBB"/>
			<stop  offset="0.3102" style="stop-color:#7A7A7A"/>
			<stop  offset="0.5038" style="stop-color:#4A4A4A"/>
			<stop  offset="0.6511" style="stop-color:#2C2C2C"/>
			<stop  offset="0.7347" style="stop-color:#212121"/>
			<stop  offset="0.787" style="stop-color:#1E1E1E"/>
			<stop  offset="1" style="stop-color:#141414"/>
		</linearGradient>
		<path style="opacity:0.93;fill:url(#SVGID_00000165924169384502396410000003510014098865595287_);" d="M332.14,124.55
			c0,0-190.07,118.99-203.14,163.3C147.3,235.8,212.69,179.82,332.14,124.55z"/>
		
			<linearGradient id="SVGID_00000016785152366827323150000017306696773601313937_" gradientUnits="userSpaceOnUse" x1="142.7289" y1="306.8359" x2="376.1896" y2="158.6961">
			<stop  offset="0" style="stop-color:#D4D4D4"/>
			<stop  offset="0.08" style="stop-color:#BBBBBB"/>
			<stop  offset="0.3102" style="stop-color:#7A7A7A"/>
			<stop  offset="0.5038" style="stop-color:#4A4A4A"/>
			<stop  offset="0.6511" style="stop-color:#2C2C2C"/>
			<stop  offset="0.7347" style="stop-color:#212121"/>
			<stop  offset="0.787" style="stop-color:#1E1E1E"/>
			<stop  offset="1" style="stop-color:#141414"/>
		</linearGradient>
		<path style="opacity:0.93;fill:url(#SVGID_00000016785152366827323150000017306696773601313937_);" d="M345.08,144.64
			c0,0-178.6,136.07-183.83,184.23C160.38,304.68,149.64,269.71,345.08,144.64z"/>
		
			<linearGradient id="SVGID_00000164505290759187169230000010713669577857143954_" gradientUnits="userSpaceOnUse" x1="65.1695" y1="236.2614" x2="81.3921" y2="236.2614">
			<stop  offset="0" style="stop-color:#D4D4D4"/>
			<stop  offset="0.08" style="stop-color:#BBBBBB"/>
			<stop  offset="0.3102" style="stop-color:#7A7A7A"/>
			<stop  offset="0.5038" style="stop-color:#4A4A4A"/>
			<stop  offset="0.6511" style="stop-color:#2C2C2C"/>
			<stop  offset="0.7347" style="stop-color:#212121"/>
			<stop  offset="0.787" style="stop-color:#1E1E1E"/>
			<stop  offset="1" style="stop-color:#141414"/>
		</linearGradient>
		<path style="opacity:0.93;fill:url(#SVGID_00000164505290759187169230000010713669577857143954_);" d="M67.53,221.41
			c0,0-3.22,26.5,13.86,29.6C74.94,251.49,59.24,251.49,67.53,221.41z"/>
		
			<linearGradient id="SVGID_00000037685644959991544800000003064637168731352996_" gradientUnits="userSpaceOnUse" x1="77.9851" y1="269.7664" x2="100.6575" y2="269.7664">
			<stop  offset="0" style="stop-color:#D4D4D4"/>
			<stop  offset="0.08" style="stop-color:#BBBBBB"/>
			<stop  offset="0.3102" style="stop-color:#7A7A7A"/>
			<stop  offset="0.5038" style="stop-color:#4A4A4A"/>
			<stop  offset="0.6511" style="stop-color:#2C2C2C"/>
			<stop  offset="0.7347" style="stop-color:#212121"/>
			<stop  offset="0.787" style="stop-color:#1E1E1E"/>
			<stop  offset="1" style="stop-color:#141414"/>
		</linearGradient>
		<path style="opacity:0.93;fill:url(#SVGID_00000037685644959991544800000003064637168731352996_);" d="M81.39,254.07
			c0,0-5.15,22.2,19.27,31.39C84.07,285.27,71.72,280.63,81.39,254.07z"/>
		
			<linearGradient id="SVGID_00000074409536648707925220000013720690982189003689_" gradientUnits="userSpaceOnUse" x1="208.5093" y1="252.7069" x2="372.9008" y2="252.7069">
			<stop  offset="0" style="stop-color:#D4D4D4"/>
			<stop  offset="0.08" style="stop-color:#BBBBBB"/>
			<stop  offset="0.3102" style="stop-color:#7A7A7A"/>
			<stop  offset="0.5038" style="stop-color:#4A4A4A"/>
			<stop  offset="0.6511" style="stop-color:#2C2C2C"/>
			<stop  offset="0.7347" style="stop-color:#212121"/>
			<stop  offset="0.787" style="stop-color:#1E1E1E"/>
			<stop  offset="1" style="stop-color:#141414"/>
		</linearGradient>
		<path style="opacity:0.93;fill:url(#SVGID_00000074409536648707925220000013720690982189003689_);" d="M372.9,154.46
			c0,0-97.2,181.57-164.39,196.49C273.75,296.79,372.9,154.46,372.9,154.46z"/>
		
			<linearGradient id="SVGID_00000131334850109399968700000005233656763826152887_" gradientUnits="userSpaceOnUse" x1="265.6149" y1="279.6877" x2="389.5885" y2="279.6877">
			<stop  offset="0" style="stop-color:#D4D4D4"/>
			<stop  offset="0.08" style="stop-color:#BBBBBB"/>
			<stop  offset="0.3102" style="stop-color:#7A7A7A"/>
			<stop  offset="0.5038" style="stop-color:#4A4A4A"/>
			<stop  offset="0.6511" style="stop-color:#2C2C2C"/>
			<stop  offset="0.7347" style="stop-color:#212121"/>
			<stop  offset="0.787" style="stop-color:#1E1E1E"/>
			<stop  offset="1" style="stop-color:#141414"/>
		</linearGradient>
		<path style="opacity:0.93;fill:url(#SVGID_00000131334850109399968700000005233656763826152887_);" d="M389.59,189.04
			c0,0-64.04,133.94-123.97,181.28C293.73,371.05,354.49,300.77,389.59,189.04z"/>
		
			<linearGradient id="SVGID_00000114771288198320929680000004259085526605434768_" gradientUnits="userSpaceOnUse" x1="319.6335" y1="303.8872" x2="404.0342" y2="303.8872">
			<stop  offset="0" style="stop-color:#D4D4D4"/>
			<stop  offset="0.08" style="stop-color:#BBBBBB"/>
			<stop  offset="0.3102" style="stop-color:#7A7A7A"/>
			<stop  offset="0.5038" style="stop-color:#4A4A4A"/>
			<stop  offset="0.6511" style="stop-color:#2C2C2C"/>
			<stop  offset="0.7347" style="stop-color:#212121"/>
			<stop  offset="0.787" style="stop-color:#1E1E1E"/>
			<stop  offset="1" style="stop-color:#141414"/>
		</linearGradient>
		<path style="opacity:0.93;fill:url(#SVGID_00000114771288198320929680000004259085526605434768_);" d="M404.03,228.26
			c0,0-48.15,124.5-84.4,151.26C350.7,370.31,398.26,281.98,404.03,228.26z"/>
		
			<linearGradient id="SVGID_00000026154522181193635050000014561348587689928590_" gradientUnits="userSpaceOnUse" x1="385.2332" y1="322.8678" x2="422.5214" y2="322.8678">
			<stop  offset="0" style="stop-color:#D4D4D4"/>
			<stop  offset="0.08" style="stop-color:#BBBBBB"/>
			<stop  offset="0.3102" style="stop-color:#7A7A7A"/>
			<stop  offset="0.5038" style="stop-color:#4A4A4A"/>
			<stop  offset="0.6511" style="stop-color:#2C2C2C"/>
			<stop  offset="0.7347" style="stop-color:#212121"/>
			<stop  offset="0.787" style="stop-color:#1E1E1E"/>
			<stop  offset="1" style="stop-color:#141414"/>
		</linearGradient>
		<path style="opacity:0.93;fill:url(#SVGID_00000026154522181193635050000014561348587689928590_);" d="M422.43,273.94
			c0,0-18.4,79.65-37.2,97.86C406.93,363.65,423.93,315.17,422.43,273.94z"/>
	</g>
</g>
</svg>
