<?xml version="1.0" encoding="utf-8"?>
<!-- Generator: Adobe Illustrator 27.6.1, SVG Export Plug-In . SVG Version: 6.00 Build 0)  -->
<svg version="1.1" id="Layer_1" xmlns="http://www.w3.org/2000/svg" xmlns:xlink="http://www.w3.org/1999/xlink" x="0px" y="0px"
	 viewBox="0 0 335.49 240.58" style="enable-background:new 0 0 335.49 240.58;" xml:space="preserve">
<style type="text/css">
	.st0{fill:#FFFFFF;}
	.st1{fill:#F0F0F0;}
	.st2{fill:#E2E2E2;}
	.st3{fill:#D3D3D3;}
	.st4{fill:#C4C4C4;}
	.st5{fill:#B5B5B5;}
	.st6{fill:#A7A7A7;}
	.st7{fill:#989898;}
	.st8{fill:#898989;}
	.st9{fill:#7A7A7A;}
	.st10{fill:#6C6C6C;}
	.st11{fill:#5D5D5D;}
	.st12{fill:#4B1E0A;}
	.st13{fill:#AACBD1;}
	.st14{fill:#87B2AB;}
	.st15{opacity:0.6;fill:#87B2AB;}
	.st16{opacity:0.8;fill:#A9FFFB;}
	.st17{opacity:0.3;fill:#D4BD00;}
</style>
<g>
	<g>
		<path class="st0" d="M24.33,124.04c-0.91,3.24-0.27,6.75,1.72,9.41c1.54,2.05,3.78,3.7,6.68,4.91c1.44,1.7,2.84,3.43,4.2,5.1
			c5.12,6.33,10.42,12.88,18.43,18.03c10.31,6.62,21.99,11.12,32.29,15.08c5.59,2.16,10.84,4.03,15.98,5.69
			c1.15,2.82,3.44,5.8,6.18,9.17c0.68,0.84,1.32,1.63,1.61,2.05c2.29,3.32,5.08,5.91,8.56,7.93c2.92,1.69,6.81,2.55,11.58,2.55
			c7.3,0,14.49-1.96,16.48-2.55l0.35-0.09c4.67-1.16,9.19-2.75,10.72-6.46c0.51-1.24,0.6-2.57,0.31-3.84
			c21.92-1.12,44.25-7.51,61.61-17.66c8.99-5.27,17.48-11.63,25.24-18.92c4-3.77,7.33-8.01,10.53-12.13
			c2.9,5.86,7.37,11.17,10.99,15.46c0.47,0.56,0.93,1.1,1.35,1.61c0.72,0.87,1.43,1.71,2.13,2.54c4.5,5.3,8.05,9.49,9.72,15.82
			c1.49,5.65,3.12,13.92,0.18,20.47c-0.85,1.87-0.72,3.98,0.35,5.64c1.05,1.63,2.85,2.61,4.81,2.61c1.64,0,3.24-0.71,4.4-1.96
			c2.84-3.08,5.27-6.41,7.22-9.9c9.16-12.53,17.48-35.03,5.71-71.33l-0.57-1.75c-4.63-14.27-8.64-26.6-5.73-40.8
			c2.73-13.41,10.51-25.21,21.91-33.23c2.32-1.64,3.33-4.69,2.46-7.43c-0.8-2.51-3.06-4.2-5.62-4.2c-0.99,0-1.96,0.24-2.9,0.72
			c-3.32,1.69-6.82,2.96-10.53,4.31c-4.72,1.71-9.61,3.48-14.29,6.24c-8.57,5.05-14.43,12.84-18.59,19.07
			c-5.91,8.84-12.24,19.55-15.21,31.08c-1.51-2.54-3.18-5-5.11-7.32c-7.54-9.04-17.74-14.82-26.96-19.83
			c-1.04-2.22-2.23-4.73-4.28-7.19c-3.71-4.42-8.76-8.59-14.21-11.74c-12.31-7.07-25.06-11.83-37.93-14.14
			c-4.41-0.79-9.21-1.18-14.28-1.18c-6.67,0-13.96,0.67-22.27,2.05c-4.46,0.74-9.44,2.09-12.61,6.53c-1.56,2.2-1.89,4.79-1.77,7.27
			c-13.47,2.42-26.11,6.63-37.65,12.52c-15.01,7.68-31.47,16.98-40.54,31.15c-1.03-0.35-2.12-0.54-3.25-0.54
			c-4.12,0-8.48,2.48-11.38,6.48c-4.44,6.12-3.33,13.37,2.95,20.38C24.88,122.43,24.56,123.21,24.33,124.04z"/>
		<path class="st1" d="M23.85,123.57c-0.91,3.24-0.27,6.75,1.72,9.41c1.54,2.05,3.79,3.7,6.68,4.91c1.44,1.7,2.84,3.42,4.2,5.1
			c5.12,6.33,10.42,12.88,18.43,18.03c10.31,6.61,21.99,11.12,32.29,15.08c5.59,2.16,10.84,4.02,15.97,5.69
			c1.15,2.82,3.44,5.8,6.18,9.17c0.68,0.84,1.32,1.63,1.61,2.05c2.29,3.32,5.08,5.91,8.56,7.93c2.92,1.69,6.81,2.55,11.58,2.55
			c7.3,0,14.49-1.96,16.48-2.55l0.35-0.09c4.67-1.17,9.19-2.75,10.72-6.46c0.51-1.24,0.6-2.57,0.31-3.84
			c21.92-1.12,44.25-7.51,61.61-17.65c8.99-5.27,17.48-11.63,25.24-18.92c4-3.77,7.33-8.01,10.53-12.13
			c2.9,5.86,7.37,11.17,10.99,15.46c0.47,0.56,0.93,1.1,1.35,1.61c0.72,0.87,1.43,1.71,2.14,2.54c4.49,5.3,8.05,9.49,9.72,15.82
			c1.49,5.65,3.13,13.92,0.18,20.47c-0.85,1.87-0.72,3.98,0.35,5.64c1.05,1.63,2.85,2.61,4.81,2.61c1.64,0,3.24-0.71,4.4-1.96
			c2.84-3.08,5.27-6.41,7.22-9.9c9.16-12.54,17.48-35.03,5.71-71.33l-0.57-1.75c-4.63-14.27-8.64-26.6-5.73-40.8
			c2.73-13.41,10.51-25.21,21.91-33.23c2.32-1.64,3.33-4.69,2.46-7.43c-0.8-2.51-3.06-4.2-5.63-4.2c-0.99,0-1.96,0.24-2.9,0.72
			c-3.32,1.69-6.82,2.96-10.53,4.31c-4.72,1.71-9.61,3.48-14.29,6.24c-8.57,5.05-14.43,12.84-18.59,19.07
			c-5.91,8.84-12.24,19.55-15.21,31.08c-1.51-2.54-3.18-5-5.11-7.32c-7.54-9.04-17.74-14.81-26.96-19.83
			c-1.04-2.22-2.23-4.73-4.29-7.19c-3.71-4.42-8.76-8.59-14.21-11.74c-12.31-7.07-25.06-11.83-37.93-14.14
			c-4.41-0.79-9.21-1.18-14.28-1.18c-6.67,0-13.95,0.67-22.27,2.05c-4.46,0.74-9.44,2.09-12.61,6.53c-1.56,2.2-1.89,4.79-1.77,7.27
			c-13.47,2.42-26.11,6.63-37.65,12.52C62,71.45,45.54,80.74,36.47,94.91c-1.03-0.35-2.12-0.53-3.24-0.53
			c-4.12,0-8.48,2.48-11.38,6.48c-4.44,6.12-3.33,13.37,2.95,20.38C24.4,121.96,24.08,122.74,23.85,123.57z"/>
		<path class="st2" d="M23.37,123.1c-0.91,3.24-0.27,6.75,1.72,9.41c1.54,2.05,3.78,3.7,6.68,4.91c1.44,1.7,2.84,3.43,4.2,5.1
			c5.13,6.33,10.42,12.88,18.43,18.03c10.31,6.61,21.99,11.12,32.29,15.08c5.59,2.16,10.84,4.02,15.98,5.69
			c1.15,2.82,3.44,5.8,6.18,9.17c0.68,0.84,1.32,1.63,1.61,2.05c2.29,3.32,5.08,5.91,8.56,7.93c2.92,1.69,6.81,2.55,11.59,2.55
			c7.3,0,14.49-1.96,16.48-2.55l0.35-0.09c4.67-1.17,9.19-2.75,10.72-6.46c0.51-1.24,0.6-2.57,0.31-3.84
			c21.93-1.12,44.25-7.51,61.61-17.65c8.99-5.27,17.48-11.63,25.24-18.92c4-3.77,7.33-8.01,10.53-12.13
			c2.9,5.86,7.37,11.17,10.99,15.46c0.47,0.56,0.93,1.1,1.35,1.61c0.72,0.87,1.43,1.71,2.13,2.54c4.5,5.3,8.05,9.49,9.72,15.82
			c1.49,5.65,3.13,13.92,0.18,20.47c-0.85,1.87-0.72,3.98,0.35,5.64c1.05,1.63,2.85,2.61,4.81,2.61c1.64,0,3.24-0.71,4.4-1.96
			c2.84-3.08,5.27-6.41,7.22-9.9c9.16-12.53,17.48-35.03,5.71-71.33l-0.57-1.75c-4.63-14.27-8.63-26.6-5.73-40.8
			c2.73-13.41,10.51-25.21,21.91-33.23c2.32-1.64,3.33-4.69,2.46-7.43c-0.8-2.51-3.06-4.2-5.63-4.2c-0.99,0-1.96,0.24-2.89,0.72
			c-3.32,1.69-6.82,2.96-10.53,4.31c-4.72,1.71-9.61,3.48-14.29,6.24c-8.57,5.05-14.43,12.84-18.59,19.07
			c-5.91,8.84-12.24,19.55-15.21,31.08c-1.51-2.54-3.18-5-5.11-7.32c-7.54-9.04-17.74-14.81-26.96-19.83
			c-1.04-2.22-2.23-4.73-4.28-7.19c-3.71-4.42-8.76-8.59-14.21-11.74c-12.31-7.07-25.06-11.83-37.93-14.14
			c-4.41-0.79-9.21-1.18-14.28-1.18c-6.67,0-13.96,0.67-22.27,2.05c-4.46,0.74-9.44,2.09-12.61,6.53c-1.57,2.2-1.89,4.79-1.77,7.27
			c-13.47,2.42-26.11,6.63-37.65,12.52C61.52,70.98,45.07,80.27,36,94.44c-1.03-0.35-2.12-0.54-3.25-0.54
			c-4.12,0-8.48,2.48-11.38,6.48c-4.44,6.12-3.33,13.37,2.95,20.38C23.93,121.49,23.6,122.27,23.37,123.1z"/>
		<path class="st3" d="M22.9,122.63c-0.91,3.24-0.27,6.75,1.72,9.41c1.54,2.05,3.79,3.7,6.68,4.91c1.44,1.7,2.84,3.42,4.2,5.1
			c5.12,6.33,10.42,12.88,18.43,18.03c10.31,6.62,21.99,11.12,32.29,15.08c5.59,2.16,10.84,4.03,15.98,5.69
			c1.15,2.82,3.44,5.8,6.18,9.17c0.68,0.84,1.32,1.63,1.61,2.05c2.29,3.32,5.08,5.91,8.56,7.93c2.92,1.69,6.81,2.55,11.58,2.55
			c7.3,0,14.49-1.96,16.48-2.55l0.35-0.09c4.67-1.16,9.19-2.75,10.72-6.46c0.51-1.24,0.6-2.57,0.31-3.84
			c21.92-1.12,44.25-7.51,61.61-17.66c8.99-5.27,17.48-11.63,25.24-18.92c4-3.77,7.33-8.01,10.53-12.13
			c2.9,5.86,7.37,11.17,10.99,15.46c0.47,0.56,0.93,1.1,1.35,1.61c0.72,0.87,1.43,1.71,2.14,2.54c4.49,5.3,8.05,9.49,9.72,15.82
			c1.49,5.65,3.12,13.91,0.18,20.47c-0.85,1.87-0.72,3.98,0.35,5.64c1.05,1.63,2.85,2.61,4.81,2.61c1.64,0,3.24-0.71,4.4-1.96
			c2.84-3.08,5.27-6.41,7.22-9.9c9.16-12.53,17.48-35.03,5.71-71.33l-0.57-1.75c-4.63-14.27-8.63-26.6-5.72-40.8
			c2.73-13.41,10.51-25.21,21.91-33.23c2.32-1.64,3.33-4.69,2.46-7.43c-0.8-2.51-3.06-4.2-5.63-4.2c-0.99,0-1.96,0.24-2.89,0.72
			c-3.32,1.69-6.82,2.96-10.53,4.31c-4.72,1.71-9.61,3.48-14.29,6.24c-8.57,5.05-14.43,12.84-18.59,19.06
			c-5.91,8.84-12.24,19.55-15.21,31.08c-1.51-2.54-3.18-5-5.11-7.32c-7.54-9.04-17.74-14.82-26.96-19.83
			c-1.04-2.22-2.23-4.73-4.29-7.19c-3.71-4.42-8.76-8.59-14.21-11.74c-12.31-7.07-25.06-11.83-37.93-14.14
			c-4.41-0.79-9.21-1.18-14.28-1.18c-6.67,0-13.96,0.67-22.27,2.05c-4.46,0.74-9.44,2.09-12.61,6.53c-1.57,2.2-1.89,4.79-1.78,7.27
			c-13.47,2.42-26.11,6.63-37.65,12.52C61.04,70.51,44.59,79.8,35.52,93.97c-1.03-0.35-2.12-0.54-3.25-0.54
			c-4.12,0-8.48,2.48-11.38,6.48c-4.44,6.12-3.33,13.37,2.95,20.38C23.45,121.02,23.13,121.8,22.9,122.63z"/>
		<path class="st4" d="M22.42,122.16c-0.91,3.24-0.27,6.75,1.72,9.41c1.54,2.05,3.78,3.7,6.68,4.91c1.44,1.7,2.84,3.42,4.2,5.1
			c5.12,6.33,10.42,12.88,18.43,18.03c10.31,6.61,21.99,11.12,32.29,15.08c5.59,2.16,10.84,4.03,15.98,5.69
			c1.15,2.82,3.44,5.8,6.18,9.17c0.68,0.84,1.32,1.63,1.61,2.05c2.29,3.32,5.09,5.91,8.56,7.93c2.92,1.69,6.82,2.55,11.59,2.55
			c7.29,0,14.49-1.96,16.48-2.55l0.35-0.09c4.67-1.16,9.19-2.75,10.72-6.46c0.51-1.24,0.6-2.57,0.31-3.84
			c21.92-1.12,44.25-7.51,61.61-17.66c8.99-5.27,17.48-11.63,25.24-18.92c4-3.77,7.32-8.01,10.53-12.13
			c2.9,5.86,7.37,11.16,10.99,15.46c0.47,0.56,0.93,1.1,1.35,1.61c0.72,0.87,1.43,1.71,2.14,2.54c4.49,5.3,8.04,9.49,9.71,15.82
			c1.49,5.65,3.13,13.92,0.18,20.47c-0.85,1.87-0.72,3.98,0.35,5.64c1.05,1.63,2.85,2.61,4.81,2.61c1.64,0,3.24-0.71,4.4-1.96
			c2.84-3.08,5.27-6.41,7.22-9.9c9.16-12.53,17.48-35.03,5.71-71.33l-0.57-1.75c-4.63-14.27-8.63-26.6-5.72-40.8
			c2.73-13.41,10.51-25.21,21.91-33.23c2.32-1.63,3.33-4.69,2.46-7.43c-0.8-2.51-3.06-4.2-5.63-4.2c-0.99,0-1.96,0.24-2.89,0.72
			c-3.32,1.69-6.82,2.96-10.53,4.31c-4.72,1.71-9.6,3.48-14.29,6.24c-8.57,5.05-14.43,12.84-18.59,19.06
			c-5.91,8.84-12.24,19.55-15.21,31.08c-1.51-2.54-3.18-5-5.11-7.32c-7.54-9.04-17.74-14.81-26.96-19.83
			c-1.04-2.22-2.23-4.73-4.29-7.19c-3.71-4.42-8.76-8.59-14.21-11.73c-12.31-7.07-25.07-11.83-37.93-14.14
			c-4.41-0.79-9.21-1.18-14.28-1.18c-6.67,0-13.96,0.67-22.27,2.05c-4.46,0.74-9.44,2.09-12.61,6.53c-1.57,2.2-1.89,4.79-1.77,7.27
			c-13.47,2.42-26.11,6.63-37.65,12.52C60.56,70.04,44.11,79.33,35.04,93.5c-1.03-0.35-2.12-0.54-3.25-0.54
			c-4.12,0-8.48,2.48-11.38,6.48c-4.44,6.12-3.33,13.37,2.95,20.38C22.97,120.55,22.65,121.33,22.42,122.16z"/>
		<path class="st5" d="M21.94,121.69c-0.91,3.24-0.27,6.75,1.72,9.41c1.54,2.05,3.78,3.7,6.67,4.91c1.44,1.7,2.84,3.42,4.2,5.1
			c5.12,6.33,10.42,12.88,18.43,18.03c10.31,6.62,21.99,11.12,32.29,15.09c5.59,2.16,10.84,4.03,15.98,5.69
			c1.15,2.82,3.44,5.8,6.18,9.17c0.68,0.84,1.32,1.63,1.61,2.05c2.29,3.32,5.08,5.91,8.56,7.92c2.92,1.69,6.82,2.55,11.59,2.55
			c7.29,0,14.49-1.96,16.48-2.55l0.35-0.09c4.67-1.17,9.19-2.75,10.72-6.46c0.51-1.24,0.6-2.57,0.31-3.84
			c21.92-1.12,44.25-7.51,61.61-17.65c8.99-5.27,17.48-11.63,25.24-18.92c4-3.77,7.33-8.01,10.53-12.13
			c2.9,5.86,7.37,11.17,10.99,15.46c0.47,0.56,0.93,1.1,1.35,1.61c0.72,0.87,1.43,1.71,2.13,2.54c4.5,5.3,8.05,9.49,9.72,15.81
			c1.49,5.65,3.13,13.92,0.18,20.47c-0.85,1.87-0.72,3.98,0.35,5.64c1.05,1.63,2.85,2.61,4.8,2.61c1.64,0,3.24-0.71,4.4-1.96
			c2.84-3.08,5.27-6.41,7.22-9.9c9.16-12.53,17.48-35.03,5.71-71.33l-0.57-1.75c-4.63-14.27-8.63-26.59-5.72-40.8
			c2.73-13.41,10.51-25.21,21.91-33.23c2.32-1.63,3.33-4.69,2.46-7.43c-0.8-2.51-3.06-4.2-5.63-4.2c-0.99,0-1.96,0.24-2.89,0.72
			c-3.32,1.69-6.82,2.96-10.53,4.31c-4.72,1.71-9.61,3.48-14.29,6.24c-8.57,5.05-14.43,12.84-18.59,19.07
			c-5.91,8.84-12.24,19.55-15.21,31.08c-1.51-2.54-3.18-5-5.11-7.32c-7.54-9.04-17.74-14.81-26.96-19.83
			c-1.04-2.22-2.23-4.73-4.28-7.19c-3.71-4.42-8.76-8.59-14.21-11.74c-12.31-7.07-25.06-11.83-37.93-14.14
			c-4.41-0.78-9.21-1.18-14.28-1.18c-6.67,0-13.95,0.67-22.27,2.05c-4.46,0.74-9.44,2.09-12.61,6.53c-1.56,2.2-1.89,4.79-1.77,7.27
			c-13.47,2.42-26.11,6.63-37.65,12.52c-15.01,7.68-31.47,16.98-40.54,31.15c-1.03-0.35-2.12-0.53-3.25-0.53
			c-4.12,0-8.48,2.48-11.38,6.47c-4.44,6.12-3.33,13.37,2.95,20.38C22.5,120.08,22.17,120.86,21.94,121.69z"/>
		<path class="st6" d="M21.46,121.22c-0.91,3.24-0.27,6.75,1.72,9.41c1.54,2.05,3.78,3.7,6.67,4.91c1.45,1.7,2.84,3.43,4.2,5.1
			c5.12,6.33,10.42,12.88,18.43,18.03c10.31,6.62,21.99,11.12,32.29,15.08c5.59,2.16,10.84,4.03,15.98,5.69
			c1.15,2.82,3.44,5.8,6.18,9.17c0.68,0.84,1.32,1.63,1.61,2.04c2.29,3.32,5.08,5.91,8.56,7.93c2.92,1.69,6.81,2.55,11.59,2.55
			c7.3,0,14.49-1.96,16.48-2.55l0.35-0.09c4.67-1.17,9.19-2.75,10.72-6.46c0.51-1.24,0.6-2.57,0.31-3.84
			c21.92-1.12,44.25-7.5,61.61-17.65c8.99-5.27,17.48-11.63,25.24-18.92c4-3.77,7.33-8.01,10.53-12.13
			c2.9,5.86,7.37,11.17,10.99,15.46c0.47,0.56,0.93,1.1,1.35,1.61c0.72,0.87,1.43,1.71,2.13,2.54c4.5,5.3,8.05,9.49,9.72,15.82
			c1.49,5.65,3.12,13.92,0.18,20.47c-0.85,1.87-0.72,3.98,0.35,5.64c1.05,1.63,2.85,2.61,4.8,2.61c1.64,0,3.24-0.71,4.4-1.96
			c2.84-3.08,5.27-6.41,7.22-9.9c9.16-12.53,17.48-35.03,5.71-71.33l-0.57-1.75c-4.63-14.27-8.64-26.6-5.73-40.8
			c2.73-13.41,10.51-25.21,21.91-33.23c2.32-1.64,3.33-4.69,2.46-7.43c-0.8-2.51-3.06-4.2-5.63-4.2c-0.99,0-1.96,0.24-2.89,0.72
			c-3.32,1.7-6.82,2.96-10.53,4.31c-4.72,1.71-9.6,3.48-14.29,6.24c-8.57,5.05-14.43,12.84-18.59,19.06
			c-5.9,8.84-12.24,19.55-15.21,31.08c-1.51-2.54-3.18-5-5.11-7.32c-7.54-9.04-17.74-14.82-26.96-19.83
			c-1.04-2.22-2.23-4.73-4.28-7.19c-3.71-4.42-8.76-8.59-14.21-11.74c-12.3-7.07-25.06-11.83-37.93-14.14
			c-4.41-0.79-9.21-1.18-14.28-1.18c-6.67,0-13.96,0.67-22.27,2.05c-4.46,0.74-9.44,2.09-12.61,6.54c-1.57,2.2-1.89,4.79-1.78,7.27
			c-13.47,2.42-26.11,6.63-37.65,12.52C59.61,69.1,43.16,78.4,34.09,92.56c-1.03-0.35-2.12-0.54-3.25-0.54
			c-4.12,0-8.48,2.48-11.38,6.48c-4.44,6.12-3.33,13.37,2.95,20.38C22.02,119.61,21.7,120.39,21.46,121.22z"/>
		<path class="st7" d="M20.99,120.75c-0.91,3.24-0.27,6.75,1.72,9.41c1.54,2.05,3.78,3.7,6.67,4.91c1.45,1.7,2.84,3.42,4.2,5.1
			c5.13,6.33,10.42,12.88,18.43,18.03c10.31,6.61,21.99,11.12,32.29,15.08c5.59,2.16,10.84,4.02,15.98,5.69
			c1.15,2.82,3.44,5.8,6.18,9.17c0.68,0.84,1.32,1.63,1.61,2.05c2.29,3.32,5.08,5.91,8.56,7.93c2.92,1.69,6.81,2.55,11.58,2.55
			c7.3,0,14.49-1.96,16.48-2.55l0.35-0.09c4.67-1.17,9.19-2.75,10.71-6.46c0.51-1.24,0.6-2.57,0.31-3.84
			c21.92-1.12,44.25-7.51,61.61-17.65c8.99-5.27,17.48-11.63,25.24-18.92c4-3.77,7.33-8.01,10.53-12.13
			c2.9,5.86,7.37,11.16,10.99,15.46c0.47,0.56,0.93,1.1,1.35,1.61c0.72,0.87,1.43,1.71,2.13,2.54c4.5,5.3,8.05,9.49,9.72,15.82
			c1.49,5.65,3.12,13.91,0.18,20.47c-0.85,1.87-0.72,3.98,0.35,5.64c1.05,1.63,2.85,2.61,4.8,2.61c1.64,0,3.24-0.71,4.4-1.96
			c2.84-3.08,5.27-6.41,7.22-9.9c9.16-12.54,17.48-35.03,5.71-71.33l-0.57-1.75c-4.63-14.27-8.64-26.6-5.73-40.8
			c2.73-13.41,10.51-25.21,21.91-33.23c2.32-1.64,3.33-4.69,2.46-7.43c-0.8-2.51-3.06-4.2-5.62-4.2c-0.99,0-1.96,0.24-2.89,0.72
			c-3.32,1.69-6.82,2.96-10.53,4.31c-4.72,1.71-9.61,3.48-14.29,6.24c-8.57,5.05-14.43,12.84-18.59,19.07
			c-5.9,8.84-12.24,19.55-15.21,31.08c-1.51-2.54-3.18-5-5.11-7.32c-7.54-9.04-17.74-14.81-26.96-19.83
			c-1.04-2.22-2.23-4.73-4.28-7.19c-3.71-4.42-8.76-8.59-14.21-11.74c-12.3-7.07-25.06-11.83-37.93-14.14
			c-4.41-0.79-9.21-1.18-14.28-1.18c-6.67,0-13.96,0.67-22.27,2.05c-4.46,0.74-9.44,2.09-12.61,6.54c-1.56,2.19-1.89,4.79-1.78,7.26
			c-13.47,2.42-26.11,6.63-37.65,12.52C59.13,68.63,42.68,77.93,33.61,92.1c-1.03-0.35-2.12-0.54-3.24-0.54
			c-4.12,0-8.48,2.48-11.38,6.48c-4.44,6.12-3.33,13.37,2.95,20.38C21.54,119.14,21.22,119.92,20.99,120.75z"/>
		<path class="st8" d="M20.51,120.28c-0.91,3.24-0.27,6.75,1.72,9.41c1.54,2.05,3.78,3.7,6.68,4.91c1.44,1.7,2.84,3.42,4.2,5.1
			c5.12,6.33,10.42,12.88,18.43,18.03c10.31,6.61,21.99,11.12,32.29,15.08c5.59,2.16,10.84,4.02,15.98,5.69
			c1.15,2.82,3.44,5.8,6.18,9.17c0.68,0.84,1.32,1.63,1.61,2.05c2.29,3.32,5.08,5.91,8.56,7.93c2.92,1.69,6.81,2.55,11.58,2.55
			c7.3,0,14.49-1.96,16.48-2.55l0.35-0.09c4.67-1.16,9.19-2.75,10.72-6.46c0.51-1.24,0.6-2.57,0.31-3.84
			c21.92-1.12,44.25-7.51,61.61-17.65c8.99-5.27,17.48-11.63,25.24-18.92c4-3.77,7.33-8.01,10.53-12.13
			c2.9,5.86,7.37,11.17,10.99,15.46c0.47,0.56,0.93,1.1,1.35,1.61c0.72,0.87,1.43,1.71,2.13,2.54c4.5,5.3,8.04,9.49,9.72,15.82
			c1.49,5.65,3.13,13.92,0.18,20.47c-0.85,1.87-0.72,3.98,0.35,5.64c1.05,1.63,2.85,2.61,4.81,2.61c1.64,0,3.24-0.71,4.4-1.96
			c2.84-3.08,5.27-6.41,7.22-9.9c9.16-12.54,17.48-35.03,5.71-71.33l-0.57-1.75c-4.63-14.27-8.64-26.6-5.73-40.8
			c2.73-13.41,10.51-25.21,21.91-33.23c2.32-1.64,3.33-4.69,2.46-7.43c-0.8-2.51-3.06-4.21-5.62-4.21c-0.99,0-1.96,0.24-2.9,0.72
			c-3.32,1.69-6.82,2.96-10.53,4.31c-4.72,1.71-9.61,3.48-14.29,6.24c-8.57,5.05-14.43,12.84-18.59,19.07
			c-5.91,8.84-12.24,19.55-15.21,31.08c-1.51-2.54-3.18-5-5.11-7.32c-7.54-9.04-17.74-14.82-26.96-19.83
			c-1.04-2.22-2.23-4.73-4.28-7.19c-3.71-4.42-8.76-8.59-14.21-11.73c-12.31-7.07-25.06-11.83-37.93-14.14
			c-4.41-0.79-9.21-1.18-14.28-1.18c-6.67,0-13.96,0.67-22.27,2.05c-4.46,0.74-9.44,2.09-12.61,6.53c-1.56,2.2-1.89,4.79-1.77,7.27
			c-13.47,2.42-26.11,6.63-37.65,12.52C58.66,68.16,42.2,77.46,33.14,91.63c-1.03-0.35-2.12-0.54-3.25-0.54
			c-4.12,0-8.48,2.48-11.38,6.48c-4.44,6.12-3.33,13.37,2.95,20.38C21.06,118.67,20.74,119.46,20.51,120.28z"/>
		<path class="st9" d="M20.03,119.81c-0.91,3.24-0.27,6.75,1.72,9.41c1.54,2.05,3.78,3.7,6.68,4.91c1.44,1.7,2.84,3.43,4.2,5.1
			c5.12,6.33,10.42,12.88,18.43,18.03c10.31,6.62,21.99,11.12,32.29,15.08c5.59,2.16,10.84,4.03,15.98,5.69
			c1.15,2.82,3.44,5.8,6.18,9.17c0.68,0.84,1.32,1.63,1.61,2.05c2.29,3.32,5.08,5.91,8.56,7.93c2.92,1.69,6.81,2.55,11.58,2.55
			c7.3,0,14.49-1.96,16.48-2.55l0.35-0.09c4.67-1.17,9.19-2.75,10.72-6.46c0.51-1.24,0.6-2.57,0.31-3.84
			c21.92-1.12,44.25-7.51,61.61-17.66c8.99-5.27,17.48-11.63,25.24-18.92c4-3.77,7.33-8.01,10.53-12.13
			c2.9,5.86,7.37,11.17,10.99,15.46c0.47,0.56,0.93,1.1,1.35,1.61c0.72,0.87,1.43,1.71,2.13,2.54c4.5,5.3,8.05,9.49,9.72,15.82
			c1.49,5.65,3.13,13.92,0.18,20.47c-0.85,1.87-0.72,3.98,0.35,5.64c1.05,1.63,2.85,2.61,4.81,2.61c1.64,0,3.24-0.71,4.4-1.96
			c2.84-3.08,5.27-6.41,7.22-9.9c9.16-12.53,17.48-35.03,5.71-71.33l-0.57-1.75c-4.63-14.27-8.64-26.6-5.72-40.8
			c2.73-13.41,10.51-25.21,21.91-33.23c2.32-1.64,3.33-4.69,2.46-7.43c-0.8-2.51-3.06-4.2-5.62-4.2c-0.99,0-1.96,0.24-2.9,0.72
			c-3.32,1.69-6.82,2.96-10.53,4.31c-4.72,1.71-9.61,3.48-14.29,6.24c-8.57,5.05-14.43,12.84-18.59,19.07
			c-5.91,8.84-12.24,19.55-15.21,31.08c-1.51-2.54-3.18-5-5.11-7.32c-7.54-9.04-17.74-14.82-26.96-19.83
			c-1.04-2.22-2.23-4.73-4.28-7.19c-3.71-4.42-8.76-8.59-14.21-11.74c-12.31-7.07-25.06-11.83-37.93-14.14
			c-4.41-0.79-9.21-1.18-14.28-1.18c-6.67,0-13.96,0.67-22.27,2.05c-4.46,0.74-9.44,2.09-12.61,6.53c-1.56,2.2-1.89,4.79-1.77,7.27
			c-13.47,2.42-26.11,6.63-37.65,12.52c-15.01,7.68-31.47,16.98-40.54,31.15c-1.03-0.35-2.12-0.54-3.25-0.54
			c-4.12,0-8.48,2.48-11.38,6.48c-4.44,6.12-3.33,13.37,2.95,20.38C20.59,118.2,20.26,118.98,20.03,119.81z"/>
		<path class="st10" d="M19.56,119.34c-0.91,3.24-0.27,6.75,1.72,9.41c1.54,2.05,3.78,3.7,6.67,4.91c1.45,1.7,2.84,3.42,4.2,5.1
			c5.12,6.33,10.42,12.88,18.43,18.03c10.31,6.61,21.99,11.12,32.29,15.09c5.59,2.16,10.84,4.02,15.98,5.69
			c1.15,2.82,3.44,5.8,6.18,9.17c0.68,0.84,1.32,1.63,1.61,2.05c2.29,3.32,5.08,5.91,8.56,7.93c2.92,1.69,6.81,2.55,11.58,2.55
			c7.3,0,14.49-1.96,16.48-2.55l0.35-0.09c4.67-1.17,9.19-2.75,10.72-6.46c0.51-1.24,0.6-2.57,0.31-3.84
			c21.92-1.12,44.25-7.5,61.61-17.65c8.99-5.27,17.48-11.63,25.24-18.92c4-3.77,7.32-8.01,10.53-12.13
			c2.9,5.86,7.37,11.17,10.99,15.46c0.47,0.56,0.93,1.1,1.35,1.61c0.72,0.87,1.43,1.71,2.14,2.54c4.49,5.3,8.04,9.49,9.72,15.82
			c1.49,5.65,3.13,13.92,0.18,20.47c-0.85,1.87-0.72,3.98,0.35,5.64c1.05,1.64,2.85,2.61,4.81,2.61c1.64,0,3.24-0.71,4.4-1.96
			c2.84-3.08,5.27-6.41,7.22-9.9c9.16-12.54,17.48-35.03,5.71-71.33l-0.57-1.75c-4.63-14.27-8.63-26.6-5.72-40.8
			c2.73-13.41,10.51-25.21,21.91-33.23c2.32-1.64,3.33-4.69,2.46-7.43c-0.8-2.51-3.06-4.2-5.63-4.2c-0.99,0-1.96,0.24-2.89,0.72
			c-3.32,1.69-6.82,2.96-10.53,4.31c-4.72,1.71-9.61,3.48-14.29,6.24c-8.57,5.05-14.43,12.84-18.59,19.06
			c-5.91,8.84-12.24,19.55-15.21,31.08c-1.51-2.54-3.18-5-5.11-7.32c-7.54-9.04-17.74-14.81-26.96-19.83
			c-1.04-2.22-2.23-4.73-4.28-7.19c-3.71-4.42-8.76-8.59-14.21-11.73c-12.31-7.07-25.06-11.83-37.93-14.14
			c-4.41-0.78-9.21-1.18-14.28-1.18c-6.67,0-13.96,0.67-22.27,2.05c-4.46,0.74-9.44,2.09-12.61,6.53c-1.56,2.19-1.89,4.79-1.77,7.27
			c-13.47,2.42-26.11,6.63-37.65,12.52C57.7,67.22,41.25,76.52,32.18,90.69c-1.03-0.35-2.12-0.54-3.24-0.54
			c-4.12,0-8.48,2.48-11.38,6.48c-4.44,6.12-3.33,13.37,2.95,20.38C20.11,117.73,19.79,118.52,19.56,119.34z"/>
		<path class="st11" d="M19.08,118.87c-0.91,3.24-0.27,6.75,1.72,9.41c1.54,2.05,3.78,3.7,6.68,4.91c1.44,1.7,2.84,3.43,4.2,5.1
			c5.12,6.33,10.42,12.88,18.43,18.03c10.31,6.61,21.99,11.12,32.29,15.08c5.59,2.16,10.84,4.02,15.98,5.69
			c1.15,2.82,3.44,5.8,6.18,9.17c0.68,0.84,1.32,1.63,1.61,2.05c2.29,3.32,5.08,5.91,8.56,7.93c2.92,1.69,6.81,2.55,11.58,2.55
			c7.3,0,14.49-1.96,16.48-2.55l0.35-0.09c4.67-1.17,9.19-2.75,10.72-6.46c0.51-1.24,0.6-2.57,0.31-3.84
			c21.92-1.12,44.25-7.51,61.61-17.66c8.99-5.27,17.48-11.63,25.24-18.92c4-3.77,7.33-8.01,10.53-12.13
			c2.9,5.86,7.37,11.17,10.99,15.46c0.47,0.56,0.93,1.1,1.35,1.61c0.72,0.87,1.43,1.71,2.14,2.54c4.49,5.3,8.05,9.49,9.72,15.81
			c1.49,5.65,3.12,13.92,0.18,20.47c-0.85,1.87-0.72,3.98,0.35,5.64c1.05,1.63,2.85,2.61,4.81,2.61c1.64,0,3.24-0.71,4.4-1.96
			c2.84-3.08,5.27-6.41,7.22-9.9c9.16-12.53,17.48-35.03,5.71-71.33l-0.57-1.75c-4.63-14.27-8.63-26.6-5.73-40.8
			c2.73-13.41,10.51-25.21,21.91-33.23c2.32-1.64,3.33-4.69,2.46-7.43c-0.8-2.51-3.06-4.2-5.63-4.2c-0.99,0-1.96,0.24-2.89,0.72
			c-3.32,1.69-6.82,2.96-10.53,4.31c-4.72,1.71-9.61,3.48-14.29,6.24c-8.57,5.05-14.43,12.84-18.59,19.07
			c-5.91,8.84-12.24,19.55-15.21,31.08c-1.51-2.54-3.18-5-5.11-7.32c-7.54-9.04-17.74-14.82-26.96-19.83
			c-1.04-2.22-2.23-4.73-4.29-7.19c-3.71-4.42-8.76-8.59-14.21-11.74c-12.31-7.07-25.06-11.83-37.93-14.14
			c-4.41-0.79-9.21-1.18-14.28-1.18c-6.67,0-13.96,0.67-22.27,2.05c-4.46,0.74-9.44,2.09-12.61,6.54c-1.57,2.2-1.89,4.79-1.77,7.27
			c-13.47,2.42-26.11,6.63-37.65,12.52C57.23,66.75,40.77,76.05,31.7,90.22c-1.03-0.35-2.12-0.54-3.25-0.54
			c-4.12,0-8.48,2.48-11.38,6.48c-4.44,6.12-3.33,13.37,2.95,20.38C19.63,117.26,19.31,118.05,19.08,118.87z"/>
	</g>
	<path class="st0" d="M19.08,118.87c-0.91,3.24-0.27,6.75,1.72,9.41c1.54,2.05,3.78,3.7,6.68,4.91c1.44,1.7,2.84,3.43,4.2,5.1
		c5.12,6.33,10.42,12.88,18.43,18.03c10.31,6.61,21.99,11.12,32.29,15.08c5.59,2.16,10.84,4.02,15.98,5.69
		c1.15,2.82,3.44,5.8,6.18,9.17c0.68,0.84,1.32,1.63,1.61,2.05c2.29,3.32,5.08,5.91,8.56,7.93c2.92,1.69,6.81,2.55,11.58,2.55
		c7.3,0,14.49-1.96,16.48-2.55l0.35-0.09c4.67-1.17,9.19-2.75,10.72-6.46c0.51-1.24,0.6-2.57,0.31-3.84
		c21.92-1.12,44.25-7.51,61.61-17.66c8.99-5.27,17.48-11.63,25.24-18.92c4-3.77,7.33-8.01,10.53-12.13
		c2.9,5.86,7.37,11.17,10.99,15.46c0.47,0.56,0.93,1.1,1.35,1.61c0.72,0.87,1.43,1.71,2.14,2.54c4.49,5.3,8.05,9.49,9.72,15.81
		c1.49,5.65,3.12,13.92,0.18,20.47c-0.85,1.87-0.72,3.98,0.35,5.64c1.05,1.63,2.85,2.61,4.81,2.61c1.64,0,3.24-0.71,4.4-1.96
		c2.84-3.08,5.27-6.41,7.22-9.9c9.16-12.53,17.48-35.03,5.71-71.33l-0.57-1.75c-4.63-14.27-8.63-26.6-5.73-40.8
		c2.73-13.41,10.51-25.21,21.91-33.23c2.32-1.64,3.33-4.69,2.46-7.43c-0.8-2.51-3.06-4.2-5.63-4.2c-0.99,0-1.96,0.24-2.89,0.72
		c-3.32,1.69-6.82,2.96-10.53,4.31c-4.72,1.71-9.61,3.48-14.29,6.24c-8.57,5.05-14.43,12.84-18.59,19.07
		c-5.91,8.84-12.24,19.55-15.21,31.08c-1.51-2.54-3.18-5-5.11-7.32c-7.54-9.04-17.74-14.82-26.96-19.83
		c-1.04-2.22-2.23-4.73-4.29-7.19c-3.71-4.42-8.76-8.59-14.21-11.74c-12.31-7.07-25.06-11.83-37.93-14.14
		c-4.41-0.79-9.21-1.18-14.28-1.18c-6.67,0-13.96,0.67-22.27,2.05c-4.46,0.74-9.44,2.09-12.61,6.54c-1.57,2.2-1.89,4.79-1.77,7.27
		c-13.47,2.42-26.11,6.63-37.65,12.52C57.23,66.75,40.77,76.05,31.7,90.22c-1.03-0.35-2.12-0.54-3.25-0.54
		c-4.12,0-8.48,2.48-11.38,6.48c-4.44,6.12-3.33,13.37,2.95,20.38C19.63,117.26,19.31,118.05,19.08,118.87z"/>
	<g>
		<g>
			<g>
				<path class="st12" d="M293.77,119.58c-4.89-15.11-9.72-28.94-6.43-45.01c3.03-14.85,11.57-27.57,23.86-36.22
					c1.33-0.94,0.71-3.54-1.06-2.63c-7.99,4.07-16.76,5.81-24.56,10.41c-7.14,4.21-12.48,10.79-17.02,17.58
					c-9.08,13.59-18.04,29.93-15.75,46.57c-3.49-7.76-6.87-15.83-12.33-22.39c-7.24-8.68-17.14-14.12-26.94-19.43
					c-1.25-2.58-2.26-5.15-4.29-7.58c-3.5-4.16-8.22-7.94-12.91-10.65c-11.36-6.53-23.45-11.25-36.36-13.57
					c-11.37-2.03-23.59-1-34.91,0.88c-3.55,0.59-7.3,1.54-9.45,4.56c-1.47,2.06-0.8,5.62-0.3,8.48
					c-14.16,2.09-27.91,6.2-40.86,12.81c-15.07,7.71-33.67,18-41.22,34.08c-3.09-5.15-9.06-2.81-12.22,1.54
					c-4.64,6.39,1.06,13.33,5.95,17.49c-3.37,1.35-4.51,5.89-2.27,8.87c1.32,1.75,3.39,2.93,5.68,3.75
					c7.27,8.37,12.64,16.88,22.36,23.14c9.68,6.21,20.73,10.52,31.41,14.64c5.77,2.23,11.67,4.33,17.67,6.21
					c0.07,0.12,0.19,0.15,0.33,0.1c0.09,0.04,0.2,0.07,0.29,0.1c-0.16,3.31,6.07,9.87,7.72,12.26c1.87,2.71,4.17,4.84,7,6.48
					c6.09,3.53,18.05,1.38,24.29-0.47c1.01-0.3,9.65-2.06,7.77-5.15c-1.01-1.69-2.53-2.32-4.29-3.12c-1.96-0.87-3.94-1.7-5.93-2.5
					c4.21,0.33,8.44,0.44,12.66,0.29c20.92-0.71,43.54-6.49,61.68-17.09c8.83-5.17,16.91-11.26,24.36-18.26
					c4.44-4.18,8.06-9.08,11.81-13.87c1.4-1.78,2.75-3.46,3.94-5.23c0.54,9,9.1,18.37,14.18,24.47
					c5.45,6.56,10.57,11.73,12.81,20.22c2.01,7.65,3.24,16.27-0.1,23.71c-0.52,1.15,0.75,1.88,1.58,0.99
					c2.61-2.83,4.87-5.91,6.7-9.24C302.98,167.33,300.9,141.56,293.77,119.58z"/>
				<path class="st13" d="M125.03,38.96c4.41-0.94,9.1-1.02,13.58-1.39c11.12-0.9,21.72,0.55,32.35,3.82
					c9.77,3.03,19.45,7.65,27.81,13.52c4.45,3.12,8.2,7.02,11.61,11.22c0.26,0.32,0.48,0.66,0.7,1
					c-22.21-11.71-45.82-18.07-71.02-18.24c-4.5-0.04-8.99,0.12-13.45,0.45c-0.04-0.04-0.08-0.07-0.13-0.12
					c-0.37-0.26-0.62-0.65-0.86-1.03c-0.43-0.7-0.71-1.48-0.96-2.24c-0.1-0.35-0.57-0.09-0.51,0.22c0.18,0.94,0.43,1.87,0.82,2.73
					c0.07,0.17,0.17,0.37,0.29,0.56c-0.77,0.06-1.55,0.12-2.33,0.2c-1.08-1.53-2.5-3.04-2.06-5.04c0.06-0.22-0.26-0.22-0.3-0.03
					c-0.52,1.71,0.33,3.6,1.31,5.16c-1.8,0.2-3.6,0.4-5.4,0.65c-0.08-0.99-0.17-1.98-0.28-2.98
					C115.71,42.61,120.84,39.84,125.03,38.96z"/>
				<path class="st14" d="M116.3,45.59c-0.13,0.57-0.17,1.18-0.11,1.84c0.1,1,0.2,1.99,0.28,2.98c1.8-0.24,3.6-0.45,5.4-0.65
					c-0.24-0.39-0.48-0.79-0.69-1.22C118.64,48.61,117.07,47.42,116.3,45.59z"/>
				<path class="st14" d="M202.88,58.18c-2.08-0.63-4.14-1.26-6.21-1.88c-12.31-3.72-24.86-6.8-37.64-8.57
					c-11.33-1.56-22.48-2.15-33.62,0.06c0.07,0.13,0.12,0.28,0.2,0.4c0.24,0.38,0.49,0.77,0.86,1.03c0.05,0.05,0.09,0.09,0.13,0.12
					c4.46-0.33,8.95-0.49,13.45-0.45c25.2,0.17,48.81,6.53,71.02,18.24c-0.22-0.34-0.43-0.68-0.7-1
					C208.08,63.29,205.61,60.59,202.88,58.18z"/>
				<path class="st13" d="M82.95,163.85c-10.46-4-20.84-8.94-30.33-14.88c-8.19-5.12-14.02-12.52-20.59-19.35
					c2.26,0.62,4.59,0.91,6.53,1.08c0.62,0.05,1.08-0.84,0.48-1.2c-2.59-1.5-5.52-1.94-8.32-2.94c-1.67-0.6-3.21-1.38-4.5-2.6
					c-2.22-2.11-1.24-5.71,1.42-6.9c7.23,5.85,17.7,8.72,26.88,8.38c2.33-0.08,8.83-0.38,11.32-2.32c0.42,0.62,0.88,1.22,1.35,1.77
					c2.49,2.83,8.62,7.06,12.17,3.93c0.33-0.29,0.59-0.68,0.48-1.15c-0.45-1.78-1.76-2.37-3.39-2.95c-2.58-0.92-4.67-2.54-6.8-4.21
					c-1.9-1.5-3.19-3.06-3.8-5.41c-0.13-0.51-0.05-1.35-0.71-1.45c-0.13-0.02-0.26,0.08-0.32,0.2l-0.17,0.27
					c-0.12,0.19,0.1,0.33,0.26,0.23c-0.52,0.31-0.64,3.4-0.63,4.08c0,0.27,0.02,0.54,0.06,0.8c-0.05,0.14-0.07,0.27-0.03,0.39
					c0.04,0.16,0.13,0.3,0.19,0.46c0.08,0.38,0.21,0.76,0.37,1.13c-0.87,1.17-5.12,1.6-5.19,1.62c-2.73,0.3-5.5,0.19-8.24,0.01
					c-5.25-0.36-10.31-1.7-15.16-3.69c-5.11-2.11-9.59-5.57-13.03-9.86c-5.58-6.95,3.33-18.38,9.5-10.69
					c-0.38,0.9-0.75,1.82-1.06,2.75c-0.2,0.62,0.71,0.76,0.92,0.24c7.42-18.28,29.61-29.25,46.61-36.96
					c10.91-4.94,22.45-7.97,34.23-9.61c-5.58,5.6-9.81,14.18-12.73,20.88c-4.64,10.69-7.63,22.24-9.31,33.76
					c-1.84,12.6-2.36,24.76-0.23,37.36c1.55,9.21,4.73,16.51,10.42,23.33C95.2,168.39,88.97,166.15,82.95,163.85z"/>
				<path class="st14" d="M82.95,72.81c-5.59-0.95-11.41,5.63-12.99,14.7c-1.58,9.07,1.65,17.2,7.23,18.15
					c5.59,0.96,11.41-5.62,13-14.7C91.78,81.91,88.54,73.78,82.95,72.81z"/>
				<path class="st14" d="M91.13,147.05c-2.13-12.59-1.62-24.75,0.23-37.36c1.62-11.15,4.49-22.32,8.88-32.71
					c-2.99,4.68-5.56,9.59-7.25,14.95c-1.76,5.62-2.81,11.36-3.82,17.14c-0.61,3.49-0.87,7.33-2.79,10.4
					c-2.51,4-8.8,2.49-12.37,1.23c-4.42-1.56-7.59-4.1-8.14-8.37c-1.81,1.76-2.75,3.44-3.54,6.2c-0.27,0.93-0.39,1.29-0.89,2.08
					c-0.99,1.56-4.27,1.3-5.75,1.12c-7.61-0.94-16.75-2.68-23-7.46c-4.78-3.64-9.38-9.14-7.54-15.46c0.2-0.7,0.6-1.59,1.11-2.37
					c-4.06,1.63-6.78,8.25-3.06,12.88c3.44,4.29,7.92,7.75,13.03,9.86c4.86,2,9.92,3.33,15.16,3.69c2.74,0.18,5.51,0.29,8.24-0.01
					c0.07-0.02,4.32-0.46,5.19-1.62c-0.15-0.37-0.28-0.74-0.37-1.13c-0.06-0.15-0.15-0.29-0.19-0.46c-0.04-0.12-0.02-0.25,0.03-0.39
					c-0.04-0.26-0.06-0.53-0.06-0.8c-0.01-0.68,0.11-3.77,0.63-4.08c-0.16,0.1-0.38-0.04-0.26-0.23l0.17-0.27
					c0.07-0.12,0.19-0.22,0.32-0.2c0.66,0.1,0.58,0.93,0.71,1.45c0.61,2.34,1.9,3.91,3.8,5.41c2.12,1.66,4.22,3.29,6.8,4.21
					c1.63,0.57,2.94,1.17,3.39,2.95c0.11,0.46-0.15,0.86-0.48,1.15c-3.55,3.12-9.67-1.1-12.17-3.93c-0.47-0.55-0.94-1.15-1.35-1.77
					c-2.49,1.93-8.99,2.24-11.32,2.32c-9.18,0.34-19.64-2.53-26.88-8.38c-2.66,1.19-3.64,4.79-1.42,6.9c1.29,1.22,2.84,2,4.5,2.6
					c2.8,1,5.73,1.44,8.32,2.94c0.6,0.36,0.15,1.24-0.48,1.2c-1.94-0.17-4.27-0.46-6.53-1.08c6.58,6.84,12.41,14.24,20.59,19.35
					c9.49,5.94,19.87,10.88,30.33,14.88c6.01,2.3,12.24,4.53,18.6,6.53C95.86,163.55,92.68,156.25,91.13,147.05z"/>
				<path class="st13" d="M115.71,130.67c-3.85-1.55-7.43-3.56-11.11-5.46c-2.65-1.36-5.48-2.35-8.19-3.57
					c3.41-0.15,6.72-1.12,10.16-1.77c6.69-1.25,13.64-1.1,20.4-0.57c0.12,0.01,0.2-0.18,0.05-0.21c-4.5-0.79-9.01-1.3-13.59-1.09
					c-6.56,0.28-12.92,2.38-19.44,2.44c-0.16-0.1-0.32-0.18-0.48-0.26c0.02-0.29,0.04-0.57,0.05-0.85
					c10.03-5.38,22.5-9.29,33.63-10.72c0.12-0.03,0.14-0.21,0-0.2c-5.86,0.38-11.52,1.61-17.1,3.38
					c-5.42,1.73-11.67,3.49-16.48,6.72c0.04-0.55,0.05-1.12,0.1-1.68c8.01-5.76,15.76-10.72,25.77-12.6
					c8.5-1.61,19.78,0.15,26.34,6.02c6.38,5.7,4.06,15.12-1.77,20.12c-4.89,4.21-11.95,5.31-18.14,5.47
					c-10.13,0.28-24.81-4.61-32.6-12.29c0.02-0.66,0.08-1.33,0.12-2c0.17,0.02,0.33,0.02,0.5,0.04c2.57,1.74,5.46,2.88,8.22,4.37
					c4.25,2.3,8.61,4.17,13.31,5.31C115.77,131.35,116.03,130.81,115.71,130.67z"/>
				<path class="st15" d="M148.58,113.9c0.24,1.8-0.06,3.72-1.13,5.78c-4.76,9.2-16.45,11.83-25.5,7.19c-0.79-0.41-0.87-1.68,0.06-2
					c4.78-1.56,9.89-0.86,14.63-2.38c-4.09-7.12-18.98-4.36-25.63-7.08c-0.86-0.35-0.8-1.67,0.07-1.98
					c5.78-2.08,11.6-3.38,17.51-3.82c-2.21-0.19-4.42-0.23-6.62-0.15c-9.69,1.84-19.9,5.32-28.39,9.87
					c-0.01,0.29-0.03,0.57-0.05,0.85c0.16,0.09,0.32,0.17,0.48,0.26c6.52-0.05,12.88-2.16,19.44-2.44c4.58-0.21,9.09,0.3,13.59,1.09
					c0.14,0.02,0.06,0.21-0.05,0.21c-6.76-0.52-13.71-0.68-20.4,0.57c-3.45,0.65-6.75,1.62-10.16,1.77
					c2.71,1.22,5.54,2.21,8.19,3.57c3.68,1.9,7.26,3.9,11.11,5.46c0.32,0.13,0.06,0.68-0.24,0.6c-4.71-1.15-9.06-3.01-13.31-5.31
					c-2.75-1.49-5.64-2.64-8.22-4.37c-0.17-0.02-0.33-0.02-0.5-0.04c-0.04,0.67-0.1,1.34-0.12,2c7.79,7.68,22.48,12.57,32.6,12.29
					c6.19-0.16,13.25-1.26,18.14-5.47C148.77,126.33,151.17,119.41,148.58,113.9z"/>
				<path class="st13" d="M144.3,184.43c2.23,1.07,1.47,4.11-0.83,4.55c-3.08,0.6-6.07,1.24-9.2,1.6
					c-7.13,0.83-14.5,1.39-20.09-3.84c-3.5-3.26-6.68-7.7-9.68-11.75c1.78,1.15,3.62,2.21,5.34,3.45c2.27,1.62,4.22,3.62,6.53,5.21
					c0.28,0.19,0.68-0.24,0.42-0.48c-1.68-1.51-3.36-3.48-5.2-5.26c2.07,1.11,4.15,2.23,5.94,3.75c0.29,0.24,0.73-0.25,0.46-0.53
					c-1.98-1.98-4.17-3.61-6.55-5.06c-0.14-0.08-0.29-0.18-0.43-0.27c7.6,2.04,15.31,3.64,23.07,4.53
					C137.56,181.52,140.98,182.83,144.3,184.43z"/>
				<path class="st14" d="M144.3,184.43c2.23,1.07,1.47,4.11-0.83,4.55c-3.08,0.6-6.07,1.24-9.2,1.6
					c-7.13,0.83-14.5,1.39-20.09-3.84c-3.5-3.26-6.68-7.7-9.68-11.75c1.78,1.15,3.62,2.21,5.34,3.45c2.27,1.62,4.22,3.62,6.53,5.21
					c0.28,0.19,0.68-0.24,0.42-0.48c-1.68-1.51-3.36-3.48-5.2-5.26c2.07,1.11,4.15,2.23,5.94,3.75c0.29,0.24,0.73-0.25,0.46-0.53
					c-1.98-1.98-4.17-3.61-6.55-5.06c-0.14-0.08-0.29-0.18-0.43-0.27c7.6,2.04,15.31,3.64,23.07,4.53
					C137.56,181.52,140.98,182.83,144.3,184.43z"/>
				<path class="st13" d="M291.33,177.89c-1.09,2.45-2.29,4.87-3.66,7.21c-0.9,1.44-1.88,2.82-2.94,4.14
					c-0.2,0.24-0.25,0.47-0.21,0.69c-0.05,0.07-0.1,0.12-0.13,0.19c2.65-8.71,2.25-19.23-1.35-27.08c-0.94-2.08-2.1-3.94-3.38-5.71
					c-3.75-4.03-8.67-7.31-12.77-10.7c-7.99-6.6-13.65-15.9-12.79-26.49c-0.06,0.1-0.13,0.2-0.17,0.3
					c-3.32,9.76-13.61,19.35-21.1,26.13c-7.35,6.66-15.62,12.21-24.39,16.78c-18.4,9.62-40.33,14.43-61.02,14.8
					c-14.34,0.28-29.05-2.71-43.18-6.95c-5.88-7.84-8.6-15.55-9.98-25.47c-0.97-6.96-1.21-13.78-0.99-20.63
					c8.51,8.74,23.36,12.47,34.81,12c9.59-0.39,24.28-7.03,22.67-18.87c-1.65-12.15-12.39-18.29-23.85-19.02
					c-12.5-0.77-24.17,6.08-32.9,14.69c0.07-0.76,0.14-1.52,0.22-2.28c1.17-11.23,3.54-22.35,7.17-33.04
					c2.72-7.99,9.14-17.78,13.12-23.69c9.69-1.28,19.54-1.63,29.32-1.32c23.67,0.76,45.79,8.08,66.61,19.06
					c9.17,4.84,18.2,10.08,25.51,17.54c6.73,6.85,12.11,14.73,17,22.93c0.11,0.18,0.28,0.23,0.43,0.18c0.15,0.65,0.3,1.27,0.49,1.91
					c0.18,0.28,0.38,0.54,0.56,0.82c-0.06-1.03-0.07-2.05-0.07-3.07c0.09,0.01,0.2-0.04,0.22-0.15
					c3.25-14.99,7.86-31.52,21.15-40.75c0.11-0.09,0.02-0.26-0.1-0.17c-13.45,8.53-19.76,23.76-21.22,39.05
					c0.02-0.69,0.04-1.38,0.08-2.07c-1.11-15.48,6.39-30.74,14.57-43.71c4.5-7.15,10.82-12.04,17.93-16.65
					c4.73-3.09,10.1-4.71,15.4-6.53c-16.14,15.2-22.13,34.75-17.71,57.05c2.85,14.34,10.04,30.45,12.58,44.95
					c1.92,10.93-1.34,23.08-5.76,33.71C291.43,177.74,291.37,177.8,291.33,177.89z"/>
				<path class="st16" d="M292.03,138.05c-2.5-9.54-8.52-17.84-10.77-27.54c0-0.05,0-0.1,0-0.16c0.23-4.81-2.38-6.19-5.98-6.38
					c1.82-2.49,3.33-5,3.96-8.22c0.23-1.17-0.82-2.08-1.92-2.03c-2.37,0.12-4.61,0.56-6.81,1.17c4.33-4.92,9.88-9.26,11.64-15.54
					c0.08-0.29,0-0.54-0.16-0.76c0.23-0.74-0.28-1.71-1.18-1.52c-6.78,1.42-12.16,5.81-16.24,11.45c0.72-1.5,1.45-2.98,2.23-4.45
					c5.89-11.1,13.92-18.74,22.96-27.15c1.07-0.99,0.24-3.19-1.33-2.45c-10.25,4.79-17.74,15.24-23.24,24.75
					c-6.21,10.72-9.47,23.06-10.56,35.32c-0.05,0.54,0.72,0.67,0.84,0.13c0.12-0.56,0.27-1.11,0.4-1.67
					c0.12-0.03,0.23-0.11,0.28-0.26c4.32-12.47,11.25-22.3,21.13-30.32c-4.2,4.97-9.29,9.19-12.81,14.73
					c-0.92,1.42,0.2,3.34,1.98,2.73c2.89-1,5.69-1.92,8.65-2.39c-1.06,2.67-2.88,4.82-4.64,7.21c-1.06,1.44,0.31,3.1,1.93,2.66
					c5.32-1.41,6.61,0.52,6.5,5.08c-0.05,1.87,0.13,3.5,0.59,5.2c1.01,5.21,3.92,10.26,6.06,14.95c4.2,9.18,5.49,17.54,2.85,27.4
					c-0.13,0.54,0.72,0.79,0.94,0.29C292.45,153.02,294.06,145.8,292.03,138.05z"/>
				<path class="st16" d="M37.52,98.69c0,0,18.46-31.05,74.55-41.93c56.09-10.88,115.39,27.77,122.35,32.97
					c6.96,5.19,16.52,25.15,16.52,25.15s-14.49-24.2-71.09-35.26C123.26,68.57,65.37,73.23,37.52,98.69z"/>
				<path class="st14" d="M126.89,99.22c8.49,0.54,16.57,4.06,20.87,10.77c-2.29-6.54-9.99-11.66-16.73-12.5
					c-9.78-1.22-21.38-0.91-29.43,5.5c-0.67,0.54-1.57,0-1.7-0.76c-1.15-6.93-0.76-14.41,0.82-21.58
					c-3.25,10.05-5.42,20.46-6.51,30.97c-0.08,0.76-0.15,1.52-0.22,2.28C102.71,105.3,114.39,98.45,126.89,99.22z"/>
				<path class="st14" d="M296.87,142c-3.39-2.86-7.2-4.97-10.96-5.93c-12.64-3.23-25.27-4.54-31.54-17.28
					c-16.3,11.11-37.02,12.5-56,15.33c-20.24,3.01-40.53,3.18-60.75,0.93c-3.26,1.24-6.64,1.94-9.56,2.06
					c-11.45,0.47-26.3-3.26-34.81-12c-0.22,6.85,0.02,13.67,0.99,20.63c1.38,9.92,4.1,17.63,9.98,25.47
					c14.13,4.25,28.84,7.23,43.18,6.95c20.69-0.37,42.62-5.18,61.02-14.8c8.77-4.57,17.04-10.11,24.39-16.78
					c7.5-6.78,17.79-16.37,21.1-26.13c0.04-0.11,0.11-0.21,0.17-0.3c-0.87,10.58,4.79,19.89,12.79,26.49
					c4.1,3.39,9.03,6.67,12.77,10.7c1.28,1.77,2.44,3.62,3.38,5.71c3.6,7.86,4,18.37,1.35,27.08c0.04-0.07,0.09-0.12,0.13-0.19
					c-0.04-0.21,0.01-0.45,0.21-0.69c1.06-1.32,2.04-2.7,2.94-4.14c1.37-2.34,2.58-4.76,3.66-7.21c0.04-0.09,0.1-0.15,0.16-0.2
					c4.42-10.63,7.67-22.78,5.76-33.71C297.14,143.32,297,142.66,296.87,142z"/>
				<path class="st17" d="M49.57,132.18c0,0,87.41,59.76,196.83-4.61c0,0-34.17,43.16-93.69,46.31
					C93.18,177.03,54.71,150.49,49.57,132.18z"/>
				<path class="st12" d="M279.24,87.86c-4.29-0.08-8.2,4.12-10.88,7.04c-4.26,4.64-9.88,10.97-10.98,17.37
					c-0.06,0.42,0.48,0.52,0.62,0.16c2.06-4.89,6.24-9.44,9.31-13.71c2.71-3.78,6.71-10.15,11.88-10.52
					C279.35,88.18,279.43,87.86,279.24,87.86z"/>
				<path class="st12" d="M270.31,104.81c-2.71,0.45-4.84,2.09-6.87,3.86c-2.37,2.05-5.71,4.13-6.93,7.13c0,0.01,0.01,0.02,0,0.02
					c-0.07,0.13-0.13,0.29-0.13,0.47c-0.01,0.13,0.05,0.24,0.17,0.29c0.24,0.1,0.46,0.07,0.71-0.03c0.61-0.21,1.22-0.32,1.85-0.39
					c0.55-0.06,1.1-0.1,1.65-0.2c0.85-0.16,1.46-0.74,2.4-0.57c0.11,0.02,0.26-0.18,0.13-0.27c-0.48-0.36-0.85-0.37-1.44-0.29
					c-0.9,0.13-1.67,0.29-2.59,0.29c-0.33,0-0.83,0-1.33,0.05c1.65-1.66,3.37-3.23,5-4.9c2.12-2.16,4.32-4.39,7.37-5.11
					C270.49,105.11,270.55,104.76,270.31,104.81z"/>
				<path class="st12" d="M280.29,150.86c-4.34-3.72-8.77-7.4-13.29-10.89c-4.61-3.58-9.15-10.85-9.76-16.87
					c-0.01-0.13-0.18-0.09-0.2,0.03c-0.16,5.13,2.84,11.59,6.04,15.48c4.18,5.08,10.76,10.19,16.74,12.91
					C280.17,151.69,280.59,151.13,280.29,150.86z"/>
				<path class="st12" d="M269,126.23c-3.98-2.73-8.32-4.78-12.02-7.96c-0.33-0.29-0.9,0.25-0.66,0.6c2.82,4.08,8,5.94,12.47,7.68
					C268.96,126.6,269.16,126.35,269,126.23z"/>
			</g>
			<path class="st12" d="M144.05,68.84c-3.22-3.76-9.63-0.96-13.38,0.01c-0.58,0.15-0.79,1.11-0.03,1.06
				c3.27-0.22,6.68-1.11,9.89-0.07c3.62,1.16,3.28,5.92,2.54,8.67c-1.68,6.34-8.35,10.71-14.67,11.52c1.37-4.67,0.56-9.2-4.7-10.38
				c4.04-2.58,7.33-6.47,6.03-11.55c-1.77-6.95-10.76-4.51-14.72-1.72c-0.16,0.11-0.08,0.45,0.13,0.33
				c3.48-1.89,7.1-3.03,10.99-0.49c7.44,4.88-1.68,11.68-4.91,13.21c-0.62,0.29-0.9,1.33-0.04,1.51c9.75,1.96,3.39,12.65-1.04,16.69
				c-3.87,3.53-9.31,4.53-14.34,4.78c-0.43,0.02-0.62,0.76-0.13,0.84c7.69,1.15,17.11-1.94,21.03-9.19
				c0.51-0.95,0.96-1.94,1.32-2.92c7.5,0.95,15.25-5.63,17.63-12.35C146.92,75.29,146.46,71.64,144.05,68.84z"/>
			<path class="st12" d="M191.92,83.62c-0.06,0-0.1,0.03-0.15,0.03c0.06-0.55,0.09-1.12,0.07-1.69c-0.26-7.8-6.66-7.16-12.29-5.78
				c-0.49,0.12-0.66,0.99-0.02,0.9c5.73-0.78,10.87,0.96,9.49,8.25c-0.9,4.75-5.42,8.77-9.35,11.27c-0.28-5.47-4.72-9.06-10.52-8.78
				c-0.4,0.01-0.6,0.76-0.12,0.81c5.52,0.55,8.62,4.84,7.53,10.32c-0.93,4.59-6.25,6.83-10.07,8.41c-0.58,0.25-0.61,1.16,0.12,1.13
				c5.71-0.2,12.04-3.39,12.96-9.62c0.03-0.23,0.04-0.45,0.06-0.66c6.73,2.38,4.65,9.55-0.1,13.31c-3.46,2.73-7.93,3.62-12.18,4.04
				c-0.52,0.05-1.01,1.06-0.35,1.26c7.14,2.25,17.18-4.13,19.53-10.5c6.8-0.11,12.66-5.02,14.92-11.39
				C203.95,87.89,198.56,83.22,191.92,83.62z M197.8,96.47c-1.97,4.87-6.11,8.02-11.03,9.09c0.88-3.26-0.37-6.42-5.18-8.33
				c0.98-0.53,1.92-1.12,2.81-1.8c1.67-1.17,3.03-2.73,4.32-4.29c1.46-1.78,2.4-3.78,2.84-5.94c0.04,0.01,0.07,0.03,0.12,0.03
				C198.09,85.86,200.1,90.78,197.8,96.47z"/>
			<path class="st12" d="M175.76,141.28c-0.05,0-0.1,0.03-0.14,0.04c0.05-0.56,0.08-1.12,0.06-1.69c-0.26-7.81-6.66-7.15-12.29-5.78
				c-0.5,0.11-0.67,0.99-0.03,0.9c5.73-0.76,10.88,0.96,9.49,8.26c-0.9,4.75-5.43,8.75-9.35,11.27c-0.27-5.2-4.32-8.72-9.7-8.79
				c1.28-1.69,2.17-3.69,2.51-5.94c0.41-2.73-0.16-6.03-2.21-8.02c-1.09-1.07-3.25-3.14-4.86-3.28c-0.2-0.02-0.41,0.33-0.16,0.42
				c0.05,0.01,0.12,0.02,0.18,0.05c0.09,0.02,0.19-0.07,0.17-0.16c0.1,0.46,0.8,1.26,1.63,2.06c1.9,1.85,2.86,4.01,2.87,6.67
				c0.01,7.59-6.47,10.92-12.9,12.6c-0.46,0.12-0.85,0.99-0.16,1.06c4.69,0.49,9.27-1.31,12.23-4.62c5.38,0.65,8.39,4.91,7.31,10.3
				c-0.92,4.58-6.25,6.84-10.07,8.41c-0.58,0.24-0.61,1.17,0.12,1.14c5.72-0.2,12.05-3.4,12.96-9.63c0.03-0.23,0.04-0.44,0.06-0.67
				c6.73,2.39,4.65,9.55-0.1,13.3c-3.46,2.75-7.93,3.64-12.18,4.04c-0.52,0.04-1.01,1.05-0.35,1.26
				c7.14,2.25,17.18-4.12,19.53-10.49c6.8-0.11,12.66-5.03,14.93-11.4C187.78,145.56,182.4,140.88,175.76,141.28z M181.64,154.13
				c-1.97,4.89-6.11,8.03-11.04,9.1c0.87-3.25-0.37-6.42-5.18-8.33c0.98-0.53,1.92-1.13,2.81-1.81c1.67-1.16,3.03-2.73,4.31-4.28
				c1.46-1.78,2.41-3.79,2.85-5.95c0.04,0.01,0.07,0.04,0.12,0.04C181.93,143.53,183.93,148.45,181.64,154.13z"/>
			<path class="st0" d="M99.58,62.12c-9.49,0.35-19.43,5.42-27.67,9.76c-8.57,4.52-16.72,10.28-24.01,16.63
				c-0.42,0.37,0.05,1.05,0.52,0.71C56.28,83.7,64.3,78.8,72.96,74.61c8.86-4.27,18.23-6.27,27.28-9.8
				C101.77,64.21,101.13,62.06,99.58,62.12z"/>
			<path class="st0" d="M208.47,77.94c-11.68-8.27-24.94-12.88-38.77-16.15c-14.44-3.43-30.53-5.49-45.16-2.09
				c-0.82,0.18-0.73,1.43,0.14,1.32c14.3-1.87,28.78,0.34,42.72,3.54c13.75,3.16,27.94,7.84,40.59,14.14
				C208.45,78.93,208.89,78.23,208.47,77.94z"/>
			<path class="st0" d="M230.7,140.84c-7.18,4.88-14.67,9.41-22.23,13.65c-8.86,4.96-18.24,8.41-27.46,12.57
				c-0.54,0.26-0.38,1.19,0.25,1.07c18.2-3.41,35.88-15.13,49.62-27.04C231.04,140.96,230.87,140.73,230.7,140.84z"/>
			<path class="st0" d="M144.5,172.48c-9.74-0.99-19.37-2.24-29.05-3.78c-0.49-0.08-0.57,0.62-0.12,0.75
				c9.48,2.73,19.26,4.45,29.15,3.77C144.9,173.2,144.92,172.53,144.5,172.48z"/>
			<path class="st0" d="M287.63,52.63c-14.54,6.95-24.53,23.06-29.73,37.74c-0.07,0.19,0.18,0.31,0.28,0.13
				c7.75-14.75,17.91-25.69,29.95-36.95C288.54,53.17,288.22,52.33,287.63,52.63z"/>
			<path class="st0" d="M145.7,116.54c-5.89-18.32-33.14-10.13-45.03-3.78c-0.29,0.16-0.14,0.58,0.18,0.48
				c13.61-3.93,33.99-10.32,43.75,3.88C145.02,117.74,145.91,117.19,145.7,116.54z"/>
			<path class="st0" d="M124.28,84.67c-0.7-2.71-3.65-3.7-6.1-3.94c-0.58-0.05-0.68,0.71-0.15,0.87c1.98,0.58,3.44,2.06,3.9,4.08
				c0.43,1.85-0.58,3.71-1.38,5.31c-0.41,0.82,0.72,1.86,1.46,1.18C124.18,90.18,125.01,87.52,124.28,84.67z"/>
			<path class="st0" d="M141.15,71.79c-0.28-0.37-0.95-0.04-0.74,0.4c2.74,5.6-1.63,9.31-6.04,11.79c-0.57,0.32-0.13,1.15,0.43,1.1
				c3.19-0.2,5.91-2.28,7.49-4.98C143.98,77.23,143,74.24,141.15,71.79z"/>
			<path class="st0" d="M123.97,66.97c-0.59-0.21-0.94,0.55-0.4,0.87c1.2,0.72,2.13,1.6,2.59,2.94c0.45,1.33-0.2,2.95-0.63,4.18
				c-0.28,0.79,0.8,1.63,1.33,0.84C129.13,72.33,127.98,68.31,123.97,66.97z"/>
			<path class="st0" d="M181.92,78.5c-0.56-0.05-0.88,0.75-0.31,0.99c6.08,2.51,2.83,7.88-0.16,11.6c-0.51,0.63,0.28,1.41,0.94,1
				C187.35,89.03,189.87,79.19,181.92,78.5z"/>
			<path class="st0" d="M172.49,90.39c-0.5-0.49-1.28,0.28-0.87,0.82c2.82,3.76,2.41,7.61-0.19,11.33
				c-0.46,0.65,0.34,1.68,1.02,1.09C176.63,99.97,176.31,94.15,172.49,90.39z"/>
			<path class="st0" d="M161.97,77.86c-0.48-0.43-1.05,0.32-0.62,0.76c2.05,2.08,3.11,4.57,2.68,7.5c-0.43,2.95-2.82,4.69-5.07,6.25
				c-0.56,0.39-0.07,1.22,0.54,1.01C166.52,91.05,166.97,82.35,161.97,77.86z"/>
			<path class="st0" d="M191.55,87.29c-0.43-0.24-0.88,0.36-0.59,0.73c2.08,2.65,3.18,4.95,1.56,8.17
				c-1.17,2.35-3.48,4.04-5.34,5.82c-0.49,0.48,0.18,1.37,0.77,1.08C193.88,100.25,198.97,91.61,191.55,87.29z"/>
			<path class="st0" d="M180.92,101.69c-0.24-0.37-0.78-0.04-0.66,0.35c2.01,6.43-4.98,9.63-9.52,12.26
				c-0.98,0.56-0.09,2.03,0.91,1.67C177.11,114,185.28,108.22,180.92,101.69z"/>
			<path class="st0" d="M202.93,99.31c-0.63-0.53-1.36,0.29-0.99,0.93c3.23,5.58-3.07,9.71-6.95,12.67
				c-0.88,0.66-0.13,2.15,0.92,1.7C200.88,112.55,208.95,104.39,202.93,99.31z"/>
			<path class="st0" d="M215.25,96.29c-0.26-0.42-0.94-0.04-0.76,0.42c1.6,3.78-0.7,5.73-3.13,8.28c-0.46,0.49,0.16,1.41,0.79,1.09
				C215.95,104.08,217.54,100.04,215.25,96.29z"/>
			<path class="st0" d="M223.98,106.11c-0.29-0.47-0.98-0.03-0.83,0.46c0.49,1.49,0.6,2.92,0.05,4.42c-0.57,1.51-2.01,2.43-3.14,3.5
				c-0.55,0.52,0.2,1.48,0.85,1.17C224.77,113.89,226.07,109.71,223.98,106.11z"/>
			<path class="st0" d="M148.81,87.57c-0.79-0.4-1.53,0.78-0.82,1.31c4.81,3.64,4.17,9.39,0.32,13.46
				c-0.92,0.96,0.54,2.46,1.57,1.67C155.29,99.86,155.1,90.72,148.81,87.57z"/>
			<path class="st0" d="M236.43,104.94c-0.68-0.6-1.81,0.42-1.19,1.11c2,2.2,1.75,4.52-0.02,6.77c-0.61,0.77,0.38,1.9,1.18,1.28
				C239.64,111.59,239.38,107.57,236.43,104.94z"/>
			<path class="st0" d="M44.34,116.26c-9.83-1.43-16.69-7.83-16.61-18.04c0.01-0.54-0.82-0.51-0.92-0.02
				c-2.12,10.88,7.37,18.4,17.4,18.82C44.71,117.04,44.85,116.33,44.34,116.26z"/>
			<path class="st0" d="M73.29,116.21c-1.56-0.7-3.06-1.7-3.79-3.29c-0.29-0.63-1.42-0.46-1.25,0.29c0.55,2.38,2.26,3.87,4.59,4.48
				C73.71,117.93,74.07,116.57,73.29,116.21z"/>
			<path class="st0" d="M189.84,51.3c-20.15-10.99-45.39-17.71-67.68-8.75c-0.77,0.3-0.32,1.41,0.46,1.18
				c22.16-6.44,45.97,0.3,66.97,8.1C189.95,51.96,190.17,51.48,189.84,51.3z"/>
			<path class="st0" d="M130.97,187.58c-5.04-0.01-9.64-0.45-14.3-2.51c-0.56-0.26-0.92,0.56-0.39,0.85
				c4.46,2.48,9.88,4.2,14.96,2.79C131.94,188.52,131.58,187.58,130.97,187.58z"/>
		</g>
		<g>
			<g>
				<path class="st12" d="M81.64,74.79c-3.91-0.68-8.17,5.11-9.53,12.92c-1.34,7.83,0.73,14.71,4.64,15.38
					c3.9,0.68,8.17-5.11,9.52-12.93C87.61,82.35,85.54,75.46,81.64,74.79z"/>
				<path class="st0" d="M77.3,100.7c-3.34-0.57-5.1-6.44-3.95-13.12c1.15-6.67,4.79-11.61,8.13-11.03
					c3.33,0.58,5.1,6.45,3.95,13.12C84.28,96.34,80.63,101.28,77.3,100.7z"/>
			</g>
			<path class="st12" d="M81.53,79.48c-2.73-0.48-5.7,3.57-6.64,9.01c-0.94,5.46,0.5,10.25,3.22,10.72
				c2.73,0.47,5.71-3.57,6.65-9.01C85.7,84.74,84.25,79.95,81.53,79.48z M84,87.22c-0.3,1.72-1.24,3.01-2.1,2.86
				c-0.87-0.15-1.32-1.67-1.02-3.4c0.3-1.72,1.24-3,2.1-2.85C83.84,83.97,84.3,85.49,84,87.22z"/>
		</g>
	</g>
</g>
</svg>
