<?xml version="1.0" encoding="utf-8"?>
<!-- Generator: Adobe Illustrator 27.6.1, SVG Export Plug-In . SVG Version: 6.00 Build 0)  -->
<svg version="1.1" id="Layer_1" xmlns="http://www.w3.org/2000/svg" xmlns:xlink="http://www.w3.org/1999/xlink" x="0px" y="0px"
	 viewBox="0 0 405.34 239.12" style="enable-background:new 0 0 405.34 239.12;" xml:space="preserve">
<style type="text/css">
	.st0{fill:#6A8CA3;}
	.st1{fill:#536F82;}
	.st2{opacity:0.7;fill:#6A8CA3;}
	.st3{opacity:0.55;fill:#6A8CA3;}
	.st4{opacity:0.47;fill:#FFFFFF;}
	.st5{fill:#526E81;}
	.st6{opacity:0.61;fill:#6A8CA3;}
	.st7{opacity:0.89;fill:#FFFFFF;}
	.st8{fill:#364C5A;}
	.st9{fill:#FFFFFF;}
	.st10{fill:#293C48;}
	.st11{fill:#263944;}
	.st12{fill:#DADBDC;}
	.st13{opacity:0.6;fill:#2B3F4C;}
	.st14{fill:#45A89B;}
	.st15{fill:#1E6255;}
	.st16{opacity:0.25;fill:#6A8CA3;}
	.st17{fill:#CDCFD0;}
	.st18{opacity:0.81;fill:#FFFFFF;}
	.st19{opacity:0.81;fill:#CFD1D2;}
	.st20{fill:#9A9D9F;}
</style>
<g>
	<g>
		<path class="st0" d="M161.28,229.55c-1.72-4.47-3.18-9.03-4.36-13.67c-1.17-4.61-2.07-9.29-2.64-14.01
			c-0.57-4.71-0.83-9.45-0.76-14.19c0.02-1.2,0.06-2.39,0.12-3.59c-0.28-1.84-0.52-3.65-0.69-5.4
			c-1.4-13.73-34.73-27.18-47.74-31.89c-4.21-1.52-10.11-2.04-11.64,3.42c-0.82,2.92,0.09,6.03,1.13,8.88
			c6.97,19.09,19.72,37.2,33.95,51.59c7.52,7.6,20.71,23.89,32.35,24.59c1.06,0.06,1.84-0.14,2.42-0.54
			C162.67,233.01,161.95,231.29,161.28,229.55z"/>
		<path class="st1" d="M161.36,235.53c-0.12,0-0.25,0-0.38-0.01c-9.9-0.59-20.68-12.09-28.55-20.5c-1.43-1.53-2.78-2.97-3.97-4.17
			c-15.48-15.66-27.56-34.02-34.01-51.68c-1.08-2.95-1.96-6.09-1.13-9.04c0.5-1.8,1.51-3.1,2.98-3.86c3.08-1.58,7.31-0.34,8.99,0.27
			c6.11,2.21,17.9,6.78,28.26,12.58c12.43,6.95,19.04,13.52,19.65,19.53c0.17,1.65,0.4,3.41,0.69,5.39c0,0.02,0,0.03,0,0.05
			c-0.06,1.19-0.1,2.39-0.12,3.58c-0.07,4.68,0.18,9.45,0.76,14.16c0.56,4.63,1.45,9.33,2.64,13.98c1.16,4.57,2.63,9.16,4.35,13.64
			l0,0c0.6,1.57,1.3,3.26,2.13,5.16c0.05,0.11,0.01,0.25-0.09,0.32C162.99,235.33,162.25,235.53,161.36,235.53z M99.89,146.02
			c-1.16,0-2.33,0.19-3.35,0.72c-1.34,0.69-2.25,1.88-2.72,3.54c-0.79,2.81,0.08,5.85,1.12,8.71c6.42,17.6,18.46,35.89,33.89,51.49
			c1.19,1.21,2.55,2.65,3.98,4.18c7.81,8.34,18.51,19.75,28.2,20.33c0.85,0.05,1.54-0.08,2.07-0.38c-0.79-1.82-1.46-3.45-2.05-4.97
			l0,0c-1.73-4.5-3.2-9.11-4.37-13.7c-1.19-4.67-2.08-9.4-2.65-14.05c-0.58-4.73-0.83-9.52-0.76-14.23
			c0.02-1.18,0.06-2.39,0.12-3.57c-0.3-1.97-0.52-3.73-0.69-5.39c-1.42-13.93-36.77-27.76-47.57-31.67
			C104.07,146.66,102,146.02,99.89,146.02z"/>
	</g>
	<path class="st0" d="M103.88,168.95c3.98,7.46,8.6,14.58,13.55,21.43c4.86,6.72,9.95,13.36,15.59,19.44
		c2.86,3.08,5.86,6.03,8.98,8.85c3.22,2.91,6.49,5.79,9.98,8.38c3.65,2.72,7.49,5.16,11.38,7.52c-0.72-1.66-1.42-3.33-2.07-5.02
		c-1.72-4.47-3.18-9.03-4.36-13.67c-1.17-4.61-2.07-9.29-2.64-14.01c-0.57-4.71-0.83-9.45-0.76-14.19c0.02-1.2,0.06-2.39,0.12-3.59
		c-0.28-1.84-0.52-3.65-0.69-5.4c-1.4-13.73-34.73-27.18-47.74-31.89c-3.36-1.22-7.78-1.78-10.21,0.81
		C97.14,155.02,100.25,162.14,103.88,168.95z"/>
	<path class="st0" d="M103.5,177.83c2.71,2.36,5.63,4.46,8.74,6.27c1.87,1.08,3.8,2.09,5.77,2.98c2.01,0.91,4.07,1.68,6.12,2.48
		c3.98,1.54,8.01,3.14,11.44,5.74c5.26,4,8.78,9.98,11.73,15.77c2.98,5.86,5.51,11.98,9.06,17.54c1.53,2.39,3.27,4.65,5.28,6.65
		c0.74-0.04,1.32-0.23,1.77-0.54c-0.74-1.71-1.46-3.43-2.13-5.17c-1.72-4.47-3.18-9.03-4.36-13.67c-1.17-4.61-2.07-9.29-2.64-14.01
		c-0.57-4.71-0.83-9.45-0.76-14.19c0.02-1.2,0.06-2.39,0.12-3.59c-0.28-1.84-0.52-3.65-0.69-5.4c-1.4-13.73-34.73-27.18-47.74-31.89
		c-4.21-1.52-10.11-2.04-11.64,3.42c-0.82,2.92,0.09,6.03,1.13,8.88C97.03,165.48,100.03,171.76,103.5,177.83z"/>
	<g>
		<g>
			<path class="st0" d="M208.94,47.28c-1.4-4.46-14.56,2.89-16.77,4.26c-16.12,9.99-33.97,25.83-41,43.92
				c-0.78,2.01-1.4,4.32-0.45,6.26c3.04,6.19,17.89,5.13,23.49,5.23c6.56,0.12,26.2,2.65,26.59-3.9c2.6-43.91,6.95-45.88,8.2-54.16
				C209.1,48.24,209.07,47.71,208.94,47.28z"/>
			<path class="st1" d="M187.83,107.79c-3.26,0-6.6-0.2-9.3-0.36c-1.72-0.1-3.21-0.19-4.33-0.21c-0.74-0.01-1.63-0.01-2.64,0
				c-6.87,0.05-18.37,0.14-21.08-5.38c-1.02-2.09-0.3-4.55,0.44-6.47c3.27-8.41,9.03-16.85,17.14-25.08
				c6.8-6.91,15.09-13.46,23.96-18.96c0.11-0.07,11.66-7.04,15.82-5.5c0.68,0.25,1.13,0.72,1.34,1.38c0.15,0.47,0.17,1.05,0.07,1.72
				c-0.32,2.14-0.84,3.83-1.5,5.96c-1.9,6.19-4.77,15.53-6.7,48.17c-0.15,2.55-2.88,4.03-8.35,4.53
				C191.18,107.73,189.52,107.79,187.83,107.79z M173.25,106.68c0.35,0,0.67,0,0.97,0.01c1.12,0.02,2.62,0.11,4.35,0.21
				c4.07,0.24,9.64,0.58,14.1,0.17c5.09-0.47,7.74-1.83,7.87-4.04c1.94-32.7,4.82-42.09,6.72-48.3c0.65-2.12,1.16-3.79,1.48-5.89
				c0.09-0.59,0.07-1.09-0.05-1.48c0,0,0,0,0,0c-0.16-0.51-0.49-0.85-1.02-1.05c-3.37-1.25-13.13,4.07-15.36,5.45
				c-28.39,17.59-38.05,36.48-40.89,43.79c-0.71,1.82-1.4,4.15-0.46,6.05c2.57,5.22,13.86,5.13,20.6,5.08
				C172.17,106.68,172.73,106.68,173.25,106.68z"/>
		</g>
		<path class="st0" d="M159.51,83.71c-1.08,1.85-2.07,3.75-2.96,5.69c2.36-2.95,4.73-5.89,7.16-8.79c2.95-3.52,5.99-6.98,9.18-10.29
			c2.89-3,5.82-5.97,8.9-8.78c3.78-3.45,7.82-6.77,12.18-9.52c-1.69,0.85-3.35,1.76-4.98,2.73c-4.04,2.4-7.89,5.12-11.49,8.13
			c-3.58,2.98-6.93,6.24-9.98,9.76C164.53,76.08,161.82,79.78,159.51,83.71z"/>
		<path class="st2" d="M208.94,47.28c-0.8-2.56-5.47-1.23-9.72,0.62c0.36-0.05,0.73-0.09,1.1-0.1c0.88-0.01,1.84,0.16,2.49,0.8
			c0.75,0.74,0.88,1.81,0.54,2.77c-0.6,1.73-1.79,3.29-2.87,4.75c-0.97,1.32-2.08,2.59-2.89,4.02c-0.73,1.27-1.44,2.53-2.05,3.87
			c-0.65,1.4-1.22,2.84-1.79,4.28c-0.57,1.44-1.16,2.87-1.74,4.31c-0.39,0.97-0.84,1.91-1.38,2.81c-1.91,3.18-4.83,5.46-8.32,6.67
			c-3.6,1.25-7.49,1.45-11.27,1.42c-4.12-0.03-8.24-0.38-12.36-0.46c-0.28-0.01-0.57-0.01-0.85-0.01
			c-2.71,3.99-4.99,8.14-6.66,12.43c-0.78,2.01-1.4,4.32-0.45,6.26c3.04,6.19,17.89,5.13,23.49,5.23c6.56,0.12,26.2,2.65,26.59-3.9
			c2.6-43.91,6.95-45.88,8.2-54.16C209.1,48.24,209.07,47.71,208.94,47.28z"/>
		<path class="st3" d="M208.94,47.28c-0.42-1.35-1.93-1.61-3.88-1.29c0.53,0.45,0.93,1.05,1.1,1.8c0.23,1.02-0.06,2.07-0.28,3.06
			c-0.32,1.4-0.73,2.77-1.2,4.12c-0.94,2.76-2.06,5.44-3,8.2c-0.97,2.86-1.55,5.8-2.06,8.77c-0.54,3.12-0.98,6.27-1.31,9.42
			c-0.61,5.82-1.01,11.7-1.01,17.55c0,2.48,0.09,4.96,0.31,7.43c1.88-0.68,3.09-1.73,3.19-3.31c2.6-43.91,6.95-45.88,8.2-54.16
			C209.1,48.24,209.07,47.71,208.94,47.28z"/>
	</g>
	<g>
		<path class="st0" d="M285.4,70.33c-0.63-2.01-6.58,1.31-7.58,1.93c-7.28,4.51-15.34,11.67-18.52,19.84
			c-0.35,0.91-0.63,1.95-0.2,2.83c1.37,2.8,8.08,2.32,10.61,2.36c2.97,0.05,11.84,1.2,12.01-1.76c1.17-19.83,3.14-20.73,3.7-24.46
			C285.47,70.76,285.46,70.52,285.4,70.33z"/>
		<path class="st1" d="M275.86,97.8c-1.48,0-2.99-0.09-4.21-0.16c-0.78-0.05-1.45-0.09-1.95-0.1c-0.33-0.01-0.74,0-1.19,0
			c-3.14,0.03-8.39,0.07-9.65-2.51c-0.49-0.99-0.15-2.15,0.2-3.04c3.89-10.01,14.32-17.3,18.62-19.97c0.05-0.03,5.33-3.22,7.27-2.5
			c0.35,0.13,0.58,0.38,0.69,0.72c0.07,0.23,0.09,0.52,0.04,0.84c-0.15,0.98-0.38,1.74-0.68,2.71c-0.86,2.79-2.15,7-3.02,21.73
			c-0.07,1.23-1.35,1.95-3.9,2.18C277.39,97.78,276.63,97.8,275.86,97.8z M269.28,97.01c0.16,0,0.31,0,0.44,0
			c0.51,0.01,1.19,0.05,1.97,0.1c1.83,0.11,4.35,0.26,6.35,0.08c2.22-0.2,3.37-0.77,3.43-1.69c0.87-14.79,2.18-19.04,3.04-21.85
			c0.29-0.95,0.52-1.7,0.66-2.64c0.04-0.25,0.03-0.45-0.02-0.61c0,0,0,0,0,0c-0.06-0.19-0.18-0.31-0.37-0.38
			c-1.47-0.55-5.82,1.83-6.81,2.45c-12.79,7.93-17.14,16.42-18.41,19.71c-0.31,0.79-0.61,1.81-0.21,2.62
			c1.12,2.28,6.36,2.23,9.18,2.22C268.79,97.02,269.04,97.01,269.28,97.01z"/>
	</g>
	<g>
		<path class="st0" d="M285.4,70.33c-0.63-2.01-6.58,1.31-7.58,1.93c-7.28,4.51-15.34,11.67-18.52,19.84
			c-0.35,0.91-0.63,1.95-0.2,2.83c1.37,2.8,8.08,2.32,10.61,2.36c2.97,0.05,11.84,1.2,12.01-1.76c1.17-19.83,3.14-20.73,3.7-24.46
			C285.47,70.76,285.46,70.52,285.4,70.33z"/>
		<path class="st1" d="M275.86,97.8c-1.48,0-2.99-0.09-4.21-0.16c-0.78-0.05-1.45-0.09-1.95-0.1c-0.33-0.01-0.74,0-1.19,0
			c-3.14,0.03-8.39,0.07-9.65-2.51c-0.49-0.99-0.15-2.15,0.2-3.04c3.89-10.01,14.32-17.3,18.62-19.97c0.05-0.03,5.33-3.22,7.27-2.5
			c0.35,0.13,0.58,0.38,0.69,0.72c0.07,0.23,0.09,0.52,0.04,0.84c-0.15,0.98-0.38,1.74-0.68,2.71c-0.86,2.79-2.15,7-3.02,21.73
			c-0.07,1.23-1.35,1.95-3.9,2.18C277.39,97.78,276.63,97.8,275.86,97.8z M269.28,97.01c0.16,0,0.31,0,0.44,0
			c0.51,0.01,1.19,0.05,1.97,0.1c1.83,0.11,4.35,0.26,6.35,0.08c2.22-0.2,3.37-0.77,3.43-1.69c0.87-14.79,2.18-19.04,3.04-21.85
			c0.29-0.95,0.52-1.7,0.66-2.64c0.04-0.25,0.03-0.45-0.02-0.61c0,0,0,0,0,0c-0.06-0.19-0.18-0.31-0.37-0.38
			c-1.47-0.55-5.82,1.83-6.81,2.45c-12.79,7.93-17.14,16.42-18.41,19.71c-0.31,0.79-0.61,1.81-0.21,2.62
			c1.12,2.28,6.36,2.23,9.18,2.22C268.79,97.02,269.04,97.01,269.28,97.01z"/>
	</g>
	<path class="st0" d="M263.1,90.15c0.64-0.34,1.25-0.78,1.79-1.21c1.27-1.02,2.4-2.19,3.51-3.37c1.23-1.29,2.49-2.56,3.67-3.9
		c2.35-2.68,4.55-5.51,7.04-8.06c-1.33,0.68-2.62,1.44-3.84,2.3C270.08,79.54,266.09,84.6,263.1,90.15z"/>
	<path class="st0" d="M285.24,71.11c-1.11,0.97-2.18,2.01-3.12,3.15c-0.87,1.05-1.54,2.27-2.21,3.45c-0.66,1.17-1.3,2.35-2.08,3.44
		c-0.76,1.05-1.65,1.93-2.71,2.67c-3.81,2.66-8.54,1.85-12.85,2.71c-1.21,1.78-2.23,3.64-2.98,5.56c-0.35,0.91-0.63,1.95-0.2,2.83
		c1.37,2.8,8.08,2.32,10.61,2.36c2.97,0.05,11.84,1.2,12.01-1.76c1.17-19.83,3.14-20.73,3.7-24.46c0.01-0.04,0-0.07,0.01-0.1
		C285.37,71,285.31,71.06,285.24,71.11z"/>
	<g>
		<path class="st0" d="M319.85,126.62c-2.51-2.83-4.64-2.51-16.4-18.52c-1.76-2.39-8.58,3.39-11.04,5.05
			c-2.1,1.41-7.99,4.66-7.62,7.75c0.11,0.97,0.92,1.69,1.71,2.26c7.1,5.13,17.76,6.76,26.33,6.59c1.18-0.02,7.97-0.47,7.41-2.5
			C320.16,127.05,320.04,126.84,319.85,126.62z"/>
		<path class="st1" d="M311.67,130.02c-5.64,0-17.23-0.79-25.34-6.65c-0.78-0.56-1.68-1.35-1.81-2.44
			c-0.34-2.85,4.09-5.67,6.74-7.35c0.38-0.24,0.72-0.46,1-0.65c0.41-0.28,0.96-0.68,1.58-1.14c2.61-1.92,6.56-4.83,8.71-4.5
			c0.47,0.07,0.85,0.29,1.11,0.65c8.73,11.89,12.11,14.72,14.34,16.6c0.78,0.65,1.39,1.17,2.05,1.91l0,0
			c0.22,0.25,0.36,0.49,0.43,0.73c0.1,0.34,0.03,0.68-0.19,0.98c-1.24,1.66-7.4,1.86-7.46,1.86
			C312.47,130.01,312.09,130.02,311.67,130.02z M302.18,107.79c-2.02,0-5.76,2.75-8.03,4.42c-0.63,0.46-1.18,0.87-1.6,1.15
			c-0.28,0.19-0.62,0.41-1.01,0.65c-2.38,1.51-6.8,4.33-6.5,6.85c0.11,0.9,0.91,1.58,1.6,2.08c2.86,2.06,11.12,6.83,26.17,6.54
			c1.17-0.02,6.11-0.39,7.05-1.65c0.13-0.17,0.16-0.33,0.11-0.52c-0.04-0.16-0.15-0.33-0.31-0.52l0,0
			c-0.63-0.71-1.23-1.21-1.99-1.85c-2.25-1.89-5.66-4.75-14.43-16.69c-0.18-0.25-0.43-0.39-0.77-0.44
			C302.37,107.8,302.28,107.79,302.18,107.79z"/>
	</g>
	<path class="st4" d="M313.65,128.58c-6.08-0.13-12.18-1.32-17.94-3.29c-2.58-0.88-5.13-1.95-7.49-3.34
		c-1.15-0.68-2.26-1.45-3.26-2.34c-0.16,0.43-0.24,0.86-0.19,1.28c0.11,0.97,0.92,1.69,1.71,2.26c7.1,5.13,17.76,6.76,26.33,6.59
		c0.94-0.02,5.43-0.3,6.94-1.45C317.73,128.53,315.69,128.62,313.65,128.58z"/>
	<path class="st0" d="M297.11,127.57c0.66-0.4,1.28-0.87,1.88-1.35c2.17-1.72,4.27-3.54,7.14-3.79c2.32-0.21,4.56,0.5,6.64,1.48
		c2.13,1,4.14,2.27,6.34,3.13c0.38,0.15,0.76,0.27,1.14,0.39c0-0.06-0.01-0.12-0.03-0.18c-0.05-0.19-0.17-0.4-0.37-0.62
		c-2.51-2.83-4.64-2.51-16.4-18.52c-1.76-2.39-8.58,3.39-11.04,5.05c-2.1,1.41-7.99,4.66-7.62,7.75c0.11,0.97,0.92,1.69,1.71,2.26
		c2.92,2.11,6.43,3.61,10.15,4.66C296.8,127.73,296.96,127.66,297.11,127.57z"/>
	<g>
		<path class="st0" d="M289.51,162.72c-2.51-2.83-4.64-2.51-16.4-18.52c-1.76-2.39-8.58,3.39-11.04,5.05
			c-2.1,1.41-7.99,4.66-7.62,7.75c0.11,0.97,0.92,1.69,1.71,2.26c7.1,5.13,17.76,6.76,26.33,6.59c1.18-0.02,7.97-0.47,7.41-2.5
			C289.83,163.15,289.71,162.94,289.51,162.72z"/>
		<path class="st1" d="M281.33,166.12c-5.64,0-17.23-0.79-25.34-6.65c-0.78-0.56-1.68-1.35-1.81-2.44
			c-0.34-2.85,4.09-5.67,6.74-7.35c0.38-0.24,0.73-0.46,1-0.65c0.42-0.28,0.96-0.68,1.58-1.14c1.49-1.1,3.54-2.6,5.35-3.56
			c2.27-1.19,3.73-1.28,4.46-0.29c8.73,11.89,12.11,14.72,14.34,16.6c0.78,0.65,1.39,1.17,2.05,1.91c0.22,0.24,0.36,0.49,0.43,0.73
			c0.1,0.34,0.03,0.68-0.19,0.98c-1.24,1.66-7.4,1.86-7.46,1.86C282.13,166.11,281.75,166.12,281.33,166.12z M271.84,143.89
			c-0.67,0-1.58,0.3-2.73,0.9c-1.78,0.93-3.81,2.42-5.29,3.51c-0.63,0.47-1.18,0.87-1.6,1.15c-0.28,0.19-0.62,0.41-1.01,0.65
			c-2.38,1.51-6.8,4.33-6.5,6.85c0.11,0.9,0.91,1.58,1.6,2.08c2.86,2.06,11.12,6.85,26.17,6.54c1.85-0.04,6.2-0.5,7.05-1.65
			c0.12-0.17,0.16-0.33,0.11-0.52c-0.04-0.16-0.15-0.33-0.31-0.52c0,0,0,0,0,0c-0.63-0.71-1.23-1.21-1.99-1.85
			c-2.25-1.89-5.66-4.75-14.43-16.69C272.67,144.04,272.31,143.89,271.84,143.89z"/>
	</g>
	<g>
		<path class="st0" d="M289.51,162.72c-2.51-2.83-4.64-2.51-16.4-18.52c-1.76-2.39-8.58,3.39-11.04,5.05
			c-2.1,1.41-7.99,4.66-7.62,7.75c0.11,0.97,0.92,1.69,1.71,2.26c7.1,5.13,17.76,6.76,26.33,6.59c1.18-0.02,7.97-0.47,7.41-2.5
			C289.83,163.15,289.71,162.94,289.51,162.72z"/>
		<path class="st1" d="M281.33,166.12c-5.64,0-17.23-0.79-25.34-6.65c-0.78-0.56-1.68-1.35-1.81-2.44
			c-0.34-2.85,4.09-5.67,6.74-7.35c0.38-0.24,0.73-0.46,1-0.65c0.42-0.28,0.96-0.68,1.58-1.14c1.49-1.1,3.54-2.6,5.35-3.56
			c2.27-1.19,3.73-1.28,4.46-0.29c8.73,11.89,12.11,14.72,14.34,16.6c0.78,0.65,1.39,1.17,2.05,1.91c0.22,0.24,0.36,0.49,0.43,0.73
			c0.1,0.34,0.03,0.68-0.19,0.98c-1.24,1.66-7.4,1.86-7.46,1.86C282.13,166.11,281.75,166.12,281.33,166.12z M271.84,143.89
			c-0.67,0-1.58,0.3-2.73,0.9c-1.78,0.93-3.81,2.42-5.29,3.51c-0.63,0.47-1.18,0.87-1.6,1.15c-0.28,0.19-0.62,0.41-1.01,0.65
			c-2.38,1.51-6.8,4.33-6.5,6.85c0.11,0.9,0.91,1.58,1.6,2.08c2.86,2.06,11.12,6.85,26.17,6.54c1.85-0.04,6.2-0.5,7.05-1.65
			c0.12-0.17,0.16-0.33,0.11-0.52c-0.04-0.16-0.15-0.33-0.31-0.52c0,0,0,0,0,0c-0.63-0.71-1.23-1.21-1.99-1.85
			c-2.25-1.89-5.66-4.75-14.43-16.69C272.67,144.04,272.31,143.89,271.84,143.89z"/>
	</g>
	<path class="st5" d="M265.58,150.95c4.02,4.01,8.47,7.67,13.49,10.37c3.02,1.62,6.25,2.85,9.6,3.49c0.85-0.36,1.38-0.84,1.21-1.47
		c-0.05-0.19-0.17-0.4-0.37-0.62c-2.51-2.83-4.64-2.51-16.4-18.52c-1.54-2.09-6.94,2.07-9.92,4.25
		C263.97,149.3,264.77,150.13,265.58,150.95z"/>
	<path class="st4" d="M289.75,163.05c-0.59,0.17-1.19,0.32-1.78,0.46c-2.9,0.67-5.89,0.98-8.87,1.08c-2.73,0.08-5.46-0.02-8.15-0.53
		c-5.88-1.11-11.73-3.47-16.51-7.14c0,0.02,0,0.05,0,0.07c0.11,0.97,0.92,1.69,1.71,2.26c7.1,5.13,17.76,6.76,26.33,6.59
		c1.18-0.02,7.97-0.47,7.41-2.5C289.86,163.25,289.81,163.15,289.75,163.05z"/>
	<path class="st5" d="M255.89,159.06c1.8-0.37,3.56-1,5.29-1.64c2.79-1.03,5.67-2.04,8.69-1.84c1.66,0.11,3.18,0.6,4.7,1.24
		c1.59,0.66,3.15,1.39,4.71,2.11c3.18,1.46,6.66,3.01,10.19,3.76c-2.49-2.79-4.66-2.55-16.37-18.48c-1.76-2.39-8.58,3.39-11.04,5.05
		c-2.1,1.41-7.99,4.66-7.62,7.75C254.54,157.85,255.19,158.52,255.89,159.06z"/>
	<g>
		<path class="st0" d="M359.82,82.2c-8.99-15.15,14.43-82.85,9.01-78.11c-13.28,11.61-24.07,26.23-33.91,40.76
			c-4.7,6.94-9.13,14.04-13.32,21.3c-5.46,9.46-12.23,18.67-6.14,29.51c6.58,11.71,19.65,19.63,31.45,25.28
			c13.78,6.61,28.57,10.72,43.12,15.23c0.62,0.19,8.92,2.17,8.97,2.48C398.19,133.78,365.49,91.76,359.82,82.2z"/>
		<path class="st1" d="M399,138.92c-0.08,0-0.15-0.04-0.2-0.1c-0.5-0.29-4.92-1.4-7.06-1.93c-0.94-0.24-1.62-0.41-1.79-0.46
			c-2.1-0.65-4.2-1.29-6.3-1.93c-12.31-3.76-25.04-7.65-36.85-13.31c-10.16-4.87-24.48-12.8-31.56-25.39
			c-5.59-9.94-0.43-18.66,4.56-27.08c0.53-0.89,1.06-1.79,1.58-2.69c4.23-7.33,8.72-14.5,13.33-21.32
			c9.12-13.48,20.29-28.87,33.95-40.81c0.34-0.3,0.64-0.38,0.88-0.23c1,0.6-0.01,5.29-3.15,18.54c-4.76,20.07-11.96,50.4-6.34,59.87
			c2.32,3.9,9.22,13.32,16.52,23.3c10.89,14.86,22.14,30.23,22.69,33.23c0,0.01,0,0.02,0,0.02l0,0c0.02,0.14-0.07,0.28-0.22,0.3
			C399.02,138.92,399.01,138.92,399,138.92z M369.27,4.11c0,0-0.08,0.01-0.27,0.18C355.38,16.19,344.24,31.55,335.13,45
			c-4.6,6.8-9.08,13.96-13.31,21.28c-0.52,0.9-1.05,1.8-1.58,2.69c-5.14,8.68-10,16.88-4.56,26.56
			c7.01,12.47,21.24,20.34,31.33,25.18c11.78,5.64,24.49,9.53,36.78,13.28c2.1,0.64,4.21,1.29,6.3,1.94
			c0.16,0.05,0.86,0.23,1.76,0.45c4.1,1.03,5.91,1.52,6.72,1.8c-1.48-3.89-12.59-19.05-22.44-32.51
			c-7.31-9.98-14.22-19.41-16.55-23.34c-5.73-9.66,1.5-40.11,6.28-60.26C367.99,13.14,370,4.7,369.27,4.11z"/>
	</g>
	<path class="st0" d="M352.84,64.06c-0.17-5.46,0.27-10.91,1.13-16.3c0.84-5.28,2.07-10.48,3.41-15.65
		c0.73-2.81,1.49-5.61,2.24-8.42c-1.27,2.57-2.4,5.21-3.4,7.88c-1.98,5.3-3.48,10.79-4.54,16.35c-1.01,5.32-1.62,10.73-1.66,16.14
		c-0.04,5.77,0.95,11.49,2.85,16.94c1.66,4.78,4.02,9.35,7.06,13.39c-1.82-4.82-3.55-9.69-4.82-14.69
		C353.81,74.59,353,69.34,352.84,64.06z"/>
	<path class="st6" d="M359.82,82.2c-1.24-2.09-1.86-5.18-2.03-8.93c0.03,5.81,0.8,11.58,2.75,17.1c1.27,3.58,3.01,7.01,4.68,10.42
		c1.68,3.45,3.53,6.84,5.93,9.85c0.2,0.25,0.02,0.67-0.33,0.57c-1.02-0.27-2.03-0.56-3.04-0.86c-8.66-2.63-17.21-6.52-24.19-12.36
		c-3.38-2.82-6.38-6.17-8.51-10.03c-2.24-4.06-3.25-8.5-3.54-13.11c-0.59-9.62,2.16-19.03,6.41-27.58
		c4.47-8.98,10.44-17.11,16.55-25.03c4.34-5.63,8.85-11.16,12.99-16.95c-12.67,11.41-23.08,25.53-32.58,39.57
		c-4.7,6.94-9.13,14.04-13.32,21.3c-5.46,9.46-12.23,18.67-6.14,29.51c6.58,11.71,19.65,19.63,31.45,25.28
		c13.78,6.61,28.57,10.72,43.12,15.23c0.62,0.19,8.92,2.17,8.97,2.48C398.18,133.78,365.49,91.76,359.82,82.2z"/>
	<path class="st6" d="M394.62,131.66c-1.99-0.48-3.93-1.13-5.86-1.82c-1.56-0.56-3.1-1.14-4.69-1.62c-3.23-0.97-6.44-1.98-9.63-3.06
		c-6.05-2.05-11.98-4.44-17.87-6.91c-5.19-2.18-10.31-4.58-15.06-7.6c-4.72-3-9.02-6.62-12.44-11.06c-1.51-1.97-2.85-4.1-3.17-6.61
		c-0.16-1.29-0.09-2.64,0.21-3.91c0.31-1.31,0.83-2.56,1.25-3.83c0.41-1.27,0.77-2.61,0.64-3.95c-0.09-0.98-0.47-2.19-1.27-2.83
		c-1.27-1-3.25-0.4-4.7-0.29c-1.6,0.13-3.47-0.21-4.12-1.91c-0.33-0.87-0.26-1.85-0.11-2.75c0.08-0.48,0.19-0.95,0.32-1.41
		c-4.25,7.45-7.46,15-2.65,23.56c6.58,11.71,19.65,19.63,31.45,25.28c13.78,6.61,28.57,10.72,43.12,15.23
		c0.62,0.19,8.92,2.17,8.97,2.48c-0.16-0.98-1.61-3.46-3.87-6.87C394.95,131.74,394.78,131.7,394.62,131.66z"/>
	<g>
		<path class="st0" d="M322.33,84.2c-3.82,1.03-14.27,1.73-27.44,2.2c-74.5,2.69-150.81,0.28-224.55-11.36
			c-9.29-1.47-18.39-3.88-27.52-6.08c-4.93-1.19-9.91-2.11-14.89-3.04c-4.69-0.87-10.21-2.93-14.99-2.35
			c-8.37,1.01-6.82,9.69-5.73,15.76c12.99,71.9,90.41,116.43,159.8,110.68c44.29-3.67,89.75-27.58,122.54-56.96
			c10.62-9.52,20.53-20.34,27.75-32.71c2.22-3.8,6.71-10.52,6.69-15.65C323.54,84.41,322.95,84.26,322.33,84.2z"/>
		<path class="st1" d="M154.94,190.78c-30.84,0-62.71-9.48-89.12-26.76c-31.87-20.85-52.77-50.91-58.87-84.63
			c-0.76-4.2-1.8-9.96,0.69-13.33c1.13-1.53,2.9-2.45,5.26-2.74c3.47-0.42,7.25,0.51,10.91,1.41c1.46,0.36,2.83,0.7,4.16,0.94
			l0.06,0.01c4.88,0.91,9.93,1.85,14.84,3.03c1.66,0.4,3.31,0.81,4.97,1.21c7.34,1.8,14.94,3.66,22.53,4.86
			c67.52,10.65,140.95,14.37,224.5,11.35c14.72-0.53,23.93-1.27,27.38-2.2c0.03-0.01,0.06-0.01,0.09-0.01
			c0.72,0.07,1.33,0.25,1.78,0.53c0.08,0.05,0.12,0.13,0.12,0.22c0.01,4.56-3.48,10.38-5.8,14.22c-0.34,0.56-0.65,1.08-0.93,1.56
			c-6.49,11.1-15.58,21.82-27.8,32.77c-36.08,32.33-81.95,53.65-122.69,57.03C163.03,190.61,158.99,190.78,154.94,190.78z
			 M14.71,63.74c-0.59,0-1.16,0.03-1.73,0.1c-2.25,0.27-3.85,1.1-4.91,2.53c-2.35,3.19-1.34,8.82-0.59,12.92
			c6.07,33.58,26.89,63.52,58.64,84.29c29.78,19.48,66.54,29.02,100.89,26.18c40.63-3.37,86.38-24.64,122.38-56.9
			c12.18-10.92,21.24-21.59,27.7-32.64c0.28-0.48,0.6-1,0.93-1.57c2.26-3.75,5.66-9.41,5.72-13.8c-0.36-0.19-0.83-0.32-1.39-0.38
			c-3.52,0.93-12.75,1.67-27.45,2.2c-83.58,3.01-157.04-0.7-224.6-11.36c-7.61-1.2-15.22-3.07-22.58-4.87
			c-1.66-0.41-3.31-0.81-4.97-1.21c-4.9-1.18-9.94-2.12-14.81-3.03l-0.06-0.01c-1.35-0.25-2.73-0.59-4.19-0.95
			C20.69,64.5,17.6,63.74,14.71,63.74z"/>
	</g>
	<path class="st0" d="M58.83,80.37c-1.45-0.94-3.36-0.04-4.63,0.79c-1.28,0.83-2.65,2.01-3.3,3.42c-0.1,0.22-1.67,3.13-1.91,4.69
		c-0.3,1.96-0.24,4.33,1,5.97c0.54-2.18,1.17-4.35,2.19-6.36c0.96-1.89,2.28-3.57,3.95-4.88c0.9-0.71,1.86-1.28,2.87-1.81
		c0.29-0.15,0.81-0.36,0.73-0.76C59.64,81.01,59.19,80.6,58.83,80.37z"/>
	<path class="st0" d="M102.74,84.12c-14.08-2.51-28.09-5.42-42.02-8.68c-13.95-3.26-27.87-7.23-42.11-9.01
		c-2.02-0.25-4.76-0.79-6.66,0.26c-1.99,1.1-1.79,3.92-1.77,5.86c0.04,5.09,0.87,10.55,2.87,15.31c0.44-0.81,0.72-1.7,0.96-2.59
		c1-3.76,2.01-7.98,5.41-10.32c1.47-1.01,3.22-1.5,4.98-1.69c2.74-0.31,5.55-0.14,8.29,0.2c2.84,0.35,5.64,0.93,8.43,1.56
		c2.82,0.64,5.64,1.25,8.45,1.94c5.95,1.47,11.94,2.73,17.96,3.86c12.23,2.3,24.5,4.48,36.81,6.31c12.34,1.83,24.75,3.02,37.22,3.54
		c2.54,0.11,5.07,0.12,7.61,0.1c-1.4-0.15-2.8-0.3-4.2-0.46C130.82,88.71,116.75,86.62,102.74,84.12z"/>
	<g>
		<path class="st0" d="M134.21,122.28c-0.43-0.34-0.94-0.55-1.46-0.7c0.42,0.78,0.58,1.74,0.63,2.6c0.13,2.49-0.41,5.04-0.98,7.45
			c-0.72,3.01-1.64,5.98-2.63,8.91c-0.9,2.67-1.86,5.31-2.84,7.96c-0.38,1.04-0.81,2.08-1.16,3.14c1.02-1.31,1.89-2.76,2.72-4.18
			c1.47-2.51,2.8-5.12,3.97-7.78c1.19-2.72,2.25-5.53,2.91-8.44c0.5-2.18,0.9-4.64,0.23-6.83
			C135.34,123.59,134.89,122.82,134.21,122.28z"/>
		<path class="st0" d="M141.68,122.39c-0.27-0.21-0.56-0.38-0.87-0.53c0.98,0.97,1.4,2.35,1.38,3.83c-0.04,1.92-0.62,3.81-1.24,5.61
			c-0.29,0.83-0.59,1.66-0.88,2.5c-0.43,1.26-0.78,2.56-1.17,3.84c-1.42,4.74-2.88,9.48-4.69,14.08c0.42-0.73,0.83-1.46,1.23-2.2
			c1.5-2.74,2.92-5.52,4.19-8.37c1.3-2.91,2.48-5.91,3.24-9c0.58-2.35,1.06-5.02,0.34-7.39
			C142.94,123.83,142.43,122.99,141.68,122.39z"/>
		<path class="st0" d="M149.68,122.44c-0.35-0.27-0.76-0.45-1.19-0.56c0.63,0.49,1.01,1.22,1.18,2c0.38,1.7,0.04,3.54-0.34,5.21
			c-0.38,1.66-0.89,3.28-1.38,4.91c-1.21,4.02-2.48,8.03-3.85,12c0.71-1.41,1.4-2.82,2.07-4.25c1.44-3.09,2.79-6.25,3.78-9.52
			c0.42-1.38,0.78-2.79,0.97-4.22c0.15-1.1,0.22-2.26-0.01-3.35C150.74,123.79,150.38,122.98,149.68,122.44z"/>
		<path class="st0" d="M156.63,123.58c0.5,0.78,0.72,1.77,0.73,2.76c0.03,1.87-0.42,3.75-0.92,5.54c-0.48,1.72-1.04,3.42-1.52,5.14
			c-1,3.59-1.8,7.3-3.07,10.83c0.26-0.53,0.53-1.06,0.78-1.6c1.24-2.62,2.41-5.28,3.45-7.99c0.92-2.41,1.8-4.86,2.42-7.36
			c0.39-1.6,0.71-3.39,0.11-4.98C158.23,124.91,157.5,124.16,156.63,123.58z"/>
	</g>
	<path class="st6" d="M69.08,89.4c-0.05,0.34-0.58,0.31-0.66,0c-0.42-1.66-0.46-3.44-1.11-5.03c-0.25-0.6-0.62-1.18-1.17-1.53
		c-0.71-0.44-1.54-0.45-2.35-0.41c-1.95,0.1-3.89,0.59-5.64,1.46c-3.48,1.73-6.1,4.83-7.55,8.4c-0.09,0.21-0.39,0.37-0.57,0.15
		c-1.46-1.74-1.98-4.08-2.28-6.28c-0.26-1.99-0.31-4-0.36-6c-0.39,0.57-0.72,1.17-1.01,1.79c0.09,0.1,0.14,0.24,0.07,0.4
		c-0.71,1.57-1.03,3.28-1.08,5c-0.08,3.23,0.74,6.46,2.01,9.41c1.08,2.53,2.52,4.97,4.36,7.04c-0.18-2.16-0.28-4.32,0.1-6.47
		c0.06-0.35,0.57-0.31,0.66,0c0.28,1.01,0.78,1.96,1.28,2.87c1.27,2.31,2.82,4.55,4.76,6.35c1.37,1.27,3.61,2.83,5.41,1.42
		c0.26-0.2,0.66-0.02,0.57,0.33c-0.28,1.15-0.75,2.23-1.3,3.28c0.91-0.59,1.78-1.24,2.56-2.01c1.11-1.09,1.98-2.37,2.67-3.76
		c0.15-0.3,0.66-0.16,0.64,0.17c-0.09,1.23-0.33,2.43-0.51,3.65c0.91-1.43,1.68-2.96,2.25-4.55c2.48-6.86,1.48-14.37-1.57-20.87
		C69.11,85.94,69.34,87.69,69.08,89.4z"/>
	<path class="st7" d="M310.68,106.46c-8.7,9.32-18.99,16.57-30.27,22.44c-12.16,6.33-25.01,11.53-37.93,16.09
		c-13.45,4.75-27.21,8.69-41.18,11.59c-1.94,1.3-3.95,2.52-6.04,3.56c-2.29,1.14-4.66,1.98-7.1,2.71
		c-10.68,3.21-21.95,5.62-33.16,5.17c-11.15-0.45-21.8-4.76-31.32-10.35c-12.12-7.12-23.65-15.92-35.22-24.16
		c-12.18-8.67-58.08-36.08-69.89-37.84c-2.32-0.34-4.84-0.55-7.27-0.35c20.7,62.43,91.63,100.02,155.73,94.7
		c44.29-3.67,89.75-27.58,122.54-56.96c10.62-9.52,20.52-20.34,27.75-32.71c0.91-1.56,2.22-3.62,3.43-5.86
		C317.61,98.72,314.17,102.71,310.68,106.46z"/>
	<path class="st8" d="M30.23,106.2c-0.82-1.3-2.32-2.14-3.62-2.89c-0.77-0.44-1.57-0.85-2.4-1.14c-0.57-0.2-1.25-0.4-1.85-0.19
		c-2.33,0.8,0.23,3.58,0.95,4.61c0.08,0.12,0.3-0.04,0.24-0.17c-0.35-0.7-0.76-1.37-1.11-2.07c-0.18-0.37-0.71-1.39-0.18-1.7
		c0.15-0.09,0.33-0.11,0.52-0.09c0.07-0.06,0.17-0.1,0.3-0.06c0.21,0.07,0.39,0.17,0.56,0.28c0.01,0,0.02,0.01,0.02,0.01
		c0.1,0.04,0.2,0.08,0.3,0.12c-0.03,0.02-0.05,0.04-0.06,0.07c0.27,0.24,0.49,0.54,0.67,0.88c0.15,0.29,0.27,0.6,0.42,0.89
		c0.18,0.35,0.42,0.68,0.65,1c0.71,1.01,1.54,1.98,2.5,2.76c0.75,0.25,1.73,0.35,2.29-0.24C30.99,107.67,30.61,106.79,30.23,106.2z"
		/>
	<g>
		<g>
			<path class="st9" d="M68.36,95.09c-2.01-5.02-13.13-12.56-14.87-3.1c-0.31,1.68,0.12,3.4,0.69,5c0.87,2.45,2.14,4.83,4.16,6.47
				c2.02,1.64,4.89,2.39,7.29,1.39C69.58,103.21,69.74,98.53,68.36,95.09z"/>
			<path class="st10" d="M63.3,105.57c-1.75,0-3.6-0.66-5.13-1.9c-1.79-1.45-3.18-3.61-4.24-6.59c-0.51-1.42-1.04-3.29-0.7-5.14
				c0.67-3.62,2.64-4.56,4.17-4.71c4.21-0.41,9.87,4.47,11.2,7.76l0,0c2.11,5.24-0.01,8.92-2.88,10.11
				C64.97,105.42,64.14,105.57,63.3,105.57z M57.92,87.73c-0.16,0-0.31,0.01-0.47,0.02c-1.97,0.2-3.22,1.64-3.71,4.29
				c-0.32,1.73,0.2,3.51,0.68,4.87c1.03,2.88,2.36,4.96,4.08,6.36c2.11,1.72,4.87,2.25,7.02,1.35c3.75-1.56,3.97-5.99,2.59-9.43
				C66.77,91.84,61.63,87.73,57.92,87.73z"/>
		</g>
		<path class="st11" d="M65.29,83.26c-5.18-0.9-9.66,2.61-12.26,6.79c-1.2,1.93-2.23,4.15-2.52,6.42c-0.01,0.06-0.16,0.79-0.25,1.08
			c-0.05-0.03-0.1-0.05-0.1-0.05c-0.18-0.13-0.32-0.32-0.44-0.5c-0.56-0.79-0.9-1.71-1.29-2.59c-0.52-1.16-0.9-2.39-1.1-3.65
			c-0.2-1.28-0.26-2.75,0.53-3.86c0.1-0.14-0.12-0.19-0.2-0.1c-1.72,1.75-1.17,4.82-0.49,6.91c0.3,0.92,0.69,1.84,1.1,2.72
			c0.33,0.7,0.94,2.1,1.92,1.98c1.04-0.13,1.15-1.5,1.26-2.31c0.15-1.12,0.57-2.21,1.01-3.25c1.03-2.39,2.54-4.65,4.53-6.35
			c2.25-1.92,5.07-2.92,8.03-2.69C65.28,83.83,65.64,83.32,65.29,83.26z"/>
		<path class="st11" d="M70.43,94.76c-0.03-0.74-0.12-1.46-0.31-2.17c-0.21-0.76-0.52-1.52-0.58-2.31
			c-0.02-0.24-0.37-0.11-0.38,0.08c-0.04,0.81,0.1,1.58,0.24,2.38c0.15,0.86,0.19,1.73,0.16,2.6c-0.05,1.45-0.27,2.9-0.55,4.32
			c-0.5,2.57-1.29,5.22-3.2,7.11c-0.26,0.25,0.07,0.54,0.33,0.33c1.65-1.36,2.69-3.36,3.29-5.39c0.31-1.04,0.53-2.1,0.69-3.17
			C70.33,97.29,70.49,96.03,70.43,94.76z"/>
		<path class="st1" d="M70.45,100.5c-0.12,1.11-0.22,2.35-0.84,3.31c-0.09,0.14-0.07,0.34,0.11,0.4c0.19,0.06,0.39-0.07,0.49-0.22
			c0.36-0.51,0.52-1.16,0.6-1.76c0.09-0.61,0.1-1.22,0.12-1.83C70.93,100.1,70.47,100.27,70.45,100.5z"/>
		<path class="st1" d="M72.34,101.84c0,0.37-0.07,0.74-0.15,1.1c-0.04,0.18-0.09,0.36-0.13,0.54c-0.04,0.19-0.09,0.39-0.08,0.59
			c0.02,0.32,0.47,0.17,0.54-0.05c0.05-0.19,0.08-0.39,0.11-0.59c0.03-0.19,0.07-0.37,0.1-0.56c0.06-0.37,0.12-0.75,0.1-1.13
			C72.81,101.43,72.34,101.6,72.34,101.84z"/>
		<path class="st1" d="M74.6,102.01c-0.13,0.03-0.26,0.14-0.27,0.28c-0.02,0.21-0.03,0.42-0.07,0.63c0,0.02-0.01,0.04-0.01,0.07
			c0,0.01,0,0.01,0,0.01c0,0.01-0.01,0.02-0.01,0.03c-0.01,0.05-0.02,0.1-0.04,0.15c-0.03,0.1-0.06,0.19-0.1,0.28
			c-0.05,0.11,0.03,0.23,0.14,0.25c0.12,0.02,0.29-0.06,0.34-0.17c0.06-0.11,0.11-0.22,0.14-0.34c0.03-0.11,0.05-0.23,0.07-0.35
			c0.03-0.22,0.04-0.43,0.04-0.65C74.84,102.04,74.72,101.98,74.6,102.01z"/>
		<path class="st12" d="M58.84,90.19c1.8-0.62,3.76-0.25,5.49,0.42c0.32,0.12,0.63,0.27,0.94,0.41C61.2,87.31,54.78,84.99,53.49,92
			c-0.31,1.68,0.12,3.4,0.69,5c0.05,0.14,0.11,0.28,0.16,0.42C54.45,94.39,55.8,91.24,58.84,90.19z"/>
	</g>
	<g>
		<path class="st13" d="M134.07,122.58c-0.08-0.84-0.3-1.76-1-2.3c-0.77-0.59-1.84-0.46-2.67-0.11c-0.18,0.08-0.24,0.39,0.03,0.34
			c0.36-0.06,0.75-0.12,1.12-0.09c0.49,0.45,0.87,0.92,1.12,1.55c0.26,0.68,0.35,1.41,0.36,2.13c0.02,1.57-0.28,3.15-0.54,4.69
			c-0.06,0.38-0.13,0.75-0.18,1.13c-1.13,7.88-4.53,15.6-7.48,22.92c0.62-1.56,1.91-2.84,2.57-4.41c1.61-3.86,2.93-7.81,4.04-11.84
			c0.73-2.67,1.37-5.37,1.99-8.07C133.84,126.6,134.26,124.56,134.07,122.58z"/>
		<path class="st13" d="M142.4,123.81c-0.08-0.84-0.3-1.76-1-2.3c-0.77-0.59-1.84-0.46-2.67-0.11c-0.18,0.08-0.24,0.39,0.03,0.34
			c0.36-0.06,0.75-0.12,1.12-0.09c0.49,0.45,0.87,0.92,1.12,1.55c0.26,0.68,0.35,1.41,0.36,2.13c0.02,1.57-0.28,3.15-0.54,4.69
			c-0.06,0.38-0.13,0.75-0.18,1.13c-1.13,7.88-4.53,15.6-7.48,22.92c0.62-1.56,1.91-2.84,2.57-4.41c1.61-3.86,2.93-7.81,4.04-11.84
			c0.73-2.67,1.37-5.37,1.99-8.07C142.18,127.84,142.59,125.8,142.4,123.81z"/>
		<path class="st13" d="M150.3,124.57c-0.08-0.8-0.29-1.68-0.95-2.19c-0.73-0.56-1.75-0.44-2.55-0.1c-0.17,0.07-0.22,0.37,0.03,0.33
			c0.34-0.06,0.71-0.11,1.07-0.08c0.46,0.43,0.83,0.88,1.07,1.48c0.25,0.64,0.33,1.35,0.34,2.03c0.02,1.5-0.27,3-0.52,4.47
			c-0.06,0.36-0.12,0.72-0.18,1.08c-1.07,7.51-4.32,14.88-7.13,21.85c0.6-1.49,1.82-2.71,2.45-4.21c1.53-3.68,2.8-7.45,3.85-11.29
			c0.7-2.55,1.31-5.12,1.89-7.7C150.09,128.4,150.49,126.46,150.3,124.57z"/>
		<path class="st13" d="M157.8,125.06c-0.07-0.76-0.27-1.6-0.91-2.09c-0.7-0.54-1.67-0.42-2.43-0.1c-0.17,0.07-0.21,0.35,0.03,0.31
			c0.33-0.05,0.68-0.1,1.02-0.08c0.44,0.41,0.8,0.84,1.02,1.41c0.24,0.62,0.32,1.28,0.32,1.94c0.02,1.43-0.26,2.86-0.5,4.27
			c-0.06,0.34-0.12,0.68-0.17,1.03c-1.02,7.17-4.12,14.2-6.81,20.85c0.57-1.42,1.74-2.59,2.34-4.01c1.46-3.51,2.67-7.11,3.68-10.77
			c0.67-2.43,1.25-4.89,1.81-7.35C157.59,128.72,157.97,126.86,157.8,125.06z"/>
	</g>
	<path class="st14" d="M64.88,99.48c-1.25-3.03-3.45-5.71-6.37-7.26c-3.03-1.61-4.33,1.02-3.44,3.77c0.73,2.24,1.94,4.45,3.65,6.1
		c1.32,1.28,4.4,3.3,6.15,1.62c0.84-0.81,0.71-2.18,0.36-3.29C65.13,100.11,65.01,99.79,64.88,99.48z"/>
	<path class="st15" d="M62.33,99.57c-0.79-1.91-2.17-3.6-4.01-4.58c-1.91-1.01-2.73,0.64-2.17,2.38c0.46,1.41,1.22,2.8,2.3,3.84
		c0.83,0.81,2.77,2.08,3.87,1.02c0.53-0.51,0.45-1.37,0.22-2.07C62.48,99.97,62.41,99.77,62.33,99.57z"/>
	<path class="st9" d="M61.02,97.11c-0.62-1.51-1.72-2.86-3.18-3.63c-1.52-0.81-2.17,0.51-1.72,1.89c0.36,1.12,0.97,2.23,1.82,3.05
		c0.66,0.64,2.2,1.65,3.07,0.81c0.42-0.4,0.36-1.09,0.18-1.65C61.14,97.43,61.08,97.27,61.02,97.11z"/>
	<path class="st6" d="M322.33,84.2c-3.82,1.03-14.27,1.73-27.44,2.2c-73.19,2.64-148.12,0.35-220.64-10.76
		c4.84,1.57,9.73,2.98,14.72,4.14c10.01,2.32,20.17,3.95,30.37,5.18c10.08,1.22,20.2,2.07,30.32,2.87
		c10.25,0.81,20.48,1.59,30.75,2.11c10.5,0.53,21,0.93,31.5,1.42c5.25,0.25,10.49,0.52,15.74,0.84c4.69,0.29,9.38,0.76,14.07,0.98
		c3.02,0.14,6.05,0.22,9.02,0.83c1.61,0.33,3.33,0.83,4.76,1.72c3.57,1.64,6.65,4.32,7.78,8.16c0.88,3.01,0.29,6.15-0.97,8.96
		c-1.42,3.17-3.22,6.15-5.31,8.92c-4.4,5.85-9.86,10.83-15.64,15.3c-5.6,4.33-11.56,8.23-17.66,11.83
		c-6.58,3.88-14.09,5.68-21.69,5.8c-1.98,0.03-3.97-0.03-5.95-0.14c-1.94-0.11-3.87-0.31-5.82-0.3c-3.84,0.02-7.66,0.6-11.4,1.48
		c-7.8,1.85-15.26,5-22.36,8.67c-3.36,1.73-6.68,3.57-9.87,5.61c-1.16,0.74-2.41,1.49-3.36,2.51c-0.44,0.47-0.75,1.02-0.46,1.65
		c0.37,0.81,1.22,1.45,1.87,2.02c1.14,1,2.31,1.98,3.42,3.02c2.01,1.88,3.1,4.4,2.38,7.14c-0.39,1.47-1.31,2.9-2.51,4
		c6.38,0.29,12.75,0.19,19.05-0.34c44.29-3.67,89.75-27.58,122.54-56.96c10.62-9.52,20.52-20.34,27.75-32.71
		c2.22-3.8,6.71-10.52,6.69-15.65C323.54,84.41,322.95,84.26,322.33,84.2z"/>
	<path class="st6" d="M322.33,84.2c-3.82,1.03-14.27,1.73-27.44,2.2c-6.94,0.25-13.9,0.46-20.87,0.61c2.84,0.16,5.68,0.38,8.5,0.78
		c3.99,0.56,8.03,1.45,11.67,3.24c2.22,1.09,4.25,2.65,5.32,4.94c0.93,2,1.03,4.24,0.68,6.39c-0.42,2.58-1.44,5.04-2.63,7.35
		c-1.4,2.72-3.09,5.28-4.9,7.75c-3.68,5.01-7.85,9.64-12.18,14.09c-4.23,4.35-8.55,8.62-13.24,12.48
		c-4.19,3.45-8.58,6.64-13.01,9.78c-4.08,2.89-8.08,5.93-12.29,8.62c-3.9,2.5-8.23,4.71-12.91,5.15c-3.87,0.36-7.68-0.78-11.25-2.17
		c-7.25-2.82-14.84-7.23-22.81-5.01c2.08,1.92,4.25,3.73,6.34,5.65c1.95,1.79,3.77,3.71,5.35,5.84c1.86,2.52,3.35,5.29,4.72,8.1
		c0.01,0.02,0.01,0.03,0.02,0.05c28.94-10.36,56.35-27.47,78.16-47.01c10.62-9.52,20.52-20.34,27.75-32.71
		c2.22-3.8,6.71-10.52,6.69-15.65C323.54,84.41,322.95,84.26,322.33,84.2z"/>
	<g>
		<path class="st0" d="M243.29,192.09c-4.2-2.29-8.27-4.83-12.18-7.6c-3.88-2.75-7.59-5.75-11.08-8.97
			c-3.48-3.22-6.75-6.67-9.76-10.33c-0.76-0.92-1.5-1.86-2.23-2.81c-1.4-1.22-2.75-2.45-4.02-3.67c-9.96-9.56-44.07,1.75-57.03,6.58
			c-4.2,1.56-9.03,4.99-6.66,10.14c1.27,2.76,3.97,4.54,6.6,6.04c17.67,10.04,39.11,15.59,59.27,17.35
			c10.65,0.93,31.25,4.81,40.57-2.19c0.85-0.64,1.31-1.3,1.49-1.98C246.59,193.83,244.93,192.99,243.29,192.09z"/>
		<path class="st4" d="M179.32,188.52c-4.33-1.12-8.71-2.05-13.07-3.06c-2.11-0.49-4.23-1.01-6.34-1.57
			c3.15,1.34,6.35,2.56,9.57,3.71c4.17,1.49,8.36,2.95,12.61,4.22c8.39,2.51,17,4.57,25.73,5.44c-4.67-1.43-9.33-2.89-13.99-4.35
			C189.02,191.39,184.21,189.79,179.32,188.52z"/>
		<path class="st1" d="M248.41,194.35c-1.86-0.91-3.48-1.75-4.96-2.55c-4.21-2.3-8.3-4.85-12.14-7.58
			c-3.91-2.77-7.62-5.78-11.05-8.95c-3.48-3.22-6.76-6.68-9.73-10.29c-0.75-0.91-1.49-1.85-2.22-2.8l-0.05-0.05
			c-1.51-1.32-2.82-2.51-4.01-3.66c-0.76-0.73-1.67-1.34-2.72-1.86c0.02,0.04,0.04,0.08,0.05,0.12c0.09,0.24,0.14,0.49,0.15,0.74
			c0.77,0.42,1.46,0.92,2.06,1.49c1.19,1.15,2.51,2.34,4.01,3.66c0.73,0.95,1.47,1.89,2.22,2.79c2.99,3.64,6.29,7.12,9.8,10.36
			c3.45,3.18,7.19,6.21,11.12,9c3.87,2.74,7.97,5.31,12.21,7.62c1.42,0.77,2.96,1.57,4.72,2.44c-0.21,0.54-0.64,1.05-1.28,1.54
			c-7.73,5.81-23.26,4.04-34.6,2.74c-2.08-0.24-4.05-0.46-5.74-0.61c-21.86-1.91-42.86-8.06-59.13-17.31
			c-2.64-1.5-5.26-3.26-6.47-5.89c-0.4-0.87-0.59-1.71-0.58-2.53c-0.21-0.51-0.34-1.06-0.42-1.63c-0.44,1.41-0.31,2.9,0.4,4.44
			c1.29,2.8,4,4.63,6.74,6.19c16.36,9.3,37.46,15.48,59.41,17.4c1.68,0.15,3.64,0.37,5.72,0.61c5.28,0.6,11.47,1.31,17.38,1.31
			c6.9,0,13.42-0.96,17.71-4.18c0.87-0.65,1.41-1.38,1.62-2.16l0.07-0.27L248.41,194.35z"/>
	</g>
	<path class="st0" d="M156.69,165.97c4.31,0.07,8.58,0.75,12.68,2.1c4.7,1.54,9.12,3.83,13.4,6.31c4.3,2.49,8.47,5.19,12.8,7.63
		c3.94,2.22,8.04,4.19,12.21,5.94c8.86,3.73,18.22,6.58,27.8,7.67c3.95,0.45,7.99,0.6,11.98,0.28c0.36-0.41,0.6-0.82,0.71-1.25
		c-1.67-0.82-3.33-1.67-4.97-2.56c-4.2-2.29-8.27-4.83-12.18-7.6c-3.88-2.75-7.59-5.75-11.08-8.97c-3.48-3.22-6.75-6.67-9.76-10.33
		c-0.76-0.92-1.5-1.86-2.23-2.81c-1.4-1.22-2.75-2.45-4.02-3.67c-9.96-9.56-44.07,1.75-57.03,6.58c-2.36,0.88-4.92,2.35-6.29,4.38
		C145.29,166.7,151.37,165.89,156.69,165.97z"/>
	<path class="st0" d="M180.49,157.18c2.2,0.11,4.4,0.39,6.56,0.78c1.76,0.32,3.48,0.81,5.12,1.52c3.02,1.31,5.58,3.37,7.89,5.68
		c2.55,2.55,4.87,5.33,7.42,7.88c2.68,2.69,5.5,5.24,8.46,7.62c6.16,4.94,13.07,9.26,20.65,11.64c3.39,1.06,6.89,1.66,10.39,1.71
		c-1.24-0.62-2.47-1.25-3.68-1.92c-4.2-2.29-8.27-4.83-12.18-7.6c-3.88-2.75-7.59-5.75-11.08-8.97c-3.48-3.22-6.75-6.67-9.76-10.33
		c-0.76-0.92-1.5-1.86-2.23-2.81c-1.4-1.22-2.75-2.45-4.02-3.67c-5.47-5.25-18.23-4.2-30.76-1.39
		C175.66,157.12,178.07,157.06,180.49,157.18z"/>
	<path class="st16" d="M53.15,148.96c2.81-0.43,5.64-0.76,8.47-1.03c5.13-0.49,10.28-0.76,15.44-0.8c5.2-0.04,10.41,0.13,15.61,0.2
		c5.13,0.07,10.27,0.07,15.4,0.12c2.8,0.03,5.59,0.3,8.38,0.48c-5.13-4.47-11.09-7.9-17.12-11c-3.19-1.64-6.41-3.19-9.75-4.5
		c-3.42-1.34-6.92-2.48-10.45-3.49c-7.18-2.04-14.52-3.59-21.89-4.8c-6.84-1.12-13.79-2.02-20.73-2.12
		c-2.89-0.04-5.8,0.06-8.65,0.54c-1.02,0.17-2.04,0.39-3.04,0.69c6.35,9.72,14.03,18.53,22.7,26.35
		C49.41,149.53,51.29,149.25,53.15,148.96z"/>
	<g>
		<path class="st9" d="M45.13,147.82c0.18-0.03,0.36-0.06,0.55-0.09c19.25-2.86,39.47-4.34,58.88-2.37
			c0.76,0.08,1.52,0.18,2.28,0.26c-40.92-27.02-80.78-20.52-80.78-20.52C31.97,135.11,39.78,143.05,45.13,147.82z"/>
		<path class="st17" d="M45.13,148.09c-0.06,0-0.13-0.02-0.17-0.07c-5.47-4.89-13.24-12.82-19.13-22.77
			c-0.04-0.07-0.05-0.17-0.01-0.25c0.04-0.08,0.11-0.13,0.2-0.15c0.1-0.02,10.17-1.61,25.11,0.13c13.79,1.6,34.67,6.45,55.85,20.43
			c0.1,0.07,0.14,0.19,0.1,0.31c-0.04,0.11-0.15,0.18-0.28,0.17l-0.72-0.09c-0.52-0.06-1.04-0.12-1.55-0.18
			c-17.13-1.74-36.37-0.97-58.81,2.36l-0.54,0.09C45.16,148.09,45.14,148.09,45.13,148.09z M26.48,125.32
			c5.8,9.68,13.35,17.41,18.73,22.22l0.43-0.07c22.48-3.34,41.77-4.12,58.94-2.37c0.39,0.04,0.78,0.08,1.17,0.13
			c-20.77-13.45-41.14-18.16-54.66-19.73C37.85,123.97,28.45,125.05,26.48,125.32z"/>
	</g>
	<g>
		<path class="st18" d="M45.13,147.82c0.18-0.03,0.36-0.06,0.55-0.09c19.25-2.86,39.47-4.34,58.88-2.37
			c0.76,0.08,1.52,0.18,2.28,0.26c-40.92-27.02-80.78-20.52-80.78-20.52C31.97,135.11,39.78,143.05,45.13,147.82z"/>
		<path class="st19" d="M26.05,125.12c0.16,0.26,0.32,0.52,0.48,0.78c3.02-0.11,6.05-0.12,9.07,0.01c4.85,0.2,9.69,0.71,14.49,1.49
			c4.86,0.79,9.67,1.87,14.39,3.25c4.69,1.36,9.29,3.01,13.77,4.95c4.42,1.91,8.71,4.12,12.82,6.63c0.21,0.13,0.23,0.47,0,0.59
			c-1.09,0.59-2.2,1.13-3.32,1.67c5.64,0.05,11.25,0.32,16.8,0.89c0.76,0.08,1.52,0.18,2.28,0.26
			C65.91,118.62,26.05,125.12,26.05,125.12z"/>
		<path class="st20" d="M31.59,133.28l13.43,10.23l-0.22,0.16l-4.37-11.2c-0.04-0.11,0.01-0.23,0.12-0.27
			c0.08-0.03,0.16-0.01,0.22,0.04l10.74,10.05l-0.47,0.25l-1.5-9.2c-0.03-0.16,0.08-0.31,0.25-0.34c0.1-0.02,0.2,0.02,0.27,0.09
			l7.29,7.86l-0.54,0.21l-0.01-7.57c0-0.18,0.15-0.33,0.33-0.33c0.1,0,0.19,0.05,0.25,0.12l5.62,6.97l-0.59,0.17l0.78-6.23
			c0.02-0.18,0.18-0.3,0.36-0.28c0.09,0.01,0.16,0.06,0.22,0.12l4.58,5.94l-0.55,0.13l1.07-5.64c0.03-0.16,0.19-0.27,0.35-0.24
			c0.07,0.01,0.14,0.05,0.18,0.11l4.93,6.24l-0.51,0.14l0.77-5.22c0.02-0.15,0.16-0.25,0.31-0.23c0.08,0.01,0.15,0.06,0.19,0.13
			l3.32,5.38l-0.43,0.05l1.2-3.41c0.04-0.12,0.17-0.18,0.28-0.14c0.03,0.01,0.07,0.03,0.09,0.06l3.25,3.43l-0.34,0.08l1.05-3.3
			c0.03-0.1,0.13-0.15,0.23-0.12c0.04,0.01,0.07,0.04,0.1,0.07l2.51,3.46l-0.28,0.02l1.36-2.49c0.04-0.07,0.12-0.09,0.19-0.06
			c0.01,0,0.02,0.01,0.03,0.02l2.95,2.53l-0.14,0l1.05-0.88c0.03-0.02,0.06-0.03,0.09-0.02l10.51,3.45l-10.57-3.27l0.09-0.02
			l-1.03,0.9c-0.04,0.03-0.1,0.03-0.14,0l-2.99-2.48l0.21-0.04l-1.31,2.51c-0.04,0.08-0.14,0.11-0.22,0.07
			c-0.02-0.01-0.04-0.03-0.06-0.05l-2.54-3.44l0.33-0.05l-1.02,3.31c-0.03,0.11-0.15,0.17-0.25,0.13c-0.03-0.01-0.06-0.03-0.09-0.05
			l-3.28-3.4l0.37-0.08l-1.17,3.42c-0.04,0.13-0.18,0.19-0.31,0.15c-0.05-0.02-0.1-0.06-0.13-0.1l-3.37-5.35l0.5-0.1l-0.74,5.22
			c-0.02,0.16-0.17,0.27-0.32,0.24c-0.08-0.01-0.14-0.05-0.19-0.11l-4.95-6.23l0.53-0.13l-1.05,5.64c-0.03,0.17-0.19,0.28-0.36,0.25
			c-0.08-0.01-0.14-0.06-0.19-0.12l-4.6-5.93l0.57-0.16l-0.76,6.24c-0.02,0.18-0.19,0.31-0.37,0.29c-0.09-0.01-0.17-0.06-0.22-0.12
			l-5.61-6.98l0.58-0.2l-0.01,7.57c0,0.17-0.14,0.31-0.31,0.31c-0.09,0-0.17-0.04-0.23-0.1l-7.26-7.88l0.51-0.25l1.47,9.21
			c0.03,0.15-0.08,0.3-0.23,0.32c-0.09,0.01-0.18-0.02-0.24-0.07l-10.64-10.15l0.34-0.23l4.24,11.25c0.03,0.07-0.01,0.16-0.08,0.18
			c-0.05,0.02-0.1,0.01-0.14-0.02L31.59,133.28z"/>
	</g>
</g>
</svg>
