<?xml version="1.0" encoding="utf-8"?>
<!-- Generator: Adobe Illustrator 27.6.1, SVG Export Plug-In . SVG Version: 6.00 Build 0)  -->
<svg version="1.1" id="Calque_1" xmlns="http://www.w3.org/2000/svg" xmlns:xlink="http://www.w3.org/1999/xlink" x="0px" y="0px"
	 viewBox="0 0 1440 1024" style="enable-background:new 0 0 1440 1024;" xml:space="preserve">
<style type="text/css">
	.st0{fill-rule:evenodd;clip-rule:evenodd;fill:#1C1D2F;}
	.st1{fill-rule:evenodd;clip-rule:evenodd;fill:#58B6C3;}
	.st2{opacity:0.25;}
	
		.st3{clip-path:url(#SVGID_00000127745353024679877950000014248783556528640191_);fill-rule:evenodd;clip-rule:evenodd;fill:#12102A;}
	.st4{opacity:0.56;}
	
		.st5{clip-path:url(#SVGID_00000021078073392533862880000006538283038946525333_);fill-rule:evenodd;clip-rule:evenodd;fill:#1E4B66;}
	.st6{opacity:0.23;}
	.st7{clip-path:url(#SVGID_00000145032998431768072980000012091516721878370715_);}
	
		.st8{clip-path:url(#SVGID_00000166635625519864485330000010141228409616159136_);fill:url(#SVGID_00000005967874704134171230000007347527030473863092_);}
	.st9{fill:#D0E4F4;}
	.st10{fill:#6ABDDB;}
</style>
<g>
	<g>
		<path class="st0" d="M1381.12,122.1h-62.52c-4.48,0-8.13-3.65-8.13-8.13v2.18c0,4.48,3.65,8.13,8.13,8.13h62.52
			c4.48,0,8.13-3.65,8.13-8.13v-2.18C1389.25,118.45,1385.6,122.1,1381.12,122.1"/>
		<path class="st1" d="M1381.12,43.32h-62.52c-4.48,0-8.13,3.65-8.13,8.13v62.52c0,4.48,3.65,8.13,8.13,8.13h62.52
			c4.48,0,8.13-3.65,8.13-8.13V51.45C1389.25,46.96,1385.6,43.32,1381.12,43.32 M1387.94,113.97c0,3.77-3.06,6.82-6.82,6.82h-62.52
			c-3.77,0-6.82-3.05-6.82-6.82V51.45c0-3.77,3.06-6.82,6.82-6.82h62.52c3.77,0,6.82,3.05,6.82,6.82V113.97z"/>
		<g class="st2">
			<g>
				<defs>
					<rect id="SVGID_1_" x="1310.47" y="113.97" width="78.78" height="16.7"/>
				</defs>
				<clipPath id="SVGID_00000027593445050211760280000008484040505561220242_">
					<use xlink:href="#SVGID_1_"  style="overflow:visible;"/>
				</clipPath>
				
					<path style="clip-path:url(#SVGID_00000027593445050211760280000008484040505561220242_);fill-rule:evenodd;clip-rule:evenodd;fill:#12102A;" d="
					M1381.12,122.1h-62.52c-4.48,0-8.13-3.65-8.13-8.13v8.57c0,4.48,3.65,8.13,8.13,8.13h62.52c4.48,0,8.13-6.78,8.13-11.26v-5.44
					C1389.25,118.45,1385.6,122.1,1381.12,122.1"/>
			</g>
		</g>
		<g class="st4">
			<g>
				<defs>
					<rect id="SVGID_00000183232948825095936260000015324853822629426872_" x="1311.78" y="44.62" width="76.16" height="76.17"/>
				</defs>
				<clipPath id="SVGID_00000004525905720879552480000013637744584431587770_">
					<use xlink:href="#SVGID_00000183232948825095936260000015324853822629426872_"  style="overflow:visible;"/>
				</clipPath>
				
					<path style="clip-path:url(#SVGID_00000004525905720879552480000013637744584431587770_);fill-rule:evenodd;clip-rule:evenodd;fill:#1E4B66;" d="
					M1387.94,113.97c0,3.77-3.06,6.82-6.82,6.82h-62.52c-3.77,0-6.82-3.05-6.82-6.82V51.45c0-3.77,3.06-6.82,6.82-6.82h62.52
					c3.77,0,6.82,3.05,6.82,6.82V113.97z"/>
			</g>
		</g>
		<g class="st6">
			<g>
				<defs>
					<rect id="SVGID_00000160173929095954702430000003615120891227474345_" x="1314.9" y="47.75" width="69.91" height="32.96"/>
				</defs>
				<clipPath id="SVGID_00000009565093778801724620000014944487307939452063_">
					<use xlink:href="#SVGID_00000160173929095954702430000003615120891227474345_"  style="overflow:visible;"/>
				</clipPath>
				<g style="clip-path:url(#SVGID_00000009565093778801724620000014944487307939452063_);">
					<defs>
						<path id="SVGID_00000156549385037067720740000011370492249122165161_" d="M1384.81,80.71v-26.7c0-3.46-2.8-6.26-6.26-6.26
							h-57.39c-3.46,0-6.26,2.8-6.26,6.26v26.7H1384.81z"/>
					</defs>
					<clipPath id="SVGID_00000101786382723058791290000004050962269530175663_">
						<use xlink:href="#SVGID_00000156549385037067720740000011370492249122165161_"  style="overflow:visible;"/>
					</clipPath>
					
						<linearGradient id="SVGID_00000006706417125863635480000007318683249241020855_" gradientUnits="userSpaceOnUse" x1="0" y1="1024" x2="1" y2="1024" gradientTransform="matrix(0 40.644 40.644 0 -40269.5977 48.2501)">
						<stop  offset="0" style="stop-color:#4CA7B0"/>
						<stop  offset="1" style="stop-color:#000000"/>
					</linearGradient>
					
						<rect x="1314.9" y="47.75" style="clip-path:url(#SVGID_00000101786382723058791290000004050962269530175663_);fill:url(#SVGID_00000006706417125863635480000007318683249241020855_);" width="69.91" height="32.96"/>
				</g>
			</g>
		</g>
		<path class="st9" d="M1369.89,79.95L1369.89,79.95l-17.27-17.27c-0.74-0.74-1.71-1.14-2.76-1.14s-2.02,0.41-2.76,1.14
			l-17.26,17.26c-0.01,0.01-0.01,0.01-0.02,0.02c-1.51,1.52-1.51,3.99,0.01,5.5c0.69,0.69,1.61,1.09,2.59,1.14
			c0.04,0,0.08,0.01,0.12,0.01h0.69v12.71c0,2.52,2.05,4.56,4.56,4.56h6.76c0.68,0,1.24-0.55,1.24-1.24v-9.96
			c0-1.15,0.93-2.08,2.08-2.08h3.98c1.15,0,2.08,0.93,2.08,2.08v9.96c0,0.68,0.56,1.24,1.24,1.24h6.76c2.52,0,4.56-2.05,4.56-4.56
			V86.6h0.64c1.04,0,2.02-0.41,2.76-1.14C1371.4,83.94,1371.4,81.47,1369.89,79.95"/>
	</g>
	<g>
		<g>
			<path class="st10" d="M1332.67,151.75h-2.56l-1.03-3.45h-4.33l-1.07,3.45h-2.22l4.45-13.42h2.34L1332.67,151.75z M1328.73,146.88
				l-1.38-4.74c-0.2-0.67-0.31-1.21-0.35-1.62h-0.04c-0.07,0.35-0.19,0.89-0.37,1.62l-1.44,4.74H1328.73z"/>
			<path class="st10" d="M1340.11,151.23c-0.53,0.48-1.36,0.72-2.48,0.72c-1.22,0-2.22-0.49-2.99-1.46
				c-0.77-0.98-1.16-2.31-1.16-4.02c0-1.69,0.4-3.03,1.21-4.02c0.77-0.94,1.76-1.4,2.96-1.4c1.05,0,1.87,0.24,2.44,0.72l-0.51,1.35
				c-0.38-0.3-0.85-0.45-1.4-0.45c-1.54,0-2.3,1.25-2.3,3.76c0,1.18,0.2,2.11,0.59,2.79s0.95,1.01,1.67,1.01
				c0.57,0,1.05-0.16,1.42-0.47L1340.11,151.23z"/>
			<path class="st10" d="M1347.91,151.23c-0.53,0.48-1.36,0.72-2.48,0.72c-1.22,0-2.22-0.49-2.99-1.46
				c-0.77-0.98-1.16-2.31-1.16-4.02c0-1.69,0.4-3.03,1.21-4.02c0.77-0.94,1.76-1.4,2.96-1.4c1.05,0,1.87,0.24,2.44,0.72l-0.51,1.35
				c-0.38-0.3-0.85-0.45-1.4-0.45c-1.54,0-2.3,1.25-2.3,3.76c0,1.18,0.2,2.11,0.59,2.79s0.95,1.01,1.67,1.01
				c0.57,0,1.05-0.16,1.42-0.47L1347.91,151.23z"/>
			<path class="st10" d="M1357.58,151.13c-1.05,0.56-2.4,0.84-4.04,0.84c-2.72,0-4.08-1.18-4.08-3.55v-7.18h2.38v7.33
				c0,1.19,0.59,1.78,1.78,1.78c0.65,0,1.18-0.12,1.58-0.35v-8.76h2.38V151.13z"/>
			<path class="st10" d="M1368.12,146.43l-6.44,0.94c0.2,1.95,1.15,2.93,2.87,2.93c1.01,0,1.9-0.2,2.65-0.59l0.57,1.5
				c-0.9,0.49-2.05,0.74-3.47,0.74c-1.51,0-2.7-0.47-3.57-1.42c-0.87-0.95-1.31-2.3-1.31-4.06c0-1.7,0.4-3.03,1.2-3.99
				c0.8-0.96,1.9-1.43,3.29-1.43c1.4,0,2.47,0.46,3.2,1.38C1367.83,143.34,1368.17,144.67,1368.12,146.43z M1365.89,145.49
				c0-1.99-0.69-2.98-2.07-2.98c-0.73,0-1.29,0.29-1.68,0.88c-0.43,0.64-0.63,1.56-0.6,2.77L1365.89,145.49z"/>
			<path class="st10" d="M1372.54,138.25c0,0.33-0.13,0.6-0.38,0.83c-0.25,0.23-0.56,0.34-0.93,0.34c-0.36,0-0.67-0.11-0.93-0.34
				s-0.38-0.5-0.38-0.83c0-0.32,0.13-0.6,0.38-0.84c0.25-0.23,0.56-0.35,0.93-0.35c0.36,0,0.67,0.11,0.93,0.34
				C1372.42,137.63,1372.54,137.92,1372.54,138.25z M1372.43,151.75h-2.38v-10.51h2.38V151.75z"/>
			<path class="st10" d="M1377.21,151.75h-2.38v-15.33h2.38V151.75z"/>
		</g>
	</g>
</g>
</svg>
