<?xml version="1.0" encoding="utf-8"?>
<!-- Generator: Adobe Illustrator 27.6.1, SVG Export Plug-In . SVG Version: 6.00 Build 0)  -->
<svg version="1.1" id="Calque_1" xmlns="http://www.w3.org/2000/svg" xmlns:xlink="http://www.w3.org/1999/xlink" x="0px" y="0px"
	 viewBox="0 0 1440 1024" style="enable-background:new 0 0 1440 1024;" xml:space="preserve">
<style type="text/css">
	.st0{fill-rule:evenodd;clip-rule:evenodd;fill:#1C1D2F;}
	.st1{fill-rule:evenodd;clip-rule:evenodd;fill:#58B6C3;}
	.st2{opacity:0.25;}
	
		.st3{clip-path:url(#SVGID_00000031908591953452477740000002950498036144336567_);fill-rule:evenodd;clip-rule:evenodd;fill:#12102A;}
	.st4{opacity:0.56;}
	
		.st5{clip-path:url(#SVGID_00000126285902300914828440000018402657964559027351_);fill-rule:evenodd;clip-rule:evenodd;fill:#1E4B66;}
	.st6{opacity:0.23;}
	.st7{clip-path:url(#SVGID_00000105413447038326112780000014580312272283216013_);}
	
		.st8{clip-path:url(#SVGID_00000148621766959221122800000000554350574694530735_);fill:url(#SVGID_00000047763111136218444350000018192890539807932598_);}
	.st9{fill:#6ABDDB;}
	.st10{fill:#D0E4F4;}
</style>
<g>
	<g>
		<path class="st0" d="M113.34,122.1H50.82c-4.48,0-8.13-3.65-8.13-8.13v2.18c0,4.48,3.65,8.13,8.13,8.13h62.52
			c4.48,0,8.13-3.65,8.13-8.13v-2.18C121.47,118.45,117.82,122.1,113.34,122.1"/>
		<path class="st1" d="M113.34,43.32H50.82c-4.48,0-8.13,3.65-8.13,8.13v62.52c0,4.48,3.65,8.13,8.13,8.13h62.52
			c4.48,0,8.13-3.65,8.13-8.13V51.45C121.47,46.96,117.82,43.32,113.34,43.32 M120.16,113.97c0,3.77-3.06,6.82-6.82,6.82H50.82
			c-3.77,0-6.82-3.05-6.82-6.82V51.45c0-3.77,3.06-6.82,6.82-6.82h62.52c3.77,0,6.82,3.05,6.82,6.82V113.97z"/>
		<g class="st2">
			<g>
				<defs>
					<rect id="SVGID_1_" x="42.69" y="113.97" width="78.78" height="16.7"/>
				</defs>
				<clipPath id="SVGID_00000121987471789066502190000014903529419131542938_">
					<use xlink:href="#SVGID_1_"  style="overflow:visible;"/>
				</clipPath>
				
					<path style="clip-path:url(#SVGID_00000121987471789066502190000014903529419131542938_);fill-rule:evenodd;clip-rule:evenodd;fill:#12102A;" d="
					M113.34,122.1H50.82c-4.48,0-8.13-3.65-8.13-8.13v8.57c0,4.48,3.65,8.13,8.13,8.13h62.52c4.48,0,8.13-6.78,8.13-11.26v-5.44
					C121.47,118.45,117.82,122.1,113.34,122.1"/>
			</g>
		</g>
		<g class="st4">
			<g>
				<defs>
					<rect id="SVGID_00000168801668911818991740000002393955051306461844_" x="44" y="44.62" width="76.17" height="76.17"/>
				</defs>
				<clipPath id="SVGID_00000023238878485291041250000000205946605978251179_">
					<use xlink:href="#SVGID_00000168801668911818991740000002393955051306461844_"  style="overflow:visible;"/>
				</clipPath>
				
					<path style="clip-path:url(#SVGID_00000023238878485291041250000000205946605978251179_);fill-rule:evenodd;clip-rule:evenodd;fill:#1E4B66;" d="
					M120.16,113.97c0,3.77-3.06,6.82-6.82,6.82H50.82c-3.77,0-6.82-3.05-6.82-6.82V51.45c0-3.77,3.06-6.82,6.82-6.82h62.52
					c3.77,0,6.82,3.05,6.82,6.82V113.97z"/>
			</g>
		</g>
		<g class="st6">
			<g>
				<defs>
					<rect id="SVGID_00000121263702343531661450000008510490189905516220_" x="47.12" y="47.75" width="69.91" height="32.96"/>
				</defs>
				<clipPath id="SVGID_00000072266308647873536070000008796829313853915019_">
					<use xlink:href="#SVGID_00000121263702343531661450000008510490189905516220_"  style="overflow:visible;"/>
				</clipPath>
				<g style="clip-path:url(#SVGID_00000072266308647873536070000008796829313853915019_);">
					<defs>
						<path id="SVGID_00000176014914070494688220000007226433018436623767_" d="M117.04,80.71v-26.7c0-3.46-2.8-6.26-6.26-6.26
							H53.39c-3.46,0-6.26,2.8-6.26,6.26v26.7H117.04z"/>
					</defs>
					<clipPath id="SVGID_00000096050786691792295220000003162289346398896265_">
						<use xlink:href="#SVGID_00000176014914070494688220000007226433018436623767_"  style="overflow:visible;"/>
					</clipPath>
					
						<linearGradient id="SVGID_00000073720634676474440960000014731962735412678307_" gradientUnits="userSpaceOnUse" x1="0" y1="1024" x2="1" y2="1024" gradientTransform="matrix(0 40.644 40.644 0 -41537.3789 48.2501)">
						<stop  offset="0" style="stop-color:#4CA7B0"/>
						<stop  offset="1" style="stop-color:#000000"/>
					</linearGradient>
					
						<rect x="47.12" y="47.75" style="clip-path:url(#SVGID_00000096050786691792295220000003162289346398896265_);fill:url(#SVGID_00000073720634676474440960000014731962735412678307_);" width="69.91" height="32.96"/>
				</g>
			</g>
		</g>
	</g>
	<g>
		<path class="st9" d="M51.28,142.31c0,1.22-0.38,2.21-1.15,2.96c-0.87,0.82-2.11,1.23-3.73,1.23c-0.25,0-0.5-0.01-0.76-0.02
			l-0.53-0.04v5.31h-2.44V138.9c0.98-0.51,2.21-0.76,3.71-0.76c1.65,0,2.9,0.4,3.75,1.19C50.9,140.06,51.28,141.05,51.28,142.31z
			 M48.9,142.29c0-1.82-0.85-2.73-2.54-2.73c-0.49,0-0.91,0.07-1.24,0.21v5.21l0.5,0.04c0.18,0.01,0.36,0.02,0.52,0.02
			C47.98,145.04,48.9,144.13,48.9,142.29z"/>
		<path class="st9" d="M58.34,141.06l-0.47,1.74c-0.35-0.12-0.72-0.18-1.09-0.18c-0.46,0-0.83,0.08-1.13,0.25v8.88h-2.38v-9.95
			C54.43,141.25,56.12,141,58.34,141.06z"/>
		<path class="st9" d="M67.96,146.43l-6.44,0.94c0.19,1.95,1.15,2.93,2.87,2.93c1.01,0,1.9-0.2,2.65-0.59l0.57,1.5
			c-0.9,0.49-2.05,0.74-3.47,0.74c-1.51,0-2.7-0.47-3.57-1.42c-0.87-0.95-1.31-2.3-1.31-4.06c0-1.7,0.4-3.03,1.2-3.99
			c0.8-0.96,1.9-1.43,3.29-1.43c1.4,0,2.47,0.46,3.2,1.38C67.67,143.34,68.01,144.67,67.96,146.43z M65.73,145.49
			c0-1.99-0.69-2.98-2.07-2.98c-0.73,0-1.29,0.29-1.68,0.88c-0.43,0.64-0.63,1.56-0.6,2.77L65.73,145.49z M66.47,137.43l-2.36,2.69
			h-1.33l1.37-2.75c0.4-0.23,0.86-0.35,1.37-0.35C66.05,137.02,66.37,137.16,66.47,137.43z"/>
		<path class="st9" d="M76.36,151.23c-0.53,0.48-1.36,0.72-2.48,0.72c-1.22,0-2.22-0.49-2.99-1.46c-0.77-0.98-1.16-2.31-1.16-4.02
			c0-1.69,0.4-3.03,1.21-4.02c0.77-0.94,1.76-1.4,2.96-1.4c1.05,0,1.87,0.24,2.44,0.72l-0.51,1.35c-0.38-0.3-0.85-0.45-1.4-0.45
			c-1.53,0-2.3,1.25-2.3,3.76c0,1.18,0.2,2.11,0.6,2.79c0.4,0.68,0.95,1.01,1.67,1.01c0.57,0,1.05-0.16,1.42-0.47L76.36,151.23z"/>
		<path class="st9" d="M86.23,146.43l-6.44,0.94c0.19,1.95,1.15,2.93,2.87,2.93c1.01,0,1.9-0.2,2.65-0.59l0.57,1.5
			c-0.9,0.49-2.05,0.74-3.47,0.74c-1.51,0-2.7-0.47-3.57-1.42c-0.87-0.95-1.31-2.3-1.31-4.06c0-1.7,0.4-3.03,1.2-3.99
			c0.8-0.96,1.9-1.43,3.29-1.43c1.4,0,2.47,0.46,3.2,1.38C85.95,143.34,86.29,144.67,86.23,146.43z M84.01,145.49
			c0-1.99-0.69-2.98-2.07-2.98c-0.73,0-1.29,0.29-1.68,0.88c-0.43,0.64-0.63,1.56-0.6,2.77L84.01,145.49z M84.75,137.43l-2.36,2.69
			h-1.33l1.37-2.75c0.4-0.23,0.86-0.35,1.37-0.35C84.33,137.02,84.65,137.16,84.75,137.43z"/>
		<path class="st9" d="M96.59,151.19c-0.91,0.51-2.13,0.76-3.67,0.76c-1.55,0-2.75-0.47-3.61-1.4c-0.86-0.94-1.29-2.24-1.29-3.92
			c0-1.69,0.43-3.04,1.29-4.04c0.83-0.96,1.94-1.44,3.32-1.44c0.61,0,1.14,0.06,1.58,0.19v-4.92h2.38V151.19z M94.21,150.19v-7.57
			c-0.31-0.09-0.66-0.14-1.05-0.14c-1.85,0-2.77,1.33-2.77,4c0,2.63,0.86,3.94,2.59,3.94C93.55,150.43,93.96,150.35,94.21,150.19z"
			/>
		<path class="st9" d="M107.42,146.43l-6.44,0.94c0.19,1.95,1.15,2.93,2.87,2.93c1.01,0,1.9-0.2,2.65-0.59l0.57,1.5
			c-0.9,0.49-2.05,0.74-3.47,0.74c-1.51,0-2.7-0.47-3.57-1.42c-0.87-0.95-1.31-2.3-1.31-4.06c0-1.7,0.4-3.03,1.2-3.99
			c0.8-0.96,1.9-1.43,3.29-1.43c1.4,0,2.47,0.46,3.2,1.38C107.13,143.34,107.47,144.67,107.42,146.43z M105.19,145.49
			c0-1.99-0.69-2.98-2.07-2.98c-0.73,0-1.29,0.29-1.68,0.88c-0.43,0.64-0.63,1.56-0.6,2.77L105.19,145.49z"/>
		<path class="st9" d="M117.87,151.75h-2.38v-7.45c0-1.17-0.63-1.76-1.89-1.76c-0.6,0-1.14,0.1-1.64,0.29v8.91h-2.38v-9.95
			c1.08-0.51,2.45-0.76,4.12-0.76c1.47,0,2.56,0.33,3.26,0.98c0.61,0.55,0.92,1.29,0.92,2.24V151.75z"/>
		<path class="st9" d="M125.01,151.65c-0.31,0.14-0.72,0.21-1.21,0.21c-0.96,0-1.7-0.29-2.22-0.88c-0.44-0.51-0.66-1.16-0.66-1.97
			v-6.26h-1.17v-1.52h1.17v-2.34l2.38-0.67v3h1.72v1.52h-1.72v6.13c0,0.91,0.38,1.36,1.15,1.36c0.16,0,0.34-0.03,0.57-0.08V151.65z"
			/>
	</g>
	<g>
		<path class="st10" d="M69.8,79.27L87.48,61.6c1.9-1.9,4.97-1.9,6.87,0c1.9,1.9,1.9,4.97,0,6.87L80.11,82.71l14.24,14.23
			c1.9,1.9,1.9,4.97,0,6.87c-1.9,1.9-4.97,1.9-6.87,0L69.8,86.14C67.91,84.25,67.91,81.17,69.8,79.27"/>
	</g>
</g>
</svg>
