<?xml version="1.0" encoding="utf-8"?>
<!-- Generator: Adobe Illustrator 27.6.1, SVG Export Plug-In . SVG Version: 6.00 Build 0)  -->
<svg version="1.1" id="Calque_1" xmlns="http://www.w3.org/2000/svg" xmlns:xlink="http://www.w3.org/1999/xlink" x="0px" y="0px"
	 viewBox="0 0 1440 1024" style="enable-background:new 0 0 1440 1024;" xml:space="preserve">
<style type="text/css">
	.st0{fill:#AA662D;}
	
		.st1{clip-path:url(#SVGID_00000137101309016564062890000013132789125750953883_);fill:url(#SVGID_00000104706312679771452520000018386685270683969925_);}
	.st2{fill:#B58F33;}
	
		.st3{clip-path:url(#SVGID_00000043449690196506778460000001339045695023078041_);fill:url(#SVGID_00000062163234777355146400000001214621015889898682_);}
	
		.st4{clip-path:url(#SVGID_00000158020469906716155080000008044870568988529546_);fill:url(#SVGID_00000093877346303072807390000010717069897568246169_);}
	
		.st5{clip-path:url(#SVGID_00000033328490184970466880000018361690439785518732_);fill:url(#SVGID_00000117640104917547823450000011116847809181241004_);}
	
		.st6{clip-path:url(#SVGID_00000158739440329418223380000009751898076791048114_);fill:url(#SVGID_00000145778443639411515590000007161798698843139981_);}
	.st7{fill:#F8EC56;}
	
		.st8{clip-path:url(#SVGID_00000075876995741742468190000012231930449653688960_);fill:url(#SVGID_00000100356547612522661630000012706981305672671891_);}
	
		.st9{clip-path:url(#SVGID_00000011717609858796122470000012346241387003479988_);fill:url(#SVGID_00000134209563279857362000000017512982055093029264_);}
	
		.st10{clip-path:url(#SVGID_00000011712521902691436610000012736566948523561653_);fill:url(#SVGID_00000103950033760026428270000008282189737681822897_);}
	
		.st11{clip-path:url(#SVGID_00000088103826623281967200000005020690947611774367_);fill:url(#SVGID_00000105423868248978240330000010320838411335709336_);}
	
		.st12{clip-path:url(#SVGID_00000155866367975473137340000010290381845696180366_);fill:url(#SVGID_00000064343349135204224380000015331289513982071945_);}
	
		.st13{clip-path:url(#SVGID_00000013884630858143112920000006601637878287573128_);fill:url(#SVGID_00000058580145213285086800000002210912444763694242_);}
	
		.st14{clip-path:url(#SVGID_00000123442885638546721480000014669817054146425534_);fill:url(#SVGID_00000047778735747740516000000001708069048368699541_);}
	
		.st15{clip-path:url(#SVGID_00000047029958063336835760000016848001519900926909_);fill:url(#SVGID_00000115501045404404464340000011177949917567687609_);}
	
		.st16{clip-path:url(#SVGID_00000155137705168362900350000017607367235812866234_);fill:url(#SVGID_00000149355982817233582570000015596000262515750541_);}
	
		.st17{clip-path:url(#SVGID_00000062879673932170421900000009489723552904047537_);fill:url(#SVGID_00000166649120016934900180000013961743004660041859_);}
	
		.st18{clip-path:url(#SVGID_00000126288880248575489610000003921160082190932902_);fill:url(#SVGID_00000067207804209578642180000005126219566937459339_);}
	
		.st19{clip-path:url(#SVGID_00000088811992122621210130000009639220543684084104_);fill:url(#SVGID_00000174597434981248081140000008652049555194970765_);}
	.st20{opacity:0.5;}
	.st21{clip-path:url(#SVGID_00000008127926961903128210000003845915638142450828_);}
	
		.st22{clip-path:url(#SVGID_00000056415697555410198160000011927611229732569223_);fill:url(#SVGID_00000036247738650340572730000017751224423487198359_);}
	.st23{opacity:0.2;}
	.st24{clip-path:url(#SVGID_00000057857433266281559570000008093021295490642577_);}
	
		.st25{clip-path:url(#SVGID_00000111907185891415761430000009200526036627164808_);fill:url(#SVGID_00000126304299355042256140000013168292264987285379_);}
	.st26{filter:url(#Adobe_OpacityMaskFilter);}
	.st27{enable-background:new    ;}
	.st28{filter:url(#Adobe_OpacityMaskFilter_00000167364111936368289890000013051404180141541282_);}
	
		.st29{clip-path:url(#SVGID_00000005228479150239409130000009238357436370677933_);mask:url(#SVGID_00000086693413054436120990000009501036647997076385_);fill:url(#SVGID_00000042730414257983980010000011923326299469877651_);}
	.st30{clip-path:url(#SVGID_00000022543380721130645840000016482543909874305920_);}
	
		.st31{clip-path:url(#SVGID_00000026150794608656564970000012026509571067459987_);fill:url(#SVGID_00000104699053559820342180000011512640294043489172_);}
	.st32{fill:#FFFFFF;}
	.st33{filter:url(#Adobe_OpacityMaskFilter_00000181071271147524105710000009220247641165127083_);}
	.st34{filter:url(#Adobe_OpacityMaskFilter_00000167394320533724600860000008363294299872734860_);}
	
		.st35{clip-path:url(#SVGID_00000057869485065074853100000018427395970792282518_);mask:url(#SVGID_00000016771255791436781580000015866794106325267337_);fill:url(#SVGID_00000076580383003373320010000005231858883006133164_);}
	.st36{clip-path:url(#SVGID_00000163037186130204120770000007544244475841382022_);}
	
		.st37{clip-path:url(#SVGID_00000075155830401852470180000001208262862019206575_);fill:url(#SVGID_00000008834443635429842860000000268159694450378427_);}
	.st38{filter:url(#Adobe_OpacityMaskFilter_00000070823094903030767050000015532394115313031862_);}
	.st39{filter:url(#Adobe_OpacityMaskFilter_00000128454564516963714440000002366445666253572274_);}
	
		.st40{clip-path:url(#SVGID_00000106826132970546866570000014848353888452683446_);mask:url(#SVGID_00000119818355811961853540000013128137549457229738_);fill:url(#SVGID_00000104707429296351665790000011712041498557894034_);}
	.st41{clip-path:url(#SVGID_00000057855295554358838280000008810957376286505623_);}
	
		.st42{clip-path:url(#SVGID_00000042730815221428163870000004985897845881365154_);fill:url(#SVGID_00000172402834594362411100000012761616207269612452_);}
	.st43{fill:#1C3C47;}
</style>
<g>
	<g>
		<path class="st0" d="M1122.21,581.95c-53.28,0-71.71-18.43-71.71-71.71s18.13-71.71,71.71-71.71s71.71,18.13,71.71,71.71
			C1193.93,563.82,1175.49,581.95,1122.21,581.95"/>
	</g>
	<g>
		<defs>
			<path id="SVGID_1_" d="M1067.87,456.01c-10.44,10.48-15.1,27.21-15.1,54.23c0,26.98,4.69,43.71,15.21,54.23
				s27.24,15.21,54.23,15.21c27.03,0,43.75-4.66,54.23-15.1c10.52-10.48,15.21-27.24,15.21-54.34c0-27.14-4.66-43.9-15.1-54.34
				c-10.44-10.44-27.2-15.1-54.34-15.1C1095.12,440.8,1078.36,445.49,1067.87,456.01"/>
		</defs>
		<clipPath id="SVGID_00000016056144146575028180000010260715445797440649_">
			<use xlink:href="#SVGID_1_"  style="overflow:visible;"/>
		</clipPath>
		
			<linearGradient id="SVGID_00000109721038492817367320000015158374254946328460_" gradientUnits="userSpaceOnUse" x1="8.789593e-07" y1="1024" x2="1" y2="1024" gradientTransform="matrix(0 138.8805 138.8805 0 -141091.3906 440.7969)">
			<stop  offset="0" style="stop-color:#D9A440"/>
			<stop  offset="5.585454e-04" style="stop-color:#DAA644"/>
			<stop  offset="1.085390e-03" style="stop-color:#DCAA4F"/>
			<stop  offset="1.599696e-03" style="stop-color:#DFB262"/>
			<stop  offset="2.106429e-03" style="stop-color:#E4BD7D"/>
			<stop  offset="2.607560e-03" style="stop-color:#EACBA0"/>
			<stop  offset="3.097338e-03" style="stop-color:#F2DBC9"/>
			<stop  offset="3.486470e-03" style="stop-color:#F9EBF0"/>
			<stop  offset="0.5" style="stop-color:#EDDC9F"/>
			<stop  offset="0.5589" style="stop-color:#E4D095"/>
			<stop  offset="0.6667" style="stop-color:#CDAE7A"/>
			<stop  offset="0.8114" style="stop-color:#A7794F"/>
			<stop  offset="0.9857" style="stop-color:#732F13"/>
			<stop  offset="1" style="stop-color:#6E290E"/>
		</linearGradient>
		
			<rect x="1052.77" y="440.8" style="clip-path:url(#SVGID_00000016056144146575028180000010260715445797440649_);fill:url(#SVGID_00000109721038492817367320000015158374254946328460_);" width="138.88" height="138.88"/>
	</g>
	<g>
		<path class="st0" d="M1122.21,572.85c-25.03,0-40.27-4.07-49.4-13.21c-9.14-9.14-13.21-24.37-13.21-49.4
			c0-25.08,4.04-40.32,13.11-49.42c9.1-9.13,24.37-13.2,49.51-13.2c25.19,0,40.46,4.04,49.52,13.1c9.06,9.06,13.1,24.33,13.1,49.52
			c0,25.14-4.07,40.41-13.2,49.51C1162.53,568.81,1147.29,572.85,1122.21,572.85"/>
		<path class="st2" d="M1122.21,570.58c-24.38,0-39.12-3.87-47.8-12.55s-12.55-23.42-12.55-47.8c0-24.43,3.84-39.17,12.45-47.81
			c8.64-8.67,23.41-12.53,47.9-12.53c24.53,0,39.31,3.83,47.91,12.43s12.43,23.37,12.43,47.91c0,24.48-3.86,39.26-12.53,47.9
			C1161.39,566.74,1146.64,570.58,1122.21,570.58"/>
	</g>
	<g>
		<defs>
			<path id="SVGID_00000153705787204185409560000011983430424824020904_" d="M1075.61,463.71c-8.24,8.27-11.92,22.62-11.92,46.53
				c0,23.86,3.7,38.2,12.01,46.51l46.51-46.51l-46.56-46.57C1075.64,463.69,1075.62,463.7,1075.61,463.71"/>
		</defs>
		<clipPath id="SVGID_00000179608974909115054080000009549395596304813955_">
			<use xlink:href="#SVGID_00000153705787204185409560000011983430424824020904_"  style="overflow:visible;"/>
		</clipPath>
		
			<linearGradient id="SVGID_00000111193150672974833480000006130363817141679790_" gradientUnits="userSpaceOnUse" x1="-6.557702e-07" y1="1024" x2="1" y2="1024" gradientTransform="matrix(0 93.0739 93.0739 0 -94214.7266 463.6721)">
			<stop  offset="0" style="stop-color:#FBF6AE"/>
			<stop  offset="0.999" style="stop-color:#F2BF46"/>
			<stop  offset="1" style="stop-color:#F2BF46"/>
		</linearGradient>
		
			<rect x="1063.69" y="463.67" style="clip-path:url(#SVGID_00000179608974909115054080000009549395596304813955_);fill:url(#SVGID_00000111193150672974833480000006130363817141679790_);" width="58.52" height="93.07"/>
	</g>
	<g>
		<defs>
			<path id="SVGID_00000049944254550026454180000000060982474328160407_" d="M1075.7,556.75c8.31,8.31,22.65,12.01,46.51,12.01
				c23.91,0,38.26-3.68,46.52-11.92c0.02-0.01,0.03-0.03,0.04-0.04l-46.57-46.57L1075.7,556.75z"/>
		</defs>
		<clipPath id="SVGID_00000038372013604922673280000016203574835243148200_">
			<use xlink:href="#SVGID_00000049944254550026454180000000060982474328160407_"  style="overflow:visible;"/>
		</clipPath>
		
			<linearGradient id="SVGID_00000058584490725542343460000011095056829052397201_" gradientUnits="userSpaceOnUse" x1="-1.042932e-06" y1="1024" x2="1" y2="1024" gradientTransform="matrix(0 58.5227 58.5227 0 -58804.9805 510.2371)">
			<stop  offset="0" style="stop-color:#FBF6AE"/>
			<stop  offset="0.999" style="stop-color:#F2BF46"/>
			<stop  offset="1" style="stop-color:#F2BF46"/>
		</linearGradient>
		
			<rect x="1075.71" y="510.24" style="clip-path:url(#SVGID_00000038372013604922673280000016203574835243148200_);fill:url(#SVGID_00000058584490725542343460000011095056829052397201_);" width="93.07" height="58.52"/>
	</g>
	<g>
		<defs>
			<path id="SVGID_00000075875136483055161100000015332364320291270844_" d="M1075.65,463.67l46.56,46.57l46.62-46.62
				c-8.23-8.23-22.61-11.9-46.62-11.9C1098.29,451.71,1083.93,455.4,1075.65,463.67"/>
		</defs>
		<clipPath id="SVGID_00000050624186767700302020000004503863512654570116_">
			<use xlink:href="#SVGID_00000075875136483055161100000015332364320291270844_"  style="overflow:visible;"/>
		</clipPath>
		
			<linearGradient id="SVGID_00000155125375281382391540000008040949119153230467_" gradientUnits="userSpaceOnUse" x1="-8.343467e-06" y1="1024" x2="1" y2="1024" gradientTransform="matrix(0 58.5226 58.5226 0 -58804.8867 451.7145)">
			<stop  offset="0" style="stop-color:#FBF6AE"/>
			<stop  offset="0.999" style="stop-color:#F2BF46"/>
			<stop  offset="1" style="stop-color:#F2BF46"/>
		</linearGradient>
		
			<rect x="1075.65" y="451.71" style="clip-path:url(#SVGID_00000050624186767700302020000004503863512654570116_);fill:url(#SVGID_00000155125375281382391540000008040949119153230467_);" width="93.19" height="58.52"/>
	</g>
	<g>
		<defs>
			<path id="SVGID_00000083081027164855682460000007135715726192092331_" d="M1122.21,510.24l46.57,46.57
				c8.27-8.28,11.96-22.64,11.96-46.57c0-24.01-3.67-38.39-11.9-46.62L1122.21,510.24z"/>
		</defs>
		<clipPath id="SVGID_00000078765171482994609100000013110118296980166796_">
			<use xlink:href="#SVGID_00000083081027164855682460000007135715726192092331_"  style="overflow:visible;"/>
		</clipPath>
		
			<linearGradient id="SVGID_00000067916262746233562480000004688205209385054113_" gradientUnits="userSpaceOnUse" x1="6.549753e-07" y1="1024" x2="1" y2="1024" gradientTransform="matrix(0 93.1871 93.1871 0 -94272.1094 463.6149)">
			<stop  offset="0" style="stop-color:#FBF6AE"/>
			<stop  offset="0.999" style="stop-color:#F2BF46"/>
			<stop  offset="1" style="stop-color:#F2BF46"/>
		</linearGradient>
		
			<rect x="1122.21" y="463.61" style="clip-path:url(#SVGID_00000078765171482994609100000013110118296980166796_);fill:url(#SVGID_00000067916262746233562480000004688205209385054113_);" width="58.52" height="93.19"/>
	</g>
	<g>
		<path class="st7" d="M1122.21,566.94c-23.33,0-37.28-3.54-45.22-11.48c-7.94-7.94-11.48-21.89-11.48-45.22
			c0-23.39,3.51-37.34,11.39-45.24c7.9-7.93,21.88-11.46,45.32-11.46c23.49,0,37.47,3.51,45.33,11.37
			c7.86,7.86,11.37,21.84,11.37,45.34c0,23.44-3.54,37.42-11.46,45.32C1159.55,563.43,1145.6,566.94,1122.21,566.94"/>
	</g>
	<g>
		<defs>
			<path id="SVGID_00000007425436104588436090000010753019707170543757_" d="M1078.19,466.28c-7.51,7.53-10.85,21.09-10.85,43.96
				c0,22.81,3.38,36.36,10.95,43.93c0,0,0,0,0,0l43.94-43.94l-43.99-43.99C1078.21,466.26,1078.2,466.27,1078.19,466.28"/>
		</defs>
		<clipPath id="SVGID_00000078007304670148650250000006681774454547714959_">
			<use xlink:href="#SVGID_00000007425436104588436090000010753019707170543757_"  style="overflow:visible;"/>
		</clipPath>
		
			<linearGradient id="SVGID_00000050622592601920252570000017770288181892920511_" gradientUnits="userSpaceOnUse" x1="6.941556e-06" y1="1024" x2="1" y2="1024" gradientTransform="matrix(0 87.9272 87.9272 0 -88942.6953 466.2454)">
			<stop  offset="0" style="stop-color:#FBF6AE"/>
			<stop  offset="0.9962" style="stop-color:#F4CB5E"/>
			<stop  offset="1" style="stop-color:#F4CB5E"/>
		</linearGradient>
		
			<rect x="1067.33" y="466.25" style="clip-path:url(#SVGID_00000078007304670148650250000006681774454547714959_);fill:url(#SVGID_00000050622592601920252570000017770288181892920511_);" width="54.88" height="87.93"/>
	</g>
	<g>
		<defs>
			<path id="SVGID_00000003070134783611123970000000087992000071464383_" d="M1078.28,554.17c7.57,7.57,21.12,10.95,43.94,10.95
				c22.87,0,36.42-3.35,43.96-10.85c0.01-0.01,0.02-0.03,0.04-0.04l-43.99-43.99L1078.28,554.17z"/>
		</defs>
		<clipPath id="SVGID_00000101826022490030165790000010767958712756417185_">
			<use xlink:href="#SVGID_00000003070134783611123970000000087992000071464383_"  style="overflow:visible;"/>
		</clipPath>
		
			<linearGradient id="SVGID_00000073692640375126765390000012482871042980285353_" gradientUnits="userSpaceOnUse" x1="-1.112086e-06" y1="1024" x2="1" y2="1024" gradientTransform="matrix(0 54.8835 54.8835 0 -55078.4414 510.2371)">
			<stop  offset="0" style="stop-color:#FBF6AE"/>
			<stop  offset="0.9962" style="stop-color:#F4CB5E"/>
			<stop  offset="1" style="stop-color:#F4CB5E"/>
		</linearGradient>
		
			<rect x="1078.28" y="510.24" style="clip-path:url(#SVGID_00000101826022490030165790000010767958712756417185_);fill:url(#SVGID_00000073692640375126765390000012482871042980285353_);" width="87.93" height="54.88"/>
	</g>
	<g>
		<defs>
			<path id="SVGID_00000157996641154981152070000000914256399802540187_" d="M1078.22,466.25l43.99,43.99l44.05-44.05
				c-7.49-7.49-21.08-10.83-44.05-10.83C1099.33,455.35,1085.76,458.71,1078.22,466.25"/>
		</defs>
		<clipPath id="SVGID_00000144296113685916294980000014849797479134422699_">
			<use xlink:href="#SVGID_00000157996641154981152070000000914256399802540187_"  style="overflow:visible;"/>
		</clipPath>
		
			<linearGradient id="SVGID_00000134224886074986234980000004638381068144579481_" gradientUnits="userSpaceOnUse" x1="5.560440e-06" y1="1024" x2="1" y2="1024" gradientTransform="matrix(0 54.8834 54.8834 0 -55078.3477 455.3537)">
			<stop  offset="0" style="stop-color:#FBF6AE"/>
			<stop  offset="0.9962" style="stop-color:#F4CB5E"/>
			<stop  offset="1" style="stop-color:#F4CB5E"/>
		</linearGradient>
		
			<rect x="1078.22" y="455.35" style="clip-path:url(#SVGID_00000144296113685916294980000014849797479134422699_);fill:url(#SVGID_00000134224886074986234980000004638381068144579481_);" width="88.04" height="54.88"/>
	</g>
	<g>
		<defs>
			<path id="SVGID_00000067955008284675832360000005288654313506918787_" d="M1122.21,510.24l43.99,43.99
				c7.53-7.54,10.89-21.11,10.89-43.99c0-22.97-3.34-36.55-10.84-44.05L1122.21,510.24z"/>
		</defs>
		<clipPath id="SVGID_00000132070618153814456170000009800337255708665761_">
			<use xlink:href="#SVGID_00000067955008284675832360000005288654313506918787_"  style="overflow:visible;"/>
		</clipPath>
		
			<linearGradient id="SVGID_00000060019399879943041150000014820286785084580257_" gradientUnits="userSpaceOnUse" x1="-4.852843e-06" y1="1024" x2="1" y2="1024" gradientTransform="matrix(0 88.0404 88.0404 0 -89003.6875 466.1884)">
			<stop  offset="0" style="stop-color:#FBF6AE"/>
			<stop  offset="0.9962" style="stop-color:#F4CB5E"/>
			<stop  offset="1" style="stop-color:#F4CB5E"/>
		</linearGradient>
		
			<rect x="1122.21" y="466.19" style="clip-path:url(#SVGID_00000132070618153814456170000009800337255708665761_);fill:url(#SVGID_00000060019399879943041150000014820286785084580257_);" width="54.88" height="88.04"/>
	</g>
	<g>
		<defs>
			<path id="SVGID_00000005985705184560041240000008572767338682678184_" d="M1079.47,467.57c-7.14,7.16-10.32,20.32-10.32,42.67
				c0,22.29,3.21,35.45,10.41,42.65l42.65-42.65l-42.7-42.71C1079.5,467.54,1079.48,467.55,1079.47,467.57"/>
		</defs>
		<clipPath id="SVGID_00000073688324741068662940000015633234669824787112_">
			<use xlink:href="#SVGID_00000005985705184560041240000008572767338682678184_"  style="overflow:visible;"/>
		</clipPath>
		
			<linearGradient id="SVGID_00000149379827544888574200000017212649907630540938_" gradientUnits="userSpaceOnUse" x1="7.150820e-07" y1="1024" x2="1" y2="1024" gradientTransform="matrix(0 85.354 85.354 0 -86306.8281 467.5319)">
			<stop  offset="0" style="stop-color:#FAF389"/>
			<stop  offset="1" style="stop-color:#F6D780"/>
		</linearGradient>
		
			<rect x="1069.15" y="467.53" style="clip-path:url(#SVGID_00000073688324741068662940000015633234669824787112_);fill:url(#SVGID_00000149379827544888574200000017212649907630540938_);" width="53.06" height="85.35"/>
	</g>
	<g>
		<defs>
			<path id="SVGID_00000070106353275350984290000014093314462755322556_" d="M1079.56,552.89c7.2,7.2,20.36,10.42,42.65,10.42
				c22.35,0,35.51-3.18,42.67-10.32c0.01-0.01,0.02-0.03,0.03-0.04l-42.7-42.71L1079.56,552.89z"/>
		</defs>
		<clipPath id="SVGID_00000178921590836086625190000012565126748519786384_">
			<use xlink:href="#SVGID_00000070106353275350984290000014093314462755322556_"  style="overflow:visible;"/>
		</clipPath>
		
			<linearGradient id="SVGID_00000021799789004828661790000006845088801518358180_" gradientUnits="userSpaceOnUse" x1="-1.150221e-06" y1="1024" x2="1" y2="1024" gradientTransform="matrix(0 53.0639 53.0639 0 -53215.1758 510.2371)">
			<stop  offset="0" style="stop-color:#FAF389"/>
			<stop  offset="1" style="stop-color:#F6D780"/>
		</linearGradient>
		
			<rect x="1079.56" y="510.24" style="clip-path:url(#SVGID_00000178921590836086625190000012565126748519786384_);fill:url(#SVGID_00000021799789004828661790000006845088801518358180_);" width="85.35" height="53.06"/>
	</g>
	<g>
		<defs>
			<path id="SVGID_00000054973589806360411500000013978208212000972730_" d="M1079.51,467.53l42.7,42.71l42.76-42.76
				c-7.12-7.12-20.31-10.3-42.76-10.3C1099.85,457.17,1086.68,460.37,1079.51,467.53"/>
		</defs>
		<clipPath id="SVGID_00000113319054077653524260000005149168771008247181_">
			<use xlink:href="#SVGID_00000054973589806360411500000013978208212000972730_"  style="overflow:visible;"/>
		</clipPath>
		
			<linearGradient id="SVGID_00000044161666101256668190000011569721453156938167_" gradientUnits="userSpaceOnUse" x1="1.380267e-05" y1="1024" x2="1" y2="1024" gradientTransform="matrix(0 53.0638 53.0638 0 -53215.0781 457.1733)">
			<stop  offset="0" style="stop-color:#FAF389"/>
			<stop  offset="1" style="stop-color:#F6D780"/>
		</linearGradient>
		
			<rect x="1079.51" y="457.17" style="clip-path:url(#SVGID_00000113319054077653524260000005149168771008247181_);fill:url(#SVGID_00000044161666101256668190000011569721453156938167_);" width="85.47" height="53.06"/>
	</g>
	<g>
		<defs>
			<path id="SVGID_00000024002191058822623540000015861313925716311176_" d="M1122.21,510.24l42.7,42.71
				c7.16-7.17,10.36-20.35,10.36-42.71c0-22.45-3.18-35.64-10.3-42.76L1122.21,510.24z"/>
		</defs>
		<clipPath id="SVGID_00000170979646464306768190000016776476417833857206_">
			<use xlink:href="#SVGID_00000024002191058822623540000015861313925716311176_"  style="overflow:visible;"/>
		</clipPath>
		
			<linearGradient id="SVGID_00000093171791089379616540000016964768615869039013_" gradientUnits="userSpaceOnUse" x1="-1.428273e-06" y1="1024" x2="1" y2="1024" gradientTransform="matrix(0 85.467 85.467 0 -86369.5156 467.4751)">
			<stop  offset="0" style="stop-color:#FAF389"/>
			<stop  offset="1" style="stop-color:#F6D780"/>
		</linearGradient>
		
			<rect x="1122.21" y="467.47" style="clip-path:url(#SVGID_00000170979646464306768190000016776476417833857206_);fill:url(#SVGID_00000093171791089379616540000016964768615869039013_);" width="53.06" height="85.47"/>
	</g>
	<g>
		<defs>
			<path id="SVGID_00000072996741777545792320000017337999467375334590_" d="M1080.76,468.85c-6.77,6.8-9.79,19.56-9.79,41.39
				c0,21.77,3.05,34.53,9.88,41.36l41.36-41.36l-41.42-41.42C1080.79,468.83,1080.77,468.84,1080.76,468.85"/>
		</defs>
		<clipPath id="SVGID_00000115499755891201323560000015845218124975913131_">
			<use xlink:href="#SVGID_00000072996741777545792320000017337999467375334590_"  style="overflow:visible;"/>
		</clipPath>
		
			<linearGradient id="SVGID_00000124875399730964026890000012905158462580884157_" gradientUnits="userSpaceOnUse" x1="5.161177e-06" y1="1024" x2="1" y2="1024" gradientTransform="matrix(0 82.7808 82.7808 0 -83670.9141 468.8185)">
			<stop  offset="0" style="stop-color:#FCFAD5"/>
			<stop  offset="1" style="stop-color:#F6D780"/>
		</linearGradient>
		
			<rect x="1070.97" y="468.82" style="clip-path:url(#SVGID_00000115499755891201323560000015845218124975913131_);fill:url(#SVGID_00000124875399730964026890000012905158462580884157_);" width="51.24" height="82.78"/>
	</g>
	<g>
		<defs>
			<path id="SVGID_00000064314786614198782870000006352017910092668314_" d="M1080.85,551.6L1080.85,551.6
				c6.83,6.83,19.59,9.88,41.36,9.88c21.83,0,34.59-3.02,41.39-9.79c0.01-0.01,0.02-0.02,0.03-0.03l-41.42-41.42L1080.85,551.6z"/>
		</defs>
		<clipPath id="SVGID_00000090279880875004157550000001129953448152459910_">
			<use xlink:href="#SVGID_00000064314786614198782870000006352017910092668314_"  style="overflow:visible;"/>
		</clipPath>
		
			<linearGradient id="SVGID_00000071524787319832844010000009741019761928288180_" gradientUnits="userSpaceOnUse" x1="-1.191062e-06" y1="1024" x2="1" y2="1024" gradientTransform="matrix(0 51.2443 51.2443 0 -51351.9062 510.2371)">
			<stop  offset="0" style="stop-color:#FCFAD5"/>
			<stop  offset="1" style="stop-color:#F6D780"/>
		</linearGradient>
		
			<rect x="1080.85" y="510.24" style="clip-path:url(#SVGID_00000090279880875004157550000001129953448152459910_);fill:url(#SVGID_00000071524787319832844010000009741019761928288180_);" width="82.78" height="51.24"/>
	</g>
	<g>
		<defs>
			<path id="SVGID_00000072996235990934067160000008447998134062400903_" d="M1080.8,468.82l41.42,41.42l41.47-41.47
				c-6.76-6.76-19.55-9.77-41.47-9.77C1100.38,458.99,1087.6,462.02,1080.8,468.82"/>
		</defs>
		<clipPath id="SVGID_00000065795632347934840670000011607670927146032291_">
			<use xlink:href="#SVGID_00000072996235990934067160000008447998134062400903_"  style="overflow:visible;"/>
		</clipPath>
		
			<linearGradient id="SVGID_00000142866203895161995540000013043369416971918728_" gradientUnits="userSpaceOnUse" x1="2.382130e-06" y1="1024" x2="1" y2="1024" gradientTransform="matrix(0 51.2442 51.2442 0 -51351.8125 458.9929)">
			<stop  offset="0" style="stop-color:#FCFAD5"/>
			<stop  offset="1" style="stop-color:#F6D780"/>
		</linearGradient>
		
			<rect x="1080.8" y="458.99" style="clip-path:url(#SVGID_00000065795632347934840670000011607670927146032291_);fill:url(#SVGID_00000142866203895161995540000013043369416971918728_);" width="82.89" height="51.24"/>
	</g>
	<g>
		<defs>
			<path id="SVGID_00000054257867971187641120000006204022734800019903_" d="M1122.21,510.24l41.42,41.42
				c6.8-6.8,9.83-19.58,9.83-41.42c0-21.93-3.01-34.72-9.77-41.47L1122.21,510.24z"/>
		</defs>
		<clipPath id="SVGID_00000062899927554422904950000012362246663933303685_">
			<use xlink:href="#SVGID_00000054257867971187641120000006204022734800019903_"  style="overflow:visible;"/>
		</clipPath>
		
			<linearGradient id="SVGID_00000118386309862571687900000002942295430351667073_" gradientUnits="userSpaceOnUse" x1="3.681525e-06" y1="1024" x2="1" y2="1024" gradientTransform="matrix(0 82.8938 82.8938 0 -83735.4531 468.7618)">
			<stop  offset="0" style="stop-color:#FCFAD5"/>
			<stop  offset="1" style="stop-color:#F6D780"/>
		</linearGradient>
		
			<rect x="1122.21" y="468.76" style="clip-path:url(#SVGID_00000062899927554422904950000012362246663933303685_);fill:url(#SVGID_00000118386309862571687900000002942295430351667073_);" width="51.24" height="82.89"/>
	</g>
	<g>
		<g class="st20">
			<g>
				<defs>
					<rect id="SVGID_00000169536405721269376320000015002495533610605443_" x="1071.5" y="495.88" width="101.96" height="65.61"/>
				</defs>
				<clipPath id="SVGID_00000041255583916261575620000014226217910126311577_">
					<use xlink:href="#SVGID_00000169536405721269376320000015002495533610605443_"  style="overflow:visible;"/>
				</clipPath>
				<g style="clip-path:url(#SVGID_00000041255583916261575620000014226217910126311577_);">
					<defs>
						<path id="SVGID_00000119110309427372279720000007959391757641161635_" d="M1071.5,524.28c1.14,13.46,4.14,22.11,9.35,27.32
							c0,0,0,0,0,0c6.83,6.83,19.59,9.88,41.36,9.88c21.83,0,34.59-3.02,41.39-9.79c0.01-0.01,0.02-0.02,0.03-0.03
							c6.8-6.8,9.83-19.58,9.83-41.42c0-5.31-0.18-10.08-0.54-14.36L1071.5,524.28z"/>
					</defs>
					<clipPath id="SVGID_00000044177093974487939350000010247014003329187256_">
						<use xlink:href="#SVGID_00000119110309427372279720000007959391757641161635_"  style="overflow:visible;"/>
					</clipPath>
					
						<linearGradient id="SVGID_00000105415111633592164790000014783045899110774660_" gradientUnits="userSpaceOnUse" x1="0" y1="1024" x2="1" y2="1024" gradientTransform="matrix(0 102.4885 102.4885 0 -103825.7031 458.9929)">
						<stop  offset="0" style="stop-color:#FCFAD5"/>
						<stop  offset="1" style="stop-color:#FBF6AE"/>
					</linearGradient>
					
						<rect x="1071.5" y="495.88" style="clip-path:url(#SVGID_00000044177093974487939350000010247014003329187256_);fill:url(#SVGID_00000105415111633592164790000014783045899110774660_);" width="101.96" height="65.61"/>
				</g>
			</g>
		</g>
		<g class="st23">
			<g>
				<defs>
					<rect id="SVGID_00000178198315101521518550000018137053839872666293_" x="1070.97" y="458.99" width="101.95" height="65.29"/>
				</defs>
				<clipPath id="SVGID_00000052086760673633341690000000354271687521927056_">
					<use xlink:href="#SVGID_00000178198315101521518550000018137053839872666293_"  style="overflow:visible;"/>
				</clipPath>
				<g style="clip-path:url(#SVGID_00000052086760673633341690000000354271687521927056_);">
					<defs>
						<path id="SVGID_00000096041646707175123700000004887165815364933258_" d="M1163.69,468.76L1163.69,468.76
							c-6.76-6.76-19.55-9.77-41.47-9.77c-21.84,0-34.61,3.03-41.42,9.83c-0.01,0.01-0.02,0.02-0.03,0.03
							c-6.77,6.79-9.79,19.56-9.79,41.39c0,5.18,0.17,9.84,0.53,14.04l101.42-28.41C1171.78,482.47,1168.81,473.88,1163.69,468.76"
							/>
					</defs>
					<clipPath id="SVGID_00000112596152697458977280000013284490740388938416_">
						<use xlink:href="#SVGID_00000096041646707175123700000004887165815364933258_"  style="overflow:visible;"/>
					</clipPath>
					
						<linearGradient id="SVGID_00000023255989543471821310000013938183275165456297_" gradientUnits="userSpaceOnUse" x1="1.191065e-06" y1="1024" x2="1" y2="1024" gradientTransform="matrix(0 102.4884 102.4884 0 -103826.1562 458.9929)">
						<stop  offset="0" style="stop-color:#FCFAD5"/>
						<stop  offset="1" style="stop-color:#FBF6AE"/>
					</linearGradient>
					
						<rect x="1070.97" y="458.99" style="clip-path:url(#SVGID_00000112596152697458977280000013284490740388938416_);fill:url(#SVGID_00000023255989543471821310000013938183275165456297_);" width="101.95" height="65.29"/>
				</g>
			</g>
		</g>
		<defs>
			<filter id="Adobe_OpacityMaskFilter" filterUnits="userSpaceOnUse" x="1062.99" y="539.54" width="19.48" height="19.48">
				<feFlood  style="flood-color:white;flood-opacity:1" result="back"/>
				<feBlend  in="SourceGraphic" in2="back" mode="normal"/>
			</filter>
		</defs>
		
			<mask maskUnits="userSpaceOnUse" x="1062.99" y="539.54" width="19.48" height="19.48" id="SVGID_00000082370352415128571520000008404119219191960737_">
			<g class="st26">
				<g class="st27">
					<g>
						<defs>
							<path id="SVGID_00000072246207529094365930000017889991639067976639_" d="M1082.47,549.27c0,5.38-4.36,9.74-9.74,9.74
								c-5.38,0-9.74-4.36-9.74-9.74c0-5.38,4.36-9.74,9.74-9.74C1078.11,539.54,1082.47,543.9,1082.47,549.27"/>
						</defs>
						<clipPath id="SVGID_00000117661436310606694000000000264201650221728151_">
							<use xlink:href="#SVGID_00000072246207529094365930000017889991639067976639_"  style="overflow:visible;"/>
						</clipPath>
						<defs>
							
								<filter id="Adobe_OpacityMaskFilter_00000083788899790654708590000000935701596572696716_" filterUnits="userSpaceOnUse" x="1062.99" y="539.54" width="19.48" height="19.47">
								<feFlood  style="flood-color:white;flood-opacity:1" result="back"/>
								<feBlend  in="SourceGraphic" in2="back" mode="normal"/>
							</filter>
						</defs>
						
							<mask maskUnits="userSpaceOnUse" x="1062.99" y="539.54" width="19.48" height="19.47" id="SVGID_00000082370352415128571520000008404119219191960737_">
							<g style="filter:url(#Adobe_OpacityMaskFilter_00000083788899790654708590000000935701596572696716_);">
								<g class="st27">
								</g>
							</g>
						</mask>
						
							<radialGradient id="SVGID_00000080885657172388760030000007919692411500895674_" cx="-6.267885e-05" cy="1024" r="1" gradientTransform="matrix(9.7378 0 0 -9.7378 1072.7285 10520.7383)" gradientUnits="userSpaceOnUse">
							<stop  offset="0" style="stop-color:#FFFFFF"/>
							<stop  offset="0" style="stop-color:#FFFFFF"/>
							<stop  offset="1" style="stop-color:#231F20"/>
						</radialGradient>
						
							<rect x="1062.99" y="539.54" style="clip-path:url(#SVGID_00000117661436310606694000000000264201650221728151_);mask:url(#SVGID_00000082370352415128571520000008404119219191960737_);fill:url(#SVGID_00000080885657172388760030000007919692411500895674_);" width="19.48" height="19.47"/>
					</g>
				</g>
			</g>
		</mask>
		<g>
			<g>
				<defs>
					<rect id="SVGID_00000138550478827631330340000014100154057879359671_" x="1062.99" y="539.54" width="19.48" height="19.48"/>
				</defs>
				<clipPath id="SVGID_00000140717135355617016470000012760665713221037220_">
					<use xlink:href="#SVGID_00000138550478827631330340000014100154057879359671_"  style="overflow:visible;"/>
				</clipPath>
				<g style="clip-path:url(#SVGID_00000140717135355617016470000012760665713221037220_);">
					<defs>
						<path id="SVGID_00000106837569264927368720000017697552280185523095_" d="M1082.47,549.27c0,5.38-4.36,9.74-9.74,9.74
							c-5.38,0-9.74-4.36-9.74-9.74c0-5.38,4.36-9.74,9.74-9.74C1078.11,539.54,1082.47,543.89,1082.47,549.27"/>
					</defs>
					<clipPath id="SVGID_00000077282948874853419940000004740319946047945625_">
						<use xlink:href="#SVGID_00000106837569264927368720000017697552280185523095_"  style="overflow:visible;"/>
					</clipPath>
					
						<radialGradient id="SVGID_00000093155488114488004610000014973063059834915713_" cx="-1.880366e-05" cy="1024" r="1" gradientTransform="matrix(9.7378 0 0 -9.7378 1072.7281 10520.7383)" gradientUnits="userSpaceOnUse">
						<stop  offset="0" style="stop-color:#231F20"/>
						<stop  offset="0" style="stop-color:#FFFFFF"/>
						<stop  offset="1" style="stop-color:#FFFFFF"/>
					</radialGradient>
					
						<rect x="1062.99" y="539.54" style="clip-path:url(#SVGID_00000077282948874853419940000004740319946047945625_);fill:url(#SVGID_00000093155488114488004610000014973063059834915713_);" width="19.48" height="19.47"/>
				</g>
			</g>
		</g>
		<path class="st32" d="M1073.7,550c1.8,0.45,3.6,0.89,5.41,1.3c2.18,0.48,4.36,0.95,6.57,1.31c-2.11-0.75-4.24-1.4-6.38-2.03
			c-1.8-0.52-3.61-1.02-5.42-1.5c0.83-0.51,1.65-1.02,2.46-1.55c1.34-0.88,2.67-1.78,3.96-2.76c-1.48,0.65-2.91,1.37-4.33,2.12
			c-0.84,0.45-1.67,0.91-2.5,1.38c0.45-1.79,0.89-3.59,1.29-5.39c0.48-2.18,0.95-4.36,1.32-6.57c-0.75,2.11-1.4,4.24-2.03,6.38
			c-0.52,1.78-1.01,3.57-1.48,5.36c-0.64-1.05-1.29-2.1-1.96-3.13c-0.88-1.34-1.78-2.67-2.76-3.96c0.65,1.48,1.37,2.91,2.13,4.33
			c0.58,1.09,1.18,2.16,1.79,3.23c-1.8-0.45-3.6-0.89-5.41-1.3c-2.18-0.48-4.36-0.95-6.57-1.32c2.11,0.75,4.24,1.4,6.38,2.03
			c1.77,0.52,3.54,1,5.32,1.47c-1.28,0.76-2.55,1.54-3.8,2.36c-1.34,0.88-2.67,1.78-3.96,2.76c1.48-0.65,2.91-1.38,4.33-2.13
			c1.33-0.71,2.65-1.45,3.95-2.21c-0.46,1.81-0.9,3.62-1.31,5.45c-0.49,2.18-0.95,4.36-1.31,6.57c0.75-2.11,1.4-4.24,2.03-6.38
			c0.52-1.78,1.01-3.57,1.49-5.36c0.63,1.05,1.28,2.1,1.95,3.13c0.88,1.34,1.78,2.67,2.76,3.96c-0.65-1.48-1.37-2.91-2.12-4.33
			C1074.91,552.14,1074.31,551.07,1073.7,550"/>
		<defs>
			
				<filter id="Adobe_OpacityMaskFilter_00000034081415853067483090000001383155950790592170_" filterUnits="userSpaceOnUse" x="1158.36" y="551.28" width="15.96" height="15.96">
				<feFlood  style="flood-color:white;flood-opacity:1" result="back"/>
				<feBlend  in="SourceGraphic" in2="back" mode="normal"/>
			</filter>
		</defs>
		
			<mask maskUnits="userSpaceOnUse" x="1158.36" y="551.28" width="15.96" height="15.96" id="SVGID_00000103948228295045076400000016803508684139003289_">
			<g style="filter:url(#Adobe_OpacityMaskFilter_00000034081415853067483090000001383155950790592170_);">
				<g class="st27">
					<g>
						<defs>
							<path id="SVGID_00000034794154016870157320000015874184561821925024_" d="M1174.32,559.26c0,4.41-3.57,7.98-7.98,7.98
								c-4.41,0-7.98-3.57-7.98-7.98c0-4.41,3.57-7.98,7.98-7.98C1170.75,551.28,1174.32,554.85,1174.32,559.26"/>
						</defs>
						<clipPath id="SVGID_00000165928702878375630980000006177273366922631082_">
							<use xlink:href="#SVGID_00000034794154016870157320000015874184561821925024_"  style="overflow:visible;"/>
						</clipPath>
						<defs>
							
								<filter id="Adobe_OpacityMaskFilter_00000000924840346093948990000015544234136360113046_" filterUnits="userSpaceOnUse" x="1158.36" y="551.28" width="15.96" height="15.96">
								<feFlood  style="flood-color:white;flood-opacity:1" result="back"/>
								<feBlend  in="SourceGraphic" in2="back" mode="normal"/>
							</filter>
						</defs>
						
							<mask maskUnits="userSpaceOnUse" x="1158.36" y="551.28" width="15.96" height="15.96" id="SVGID_00000103948228295045076400000016803508684139003289_">
							<g style="filter:url(#Adobe_OpacityMaskFilter_00000000924840346093948990000015544234136360113046_);">
								<g class="st27">
								</g>
							</g>
						</mask>
						
							<radialGradient id="SVGID_00000091699566341363920360000004078049513528825020_" cx="-3.824951e-05" cy="1023.9999" r="1" gradientTransform="matrix(7.9786 0 0 -7.9786 1166.3408 8729.3008)" gradientUnits="userSpaceOnUse">
							<stop  offset="0" style="stop-color:#FFFFFF"/>
							<stop  offset="0" style="stop-color:#FFFFFF"/>
							<stop  offset="1" style="stop-color:#231F20"/>
						</radialGradient>
						
							<rect x="1158.36" y="551.28" style="clip-path:url(#SVGID_00000165928702878375630980000006177273366922631082_);mask:url(#SVGID_00000103948228295045076400000016803508684139003289_);fill:url(#SVGID_00000091699566341363920360000004078049513528825020_);" width="15.96" height="15.96"/>
					</g>
				</g>
			</g>
		</mask>
		<g>
			<g>
				<defs>
					<rect id="SVGID_00000049927276913142409140000015543365582079443862_" x="1158.36" y="551.28" width="15.96" height="15.96"/>
				</defs>
				<clipPath id="SVGID_00000041295481075637625310000016952002471690529688_">
					<use xlink:href="#SVGID_00000049927276913142409140000015543365582079443862_"  style="overflow:visible;"/>
				</clipPath>
				<g style="clip-path:url(#SVGID_00000041295481075637625310000016952002471690529688_);">
					<defs>
						<path id="SVGID_00000137123058251195564250000008326597247768730507_" d="M1174.32,559.26c0,4.41-3.57,7.98-7.98,7.98
							c-4.41,0-7.98-3.57-7.98-7.98c0-4.41,3.57-7.98,7.98-7.98C1170.75,551.28,1174.32,554.85,1174.32,559.26"/>
					</defs>
					<clipPath id="SVGID_00000069400056945486815020000001212485359715039927_">
						<use xlink:href="#SVGID_00000137123058251195564250000008326597247768730507_"  style="overflow:visible;"/>
					</clipPath>
					
						<radialGradient id="SVGID_00000155842547053831064800000012108446359317501367_" cx="-7.649903e-06" cy="1024" r="1" gradientTransform="matrix(7.9786 0 0 -7.9786 1166.3406 8729.3008)" gradientUnits="userSpaceOnUse">
						<stop  offset="0" style="stop-color:#231F20"/>
						<stop  offset="0" style="stop-color:#FFFFFF"/>
						<stop  offset="1" style="stop-color:#FFFFFF"/>
					</radialGradient>
					
						<rect x="1158.36" y="551.28" style="clip-path:url(#SVGID_00000069400056945486815020000001212485359715039927_);fill:url(#SVGID_00000155842547053831064800000012108446359317501367_);" width="15.96" height="15.96"/>
				</g>
			</g>
		</g>
		<path class="st32" d="M1167.21,559.29c1.24-0.47,2.47-0.96,3.7-1.47c1.47-0.61,2.94-1.24,4.38-1.93
			c-1.54,0.43-3.06,0.92-4.57,1.44c-1.27,0.43-2.53,0.89-3.79,1.35c0.28-0.64,0.55-1.28,0.8-1.92c0.43-1.07,0.83-2.14,1.18-3.24
			c-0.6,0.99-1.14,2-1.66,3.03c-0.31,0.61-0.61,1.22-0.9,1.84c-0.47-1.23-0.96-2.46-1.46-3.69c-0.61-1.47-1.24-2.94-1.93-4.38
			c0.43,1.54,0.93,3.06,1.44,4.57c0.43,1.26,0.88,2.51,1.34,3.75c-0.8-0.35-1.61-0.7-2.43-1.03c-1.07-0.43-2.14-0.83-3.24-1.18
			c0.99,0.6,2,1.14,3.03,1.66c0.79,0.4,1.58,0.78,2.38,1.15c-1.24,0.47-2.47,0.96-3.7,1.47c-1.47,0.61-2.94,1.24-4.38,1.93
			c1.54-0.43,3.06-0.93,4.57-1.44c1.25-0.43,2.49-0.87,3.72-1.33c-0.44,0.97-0.86,1.95-1.26,2.94c-0.43,1.07-0.83,2.14-1.18,3.24
			c0.6-0.99,1.14-2,1.66-3.02c0.49-0.96,0.95-1.94,1.4-2.92c0.48,1.25,0.97,2.49,1.47,3.72c0.61,1.47,1.24,2.94,1.93,4.38
			c-0.43-1.54-0.93-3.06-1.44-4.57c-0.43-1.26-0.88-2.51-1.34-3.75c0.8,0.35,1.61,0.7,2.43,1.03c1.07,0.43,2.14,0.83,3.24,1.18
			c-0.99-0.6-2-1.14-3.02-1.66C1168.8,560.04,1168.01,559.66,1167.21,559.29"/>
		<defs>
			
				<filter id="Adobe_OpacityMaskFilter_00000060731734105012662310000014748882368319600534_" filterUnits="userSpaceOnUse" x="1164.98" y="458.08" width="11" height="11">
				<feFlood  style="flood-color:white;flood-opacity:1" result="back"/>
				<feBlend  in="SourceGraphic" in2="back" mode="normal"/>
			</filter>
		</defs>
		
			<mask maskUnits="userSpaceOnUse" x="1164.98" y="458.08" width="11" height="11" id="SVGID_00000057141173412527923880000017130930435971418508_">
			<g style="filter:url(#Adobe_OpacityMaskFilter_00000060731734105012662310000014748882368319600534_);">
				<g class="st27">
					<g>
						<defs>
							<path id="SVGID_00000066504630691282067510000011524977987881606816_" d="M1175.98,463.58c0,3.04-2.46,5.5-5.5,5.5
								c-3.04,0-5.5-2.46-5.5-5.5c0-3.04,2.46-5.5,5.5-5.5C1173.52,458.08,1175.98,460.54,1175.98,463.58"/>
						</defs>
						<clipPath id="SVGID_00000160903431789991892780000004129689552008358571_">
							<use xlink:href="#SVGID_00000066504630691282067510000011524977987881606816_"  style="overflow:visible;"/>
						</clipPath>
						<defs>
							
								<filter id="Adobe_OpacityMaskFilter_00000034773158228788126370000013103480272698660267_" filterUnits="userSpaceOnUse" x="1164.98" y="458.08" width="11" height="11">
								<feFlood  style="flood-color:white;flood-opacity:1" result="back"/>
								<feBlend  in="SourceGraphic" in2="back" mode="normal"/>
							</filter>
						</defs>
						
							<mask maskUnits="userSpaceOnUse" x="1164.98" y="458.08" width="11" height="11" id="SVGID_00000057141173412527923880000017130930435971418508_">
							<g style="filter:url(#Adobe_OpacityMaskFilter_00000034773158228788126370000013103480272698660267_);">
								<g class="st27">
								</g>
							</g>
						</mask>
						
							<radialGradient id="SVGID_00000181082299506709562070000008087409054107055018_" cx="1.109462e-05" cy="1024" r="1" gradientTransform="matrix(5.5013 0 0 -5.5013 1170.4805 6096.9438)" gradientUnits="userSpaceOnUse">
							<stop  offset="0" style="stop-color:#FFFFFF"/>
							<stop  offset="0" style="stop-color:#FFFFFF"/>
							<stop  offset="1" style="stop-color:#231F20"/>
						</radialGradient>
						
							<rect x="1164.98" y="458.08" style="clip-path:url(#SVGID_00000160903431789991892780000004129689552008358571_);mask:url(#SVGID_00000057141173412527923880000017130930435971418508_);fill:url(#SVGID_00000181082299506709562070000008087409054107055018_);" width="11" height="11"/>
					</g>
				</g>
			</g>
		</mask>
		<g>
			<g>
				<defs>
					<rect id="SVGID_00000153670184004004637160000001870945280022305929_" x="1164.98" y="458.08" width="11" height="11"/>
				</defs>
				<clipPath id="SVGID_00000087400123134361464810000010045637336559680406_">
					<use xlink:href="#SVGID_00000153670184004004637160000001870945280022305929_"  style="overflow:visible;"/>
				</clipPath>
				<g style="clip-path:url(#SVGID_00000087400123134361464810000010045637336559680406_);">
					<defs>
						<path id="SVGID_00000144306048556875118230000008430990485725201321_" d="M1175.98,463.58c0,3.04-2.46,5.5-5.5,5.5
							c-3.04,0-5.5-2.46-5.5-5.5c0-3.04,2.46-5.5,5.5-5.5C1173.52,458.08,1175.98,460.54,1175.98,463.58"/>
					</defs>
					<clipPath id="SVGID_00000048464478269936793540000012048086122843456671_">
						<use xlink:href="#SVGID_00000144306048556875118230000008430990485725201321_"  style="overflow:visible;"/>
					</clipPath>
					
						<radialGradient id="SVGID_00000158015890193276553590000012409970189478043272_" cx="-1.109461e-05" cy="1024" r="1" gradientTransform="matrix(5.5013 0 0 -5.5013 1170.4806 6096.9438)" gradientUnits="userSpaceOnUse">
						<stop  offset="0" style="stop-color:#231F20"/>
						<stop  offset="0" style="stop-color:#FFFFFF"/>
						<stop  offset="1" style="stop-color:#FFFFFF"/>
					</radialGradient>
					
						<rect x="1164.98" y="458.08" style="clip-path:url(#SVGID_00000048464478269936793540000012048086122843456671_);fill:url(#SVGID_00000158015890193276553590000012409970189478043272_);" width="11" height="11"/>
				</g>
			</g>
		</g>
		<path class="st32" d="M1171.26,464.16c1.08,0.36,2.16,0.71,3.25,1.04c1.31,0.4,2.62,0.78,3.96,1.1c-1.26-0.55-2.53-1.05-3.81-1.53
			c-1.08-0.4-2.16-0.79-3.25-1.16c0.53-0.27,1.06-0.55,1.58-0.84c0.86-0.48,1.72-0.97,2.55-1.51c-0.94,0.33-1.84,0.71-2.75,1.1
			c-0.54,0.24-1.07,0.48-1.59,0.73c0.36-1.08,0.7-2.15,1.04-3.24c0.4-1.31,0.78-2.62,1.1-3.96c-0.55,1.26-1.05,2.53-1.53,3.81
			c-0.4,1.07-0.78,2.14-1.15,3.22c-0.34-0.67-0.69-1.34-1.05-2c-0.48-0.86-0.97-1.72-1.51-2.55c0.33,0.93,0.71,1.84,1.1,2.75
			c0.3,0.69,0.62,1.38,0.95,2.06c-1.08-0.36-2.16-0.71-3.25-1.04c-1.31-0.4-2.62-0.78-3.96-1.1c1.26,0.55,2.53,1.05,3.81,1.53
			c1.06,0.39,2.12,0.78,3.19,1.14c-0.82,0.41-1.63,0.83-2.43,1.27c-0.86,0.48-1.72,0.97-2.55,1.51c0.94-0.33,1.85-0.71,2.75-1.1
			c0.85-0.37,1.69-0.77,2.52-1.17c-0.36,1.09-0.71,2.18-1.05,3.27c-0.4,1.31-0.78,2.62-1.1,3.96c0.55-1.26,1.05-2.53,1.53-3.81
			c0.4-1.07,0.78-2.14,1.15-3.21c0.34,0.67,0.69,1.34,1.05,2c0.47,0.86,0.97,1.72,1.51,2.55c-0.33-0.93-0.71-1.85-1.1-2.75
			C1171.9,465.53,1171.59,464.84,1171.26,464.16"/>
	</g>
	<g>
		<path class="st43" d="M1110.07,505.05c0.62,4.04,3.74,9.18,8.87,10.98c2.1,0.73,4.41,0.75,6.51-0.01
			c5.04-1.82,8.26-6.95,8.9-10.97c0.68-0.06,1.57-1,2.53-4.41c1.31-4.64-0.08-5.34-1.27-5.22c0.23-0.64,0.4-1.28,0.51-1.91
			c2.01-12.04-3.93-12.45-3.93-12.45s-0.99-1.89-3.57-3.32c-1.74-1.03-4.15-1.82-7.33-1.55c-1.03,0.04-2.01,0.26-2.92,0.55
			c-1.17,0.4-2.24,0.97-3.22,1.65c-1.19,0.75-2.32,1.68-3.3,2.74c-1.57,1.61-2.96,3.69-3.57,6.27c-0.51,1.93-0.4,3.95,0.03,6.13
			c0.11,0.64,0.28,1.27,0.51,1.91c-1.19-0.11-2.58,0.58-1.27,5.22C1108.51,504.05,1109.4,505,1110.07,505.05"/>
		<path class="st43" d="M1145.5,520.85c-7.21-1.83-13.07-5.96-13.07-5.96l-4.58,14.47l-0.86,2.72l-0.01-0.04l-0.75,2.32l-2.41-6.85
			c5.93-8.27-1.2-8.19-1.59-8.18c-0.4-0.01-7.53-0.1-1.6,8.18l-2.41,6.85l-0.75-2.32l-0.01,0.04l-0.86-2.72l-4.59-14.47
			c0,0-5.86,4.12-13.07,5.96c-5.38,1.37-5.63,7.58-5.42,10.65c0,0,0.31,4.17,0.62,6c0,0,10.51,6.82,28.1,6.83
			c17.59,0,28.1-6.83,28.1-6.83c0.31-1.84,0.62-6,0.62-6C1151.13,528.43,1150.88,522.22,1145.5,520.85"/>
	</g>
</g>
</svg>
