<?xml version="1.0" encoding="utf-8"?>
<!-- Generator: Adobe Illustrator 27.6.1, SVG Export Plug-In . SVG Version: 6.00 Build 0)  -->
<svg version="1.1" id="Calque_1" xmlns="http://www.w3.org/2000/svg" xmlns:xlink="http://www.w3.org/1999/xlink" x="0px" y="0px"
	 viewBox="0 0 1440 1024" style="enable-background:new 0 0 1440 1024;" xml:space="preserve">
<style type="text/css">
	.st0{fill:#AA662D;}
	
		.st1{clip-path:url(#SVGID_00000176003673781917329680000015922681438693525430_);fill:url(#SVGID_00000079484236140778273050000018185169799033266364_);}
	.st2{fill:#408E4D;}
	
		.st3{clip-path:url(#SVGID_00000013188055637400234930000001956121261161632424_);fill:url(#SVGID_00000126296844106556917010000010646610724797866423_);}
	
		.st4{clip-path:url(#SVGID_00000065780073530410062870000014603320540188920464_);fill:url(#SVGID_00000028295221789703822660000016736335419101846657_);}
	
		.st5{clip-path:url(#SVGID_00000029730371849715394800000010175258421621724057_);fill:url(#SVGID_00000054233504906317859470000005027810079033050038_);}
	
		.st6{clip-path:url(#SVGID_00000024708585812586329260000017505145184473641879_);fill:url(#SVGID_00000073692913339179806880000009687287527896117664_);}
	.st7{fill:#60B158;}
	
		.st8{clip-path:url(#SVGID_00000183219854489292675960000009453904099965559222_);fill:url(#SVGID_00000044173761909508618420000000586153033443344021_);}
	
		.st9{clip-path:url(#SVGID_00000135666679599465112790000014677363437692735663_);fill:url(#SVGID_00000138556376229388262500000018305226105779209638_);}
	
		.st10{clip-path:url(#SVGID_00000005224947991700582220000007227823491463583892_);fill:url(#SVGID_00000129908324282011595880000016941433661979634090_);}
	
		.st11{clip-path:url(#SVGID_00000111156053937263675030000007002225955620251025_);fill:url(#SVGID_00000005224484473366712490000014347847837649927073_);}
	
		.st12{clip-path:url(#SVGID_00000025433444154432675260000009000351239028022414_);fill:url(#SVGID_00000183945771250460163540000007670545069134779019_);}
	
		.st13{clip-path:url(#SVGID_00000106837023853396357670000002824443216749645717_);fill:url(#SVGID_00000101105436076948156780000009890999265003238334_);}
	
		.st14{clip-path:url(#SVGID_00000003098741622293775350000017816157931816043158_);fill:url(#SVGID_00000094591740408011708140000017628812166317355675_);}
	
		.st15{clip-path:url(#SVGID_00000042009991959816553980000002136806676492347839_);fill:url(#SVGID_00000145770784442421440690000008701996526515157644_);}
	
		.st16{clip-path:url(#SVGID_00000127743682715424369930000016366339576249064076_);fill:url(#SVGID_00000085936534835855689710000001816092455733090711_);}
	
		.st17{clip-path:url(#SVGID_00000016061265374505691200000001098214281875656583_);fill:url(#SVGID_00000119840707873815453450000008732207388818393237_);}
	
		.st18{clip-path:url(#SVGID_00000082355235641343572520000008375639984298749110_);fill:url(#SVGID_00000085952083433842797320000017507018624479027587_);}
	
		.st19{clip-path:url(#SVGID_00000121998569247345583020000005792687345282882215_);fill:url(#SVGID_00000067929652265136799280000001302571218092124068_);}
	.st20{opacity:0.5;}
	.st21{clip-path:url(#SVGID_00000012440715878890551470000009240977108006046620_);}
	
		.st22{clip-path:url(#SVGID_00000092421291358228890730000010679088338429692801_);fill:url(#SVGID_00000138556495510109469770000016763575436407534251_);}
	.st23{opacity:0.2;}
	.st24{clip-path:url(#SVGID_00000026865465129454748930000007019965961173598652_);}
	
		.st25{clip-path:url(#SVGID_00000089555326196248085560000008034218430936159623_);fill:url(#SVGID_00000100371617308656961530000017352073042964485028_);}
	.st26{filter:url(#Adobe_OpacityMaskFilter);}
	.st27{enable-background:new    ;}
	.st28{filter:url(#Adobe_OpacityMaskFilter_00000158013915043761707290000010691811385470985859_);}
	
		.st29{clip-path:url(#SVGID_00000022546265341483360770000010462898263760164022_);mask:url(#SVGID_00000126316085029686082030000004601298057847339426_);fill:url(#SVGID_00000157276153435166512410000000225224652382279837_);}
	.st30{clip-path:url(#SVGID_00000011734797032809779540000007112098515114964881_);}
	
		.st31{clip-path:url(#SVGID_00000148654210478980663560000004935006706618322571_);fill:url(#SVGID_00000132806567209548327270000015719359122154799512_);}
	.st32{fill:#FFFFFF;}
	.st33{filter:url(#Adobe_OpacityMaskFilter_00000137094814790694049290000012298019394237580734_);}
	.st34{filter:url(#Adobe_OpacityMaskFilter_00000082344556594818098060000014246574088235570050_);}
	
		.st35{clip-path:url(#SVGID_00000090284308953535163680000001620394300598890149_);mask:url(#SVGID_00000101074782768782219750000014568349709405650874_);fill:url(#SVGID_00000049940481793044197500000012419126119731790486_);}
	.st36{clip-path:url(#SVGID_00000164473552196149695520000011567197905260116097_);}
	
		.st37{clip-path:url(#SVGID_00000126296799909607028850000013378399033788513425_);fill:url(#SVGID_00000112632131993039855060000000912033832245678744_);}
	.st38{filter:url(#Adobe_OpacityMaskFilter_00000173144545960779034730000003773366888822990464_);}
	.st39{filter:url(#Adobe_OpacityMaskFilter_00000137826631619190575350000018356165153050893184_);}
	
		.st40{clip-path:url(#SVGID_00000036949652558969948090000000686313496200672439_);mask:url(#SVGID_00000052069547246297066350000011772948348569639573_);fill:url(#SVGID_00000052787714594547049270000001127431992066835894_);}
	.st41{clip-path:url(#SVGID_00000114044386908187243120000013417216493844009908_);}
	
		.st42{clip-path:url(#SVGID_00000137819662953010039790000000029392582287251342_);fill:url(#SVGID_00000116918954959202428720000002243313471225800082_);}
</style>
<g>
	<g>
		<path class="st0" d="M1335.42,986.39c-47.38,0-63.77-16.39-63.77-63.77c0-47.38,16.12-63.77,63.77-63.77s63.77,16.12,63.77,63.77
			C1399.19,970.27,1382.8,986.39,1335.42,986.39"/>
	</g>
	<g>
		<defs>
			<path id="SVGID_1_" d="M1287.1,874.4c-9.29,9.32-13.43,24.19-13.43,48.22c0,23.99,4.17,38.86,13.53,48.22
				c9.35,9.35,24.23,13.53,48.22,13.53c24.03,0,38.91-4.14,48.22-13.43c9.35-9.32,13.52-24.22,13.52-48.32
				c0-24.13-4.14-39.04-13.43-48.32c-9.28-9.29-24.19-13.43-48.32-13.43C1311.32,860.88,1296.42,865.05,1287.1,874.4"/>
		</defs>
		<clipPath id="SVGID_00000066507487554626789570000017317523667745708730_">
			<use xlink:href="#SVGID_1_"  style="overflow:visible;"/>
		</clipPath>
		
			<linearGradient id="SVGID_00000043442580685130070260000005522399715341160331_" gradientUnits="userSpaceOnUse" x1="-3.336149e-06" y1="1024" x2="1" y2="1024" gradientTransform="matrix(0 123.4919 123.4919 0 -125120.25 860.8804)">
			<stop  offset="0" style="stop-color:#D9A440"/>
			<stop  offset="5.585454e-04" style="stop-color:#DAA644"/>
			<stop  offset="1.085390e-03" style="stop-color:#DCAA4F"/>
			<stop  offset="1.599696e-03" style="stop-color:#DFB262"/>
			<stop  offset="2.106429e-03" style="stop-color:#E4BD7D"/>
			<stop  offset="2.607560e-03" style="stop-color:#EACBA0"/>
			<stop  offset="3.097338e-03" style="stop-color:#F2DBC9"/>
			<stop  offset="3.486470e-03" style="stop-color:#F9EBF0"/>
			<stop  offset="0.5" style="stop-color:#EDDC9F"/>
			<stop  offset="0.5589" style="stop-color:#E4D095"/>
			<stop  offset="0.6667" style="stop-color:#CDAE7A"/>
			<stop  offset="0.8114" style="stop-color:#A7794F"/>
			<stop  offset="0.9857" style="stop-color:#732F13"/>
			<stop  offset="1" style="stop-color:#6E290E"/>
		</linearGradient>
		
			<rect x="1273.67" y="860.88" style="clip-path:url(#SVGID_00000066507487554626789570000017317523667745708730_);fill:url(#SVGID_00000043442580685130070260000005522399715341160331_);" width="123.49" height="123.49"/>
	</g>
	<g>
		<path class="st0" d="M1335.42,978.3c-22.26,0-35.81-3.62-43.93-11.75c-8.12-8.12-11.75-21.67-11.75-43.93
			c0-22.3,3.6-35.85,11.66-43.94c8.09-8.12,21.67-11.74,44.02-11.74c22.4,0,35.97,3.59,44.03,11.65
			c8.05,8.06,11.65,21.64,11.65,44.03c0,22.35-3.62,35.93-11.74,44.02C1371.27,974.71,1357.72,978.3,1335.42,978.3"/>
		<path class="st2" d="M1335.42,976.28c-21.68,0-34.78-3.44-42.5-11.16c-7.71-7.72-11.16-20.82-11.16-42.5
			c0-21.72,3.41-34.83,11.07-42.51c7.68-7.71,20.82-11.14,42.59-11.14c21.82,0,34.95,3.41,42.6,11.06s11.06,20.78,11.06,42.6
			c0,21.77-3.44,34.91-11.14,42.59C1370.25,972.87,1357.14,976.28,1335.42,976.28"/>
	</g>
	<g>
		<defs>
			<path id="SVGID_00000150785128550210399370000003560577482847422877_" d="M1293.98,881.26c-7.33,7.35-10.6,20.11-10.6,41.37
				c0,21.21,3.3,33.97,10.68,41.35l41.35-41.35l-41.4-41.41C1294,881.23,1293.99,881.24,1293.98,881.26"/>
		</defs>
		<clipPath id="SVGID_00000088830738836284340940000015905961082602000305_">
			<use xlink:href="#SVGID_00000150785128550210399370000003560577482847422877_"  style="overflow:visible;"/>
		</clipPath>
		
			<linearGradient id="SVGID_00000119098825105747214390000012983021754933731456_" gradientUnits="userSpaceOnUse" x1="1.843719e-07" y1="1024" x2="1" y2="1024" gradientTransform="matrix(0 82.7609 82.7609 0 -83437.7734 881.2209)">
			<stop  offset="0" style="stop-color:#BFDA93"/>
			<stop  offset="0.999" style="stop-color:#96C255"/>
			<stop  offset="1" style="stop-color:#96C255"/>
		</linearGradient>
		
			<rect x="1283.38" y="881.22" style="clip-path:url(#SVGID_00000088830738836284340940000015905961082602000305_);fill:url(#SVGID_00000119098825105747214390000012983021754933731456_);" width="52.04" height="82.76"/>
	</g>
	<g>
		<defs>
			<path id="SVGID_00000007413950345827315900000008925773131231906979_" d="M1294.06,963.98c7.39,7.39,20.14,10.68,41.35,10.68
				c21.26,0,34.02-3.27,41.37-10.6c0.01-0.01,0.03-0.02,0.04-0.04l-41.41-41.4L1294.06,963.98z"/>
		</defs>
		<clipPath id="SVGID_00000143595999533141855540000014988997290497167268_">
			<use xlink:href="#SVGID_00000007413950345827315900000008925773131231906979_"  style="overflow:visible;"/>
		</clipPath>
		
			<linearGradient id="SVGID_00000116935838058031346470000011073325193729162143_" gradientUnits="userSpaceOnUse" x1="1.348827e-05" y1="1024" x2="1" y2="1024" gradientTransform="matrix(0 52.0381 52.0381 0 -51951.5898 922.6263)">
			<stop  offset="0" style="stop-color:#BFDA93"/>
			<stop  offset="0.999" style="stop-color:#96C255"/>
			<stop  offset="1" style="stop-color:#96C255"/>
		</linearGradient>
		
			<rect x="1294.06" y="922.63" style="clip-path:url(#SVGID_00000143595999533141855540000014988997290497167268_);fill:url(#SVGID_00000116935838058031346470000011073325193729162143_);" width="82.76" height="52.04"/>
	</g>
	<g>
		<defs>
			<path id="SVGID_00000165198008913496700490000009995198903335015329_" d="M1294.01,881.22l41.4,41.41l41.46-41.46
				c-7.32-7.32-20.1-10.58-41.46-10.58C1314.15,870.59,1301.37,873.87,1294.01,881.22"/>
		</defs>
		<clipPath id="SVGID_00000134210690097378818040000001235158597628659110_">
			<use xlink:href="#SVGID_00000165198008913496700490000009995198903335015329_"  style="overflow:visible;"/>
		</clipPath>
		
			<linearGradient id="SVGID_00000075131384782952437940000015741649336543095436_" gradientUnits="userSpaceOnUse" x1="1.319508e-05" y1="1024" x2="1" y2="1024" gradientTransform="matrix(0 52.038 52.038 0 -51951.4492 870.5883)">
			<stop  offset="0" style="stop-color:#BFDA93"/>
			<stop  offset="0.999" style="stop-color:#96C255"/>
			<stop  offset="1" style="stop-color:#96C255"/>
		</linearGradient>
		
			<rect x="1294.01" y="870.59" style="clip-path:url(#SVGID_00000134210690097378818040000001235158597628659110_);fill:url(#SVGID_00000075131384782952437940000015741649336543095436_);" width="82.86" height="52.04"/>
	</g>
	<g>
		<defs>
			<path id="SVGID_00000124160057879229269630000002223627088018715560_" d="M1335.42,922.63l41.41,41.4
				c7.35-7.36,10.63-20.13,10.63-41.4c0-21.35-3.26-34.14-10.58-41.46L1335.42,922.63z"/>
		</defs>
		<clipPath id="SVGID_00000147927058376449604090000009156394401329856401_">
			<use xlink:href="#SVGID_00000124160057879229269630000002223627088018715560_"  style="overflow:visible;"/>
		</clipPath>
		
			<linearGradient id="SVGID_00000121991231232173307780000005219150743731436433_" gradientUnits="userSpaceOnUse" x1="-1.473184e-06" y1="1024" x2="1" y2="1024" gradientTransform="matrix(0 82.8615 82.8615 0 -83488.7422 881.1701)">
			<stop  offset="0" style="stop-color:#BFDA93"/>
			<stop  offset="0.999" style="stop-color:#96C255"/>
			<stop  offset="1" style="stop-color:#96C255"/>
		</linearGradient>
		
			<rect x="1335.42" y="881.17" style="clip-path:url(#SVGID_00000147927058376449604090000009156394401329856401_);fill:url(#SVGID_00000121991231232173307780000005219150743731436433_);" width="52.04" height="82.86"/>
	</g>
	<g>
		<path class="st7" d="M1335.42,973.05c-20.75,0-33.15-3.15-40.21-10.21c-7.06-7.06-10.21-19.46-10.21-40.21
			c0-20.8,3.12-33.2,10.12-40.23c7.03-7.05,19.45-10.19,40.3-10.19c20.89,0,33.32,3.12,40.31,10.11
			c6.99,6.99,10.11,19.42,10.11,40.31c0,20.84-3.14,33.27-10.19,40.3C1368.62,969.92,1356.22,973.05,1335.42,973.05"/>
	</g>
	<g>
		<defs>
			<path id="SVGID_00000082363330770158710700000014472586135276804016_" d="M1296.27,883.54c-6.67,6.7-9.65,18.75-9.65,39.09
				c0,20.29,3,32.33,9.74,39.07l39.07-39.07l-39.12-39.12C1296.29,883.52,1296.28,883.53,1296.27,883.54"/>
		</defs>
		<clipPath id="SVGID_00000079454855391828492950000008540782789901871746_">
			<use xlink:href="#SVGID_00000082363330770158710700000014472586135276804016_"  style="overflow:visible;"/>
		</clipPath>
		
			<linearGradient id="SVGID_00000029745153454830150380000001827192004500653733_" gradientUnits="userSpaceOnUse" x1="-1.170984e-06" y1="1024" x2="1" y2="1024" gradientTransform="matrix(0 78.1845 78.1845 0 -78749.875 883.5091)">
			<stop  offset="0" style="stop-color:#D3E5B5"/>
			<stop  offset="0.9962" style="stop-color:#AACE73"/>
			<stop  offset="1" style="stop-color:#AACE73"/>
		</linearGradient>
		
			<rect x="1286.62" y="883.51" style="clip-path:url(#SVGID_00000079454855391828492950000008540782789901871746_);fill:url(#SVGID_00000029745153454830150380000001827192004500653733_);" width="48.8" height="78.18"/>
	</g>
	<g>
		<defs>
			<path id="SVGID_00000106131585322296397760000016549340128868789664_" d="M1296.35,961.69c6.73,6.73,18.78,9.73,39.07,9.73
				c20.33,0,32.39-2.98,39.09-9.65c0.01-0.01,0.02-0.02,0.03-0.03l-39.12-39.12L1296.35,961.69z"/>
		</defs>
		<clipPath id="SVGID_00000036947178634915793180000016910181824034906770_">
			<use xlink:href="#SVGID_00000106131585322296397760000016549340128868789664_"  style="overflow:visible;"/>
		</clipPath>
		
			<linearGradient id="SVGID_00000021807008024693347260000005190840041585504391_" gradientUnits="userSpaceOnUse" x1="1.453899e-05" y1="1024" x2="1" y2="1024" gradientTransform="matrix(0 48.8021 48.8021 0 -48637.9414 922.6263)">
			<stop  offset="0" style="stop-color:#D3E5B5"/>
			<stop  offset="0.9962" style="stop-color:#AACE73"/>
			<stop  offset="1" style="stop-color:#AACE73"/>
		</linearGradient>
		
			<rect x="1296.35" y="922.63" style="clip-path:url(#SVGID_00000036947178634915793180000016910181824034906770_);fill:url(#SVGID_00000021807008024693347260000005190840041585504391_);" width="78.19" height="48.8"/>
	</g>
	<g>
		<defs>
			<path id="SVGID_00000122707349176579367400000010059785227211538350_" d="M1296.3,883.51l39.12,39.12l39.17-39.17
				c-6.66-6.66-18.74-9.64-39.17-9.64C1315.07,873.82,1303.01,876.81,1296.3,883.51"/>
		</defs>
		<clipPath id="SVGID_00000072245612490193820660000004459931201737609102_">
			<use xlink:href="#SVGID_00000122707349176579367400000010059785227211538350_"  style="overflow:visible;"/>
		</clipPath>
		
			<linearGradient id="SVGID_00000142176511659313753810000004436164660231891624_" gradientUnits="userSpaceOnUse" x1="-5.628009e-06" y1="1024" x2="1" y2="1024" gradientTransform="matrix(0 48.802 48.802 0 -48637.8281 873.8243)">
			<stop  offset="0" style="stop-color:#D3E5B5"/>
			<stop  offset="0.9962" style="stop-color:#AACE73"/>
			<stop  offset="1" style="stop-color:#AACE73"/>
		</linearGradient>
		
			<rect x="1296.3" y="873.82" style="clip-path:url(#SVGID_00000072245612490193820660000004459931201737609102_);fill:url(#SVGID_00000142176511659313753810000004436164660231891624_);" width="78.29" height="48.8"/>
	</g>
	<g>
		<defs>
			<path id="SVGID_00000148654246542445238510000016620118590070645906_" d="M1335.42,922.63l39.12,39.12
				c6.7-6.7,9.69-18.77,9.69-39.12c0-20.43-2.97-32.51-9.64-39.17L1335.42,922.63z"/>
		</defs>
		<clipPath id="SVGID_00000136398758580387566530000005515297944422197642_">
			<use xlink:href="#SVGID_00000148654246542445238510000016620118590070645906_"  style="overflow:visible;"/>
		</clipPath>
		
			<linearGradient id="SVGID_00000011023315722932339920000016612610903394100885_" gradientUnits="userSpaceOnUse" x1="7.406695e-06" y1="1024" x2="1" y2="1024" gradientTransform="matrix(0 78.2851 78.2851 0 -78804.1406 883.4584)">
			<stop  offset="0" style="stop-color:#D3E5B5"/>
			<stop  offset="0.9962" style="stop-color:#AACE73"/>
			<stop  offset="1" style="stop-color:#AACE73"/>
		</linearGradient>
		
			<rect x="1335.42" y="883.46" style="clip-path:url(#SVGID_00000136398758580387566530000005515297944422197642_);fill:url(#SVGID_00000011023315722932339920000016612610903394100885_);" width="48.8" height="78.28"/>
	</g>
	<g>
		<defs>
			<path id="SVGID_00000021817224671021530850000010491535121505192329_" d="M1297.42,884.68c-6.35,6.37-9.18,18.07-9.18,37.94
				c0,19.82,2.86,31.52,9.26,37.92l37.92-37.92l-37.97-37.97C1297.44,884.66,1297.43,884.67,1297.42,884.68"/>
		</defs>
		<clipPath id="SVGID_00000060032519098723987810000007902358765865791679_">
			<use xlink:href="#SVGID_00000021817224671021530850000010491535121505192329_"  style="overflow:visible;"/>
		</clipPath>
		
			<linearGradient id="SVGID_00000092455881224459453900000002352843563645966014_" gradientUnits="userSpaceOnUse" x1="-1.608382e-06" y1="1024" x2="1" y2="1024" gradientTransform="matrix(0 75.8964 75.8964 0 -76406.0391 884.6531)">
			<stop  offset="0" style="stop-color:#E8F2D9"/>
			<stop  offset="0.9962" style="stop-color:#BFDA93"/>
			<stop  offset="1" style="stop-color:#BFDA93"/>
		</linearGradient>
		
			<rect x="1288.23" y="884.65" style="clip-path:url(#SVGID_00000060032519098723987810000007902358765865791679_);fill:url(#SVGID_00000092455881224459453900000002352843563645966014_);" width="47.18" height="75.9"/>
	</g>
	<g>
		<defs>
			<path id="SVGID_00000150079497741475484650000004378482335203359107_" d="M1297.5,960.55c6.4,6.4,18.1,9.26,37.92,9.26
				c19.87,0,31.57-2.83,37.94-9.18c0.01-0.01,0.02-0.02,0.03-0.03l-37.97-37.97L1297.5,960.55z"/>
		</defs>
		<clipPath id="SVGID_00000181055328218359590120000003019347803161801628_">
			<use xlink:href="#SVGID_00000150079497741475484650000004378482335203359107_"  style="overflow:visible;"/>
		</clipPath>
		
			<linearGradient id="SVGID_00000129188520241804656480000006790173956179516807_" gradientUnits="userSpaceOnUse" x1="1.487585e-05" y1="1024" x2="1" y2="1024" gradientTransform="matrix(0 47.1842 47.1842 0 -46981.1328 922.6263)">
			<stop  offset="0" style="stop-color:#E8F2D9"/>
			<stop  offset="0.9962" style="stop-color:#BFDA93"/>
			<stop  offset="1" style="stop-color:#BFDA93"/>
		</linearGradient>
		
			<rect x="1297.5" y="922.63" style="clip-path:url(#SVGID_00000181055328218359590120000003019347803161801628_);fill:url(#SVGID_00000129188520241804656480000006790173956179516807_);" width="75.9" height="47.18"/>
	</g>
	<g>
		<defs>
			<path id="SVGID_00000170248167049756204950000016190201454117380737_" d="M1297.45,884.65l37.97,37.97l38.02-38.02
				c-6.33-6.34-18.06-9.16-38.02-9.16C1315.54,875.44,1303.82,878.28,1297.45,884.65"/>
		</defs>
		<clipPath id="SVGID_00000049908632207366097480000017586543624948515978_">
			<use xlink:href="#SVGID_00000170248167049756204950000016190201454117380737_"  style="overflow:visible;"/>
		</clipPath>
		
			<linearGradient id="SVGID_00000040551735162144546860000003536958123214075265_" gradientUnits="userSpaceOnUse" x1="-5.174220e-06" y1="1024" x2="1" y2="1024" gradientTransform="matrix(0 47.184 47.184 0 -46981.0195 875.4423)">
			<stop  offset="0" style="stop-color:#E8F2D9"/>
			<stop  offset="0.9962" style="stop-color:#BFDA93"/>
			<stop  offset="1" style="stop-color:#BFDA93"/>
		</linearGradient>
		
			<rect x="1297.45" y="875.44" style="clip-path:url(#SVGID_00000049908632207366097480000017586543624948515978_);fill:url(#SVGID_00000040551735162144546860000003536958123214075265_);" width="76" height="47.18"/>
	</g>
	<g>
		<defs>
			<path id="SVGID_00000178191922279405039570000011652762438424484272_" d="M1335.42,922.63l37.97,37.97
				c6.37-6.38,9.21-18.09,9.21-37.97c0-19.96-2.83-31.69-9.16-38.02L1335.42,922.63z"/>
		</defs>
		<clipPath id="SVGID_00000034070147819288686610000009530329386143379645_">
			<use xlink:href="#SVGID_00000178191922279405039570000011652762438424484272_"  style="overflow:visible;"/>
		</clipPath>
		
			<linearGradient id="SVGID_00000095314197765366318990000009819754472381428908_" gradientUnits="userSpaceOnUse" x1="5.220326e-06" y1="1024" x2="1" y2="1024" gradientTransform="matrix(0 75.9969 75.9969 0 -76461.8125 884.6026)">
			<stop  offset="0" style="stop-color:#E8F2D9"/>
			<stop  offset="0.9962" style="stop-color:#BFDA93"/>
			<stop  offset="1" style="stop-color:#BFDA93"/>
		</linearGradient>
		
			<rect x="1335.42" y="884.6" style="clip-path:url(#SVGID_00000034070147819288686610000009530329386143379645_);fill:url(#SVGID_00000095314197765366318990000009819754472381428908_);" width="47.18" height="76"/>
	</g>
	<g>
		<defs>
			<path id="SVGID_00000013180978129270945880000000049254362183924357_" d="M1298.56,885.83c-6.02,6.04-8.71,17.39-8.71,36.8
				c0,19.36,2.71,30.7,8.79,36.78l36.78-36.78l-36.83-36.83C1298.58,885.81,1298.57,885.82,1298.56,885.83"/>
		</defs>
		<clipPath id="SVGID_00000137131838040448285190000001749981401475988610_">
			<use xlink:href="#SVGID_00000013180978129270945880000000049254362183924357_"  style="overflow:visible;"/>
		</clipPath>
		
			<linearGradient id="SVGID_00000127037840304517901660000006502945275583799223_" gradientUnits="userSpaceOnUse" x1="-2.280270e-06" y1="1024" x2="1" y2="1024" gradientTransform="matrix(0 73.6083 73.6083 0 -74062.2422 885.7972)">
			<stop  offset="0" style="stop-color:#E8F2D9"/>
			<stop  offset="1" style="stop-color:#BFDA93"/>
		</linearGradient>
		
			<rect x="1289.85" y="885.8" style="clip-path:url(#SVGID_00000137131838040448285190000001749981401475988610_);fill:url(#SVGID_00000127037840304517901660000006502945275583799223_);" width="45.57" height="73.61"/>
	</g>
	<g>
		<defs>
			<path id="SVGID_00000175301142430587514080000012978175763144732323_" d="M1298.64,959.41c6.07,6.08,17.42,8.79,36.78,8.79
				c19.41,0,30.76-2.69,36.8-8.71c0.01-0.01,0.02-0.02,0.03-0.03l-36.83-36.83L1298.64,959.41z"/>
		</defs>
		<clipPath id="SVGID_00000064329951494361783610000006339531715753238176_">
			<use xlink:href="#SVGID_00000175301142430587514080000012978175763144732323_"  style="overflow:visible;"/>
		</clipPath>
		
			<linearGradient id="SVGID_00000016064792644414625920000003407456295363252615_" gradientUnits="userSpaceOnUse" x1="1.523663e-05" y1="1024" x2="1" y2="1024" gradientTransform="matrix(0 45.5662 45.5662 0 -45324.3203 922.6263)">
			<stop  offset="0" style="stop-color:#E8F2D9"/>
			<stop  offset="1" style="stop-color:#BFDA93"/>
		</linearGradient>
		
			<rect x="1298.64" y="922.63" style="clip-path:url(#SVGID_00000064329951494361783610000006339531715753238176_);fill:url(#SVGID_00000016064792644414625920000003407456295363252615_);" width="73.61" height="45.57"/>
	</g>
	<g>
		<defs>
			<path id="SVGID_00000134209125567460353950000002999295856624488370_" d="M1298.59,885.8l36.83,36.83l36.88-36.88
				c-6.01-6.01-17.38-8.69-36.88-8.69C1316,877.06,1304.64,879.76,1298.59,885.8"/>
		</defs>
		<clipPath id="SVGID_00000144325652690784279600000017964535538784422552_">
			<use xlink:href="#SVGID_00000134209125567460353950000002999295856624488370_"  style="overflow:visible;"/>
		</clipPath>
		
			<linearGradient id="SVGID_00000042014576770542376750000017933690977072301955_" gradientUnits="userSpaceOnUse" x1="1.707846e-05" y1="1024" x2="1" y2="1024" gradientTransform="matrix(0 45.5661 45.5661 0 -45324.207 877.0602)">
			<stop  offset="0" style="stop-color:#E8F2D9"/>
			<stop  offset="1" style="stop-color:#BFDA93"/>
		</linearGradient>
		
			<rect x="1298.59" y="877.06" style="clip-path:url(#SVGID_00000144325652690784279600000017964535538784422552_);fill:url(#SVGID_00000042014576770542376750000017933690977072301955_);" width="73.71" height="45.57"/>
	</g>
	<g>
		<defs>
			<path id="SVGID_00000054966906691676310170000004108519823880429720_" d="M1335.42,922.63l36.83,36.83
				c6.04-6.05,8.74-17.41,8.74-36.83c0-19.5-2.68-30.87-8.69-36.88L1335.42,922.63z"/>
		</defs>
		<clipPath id="SVGID_00000104683887278835498880000001127438077673824392_">
			<use xlink:href="#SVGID_00000054966906691676310170000004108519823880429720_"  style="overflow:visible;"/>
		</clipPath>
		
			<linearGradient id="SVGID_00000083789134733314485820000010302520329437123508_" gradientUnits="userSpaceOnUse" x1="4.761332e-06" y1="1024" x2="1" y2="1024" gradientTransform="matrix(0 73.7088 73.7088 0 -74119.625 885.7466)">
			<stop  offset="0" style="stop-color:#E8F2D9"/>
			<stop  offset="1" style="stop-color:#BFDA93"/>
		</linearGradient>
		
			<rect x="1335.42" y="885.75" style="clip-path:url(#SVGID_00000104683887278835498880000001127438077673824392_);fill:url(#SVGID_00000083789134733314485820000010302520329437123508_);" width="45.57" height="73.71"/>
	</g>
	<g>
		<g class="st20">
			<g>
				<defs>
					<rect id="SVGID_00000023244651833960269190000013664369843638927260_" x="1290.32" y="909.86" width="90.67" height="58.34"/>
				</defs>
				<clipPath id="SVGID_00000016072265415780591230000002927778532207628704_">
					<use xlink:href="#SVGID_00000023244651833960269190000013664369843638927260_"  style="overflow:visible;"/>
				</clipPath>
				<g style="clip-path:url(#SVGID_00000016072265415780591230000002927778532207628704_);">
					<defs>
						<path id="SVGID_00000098197790433016553990000018117696260860042887_" d="M1290.32,935.11c1.01,11.97,3.69,19.66,8.32,24.29v0
							c6.08,6.08,17.42,8.79,36.78,8.79c19.41,0,30.76-2.68,36.8-8.71c0.01-0.01,0.02-0.02,0.03-0.03
							c6.04-6.05,8.74-17.41,8.74-36.83c0-4.72-0.16-8.96-0.48-12.77L1290.32,935.11z"/>
					</defs>
					<clipPath id="SVGID_00000091706465546367450870000006962840836783830456_">
						<use xlink:href="#SVGID_00000098197790433016553990000018117696260860042887_"  style="overflow:visible;"/>
					</clipPath>
					
						<linearGradient id="SVGID_00000032634781972813715300000017674772383204113557_" gradientUnits="userSpaceOnUse" x1="0" y1="1024" x2="1" y2="1024" gradientTransform="matrix(0 91.1322 91.1322 0 -91983.7344 877.0602)">
						<stop  offset="0" style="stop-color:#E8F2D9"/>
						<stop  offset="1" style="stop-color:#D3E5B5"/>
					</linearGradient>
					
						<rect x="1290.32" y="909.86" style="clip-path:url(#SVGID_00000091706465546367450870000006962840836783830456_);fill:url(#SVGID_00000032634781972813715300000017674772383204113557_);" width="90.66" height="58.34"/>
				</g>
			</g>
		</g>
		<g class="st23">
			<g>
				<defs>
					<rect id="SVGID_00000135682093443230089310000012773483552917862073_" x="1289.85" y="877.06" width="90.65" height="58.05"/>
				</defs>
				<clipPath id="SVGID_00000003078709375694517130000007465883897396894611_">
					<use xlink:href="#SVGID_00000135682093443230089310000012773483552917862073_"  style="overflow:visible;"/>
				</clipPath>
				<g style="clip-path:url(#SVGID_00000003078709375694517130000007465883897396894611_);">
					<defs>
						<path id="SVGID_00000119087082737214106210000007460513268416239273_" d="M1372.3,885.75L1372.3,885.75
							c-6.01-6.01-17.38-8.69-36.88-8.69c-19.42,0-30.78,2.7-36.83,8.74c-0.01,0.01-0.02,0.02-0.03,0.03
							c-6.02,6.04-8.71,17.39-8.71,36.8c0,4.61,0.16,8.75,0.47,12.49l90.18-25.26C1379.49,897.94,1376.85,890.3,1372.3,885.75"/>
					</defs>
					<clipPath id="SVGID_00000054962677312340174320000017856816137896538548_">
						<use xlink:href="#SVGID_00000119087082737214106210000007460513268416239273_"  style="overflow:visible;"/>
					</clipPath>
					
						<linearGradient id="SVGID_00000055675842689405139000000000013406606289803181_" gradientUnits="userSpaceOnUse" x1="-2.511538e-06" y1="1024" x2="1" y2="1024" gradientTransform="matrix(0 91.1321 91.1321 0 -91984.1328 877.0602)">
						<stop  offset="0" style="stop-color:#E8F2D9"/>
						<stop  offset="1" style="stop-color:#D3E5B5"/>
					</linearGradient>
					
						<rect x="1289.85" y="877.06" style="clip-path:url(#SVGID_00000054962677312340174320000017856816137896538548_);fill:url(#SVGID_00000055675842689405139000000000013406606289803181_);" width="90.65" height="58.05"/>
				</g>
			</g>
		</g>
		<defs>
			<filter id="Adobe_OpacityMaskFilter" filterUnits="userSpaceOnUse" x="1282.76" y="948.68" width="17.32" height="17.32">
				<feFlood  style="flood-color:white;flood-opacity:1" result="back"/>
				<feBlend  in="SourceGraphic" in2="back" mode="normal"/>
			</filter>
		</defs>
		
			<mask maskUnits="userSpaceOnUse" x="1282.76" y="948.68" width="17.32" height="17.32" id="SVGID_00000084514307098861210050000002683121730975279266_">
			<g class="st26">
				<g class="st27">
					<g>
						<defs>
							<path id="SVGID_00000079458990023060914140000011244639913806168732_" d="M1300.07,957.34c0,4.78-3.88,8.66-8.66,8.66
								s-8.66-3.88-8.66-8.66s3.88-8.66,8.66-8.66S1300.07,952.55,1300.07,957.34"/>
						</defs>
						<clipPath id="SVGID_00000093176528788156850070000005750191303258311086_">
							<use xlink:href="#SVGID_00000079458990023060914140000011244639913806168732_"  style="overflow:visible;"/>
						</clipPath>
						<defs>
							
								<filter id="Adobe_OpacityMaskFilter_00000070107566860111693240000010332050806287691191_" filterUnits="userSpaceOnUse" x="1282.76" y="948.68" width="17.32" height="17.32">
								<feFlood  style="flood-color:white;flood-opacity:1" result="back"/>
								<feBlend  in="SourceGraphic" in2="back" mode="normal"/>
							</filter>
						</defs>
						
							<mask maskUnits="userSpaceOnUse" x="1282.76" y="948.68" width="17.32" height="17.32" id="SVGID_00000084514307098861210050000002683121730975279266_">
							<g style="filter:url(#Adobe_OpacityMaskFilter_00000070107566860111693240000010332050806287691191_);">
								<g class="st27">
								</g>
							</g>
						</mask>
						
							<radialGradient id="SVGID_00000158010672588898921930000016250318452072286120_" cx="-4.934263e-05" cy="1023.9999" r="1" gradientTransform="matrix(8.6588 0 0 -8.6588 1291.417 9823.9092)" gradientUnits="userSpaceOnUse">
							<stop  offset="0" style="stop-color:#FFFFFF"/>
							<stop  offset="0" style="stop-color:#FFFFFF"/>
							<stop  offset="1" style="stop-color:#231F20"/>
						</radialGradient>
						
							<rect x="1282.76" y="948.68" style="clip-path:url(#SVGID_00000093176528788156850070000005750191303258311086_);mask:url(#SVGID_00000084514307098861210050000002683121730975279266_);fill:url(#SVGID_00000158010672588898921930000016250318452072286120_);" width="17.32" height="17.32"/>
					</g>
				</g>
			</g>
		</mask>
		<g>
			<g>
				<defs>
					<rect id="SVGID_00000148631992375456552770000013417464008832811696_" x="1282.76" y="948.68" width="17.32" height="17.32"/>
				</defs>
				<clipPath id="SVGID_00000072279899394067376440000012537088069240107168_">
					<use xlink:href="#SVGID_00000148631992375456552770000013417464008832811696_"  style="overflow:visible;"/>
				</clipPath>
				<g style="clip-path:url(#SVGID_00000072279899394067376440000012537088069240107168_);">
					<defs>
						<path id="SVGID_00000135677229309623116400000015247146699886541469_" d="M1300.08,957.34c0,4.78-3.88,8.66-8.66,8.66
							s-8.66-3.88-8.66-8.66s3.88-8.66,8.66-8.66S1300.08,952.55,1300.08,957.34"/>
					</defs>
					<clipPath id="SVGID_00000082348368168910438310000013982743155185256117_">
						<use xlink:href="#SVGID_00000135677229309623116400000015247146699886541469_"  style="overflow:visible;"/>
					</clipPath>
					
						<radialGradient id="SVGID_00000107566550821064166740000007452702275918460297_" cx="2.819579e-05" cy="1024" r="1" gradientTransform="matrix(8.6588 0 0 -8.6588 1291.4169 9823.9092)" gradientUnits="userSpaceOnUse">
						<stop  offset="0" style="stop-color:#231F20"/>
						<stop  offset="0" style="stop-color:#FFFFFF"/>
						<stop  offset="1" style="stop-color:#FFFFFF"/>
					</radialGradient>
					
						<rect x="1282.76" y="948.68" style="clip-path:url(#SVGID_00000082348368168910438310000013982743155185256117_);fill:url(#SVGID_00000107566550821064166740000007452702275918460297_);" width="17.32" height="17.32"/>
				</g>
			</g>
		</g>
		<path class="st32" d="M1292.28,957.99c1.6,0.4,3.2,0.79,4.81,1.15c1.94,0.43,3.88,0.84,5.84,1.17c-1.88-0.66-3.77-1.24-5.67-1.8
			c-1.6-0.47-3.21-0.91-4.82-1.33c0.74-0.45,1.47-0.91,2.19-1.38c1.2-0.78,2.38-1.58,3.52-2.45c-1.32,0.57-2.59,1.22-3.85,1.89
			c-0.75,0.4-1.49,0.81-2.22,1.23c0.4-1.59,0.79-3.19,1.15-4.79c0.43-1.94,0.84-3.88,1.17-5.84c-0.66,1.88-1.24,3.77-1.8,5.68
			c-0.46,1.58-0.9,3.18-1.32,4.77c-0.56-0.94-1.14-1.86-1.74-2.78c-0.78-1.2-1.58-2.38-2.45-3.52c0.58,1.32,1.22,2.59,1.89,3.85
			c0.52,0.97,1.05,1.92,1.59,2.87c-1.6-0.41-3.2-0.79-4.81-1.15c-1.94-0.43-3.88-0.84-5.84-1.17c1.88,0.66,3.77,1.24,5.67,1.8
			c1.57,0.46,3.15,0.89,4.73,1.31c-1.14,0.68-2.27,1.37-3.38,2.1c-1.2,0.78-2.38,1.58-3.52,2.45c1.32-0.58,2.59-1.22,3.85-1.89
			c1.18-0.63,2.35-1.29,3.51-1.97c-0.41,1.61-0.8,3.22-1.16,4.84c-0.43,1.93-0.84,3.88-1.17,5.84c0.66-1.88,1.24-3.77,1.8-5.67
			c0.46-1.58,0.9-3.17,1.32-4.77c0.56,0.94,1.14,1.86,1.74,2.78c0.78,1.2,1.58,2.38,2.46,3.52c-0.57-1.32-1.22-2.59-1.89-3.85
			C1293.36,959.89,1292.83,958.93,1292.28,957.99"/>
		<defs>
			
				<filter id="Adobe_OpacityMaskFilter_00000005242690492008710850000005138190068322424499_" filterUnits="userSpaceOnUse" x="1367.56" y="959.12" width="14.19" height="14.19">
				<feFlood  style="flood-color:white;flood-opacity:1" result="back"/>
				<feBlend  in="SourceGraphic" in2="back" mode="normal"/>
			</filter>
		</defs>
		
			<mask maskUnits="userSpaceOnUse" x="1367.56" y="959.12" width="14.19" height="14.19" id="SVGID_00000173126717053358016060000017182808320561227672_">
			<g style="filter:url(#Adobe_OpacityMaskFilter_00000005242690492008710850000005138190068322424499_);">
				<g class="st27">
					<g>
						<defs>
							<path id="SVGID_00000101077134426005480800000007092508757419930299_" d="M1381.75,966.22c0,3.92-3.18,7.09-7.09,7.09
								c-3.92,0-7.09-3.17-7.09-7.09c0-3.92,3.18-7.09,7.09-7.09C1378.57,959.12,1381.75,962.3,1381.75,966.22"/>
						</defs>
						<clipPath id="SVGID_00000183212970092809061560000006969047999164250242_">
							<use xlink:href="#SVGID_00000101077134426005480800000007092508757419930299_"  style="overflow:visible;"/>
						</clipPath>
						<defs>
							
								<filter id="Adobe_OpacityMaskFilter_00000029040713770951457370000014438998347657324441_" filterUnits="userSpaceOnUse" x="1367.56" y="959.12" width="14.19" height="14.19">
								<feFlood  style="flood-color:white;flood-opacity:1" result="back"/>
								<feBlend  in="SourceGraphic" in2="back" mode="normal"/>
							</filter>
						</defs>
						
							<mask maskUnits="userSpaceOnUse" x="1367.56" y="959.12" width="14.19" height="14.19" id="SVGID_00000173126717053358016060000017182808320561227672_">
							<g style="filter:url(#Adobe_OpacityMaskFilter_00000029040713770951457370000014438998347657324441_);">
								<g class="st27">
								</g>
							</g>
						</mask>
						
							<radialGradient id="SVGID_00000093136587150096763960000008143921195222979478_" cx="3.441270e-05" cy="1024.0001" r="0.9999" gradientTransform="matrix(7.0945 0 0 -7.0945 1374.6558 8230.9795)" gradientUnits="userSpaceOnUse">
							<stop  offset="0" style="stop-color:#FFFFFF"/>
							<stop  offset="0" style="stop-color:#FFFFFF"/>
							<stop  offset="1" style="stop-color:#231F20"/>
						</radialGradient>
						
							<rect x="1367.56" y="959.12" style="clip-path:url(#SVGID_00000183212970092809061560000006969047999164250242_);mask:url(#SVGID_00000173126717053358016060000017182808320561227672_);fill:url(#SVGID_00000093136587150096763960000008143921195222979478_);" width="14.19" height="14.19"/>
					</g>
				</g>
			</g>
		</mask>
		<g>
			<g>
				<defs>
					<rect id="SVGID_00000017507490423307128980000002029209102678500502_" x="1367.56" y="959.12" width="14.19" height="14.19"/>
				</defs>
				<clipPath id="SVGID_00000049220817554642477170000002036933022966375830_">
					<use xlink:href="#SVGID_00000017507490423307128980000002029209102678500502_"  style="overflow:visible;"/>
				</clipPath>
				<g style="clip-path:url(#SVGID_00000049220817554642477170000002036933022966375830_);">
					<defs>
						<path id="SVGID_00000093861432355809618470000002891598138126569383_" d="M1381.75,966.22c0,3.92-3.18,7.09-7.09,7.09
							c-3.92,0-7.09-3.18-7.09-7.09c0-3.92,3.18-7.09,7.09-7.09C1378.57,959.12,1381.75,962.3,1381.75,966.22"/>
					</defs>
					<clipPath id="SVGID_00000061472979869955753100000007005358663004477582_">
						<use xlink:href="#SVGID_00000093861432355809618470000002891598138126569383_"  style="overflow:visible;"/>
					</clipPath>
					
						<radialGradient id="SVGID_00000183949403024142962860000005592080949498550712_" cx="-8.603174e-06" cy="1024" r="1" gradientTransform="matrix(7.0945 0 0 -7.0945 1374.6565 8230.9795)" gradientUnits="userSpaceOnUse">
						<stop  offset="0" style="stop-color:#231F20"/>
						<stop  offset="0" style="stop-color:#FFFFFF"/>
						<stop  offset="1" style="stop-color:#FFFFFF"/>
					</radialGradient>
					
						<rect x="1367.56" y="959.12" style="clip-path:url(#SVGID_00000061472979869955753100000007005358663004477582_);fill:url(#SVGID_00000183949403024142962860000005592080949498550712_);" width="14.19" height="14.19"/>
				</g>
			</g>
		</g>
		<path class="st32" d="M1375.43,966.24c1.1-0.42,2.2-0.85,3.29-1.3c1.31-0.54,2.61-1.1,3.9-1.72c-1.37,0.38-2.72,0.82-4.06,1.28
			c-1.13,0.39-2.25,0.79-3.37,1.2c0.25-0.57,0.48-1.13,0.72-1.71c0.38-0.95,0.74-1.9,1.05-2.88c-0.53,0.88-1.01,1.78-1.48,2.69
			c-0.27,0.54-0.54,1.09-0.8,1.63c-0.42-1.1-0.85-2.19-1.3-3.28c-0.54-1.31-1.1-2.61-1.72-3.9c0.38,1.37,0.82,2.72,1.28,4.06
			c0.38,1.12,0.78,2.23,1.19,3.33c-0.71-0.31-1.44-0.62-2.16-0.91c-0.95-0.38-1.9-0.74-2.88-1.05c0.88,0.53,1.78,1.01,2.69,1.48
			c0.7,0.35,1.4,0.69,2.11,1.02c-1.1,0.42-2.2,0.85-3.29,1.3c-1.31,0.54-2.62,1.1-3.9,1.72c1.37-0.38,2.72-0.82,4.06-1.28
			c1.11-0.38,2.21-0.77,3.31-1.18c-0.39,0.86-0.76,1.74-1.12,2.62c-0.38,0.95-0.74,1.9-1.05,2.88c0.53-0.88,1.01-1.78,1.48-2.69
			c0.43-0.86,0.85-1.72,1.25-2.6c0.42,1.11,0.86,2.21,1.31,3.31c0.54,1.31,1.1,2.61,1.72,3.9c-0.38-1.37-0.82-2.72-1.28-4.06
			c-0.38-1.12-0.78-2.23-1.19-3.33c0.71,0.32,1.44,0.62,2.16,0.91c0.95,0.38,1.9,0.74,2.88,1.05c-0.88-0.54-1.78-1.01-2.69-1.48
			C1376.84,966.91,1376.14,966.57,1375.43,966.24"/>
		<defs>
			
				<filter id="Adobe_OpacityMaskFilter_00000093176227054384619600000001421267038255795107_" filterUnits="userSpaceOnUse" x="1373.45" y="876.25" width="9.78" height="9.78">
				<feFlood  style="flood-color:white;flood-opacity:1" result="back"/>
				<feBlend  in="SourceGraphic" in2="back" mode="normal"/>
			</filter>
		</defs>
		
			<mask maskUnits="userSpaceOnUse" x="1373.45" y="876.25" width="9.78" height="9.78" id="SVGID_00000067916971819740002390000004032792547543504047_">
			<g style="filter:url(#Adobe_OpacityMaskFilter_00000093176227054384619600000001421267038255795107_);">
				<g class="st27">
					<g>
						<defs>
							<path id="SVGID_00000153702725886081096920000011184626224272152240_" d="M1383.23,881.14c0,2.7-2.19,4.89-4.89,4.89
								c-2.7,0-4.89-2.19-4.89-4.89c0-2.7,2.19-4.89,4.89-4.89C1381.04,876.25,1383.23,878.44,1383.23,881.14"/>
						</defs>
						<clipPath id="SVGID_00000072993883466614258180000001250991705970025392_">
							<use xlink:href="#SVGID_00000153702725886081096920000011184626224272152240_"  style="overflow:visible;"/>
						</clipPath>
						<defs>
							
								<filter id="Adobe_OpacityMaskFilter_00000044144928099704135150000013043674127408010905_" filterUnits="userSpaceOnUse" x="1373.45" y="876.25" width="9.78" height="9.78">
								<feFlood  style="flood-color:white;flood-opacity:1" result="back"/>
								<feBlend  in="SourceGraphic" in2="back" mode="normal"/>
							</filter>
						</defs>
						
							<mask maskUnits="userSpaceOnUse" x="1373.45" y="876.25" width="9.78" height="9.78" id="SVGID_00000067916971819740002390000004032792547543504047_">
							<g style="filter:url(#Adobe_OpacityMaskFilter_00000044144928099704135150000013043674127408010905_);">
								<g class="st27">
								</g>
							</g>
						</mask>
						
							<radialGradient id="SVGID_00000065042012616294198500000004127843498555468188_" cx="-7.486285e-05" cy="1024" r="0.9999" gradientTransform="matrix(4.8918 0 0 -4.8918 1378.3379 5890.2998)" gradientUnits="userSpaceOnUse">
							<stop  offset="0" style="stop-color:#FFFFFF"/>
							<stop  offset="0" style="stop-color:#FFFFFF"/>
							<stop  offset="1" style="stop-color:#231F20"/>
						</radialGradient>
						
							<rect x="1373.45" y="876.25" style="clip-path:url(#SVGID_00000072993883466614258180000001250991705970025392_);mask:url(#SVGID_00000067916971819740002390000004032792547543504047_);fill:url(#SVGID_00000065042012616294198500000004127843498555468188_);" width="9.78" height="9.78"/>
					</g>
				</g>
			</g>
		</mask>
		<g>
			<g>
				<defs>
					<rect id="SVGID_00000037665655214019679520000003586670584126836405_" x="1373.45" y="876.25" width="9.78" height="9.78"/>
				</defs>
				<clipPath id="SVGID_00000076597809373408455410000014013179879939101606_">
					<use xlink:href="#SVGID_00000037665655214019679520000003586670584126836405_"  style="overflow:visible;"/>
				</clipPath>
				<g style="clip-path:url(#SVGID_00000076597809373408455410000014013179879939101606_);">
					<defs>
						<path id="SVGID_00000149352545540346044960000013408570671786362510_" d="M1383.23,881.14c0,2.7-2.19,4.89-4.89,4.89
							s-4.89-2.19-4.89-4.89c0-2.7,2.19-4.89,4.89-4.89S1383.23,878.44,1383.23,881.14"/>
					</defs>
					<clipPath id="SVGID_00000182517630045922016530000005963127745123155594_">
						<use xlink:href="#SVGID_00000149352545540346044960000013408570671786362510_"  style="overflow:visible;"/>
					</clipPath>
					
						<radialGradient id="SVGID_00000042010641323600909430000009173320761927176872_" cx="2.495428e-05" cy="1024" r="1" gradientTransform="matrix(4.8918 0 0 -4.8918 1378.3379 5890.2998)" gradientUnits="userSpaceOnUse">
						<stop  offset="0" style="stop-color:#231F20"/>
						<stop  offset="0" style="stop-color:#FFFFFF"/>
						<stop  offset="1" style="stop-color:#FFFFFF"/>
					</radialGradient>
					
						<rect x="1373.45" y="876.25" style="clip-path:url(#SVGID_00000182517630045922016530000005963127745123155594_);fill:url(#SVGID_00000042010641323600909430000009173320761927176872_);" width="9.78" height="9.78"/>
				</g>
			</g>
		</g>
		<path class="st32" d="M1379.03,881.66c0.96,0.32,1.92,0.63,2.89,0.93c1.17,0.35,2.33,0.69,3.52,0.98
			c-1.12-0.49-2.25-0.93-3.39-1.36c-0.96-0.36-1.92-0.7-2.89-1.03c0.47-0.24,0.94-0.49,1.4-0.74c0.77-0.42,1.53-0.86,2.26-1.34
			c-0.83,0.29-1.64,0.63-2.44,0.98c-0.48,0.21-0.95,0.43-1.42,0.65c0.32-0.96,0.63-1.92,0.92-2.88c0.35-1.16,0.69-2.33,0.98-3.52
			c-0.49,1.12-0.93,2.25-1.36,3.39c-0.35,0.95-0.7,1.9-1.03,2.86c-0.3-0.6-0.61-1.19-0.94-1.78c-0.42-0.77-0.86-1.53-1.34-2.26
			c0.29,0.83,0.63,1.64,0.98,2.44c0.27,0.61,0.55,1.22,0.84,1.83c-0.96-0.32-1.93-0.63-2.89-0.92c-1.16-0.35-2.33-0.69-3.52-0.98
			c1.12,0.49,2.25,0.93,3.39,1.36c0.94,0.35,1.89,0.69,2.84,1.02c-0.73,0.36-1.45,0.74-2.16,1.13c-0.77,0.42-1.53,0.86-2.26,1.34
			c0.83-0.29,1.64-0.63,2.44-0.98c0.75-0.33,1.5-0.68,2.24-1.04c-0.32,0.97-0.63,1.94-0.93,2.91c-0.35,1.17-0.69,2.33-0.98,3.52
			c0.49-1.12,0.93-2.25,1.36-3.39c0.35-0.95,0.7-1.9,1.03-2.86c0.3,0.6,0.61,1.19,0.94,1.78c0.42,0.77,0.86,1.53,1.34,2.26
			c-0.29-0.83-0.63-1.64-0.98-2.44C1379.6,882.87,1379.32,882.26,1379.03,881.66"/>
		<path class="st2" d="M1352,917.99l-23.87-23.87c-2.57-2.57-6.72-2.57-9.28,0c-2.57,2.57-2.57,6.72,0,9.28l19.24,19.22
			l-19.24,19.22c-2.57,2.57-2.57,6.72,0,9.28c2.57,2.57,6.72,2.57,9.28,0l23.87-23.87C1354.56,924.71,1354.56,920.55,1352,917.99"/>
	</g>
</g>
</svg>
