<?xml version="1.0" encoding="utf-8"?>
<!-- Generator: Adobe Illustrator 27.6.1, SVG Export Plug-In . SVG Version: 6.00 Build 0)  -->
<svg version="1.1" id="Calque_1" xmlns="http://www.w3.org/2000/svg" xmlns:xlink="http://www.w3.org/1999/xlink" x="0px" y="0px"
	 viewBox="0 0 1440 1024" style="enable-background:new 0 0 1440 1024;" xml:space="preserve">
<style type="text/css">
	.st0{opacity:0.37;}
	.st1{clip-path:url(#SVGID_00000141424513392849753390000001718113543462520200_);fill:#1F1525;}
	.st2{fill:#907D61;}
	.st3{fill:#D1B483;}
	.st4{fill:#F0D8B7;}
	.st5{opacity:0.22;}
	.st6{clip-path:url(#SVGID_00000180324288115343418570000008830968153309485957_);fill:#FFFFFF;}
	.st7{fill:#FFFFFF;}
	.st8{fill:#1C3C47;}
	.st9{font-family:'ArogunRegular';}
	.st10{font-size:51.4907px;}
	.st11{letter-spacing:-2;}
</style>
<g>
	<g>
		<g>
			<defs>
				<rect id="SVGID_1_" x="-1127.05" y="-2.52" width="3070.46" height="2302.84"/>
			</defs>
			<clipPath id="SVGID_00000124143287546946283460000004755444281968872639_">
				<use xlink:href="#SVGID_1_"  style="overflow:visible;"/>
			</clipPath>
		</g>
	</g>
	<g>
		<g class="st0">
			<g>
				<defs>
					<rect id="SVGID_00000033343565432500181550000014201231917495250056_" x="598.01" y="832.52" width="250.14" height="80.34"/>
				</defs>
				<clipPath id="SVGID_00000119835854594183888780000014007296270460652707_">
					<use xlink:href="#SVGID_00000033343565432500181550000014201231917495250056_"  style="overflow:visible;"/>
				</clipPath>
				<path style="clip-path:url(#SVGID_00000119835854594183888780000014007296270460652707_);fill:#1F1525;" d="M837.72,836.95
					c-5.88-4.72-16.95-3.57-24.32-3.75c-13.54-0.34-27.08-0.45-40.62-0.53c-33.21-0.21-66.43-0.15-99.64-0.03
					c-12.13,0.04-24.26,0.1-36.39,0.17c-3.74,0.02-8.1,0-12.51,0.33c-10.09,0.76-20.49,3.38-24.48,12.71
					c-3.14,7.34-1.23,17.87-0.42,25.48c1.17,10.93,1.13,26.29,10.2,34.14c4.27,3.69,11.06,3.27,16.51,3.68
					c14.42,1.09,28.89,1.63,43.34,2.11c35.41,1.17,70.88,1.69,106.31,1.36c14.08-0.13,30.43,1.45,44.25-2
					c17.27-4.32,21.59-5.76,23.03-14.39c1.66-9.98,2.68-20.09,3.88-30.13c0.59-4.95,1.77-10.17,1.08-15.12
					C847.04,844.51,842.57,840.84,837.72,836.95"/>
			</g>
		</g>
		<path class="st2" d="M618.08,824.41c-10.09,0.76-20.49,3.38-24.48,12.71c-3.14,7.34-1.23,17.87-0.42,25.48
			c1.17,10.93,1.13,26.29,10.2,34.14c4.27,3.69,11.06,3.27,16.51,3.68c14.42,1.09,28.89,1.63,43.34,2.1
			c35.41,1.17,70.88,1.69,106.31,1.36c14.08-0.13,30.43,1.45,44.25-2c17.27-4.32,21.59-5.76,23.03-14.39
			c1.66-9.98,2.68-20.09,3.88-30.13c0.59-4.95,1.77-10.17,1.08-15.12c-0.9-6.45-5.36-10.12-10.21-14.01
			c-5.88-4.72-16.95-3.57-24.32-3.75c-13.54-0.34-27.08-0.45-40.62-0.53c-33.21-0.21-66.42-0.15-99.64-0.03
			c-12.13,0.05-24.26,0.1-36.39,0.17C626.85,824.1,622.49,824.08,618.08,824.41"/>
		<path class="st3" d="M837.78,850.4c-0.17,1.18-0.34,2.38-0.48,3.54c-0.27,2.26-0.53,4.52-0.8,6.78
			c-0.87,7.64-1.78,15.53-3.07,23.19c-1.03,6.17-2.95,7.24-20.48,11.63c-7.62,1.92-16.15,2.16-22.73,2.16
			c-3.24,0-6.47-0.07-9.68-0.14c-3.14-0.05-6.23-0.12-9.25-0.12h-1.8c-7,0.07-14.03,0.1-21.03,0.1c-22.25,0-45.42-0.33-69.1-0.98
			c-5.31-0.14-10.65-0.31-16.01-0.48c-13.82-0.46-28.53-0.99-43.21-2.09c-0.98-0.09-2-0.12-3.05-0.17
			c-4.35-0.21-8.85-0.41-11.47-2.69c-6.75-5.84-7.72-17.08-8.58-27.01c-0.15-1.7-0.29-3.34-0.46-4.9c-0.1-1.06-0.24-2.19-0.38-3.34
			c-0.8-6.66-1.82-14.95,0.55-20.43c2.72-6.37,9.57-9.74,21.58-10.63c3.75-0.29,7.52-0.31,10.84-0.33h1.44
			c12.13-0.07,24.27-0.14,36.39-0.17c17.47-0.07,34.94-0.12,52.41-0.12c17.07,0,32.51,0.05,47.2,0.14
			c9.88,0.07,19.61,0.15,29.32,0.31c3.75,0.05,7.48,0.14,11.24,0.22c0.7,0.03,1.44,0.03,2.21,0.03c0,0,3.89-0.03,4.71-0.03
			c6.03,0,12.06,0.38,15.35,3c5.12,4.13,8.29,6.97,8.96,11.82C838.84,843.03,838.33,846.61,837.78,850.4"/>
		<path class="st4" d="M606.92,887.66c1.4,1.06,3.13,1.55,4.84,1.96c16.44,3.92,33.69,1.38,50.53,2.81
			c8.52,0.72,16.94,2.46,25.47,3.02c14.95,0.99,29.93-1.65,44.91-1.4c7.35,0.12,14.68,0.94,22.02,1.32
			c23.26,1.19,46.49-2.07,69.56-5.33c2.1-0.3,4.35-0.67,5.84-2.18c1.11-1.13,1.61-2.72,2-4.26c1.62-6.39,2.14-13.06,1.53-19.62
			c-0.09-0.99-0.24-2.06-0.93-2.77c-0.66-0.69-1.67-0.89-2.6-1.07c-8.61-1.58-17.58-3.16-26.02-0.83
			c-4.09,1.12-7.87,3.12-11.79,4.72c-20.08,8.18-42.85,5.6-64.04,1.01c-5.92-1.28-11.92-2.72-17.97-2.36
			c-4.97,0.3-9.79,1.81-14.68,2.73c-10.37,1.96-21.03,1.3-31.56,1.96c-12.47,0.78-24.81,3.42-37.34,3.26
			c-4.5-0.06-9.55,0.08-13.84-1.45c-4.87-1.73-11.46-3.74-11.64,3.45C601.08,877.24,603.13,884.78,606.92,887.66"/>
		<path class="st4" d="M822,827.96c4.17,0.45,8.53,2.18,10.64,5.81c3.18,5.47,2.07,15.67,0.21,21.39c-0.28-3.28-0.57-6.56-0.85-9.84
			c-0.23-2.62-0.47-5.28-1.4-7.74c-1.75-4.59-5.26-8-10.07-8.93c-2.55-0.5-5.14-0.69-7.74-0.64
			C815.81,827.67,818.98,827.64,822,827.96"/>
		<g class="st5">
			<g>
				<defs>
					<rect id="SVGID_00000166658599577459622220000008302064450186461884_" x="595.28" y="824.21" width="200.64" height="72.36"/>
				</defs>
				<clipPath id="SVGID_00000030468590639772465210000018180263575914853807_">
					<use xlink:href="#SVGID_00000166658599577459622220000008302064450186461884_"  style="overflow:visible;"/>
				</clipPath>
				<path style="clip-path:url(#SVGID_00000030468590639772465210000018180263575914853807_);fill:#FFFFFF;" d="M795.92,824.66
					c-14.01,3.37-27.52,8.67-40.42,15.45c-22.64,11.94-42.93,27.86-62.22,44.7c-4.57,3.99-9.13,8.05-13.92,11.77
					c-5.31-0.14-10.65-0.31-16.01-0.48c-13.82-0.46-28.53-0.99-43.21-2.09c-0.98-0.09-2-0.12-3.05-0.17
					c-4.35-0.2-8.85-0.41-11.47-2.69c-6.75-5.84-7.72-17.08-8.58-27.01c-0.15-1.7-0.29-3.34-0.46-4.9c-0.1-1.06-0.24-2.19-0.38-3.34
					c-0.8-6.66-1.81-14.95,0.55-20.43c2.72-6.37,9.57-9.74,21.58-10.64c3.75-0.29,7.52-0.31,10.84-0.33h1.44
					c12.13-0.07,24.27-0.14,36.39-0.17c17.47-0.07,34.94-0.12,52.41-0.12c17.07,0,32.51,0.05,47.2,0.14
					C776.49,824.42,786.21,824.5,795.92,824.66"/>
			</g>
		</g>
		<path class="st7" d="M601.93,860.45c-0.31-7.33,0.51-13.89,2.81-20.88c0.84-2.55-3.25-3.69-4.03-1.11
			c-2.14,7.08-2.04,15.12,0.56,22.08C601.39,860.87,601.94,860.85,601.93,860.45"/>
		<path class="st7" d="M606.69,834.96c2.91,0,2.91-4.52,0-4.52C603.78,830.44,603.78,834.96,606.69,834.96"/>
		<path class="st7" d="M607.79,887.58c-2.22-3.52-4.05-7.11-4.3-11.34c-0.06-0.96-1.58-0.96-1.5,0c0.38,4.45,1.99,8.78,5.63,11.51
			C607.72,887.82,607.85,887.68,607.79,887.58"/>
		<path class="st7" d="M612.67,832.15c17.52,1.08,35.62-1.34,53.12-2.46c17.87-1.15,35.41-1.74,53.3-0.6
			c35.04,2.23,70.25,2.2,105.34,3.03c2.89,0.07,2.9-4.47,0-4.5c-35.62-0.34-71.32-0.11-106.89-2.06
			c-17.37-0.95-34.42-0.13-51.75,1.13c-17.58,1.27-35.9,1.33-53.21,4.81C612.19,831.58,612.31,832.13,612.67,832.15"/>
		<path class="st7" d="M832.12,836.86c0.79-1.93,0.07-4.25-1.18-5.78c-0.68-0.84-2.08-0.59-2.68,0.18c-0.65,0.85-0.42,2.08,0.5,2.63
			c0.64,0.38,1.15,0.8,1.72,1.27c0.63,0.51,0.92,1.07,1.36,1.73C831.93,837.01,832.07,836.98,832.12,836.86"/>
	</g>
	<text transform="matrix(1 0 0 1 652.1953 879.7578)"><tspan x="0" y="0" class="st8 st9 st10">s</tspan><tspan x="25.69" y="0" class="st8 st9 st10 st11">t</tspan><tspan x="47.89" y="0" class="st8 st9 st10">a</tspan><tspan x="76.88" y="0" class="st8 st9 st10">rt</tspan></text>
</g>
</svg>
